<svg id="Group_104" data-name="Group 104" xmlns="http://www.w3.org/2000/svg" width="46.852" height="44.212" viewBox="0 0 46.852 44.212">
  <g id="Polygon_1" data-name="Polygon 1" transform="translate(0 44.212) rotate(-90)" fill="#fff">
    <path d="M 42.48405456542969 37.48928070068359 L 1.727531671524048 37.48928070068359 L 22.10579299926758 2.007872104644775 L 42.48405456542969 37.48928070068359 Z" stroke="none"/>
    <path d="M 22.10579299926758 4.015758514404297 L 3.455070495605469 36.48928070068359 L 40.75651550292969 36.48928070068359 L 22.10579299926758 4.015758514404297 M 22.10579299926758 3.814697265625e-06 L 44.21158218383789 38.48928070068359 L 3.814697265625e-06 38.48928070068359 L 22.10579299926758 3.814697265625e-06 Z" stroke="none" fill="#707070"/>
  </g>
  <g id="Polygon_2" data-name="Polygon 2" transform="translate(16.362 40.212) rotate(-90)" fill="#fff">
    <path d="M 35.33314895629883 29.98944473266602 L 0.8784388899803162 29.98944473266602 L 18.10579299926758 0.9792558550834656 L 35.33314895629883 29.98944473266602 Z" stroke="none"/>
    <path d="M 18.10579299926758 1.958498001098633 L 1.756870269775391 29.48944473266602 L 34.45471572875977 29.48944473266602 L 18.10579299926758 1.958498001098633 M 18.10579299926758 3.814697265625e-06 L 36.21158218383789 30.48944473266602 L 3.814697265625e-06 30.48944473266602 L 18.10579299926758 3.814697265625e-06 Z" stroke="none" fill="#707070"/>
  </g>
</svg>
