<?xml version="1.0" encoding="utf-8"?>
<!-- Generator: Adobe Illustrator 24.0.3, SVG Export Plug-In . SVG Version: 6.00 Build 0)  -->
<svg version="1.1" id="Layer_1" xmlns="http://www.w3.org/2000/svg" xmlns:xlink="http://www.w3.org/1999/xlink" x="0px" y="0px"
	 viewBox="0 0 435.3 288.9" style="enable-background:new 0 0 435.3 288.9;" xml:space="preserve">
<style type="text/css">
	.st0{fill:#6A6D4F;stroke:#6A6D4F;stroke-width:2;stroke-miterlimit:10;}
	.st1{fill:#FFFFFF;}
	.st2{fill:#AFC2D2;}
</style>
<path id="XMLID_9766_" class="st0" d="M404.4,213.3c-0.2-4.4,0.7-10-2.4-13.5c-0.2-9.3-0.7-18.6-1-27.8c-0.2-4.5-0.3-9-0.5-13.5
	c-0.2-4.4-0.8-13.7-0.9-13.7c0.2-0.3,0.3-0.7,0-1.1c-6.2-7.8-18.4-8.9-27.5-10.9c-12.2-2.7-24.5-4.9-36.8-6.6
	c-11.9-1.7-23.9-3-36-3.9c-6.1-0.4-12.2-0.8-18.3-1c-2.5-0.1-11.2-0.6-11.3-0.3c-0.6,2.2,2,6.2-1.4,6.8c-1.5,0.2-0.4,9,0.2,13.2
	c-1.7,0.1-3.3,0.2-5,0.3c0-3.9,0-7.7,0-11.6c0-0.6-8.6,0.2-12.5,0.2c-0.6,0-0.6,9.6-0.4,11.6c-2.7,0-5.4-0.1-8.1-0.2
	c0.1-0.3-9.6-10.8-10.7-12.3c-0.7-1-1.8-2.4-2.4-2.4c-3.5,0.4-7,0.8-10.6,1c-2.7,0.2-5.5-0.1-8.2,0.5c-0.4-3.3-1-6.5-2-9.7
	c-0.9-2.7-2.6-5.4-3.2-8.2c-0.5-1.9,0.5-3.5-0.1-5.2c-0.3-1-1.4-1.7-1.6-2.9c-0.3-1.7,0.1-3.9,0.1-5.6c0.1-3.2,0.2-6.5,0.2-9.7
	c0-3.8,0-7.8-2.8-10.7c-0.1-0.3-0.3-0.5-0.7-0.5c-4,0-8.1,0.3-12.1,0.6c0-0.2,0-0.4-0.2-0.8c-2.2-3.4-1.9-7.6,0.1-11.1
	c0.4-0.8-0.3-1.3-0.9-1.2c-5.4,1.3-5.1-17.4-5.1-20.3c0-0.4-0.3-0.8-0.8-0.8c-1.6,0-3.2,0-4.8-0.1c-0.3-2.9-0.6-5.8-0.9-8.7
	c0-0.3-0.3-0.5-0.6-0.6c0.4,0,0.9-0.2,0.8-0.7c-0.2-2-0.1-4,0.4-5.9c0.1-0.4-0.2-0.8-0.6-0.8c-2.2,0-4.2-0.5-6.3-1
	c-0.3-0.1-0.6,0.2-0.6,0.5c0,0,0,0,0,0c-16.7,3.3-32.7,8.8-47.5,17.1c-7.1,3.9-13.8,8.4-20.1,13.4c-6.3,4.9-12.3,10.2-15.4,17.7
	c-0.1,0.2,0.8,10.3,1.3,14.9c-2.9,0.4-7.3,1.3-7.3,2.4c0,2.3,0.7,16.7,1,20.3c0.1,1.7,0,8.4-0.3,10.3c-0.3,1.7,0,2,0.3,3.5
	c1,5.1,0.5,3.7-1.2,7.4c-0.3,0.6-0.5,1.2-0.6,1.8c-0.2,1.5,0.1,2.6,1.2,3.7c0,0,0.1,0.1,0.1,0.1c-0.8,4-0.4,8.4-0.4,12.4
	c0,4.6-0.2,9.2,0,13.8c0,0.1,0,0.2,0.1,0.2c0,0,0,0.1,0,0.1c-4.1,0.8-7.6,7.3-4.3,10.8c1.2,1.3,1.5,1,1.6,3.3c0.2,2.6,0,5.3,0,7.9
	c0,5.3-0.3,10.6,0,15.9c0,0,0,0.1,0,0.1c-2,0.2-3.8,1.3-4.1,3.5c-0.2,1,0.1,2.1,0.7,3c0.5,0.7,1.6,1.1,2,1.8
	c0.8,1.4-0.1,2.6-0.5,3.8c-1.2,4.6,0,10,0.2,14.6c0.2,5.8,0.2,12.6,0,18.4c0,0.7,0.7,0.6,0.7,0.5c0.6-0.4,2.8-1.4,3.4-1.8
	c0,0,0,0,0-0.1c0,1,0,1.8,0,2.2c0,0-0.1,0.1-0.1,0.2c0,0.8,0.5,1.4,1.1,2c0,0.1,0,0.2,0,0.2c0,0,0.4,0.2,0.5,0.2
	c0,0,1.9-0.5,2.7-0.8c1.2-0.4,2.3-0.8,3.5-1.2c0,0,0.1,0,0.1-0.1c0,1.2,0,2.1,0,2.5c-0.1,0.1-0.1,0.3,0,0.4c0.5,0.4,1.1,0.7,1.7,0.9
	c0,0.1,0,0.1,0,0.1c0,0,0.5,0.1,0.5,0c0,0,5-1.4,6.2-1.8c0,0,0.1,0,0.1-0.1c0,1.2,0,2.1,0,2.5c-0.1,0.1-0.1,0.3,0,0.4
	c0.5,0.4,1.3,0.9,2,0.7c0.1,0,0.1-0.1,0.2-0.1c0,0,0,0,0,0c0.1,0,6.9-1.8,8.5-2.2c0,0,0.1,0,0.1-0.1c0,1.6-0.1,4.3,0.7,4.5
	c0.6,0.2,3,0.4,3.5,0.1c0,0,0,0,0,0c1.6-0.4,8.5-4.2,10.5-5.2c-0.1,2.9-0.1,5.3-0.1,5.9c-0.1,0.8-0.2,1.3,0.6,1.8
	c0.9,0.5,2,0.7,2.9,0.9c0.2,0.1,0.3,0,0.4-0.1c0.1,0,0.1,0,0.1,0c0.1,0,0.2,0,0.3-0.1c2.2-0.9,4.2-2.2,6.3-3.4
	c2.2-1.3,4.4-2.7,6.6-4.1c0.5,0.1,1,0.1,1.5,0.1c0.2,0,0.4,0,0.6,0c-0.1,3.7-0.2,7-0.2,8c0,0,0,0.1,0,0.1c-0.6,2,6.5,1.4,7.5,1.3
	c0,0,0.1,0,0.1,0c0.1,0,0.3-0.1,0.3-0.2c0.4-0.1,0.8-0.7,1-1c0.5-0.6,3.3-4,4.2-5.2c0.1-0.1,3.6,0,5.1,0c2,0,4,0,6.1,0
	c0,1.6,0,3.1,0,4.6c0,0,0,0.1,0,0.1c0,0.7,0,1.3,0.1,2l-0.2,1.2c-0.1,0.7,0.6,0.6,1.2,0.9c1.2,0.6,2.2,0.1,3.2-0.1
	c0.1,0,0.1,0,0.2-0.1c0,0,0.1,0,0.1-0.1c0.5-0.1,1-0.8,1.3-1.1c0.6-0.6,4.1-4.4,5.3-5.6c0.1-0.1,4.5,0,6.4,0c2.5,0,5.1,0,7.6,0
	c0,1.7,0.1,3.4,0,5c0,0.1,0,0.1,0,0.2c-0.1,1.3,0.6,1.9,0.6,1.7c0.6,0.3,1.7,0.3,2.3,0.4c1.5,0.1,3.4,0.2,4.5-1
	c0.3-0.3,0.5-0.6,0.7-0.8c0.7-0.6,4.6-4.4,5.9-5.6c0.1-0.1,5,0,7.1,0c2.8,0,5.6,0,8.5,0c0,1.7,0.1,3.4,0.1,5c0,0.1,0,0.1,0,0.2
	c0,0.7,0.1,1.5,0.1,2.2c0.1,0,0.2,0,0.3-0.1c0.7,0.6,3,0.4,3.5,0.4c1.1,0,3.8,0.2,4.5-1c0,0,0,0,0,0c0.5,0,6.4-7.5,6.4-8
	c2.3,0.4,13.3-0.1,16.1,0.1c0.1,1.9,0,5.4,0,7.1c0,0,0,0,0,0c-0.1,0,1.3,0.3,1.3,0.2c0,0,0,0,0,0c2.8,0.3,9.2,1.1,12.9,1.1
	c2.4,0,4.8,0,7.2,0c0.9,0,1.9,0.1,2.4-0.6c0.4-0.1,0.6-0.5,0.4-1c-0.8-1.7-1.6-3.4-2.2-5.2c0.9,0,22.7-0.2,26.4-0.2
	c2.8,0,8.7-0.1,8.7-0.1c6.2-0.1,12.4-0.1,18.6-0.2c0.5,0,0.3-1.3,0.2-1.6c-0.5-1.8-1.3-4.1-2.3-6.8c1,0.1,2.1-0.1,3.2-0.2
	c1.4-0.1,2.7-0.2,4.1-0.3c0,0.8-0.1,1.5-0.1,2.3c1.9,0.2,3.8,0.4,5.5,1.2c0.1-0.1,1.7-0.8,2.1-1c0.1,0,0.1-1.4,0.2-3.4
	c2.7,0.3,5.5,0,8.2-0.5c0,0,0.1,0,0.1,0c0,0.8-0.1,1.6-0.1,2.4c0.1,0,4.2,1.7,4.2,1.7c0,0,2.6-0.5,3-0.8c0,0,0.1-1.9,0.1-4.5
	c0,0,0,0,0,0c0,0,2.5,0,2.7,0c1.2-0.2,2.5-0.4,3.7-0.4c0,0,0,0,0,0c0,1.2-0.1,2.5-0.1,3.6c0.1,0,2.5,0.6,3.5,1.3c0,0,0,0,0-0.1
	c0,0,2.9-0.8,2.9-0.8c0-1.4-0.1-3-0.1-4.7c0,0,0,0,0,0c1.7-0.2,3.4-0.6,5-1c0,1.4,0,2.9-0.1,4.2c0,0,0,0.1,0.1,0.1
	c0.9,0.2,1.7,0.7,2.5,1.3c0,0,0.1,0.1,0.1,0.1c0.1,0.1,0.3,0.1,0.3,0c1,0,2.2-0.6,3.1-1.1c0.3-0.2,0.2-0.5,0-0.6
	c-0.1-0.9-0.2-2.5-0.2-2.5c0-0.7,0-1.2,0-1.9c0.1-0.1,0.2-0.2,0.3-0.3c1,0,2.1-0.3,3.1-0.5c0.8-0.1,1.7-0.2,2.3-0.7
	c0,1.2,0,2.3-0.1,3.4c1.7,1.1,2,0.9,2.9,1.6c0.1-0.1,3-1.9,3.2-2c0.4-0.2,0.8-0.3,1-0.7c0.2-0.5-0.1-1.4-0.2-2.1
	c0.8,0.2,1.5,0.4,2.3,0.6c0.2,0,4.4-2.5,4.3-4c1.1,0.1,1.8-0.4,2.9,0.1c0.1,0.1,0.3,0.1,0.4,0c0,0,0.1,0,0.1,0
	c0.6-0.4,1.2-0.8,1.9-1.2c0.6-0.4,1.3-0.7,1.8-1.2c0.3-0.3,0.4-0.7,0.4-1.2c0.1-0.1,0.1-0.2,0.1-0.4
	C405,227.3,404.7,220.3,404.4,213.3z"/>
<path id="XMLID_9765_" class="st1" d="M262,130.6c0,3.6,0,7.1,0,10.7c-0.8,0-1.6,0.1-2.4,0.1c-2.4,0.1-4.9,0.1-7.3,0.1
	c-0.2-2.1-0.3-4.1-0.4-6.2c-0.1-1.3,0.1-3.4-0.2-4.7H262z"/>
<path id="XMLID_9764_" class="st1" d="M258.9,142.9c1.1,0,18.8-1.2,25.8-2.1c0.4,4.6,0.7,9.2,1.1,13.8c-9.8,0.4-19.6,0.9-29.5,1.5
	c-7.8,0.5-15.9,0.7-23.7,1.5c0.9-3.4,0-6.1,0-11.1c1.6-0.1,1.7-2.7,1.9-4.1C242.4,143.5,250.9,143.1,258.9,142.9z"/>
<path id="XMLID_9763_" class="st1" d="M264.8,165.6C264.8,165.6,264.8,165.6,264.8,165.6c1.4-0.4,2.8-0.7,4.2-0.8
	c-1.9,0.9-2.8,2.8-3.1,5c-0.6,4.2-0.7,8.5-1,12.7c-0.3,4.4-0.6,8.7-0.8,13.1c-1.1,0-2.1,0-3.1,0.1c0-1.8-0.1-3.3-0.1-4
	c0-4.4,0-8.9,0-13.3C260.8,173.9,260.5,168.4,264.8,165.6z"/>
<path id="XMLID_9762_" class="st1" d="M278.4,200c-0.1,1.9-0.4,3.9-0.1,5.8c0,0,0,0.1,0,0.1c-1.2,0-2.3,0-3.5,0
	c-3.1,0-6.9,0-10.4,0.1c0.1-3.1,0.8-16.4,1-19.4c0.2-4,0.5-8,0.8-11.9c0.3-3.6,0-8.8,4.6-9.6c0.1,0,0.2-0.1,0.2-0.1
	c1.7,0.2,3.3,0.9,4.5,2.5c5.2,6.5,3,28.1,3,28.2C278.5,195.7,278.5,199,278.4,200z"/>
<path id="XMLID_9761_" class="st1" d="M260.9,196.5c1,0.1,2,0.1,3.1,0.2c-0.2,3.1-0.3,6.3-0.5,9.4c-0.9,0-1.8,0.1-2.7,0.1
	C261.1,205.8,261,200.6,260.9,196.5z"/>
<path id="XMLID_9760_" class="st0" d="M261.4,206.6C261.4,206.6,261.4,206.6,261.4,206.6c0.7,0.1,1.4,0.1,2.1,0.1
	c-0.1,1.3-0.1,2.6-0.2,3.9c-0.7,0-1.3,0-1.6,0.1C261.8,209.4,261.8,207.9,261.4,206.6C261.3,206.6,261.4,206.6,261.4,206.6z"/>
<path id="XMLID_9759_" class="st1" d="M261.9,211.4c-0.6,0.3,22.7,0.9,27.3,1c9.1,0.1,18.1,0.1,27.2,0c0,0.2,0,0.4,0.1,0.6
	c0.1,0.5,0.5,0.6,0.9,0.5c0.7,0.1,1,0.7,1.1,1.4c-9.3,0.6-18.6,0.8-28,0.8c-9.6,0-19.2-0.6-28.8-1.1
	C261.7,213.2,261.9,212.6,261.9,211.4z"/>
<path id="XMLID_9758_" class="st1" d="M289.2,211.6c-3.7-0.1-18.8-0.9-25-1c0-1.3,0.1-2.6,0.2-3.9c3.4,0.1,6.7,0,10.1,0
	c4.3,0,8.7,0,13-0.1c8.5-0.1,17.1-0.3,25.6-0.5c0,0.6,0,1.3-0.1,1.9c0,0.1,0,0.2,0,0.2c-0.5,0.1-0.7,0.9-0.1,1c1,0.2,2,0.2,3.1,0.2
	c0.1,0.7,0.1,1.4,0.2,2.1C307.3,211.7,298.2,211.8,289.2,211.6z"/>
<path id="XMLID_9757_" class="st1" d="M311.2,178.7c-0.3-3.5-1.4-7.5-3.7-8.8c0.5-0.5,6.1-5.4,6.4,12.7c0.1,4.2,0.2,8.6,0.2,12.9
	c-0.6,0.1-1.5,0.1-2.6,0C311.7,189.9,311.7,184.2,311.2,178.7z"/>
<path id="XMLID_9756_" class="st1" d="M310.9,185.1c0.1,3.3,0.2,7,0.1,10.4c-2.3-0.1-5.1-0.3-7.5-0.4c0.1-4.3,0.3-9.2,0.3-12.9
	c0-9.6,0.6-10.8,3-11.8C310.6,172,310.8,180.4,310.9,185.1z"/>
<path id="XMLID_9755_" class="st1" d="M311.3,197.1C311.3,197.1,311.3,197.1,311.3,197.1C311.3,197.1,311.3,197.1,311.3,197.1
	c1,0,1.7,0,2.2-0.1c-0.1,2.8-0.2,5.6-0.3,8.3c-8.5,0.3-17.1,0.4-25.7,0.5c-2.9,0-5.7,0.1-8.6,0.1c0,0,0-0.1,0-0.1
	c0.5-1.7,0.3-3.7,0.4-5.4c0.1-1.1,0.3-2.4,0.2-3.6c4.9,0,9.7,0.1,14.6,0.1c0.6,0,0.6-1,0-1c-4.9,0-14.3-0.4-14.3-0.7
	c0-4.7,0-9.5-0.1-14.2c0-3.5,0.1-7.2-1.3-10.4c-2.4-5.9-8.6-8.2-14-5.4l0,0c-5.2,2.3-4.6,9.9-4.7,14.7c0,2.3,0,9,0.1,15.2
	c-2.8-0.1-5.5-0.2-8.3-0.3c0.1-4.9,0.2-9.8,0.4-14.7c0.1-3.9,0.7-8.5-1.3-12.1c-1.7-2.9-4.6-3.8-7.7-3.3c-1.6,0.2-3.3,0.6-4.6,1.7
	c-1.3,1.1-1.8,2.8-2.3,4.4c0,0.1,0,0.2,0.1,0.3c0,0.1-0.1,0.2-0.1,0.3c0-0.7,0-1.4-0.2-2.1c-0.1-0.8-0.4-0.7-0.8-1.3
	c-0.8-1.1-0.8-2.8-0.9-4.1c-0.2-1.4-0.3-2.8-0.6-4.1c7.8-0.4,15.7-1.2,23.5-1.7c9.9-0.6,19.7-1.1,29.6-1.7c0.1,0,0.3-0.1,0.4-0.1
	c3.2,13.4,7.8,26.8,11.3,40.2C298.4,196.7,306.9,197.1,311.3,197.1z"/>
<path id="XMLID_9754_" class="st1" d="M249.3,175.9c-0.4-3.4-0.6-8.8-4.1-10.6c4.2,0.4,5.9,4.3,6,8.1c0.2,3.5-0.1,7.1-0.2,10.6
	c-0.1,3.6-0.2,7.2-0.3,10.8c-0.3,0-0.7,0-1,0C250.1,188.4,250,182.1,249.3,175.9z"/>
<path id="XMLID_9753_" class="st1" d="M228.6,140.2c0-0.8,0-1.7,0-2.5c1.4,1.5,2.9,3,4.5,4.4c0,0,0,0,0,0c-0.1,0.9-0.4,3.1-1,2.8
	c-0.4-0.2-1.2,0-1.1,0.6c0.5,4,0.6,7.3-0.4,12.3c-1.2,0.1-1.4,0.2-2.6,0.3c0.4-5.8,0.6-11.5,0.7-17.3
	C228.7,140.6,228.7,140.4,228.6,140.2z"/>
<path id="XMLID_9752_" class="st1" d="M233.1,159.6c0,1.5,0.2,3,0.4,4.4c0.1,1.1,0,2.7,0.5,3.7c0.3,0.6,0.9,0.8,1.1,1.3
	c0.2,0.5,0,1.5,0.1,2.1c0,0.8,0.1,1.6,0.1,2.5c0.1,1.5,0.2,3,0.4,4.6c0,0.5,0,1.2,0.4,1.6c0.2,0.1,0.4,0.2,0.6,0.3
	c0.2,0,0.4,0,0.6,0l0.6,1c0.5,1.4,0.4,3.5,0.6,4.9c0,0.2,0.2,0.4,0.4,0.4c1.7-0.1,1.5,6.2,1.6,8.1c-3.3,0-6.6,0-9.8,0
	c-0.2-11.6,0-23.3-0.6-34.9C231,159.7,232.1,159.7,233.1,159.6z"/>
<path id="XMLID_9751_" class="st1" d="M239.2,185.7c-0.2-1.5-0.4-3-0.6-4.5c-0.1-0.5,0-1.2-0.4-1.6c-0.1-0.1-0.4-0.2-0.5-0.3
	c-0.2,0-0.4,0-0.6,0c-0.5-0.4-0.7-0.8-0.7-1.4c-0.3-1.4-0.3-3.1-0.4-4.6c0,0,0-0.1,0-0.1c0,0,0,0,0,0c0.3-0.9,0.6-1.7,0.9-2.6
	c0-0.1,0-0.2,0-0.2c0.5-1.7,1.1-3.3,2.9-4.2c1.1-0.6,2.5-0.9,3.8-1c0,0.1,0.1,0.1,0.2,0.1c2.7,1.1,3.7,3.5,4.1,6.2
	c0.4,2.6,0.7,5.2,0.9,7.8c0.4,5.1,0.4,10.2,0,15.3c-2.5-0.1-5-0.1-7.5-0.1c-0.1-2.3-0.1-4.7-0.4-6.9
	C240.7,186.6,240.2,185.8,239.2,185.7z"/>
<path id="XMLID_9750_" class="st1" d="M229.6,128c0.1,0,0.1,0,0.2-0.1c4.6,4,8.8,11,11.4,13.3c-2.3,0-4.9-0.1-7.2,0c0,0,0,0,0,0
	c-1.7-1.7-3.5-3.4-5.4-5c0,0,0-0.1,0-0.1c0-0.5-0.4-0.9-0.9-0.9c-5.5,0.1-11-0.1-16.4-0.5c0-1.9,0-3.7-0.2-5.5
	C218.4,128.4,226.1,128.5,229.6,128z"/>
<path id="XMLID_9749_" class="st1" d="M226.8,137.1c0,0.8,0,1.6,0,2.4c-49.4-2.7-98.6,10.3-145.6,23.7c0.3-4.5,0.2-9,0.2-13.5
	c0-3.9,0.5-8.1-0.2-12c0,0,0,0,0,0c0,0.1,0.2,0.1,0.3,0c0.9-5.1,6.7-9.6,10.6-12.4c3.6-2.6,7.5-4.7,11.5-6.6
	c9.5-4.4,19.6-7.8,29.5-11.3c21.2-7.6,43.1-14.1,65.6-16c-0.9,14.3-0.9,28.7-0.6,42.9c0,0.3,0.3,0.8,0.6,0.8
	C208.1,136.6,217.4,137.3,226.8,137.1z"/>
<path id="XMLID_9748_" class="st1" d="M201.3,78.2c2.5,4.5,1.5,10.6,1.4,15.5c-0.1,2.8-0.3,5.6-0.2,8.3c0.1,1.5,0.5,1.8,1.1,3
	c0.8,1.5,0.2,3.7,0.7,5.5c0.6,2.4,2,4.6,2.8,6.9c2,5.5,2.9,11.3,2.7,17.2c-0.9-0.1-1.8-0.1-2.6-0.2c-1.4-0.1-5.6-0.1-6.6-0.8
	c-1.2-0.9-0.8-2.3-0.8-3.7c-0.1-3.6-0.1-7.2-0.1-10.8C199.7,105.4,200.5,91.8,201.3,78.2z"/>
<path id="XMLID_9747_" class="st1" d="M200,77.1c-0.1,1.3-0.3,2.6-0.4,4c-0.1,0-0.1,0-0.2,0c-22,3.4-43.2,10.5-64,18.2
	c-17.8,6.6-37.9,12.4-52.3,25.3c-0.5-1-1.2-1.9-1-3.4c0.1-0.6,0.2-1.1,0.3-1.6c6.9-7.4,16-11.9,24.8-16.5
	c9.7-5.1,19.2-10.6,29.4-14.7c9.5-3.8,19.6-6,29.6-7.7C177.4,78.8,188.6,77.3,200,77.1z"/>
<path id="XMLID_9744_" class="st1" d="M181,43.6c0,5.4,0.3,10.9,1.4,16.2c0.5,2.7,1.9,5.1,4.6,5.1c-0.3,3.7-0.3,7.4,0,11.2
	c0,0.1,0,0.3,0.1,0.4c-1.2,0.1-2.4,0.2-3.6,0.4c0-0.1,0.1-0.2,0.1-0.4c-0.4-3.5-0.7-7.1-0.7-10.6c0-0.5-0.5-0.9-0.9-0.7
	c-3.3,1.1-3.1-10.1-3.2-11.8c-0.1-3.2-0.3-6.5-0.4-9.7c0,0,0,0,0,0C179.2,43.5,180.1,43.5,181,43.6z"/>
<path id="XMLID_9743_" class="st1" d="M175.6,42.7c0,0,0,0.1,0,0.1c-0.1,0-0.2,0-0.3,0c0-2-0.2-4.1-0.4-6.1c-0.1-1-0.2-2.8-0.5-4.2
	c0.3,0.1,0.6,0.1,0.9,0.1c-0.3,0-0.6,0.2-0.5,0.6C175,36.5,175.3,39.6,175.6,42.7z"/>
<path id="XMLID_9686_" class="st1" d="M170,25.6c0-0.1,0-0.2,0-0.3c1.7,0.7,3.5,1,5.3,1.2c-0.3,1.5-0.5,3.1-0.4,4.7
	c-0.3-0.1-0.7-0.1-1,0.1c0-0.1-0.1-0.1-0.1-0.2c-0.3-0.5-0.6-0.5-1-0.7c-1.6-0.8,0.1,1.7-2.2-0.3C169.7,29.4,170,26.7,170,25.6z"/>
<path id="XMLID_9685_" class="st1" d="M81.4,91.3c0.1-1.3,2.9-2,6.1-2.4c0.4-0.1,1.5,0.2,1.5-0.3c-0.5-5-0.3-10.7-1.8-15.5
	c3.5-8,10.6-13.7,17.5-18.8c6.3-4.7,12.9-8.9,19.8-12.5c13.9-7.4,28.9-12.7,44.4-15.5c-0.2,2.1-0.2,4.6,1.5,5.9
	c0.2,0.2,0.8,0,1.1,0.1c1.8,0.9,1.1,0.9,1.7,2.2c1,2.7,0.8,6.4,0.8,9.3c0,0.4,0.3,0.8,0.7,0.7c0.8,0,1.5,0,2.3-0.1
	c0.2,5.9,0.2,11.9,0.8,17.8c0.2,2.3,1.3,4.8,3.7,4.6c0,3.2,0.2,6.5,0.6,9.7c0,0.2,0.1,0.4,0.3,0.5c-5.1,0.6-10.1,1.3-15.2,2.1
	c-11,1.8-21.9,4.1-32.2,8.4c-10,4.2-19.5,9.7-29.1,14.7c-8.2,4.3-16.6,8.6-23.1,15.4c0.1-0.4,0.1-0.9,0.1-1.4c-0.2-5-0.7-10-1-15
	C81.7,98.9,81.1,93.5,81.4,91.3z"/>
<path class="st2" d="M91.8,101.1c-0.1-2.2-0.7-7.7-0.5-9.8c0.1-1.3,2.9-2,6.1-2.4c0.4-0.1,1.5,0.2,1.5-0.3c-0.5-5-0.3-10.7-1.8-15.5
	c3.5-8,10.6-13.7,17.5-18.8c6.3-4.7,12.9-8.9,19.8-12.5c10.8-5.8,22.4-10.3,34.3-13.3c0-0.7,0-1.5,0.1-2.2
	c-15.5,2.8-30.5,8.1-44.4,15.5c-6.9,3.7-13.5,7.9-19.8,12.5C97.8,59.3,90.6,65,87.2,73c1.5,4.8,1.3,10.6,1.8,15.5
	c0,0.5-1.1,0.2-1.5,0.3c-3.2,0.4-6,1.2-6.1,2.4c-0.2,2.2,0.3,7.7,0.5,9.8c0.3,5,0.8,10,1,15c0,0.5,0,1-0.1,1.4
	c2.9-3.1,6.2-5.6,9.7-7.9C92.3,106.8,92,104,91.8,101.1z"/>
<path id="XMLID_9684_" class="st1" d="M83.6,125.8c0-0.1,0-0.1,0-0.1c16.1-12.8,35.8-19.1,54.8-26.1c19.9-7.3,40.1-13.7,61.1-16.8
	c-0.2,2.3-0.4,4.6-0.5,6.9c-24.8,2.2-48.6,9.8-71.9,18.3c-9.9,3.6-20.2,7-29.5,12.2c-4.2,2.3-8.2,5.1-11.5,8.6
	c-1.6,1.7-4.5,4.3-5,6.9C79.1,133,84.2,129,83.6,125.8z"/>
<path id="XMLID_9683_" class="st1" d="M76.3,171.5c-0.4-2.9,1.7-6.1,4.6-6.5c0.3,0,0.4-0.2,0.4-0.5c47.8-12.6,95.7-25.5,145.6-23.2
	c0,3,0,6.1-0.1,9.1c-26-2-52.1,1.5-77.6,6.3c-7.4,1.4-14.8,2.8-22.2,4.5c-0.3,0.1-0.1,0.4,0.1,0.4c12.9-2.2,25.7-4.9,38.6-6.9
	c13.1-2,26.2-3.5,39.4-3.9c7.2-0.2,14.5,0,21.7,0.5c-0.1,2.6-0.2,5.2-0.4,7.7c-0.1,0.8,0.8,1,1.3,0.6c0.6,0,1.2,0,1.9,0
	c-0.3,11.8,0.2,23.6,0.3,35.3c0,0.2,0.2,0.4,0.4,0.4c9.9,0,19.9,0.2,29.8,0.5c0.1,5.8,0.1,10.9,0.2,11c-24.1,0.8-48.2,1.7-72.3,2.3
	c-24.4,0.6-48.7,0.1-73.1-0.3c-6.7-0.1-13.5-0.2-20.2-0.9c-3.5-0.3-7-0.7-10.4-1.4c-2.3-0.4-5.4-1.3-6.1-3.8
	c0.3-0.1,0.5-0.3,0.4-0.6c0.2-0.1,0.4-0.3,0.4-0.6c0.4-6.9,0.1-14,0.2-20.9c0-1.6,0.2-3.3,0-4.9c5.4-2.4,10.9-4.8,16.6-6.6
	c2.7-0.9,5.5-1.7,8.3-2.5c3-0.8,6.1-1.3,9.1-2.2c0.2-0.1,0.2-0.5-0.1-0.4c-2.9,0.2-5.8,1-8.6,1.8c-3.1,0.8-6.2,1.7-9.3,2.8
	c-5.5,1.9-11,4-16.1,6.7c-0.1-0.3-0.1-0.5-0.2-0.8c-0.1-0.1-0.1-0.2-0.2-0.2C77.3,173.9,76.6,173,76.3,171.5z"/>
<g>
	<path class="st2" d="M226.3,159.1c0.2-2.6,0.3-5.2,0.4-7.7c-1.2-0.1-2.4-0.2-3.7-0.2c0,0.6,0,1.1,0,1.7c-26.1-1.3-52,3-77.4,8.5
		c-7.4,1.6-14.8,3.2-22,5.1c-0.3,0.1-0.1,0.4,0.1,0.4c12.8-2.5,25.5-5.6,38.4-8c13-2.4,26.1-4.2,39.3-4.9c7.2-0.4,14.4-0.4,21.7-0.1
		c0,2.6-0.1,5.2-0.2,7.7c0,0.8,0.8,0.9,1.3,0.6c0.6,0,1.2-0.1,1.9-0.1c0,11.8,0.8,23.6,1.2,35.3c0,0.2,0.2,0.4,0.5,0.4
		c9.9-0.2,19.9-0.3,29.8-0.3c0.2,4,0.3,7.7,0.4,9.6c0.7,0,1.5-0.1,2.2-0.1c0-0.1-0.1-5.2-0.2-11c-9.9-0.3-19.9-0.5-29.8-0.5
		c-0.2,0-0.4-0.2-0.4-0.4c-0.1-11.8-0.6-23.6-0.3-35.3c-0.6,0-1.2,0-1.9,0C227,160.1,226.2,159.9,226.3,159.1z"/>
	<path class="st2" d="M76.3,171.8c0.4-0.2,0.8-0.4,1.3-0.4c0.3-0.1,0.4-0.3,0.4-0.5c47.5-13.9,94.9-28.2,144.9-27.1
		c0.1,2.2,0.1,4.3,0.1,6.5c1.2,0.1,2.5,0.1,3.7,0.2c0.1-3,0.1-6.1,0.1-9.1c-49.9-2.4-97.8,10.6-145.6,23.2c0,0.2-0.2,0.4-0.4,0.5
		c-2.9,0.5-5.1,3.6-4.6,6.5C76.3,171.6,76.3,171.7,76.3,171.8z"/>
	<path class="st2" d="M100.7,172.6c3-0.9,6.1-1.5,9-2.5c0.2-0.1,0.2-0.5-0.1-0.4c-2.9,0.3-5.7,1.2-8.5,2c-3.1,0.9-6.2,1.9-9.2,3
		c-4.4,1.6-8.7,3.4-12.8,5.5c0,0.2,0,0.5,0,0.7c0,0,0,0.1,0,0.1c4.4-2.1,8.8-4,13.4-5.7C95.2,174.3,97.9,173.4,100.7,172.6z"/>
</g>
<path id="XMLID_9682_" class="st1" d="M76.3,208.6c-1.9-1.1-1.5-2.9,1.2-5.1c0.9,3,4.8,4,7.7,4.4c5.9,1,11.9,1.5,17.8,1.8
	c12.6,0.6,25.3,0.5,38,0.7c12.8,0.2,25.7,0.3,38.5,0.1c12.8-0.2,25.6-0.7,38.3-1.1c14.2-0.5,28.4-0.9,42.6-1.4
	c0.4,3.2,0.6,4.7,0.1,8.1c0,0.2-48.6,1.6-72.4,1.9c-24.2,0.3-48.5,0.2-72.7-1.5c-6.7-0.5-13.4-1-20.1-1.8c-3.4-0.4-6.8-0.6-10.1-1.2
	c-2.9-0.5-5.7-1.5-7.6-3.9c-0.1-0.1-0.2-0.1-0.4-0.1c-0.1-0.1-0.2-0.2-0.3-0.3C76.8,209,76.5,208.8,76.3,208.6z"/>
<path id="XMLID_9681_" class="st1" d="M80.1,242.3c0,1,0,2.7,0,2.8c-0.6,0.4-3.4,1.9-3.4,2c0.2-7.1,0.7-15.1,0.4-22.4
	c0.7-5.1,2-2.2,2.1-2.3c0.4,0.4,0.6,0.8,0.8,1.8c0,0,0,0.1,0,0.1c0.1,0.1,0.2,0.4,0.1,0.7c0.1,1.4,0.2,3.8,0.2,7.8
	c0,1.3,0,4.2,0,7.2C80.1,240.7,80.1,241.5,80.1,242.3z"/>
<path id="XMLID_9680_" class="st1" d="M87.9,244.7c0,1.1-0.2,3-0.3,3.1c-1.1,0.4-5.4,1.9-6,2.2c0,0,0,0-0.1-0.1
	c0-4.8-0.1-10.7,0-15.4c0.2-17.7,4.4-11.8,4.6-11.9c0.7,0.4,1.6,2.5,1.6,2.9c0.2,1.6,0.3,4.2,0.3,8.6c0,1.4,0,4.7-0.1,7.9
	C88,242.9,88,243.8,87.9,244.7z"/>
<path id="XMLID_9679_" class="st1" d="M96.4,246.7c0,1.1-0.2,3-0.3,3.1c-1.2,0.4-2.3,0.8-3.5,1.2c-0.8,0.3-2.5,0.9-2.5,1
	c0-4.8-0.1-10.8,0-15.5c0.2-17.7,4.4-11.8,4.6-11.9c0.7,0.4,1.6,2.5,1.6,2.9c0.2,1.6,0.3,4.2,0.3,8.6c0,1.4,0,4.7-0.1,7.9
	C96.4,244.9,96.4,245.8,96.4,246.7z"/>
<path id="XMLID_9678_" class="st1" d="M107.1,251.1c-0.1-0.1-8.4,2.2-8.4,2.2c-0.1-5.1-0.1-11.4,0-16.3c0.2-18.7,5.8-13,6.1-13.2
	c0.9,0.4,1.5,1.5,1.9,2.7c0,0,0.7,5.3,0.7,10C107.3,238.1,107.1,250.1,107.1,251.1z"/>
<path id="XMLID_9677_" class="st1" d="M122,249.2c0,0.2,0,1,0,1.3c-0.1,0-0.2-0.1-0.3,0c-3.5,1.7-7,3.3-10.4,5.2c0,0,0,0,0,0
	c0,0,0.1-0.1,0.1-0.1c-0.1-5.3-0.1-11.9,0-17c0.3-19.8,7.3-13.9,7.6-14.1c1.1,0.5,2,1.8,2.5,3c0,0,0,0-0.1,0.1
	c0.2,0.3,0.3,0.6,0.4,0.9c0,0.1,0,0.1,0,0.2c0.1,0.4,0.5,5.6,0.5,9.5C122.1,240,122,249.1,122,249.2z"/>
<path id="XMLID_9676_" class="st1" d="M138.6,237.3c-0.1,4.8-0.2,9.6-0.3,14.4c-2.1,1.3-4.1,2.6-6.3,3.9c-1.9,1.1-4,2.1-5.8,3.4
	c-0.1-6-0.1-13.4,0-19.2c0.4-22,9.9-15.7,10.4-15.8c1.5,0.5,2.9,2.2,3.6,3.6c-1,0.5-1,2-1.1,3C138.7,232.7,138.6,235,138.6,237.3z"
	/>
<path id="XMLID_9675_" class="st1" d="M141.1,251.4c-0.2,0-0.5,0-0.7,0.1c-0.4,0-0.7,0-1.1,0c-0.1-0.1-0.1-0.1-0.2-0.2
	c0.1-3.8,0.1-7.6,0.2-11.4c0-1.9,0.1-3.7,0.2-5.6c0-0.9,0.1-1.7,0.2-2.6c0.1-0.7,0.1-3,0.8-3.7c0.7,1.9,0.9,5.2,0.9,11.2
	C141.4,241.3,141.2,246.6,141.1,251.4z"/>
<path id="XMLID_9674_" class="st1" d="M153.2,255.1c-0.8,1-1.6,2-2.4,3.1c-0.4,0.6-1,1.1-1.5,1.7c-0.1-6.5,0.1-13.3,0.2-19.8
	c0.4-23.2,8.8-16.9,9.6-16.3c-3.5,1.7-5.2,6.7-5.6,11.2C153,241.5,152.9,248.4,153.2,255.1z"/>
<path id="XMLID_9673_" class="st1" d="M159.3,254.4c-0.9,0-1.9,0-2.8,0c-0.9,0-1.7-0.2-2.5,0.2c0-3.8,0.1-7.8,0.2-11.3
	c0.1-6,0.4-16.7,6.2-18.7c3.6,1.3,4.5,2.7,4.5,15.1c0,4.4,0.2,9.8,0.3,14.9C163.1,254.4,161.2,254.4,159.3,254.4z"/>
<path id="XMLID_9672_" class="st1" d="M175.4,256.9c-1,1.1-2,2.2-3.1,3.3c-0.6,0.6-1.2,1.2-1.8,1.9c-0.1-7.1,0.1-14.6,0.3-21.6
	c0.5-25.3,11.1-18.4,12.1-17.7c-4.4,1.8-6.6,7.3-7.1,12.3C175.1,242.1,175.1,249.6,175.4,256.9z"/>
<path id="XMLID_9671_" class="st1" d="M183.1,256.1c-1.2,0-2.4,0-3.6,0c-1.1,0-2.2-0.2-3.2,0.3c0-4.2,0.2-8.5,0.3-12.4
	c0.1-6.5,0.5-18.2,7.8-20.4c4.5,1.4,5.6,3,5.6,16.4c0,4.8,0.3,10.7,0.4,16.2C187.9,256.2,185.5,256.2,183.1,256.1z"/>
<path id="XMLID_9670_" class="st1" d="M203.4,256.8c-1.1,1.1-2.3,2.2-3.4,3.3c-0.6,0.6-1.4,1.2-2,1.9c-0.1-7.1,0.2-14.6,0.3-21.6
	c0.6-25.3,12.3-18.4,13.4-17.7c-4.9,1.8-7.3,7.3-7.8,12.3C203.1,241.9,203.1,249.5,203.4,256.8z"/>
<path id="XMLID_9669_" class="st1" d="M211.9,256c-1.3,0-2.6,0-4,0c-1.2,0-2.4-0.2-3.6,0.3c0-4.2,0.2-8.5,0.3-12.4
	c0.2-6.5,0.6-18.2,8.6-20.4c5,1.4,6.2,3,6.2,16.4c0,4.8,0.3,10.7,0.5,16.2C217.3,256.1,214.6,256,211.9,256z"/>
<path id="XMLID_9668_" class="st1" d="M234.4,254.7C234.4,254.8,234.4,254.8,234.4,254.7c-1.1,1.5-2.2,2.9-3.3,4.4
	c-0.5,0.6-1,1.3-1.4,1.9c-0.1,0.1-0.4,0.6-0.6,1c-0.2-7,0.1-14.5,0.3-21.5c0.6-23.8,12.2-17.3,13.3-16.6c-4.9,1.7-7.2,6.9-7.8,11.5
	C234.2,241.6,234.1,248.3,234.4,254.7z"/>
<path id="XMLID_9667_" class="st1" d="M242.7,254.8c-2.2,0-4.8,0-7.3-0.2c0-3.8,0.2-7.3,0.3-10.9c0.2-6.1,0.6-17.1,8.6-19.2
	c5,1.3,6.2,2.8,6.2,15.4c0,4.3,0.3,9.8,0.5,14.8C248.1,254.6,245.5,254.8,242.7,254.8z"/>
<path id="XMLID_9666_" class="st1" d="M274,263.1c-0.9,0.6-4.8,0.2-5.6,0.2c-1.8,0-12.5-1.1-16.1-1.3c0.1-4.4-0.3-22.1-0.6-29.8
	c-0.5-10.8-12.4-10.6-12.8-10.7c-6.3-1.1-9.4,4.4-10.2,9.3c-1.7,10.2-1.1,32-0.9,32.3c-1,0.5-2.3,0.5-3.5,0.5
	c-0.3,0-3.2,0.2-3.4-0.1c0.2-3.4,0.3-23.4,0-32c-0.5-11.5-12.4-11.3-12.9-11.4c-6.3-1.2-9.5,4.7-10.3,9.9c-1.7,10.7-1.1,22.1-1,32.9
	c-0.7,0.3-1.4,0.4-2.2,0.4c-0.6,0-2.7,0.1-3.2-0.4c0.2-4.8,0.2-23.2-0.1-31.4c-0.4-11.5-11.2-11.3-11.6-11.4
	c-5.7-1.2-8.5,4.7-9.3,9.9c-1.5,10.7-1,22-0.9,32.8c-5.4,0.1-3.3-22.5-3.6-31.1c-0.3-10.6-8.9-10.4-9.2-10.4
	c-4.5-1.1-6.8,4.3-7.4,9.1c-1.2,9.8-0.8,20.2-0.7,30.1c-0.6,0-4.2,0.2-6-0.1c0-0.2,0-0.3,0-0.5c0,0,0,0,0,0c0.2-1.9,0.2-20.4,0-28.1
	c-0.3-10-8.9-9.8-9.2-9.9c-4.5-1-6.8,4.1-7.4,8.6c-1.1,8.5-0.9,24.7-0.7,28.1c-0.6-0.2-1.1-0.3-1.7-0.5c-0.2-0.1-0.4-0.1-0.6-0.2
	c-0.1-0.3-0.1-0.6-0.1-0.9c0.1,0,0.2,0,0.2,0c0.1-0.2,0.2-18.2,0-25.5c-0.2-9-6.4-8.8-6.7-8.9c-3.3-0.9-4.9,3.7-5.3,7.8
	c-0.8,7.6-0.7,22.1-0.5,25.2c-0.4,0-0.9,0-1.3,0c-0.4,0-0.9,0-1.2-0.3c-0.3-0.2-0.2-0.6-0.2-0.9c0.1,0,0.4-17.2,0.2-24.1
	c-0.2-8.5-5.1-8.3-5.3-8.4c-2.6-0.9-3.9,3.4-4.2,7.3c-0.6,7.3-0.5,21.5-0.4,24c-0.1,0-0.3-0.1-0.4-0.1c-0.2-0.1-0.5-0.2-0.7-0.3
	c0.1-1.4,0.1-16.4,0-22.7c-0.1-8.1-3.8-7.9-3.9-8c-1.9-0.8-2.9,3.3-3.1,6.9c-0.4,6.5-0.4,18.9-0.3,22.2c-0.4-0.2-0.7-0.3-1.1-0.5
	c0.1-1.2,0.1-16.4,0-22.7c-0.1-8.1-3.8-7.9-3.9-8c-1.9-0.8-2.9,3.3-3.1,6.9c-0.4,6.4-0.4,18.5-0.3,22.1c-0.3-0.4-0.4-0.8-0.6-1.3
	c0,0,0,0,0,0c0-1,0.1-14.8,0-20.5c-0.1-7.3-2.1-7.1-2.1-7.2c-0.6-0.4-1,0.5-1.3,2c0-0.2,0-0.5,0-0.7c-0.1-1.9-0.3-3.7-0.1-5.6
	c0.2-1.6,1.4-3.2,1.3-4.8c0-0.1,0-0.2,0-0.3c2.3,2.6,6.1,3.2,9.5,3.7c6.2,0.8,12.4,1.4,18.6,2c12.4,1.1,24.9,1.7,37.3,2
	c25,0.6,49.9,0.1,74.9-0.4c14.2-0.3,28.4-0.6,42.6-0.9c0,0,0,0,0.1,0c2,3.2-0.2,6.2,0.5,9.8c0.9,4.5,2.8,8.6,4.3,12.9
	C268.7,247.6,270.2,255.8,274,263.1z"/>
<path id="XMLID_9665_" class="st1" d="M274.4,256.6c-0.6,0-1.1,0.1-1.7,0.1c-2.8-7.3-4.7-15-7.5-22.3c-0.8-2.2-1.5-4.3-2-6.6
	c-0.3-1.3-0.3-2.2-0.1-3.3c0.8-1,2-1.5,3.6-1.9c7.1,2,7.5,12.3,7.6,18.1C274.5,245.8,274.8,251.6,274.4,256.6z"/>
<path id="XMLID_9664_" class="st1" d="M280.3,256.4c-1.7,0-3.4,0.1-5.1,0.2c0.6-7.7,0.8-16.1-0.1-23.8c-0.5-4.4-2.6-9.3-6.9-10.9
	c1-0.6,11.4-6.7,11.9,15.7C280.1,243.8,280.4,250.3,280.3,256.4z"/>
<path id="XMLID_9663_" class="st1" d="M299.4,256.3c-3.6,0-7.2,0-10.8,0c0-0.1,0-0.1,0.1-0.2c0,0-0.1,0-0.1,0
	c-0.1-6,0.5-14.1,0.5-20c0-11.9,1.1-13.3,5.5-14.6c7.1,2,7.5,12.3,7.6,18.1c0.1,5.2,0.3,11.9-0.1,17.1c0.1,0,0.8,0,0.9,0
	C301.8,256.8,300.6,256.3,299.4,256.3z"/>
<path id="XMLID_9662_" class="st1" d="M308.1,256.2c-1.5,0-3,0-4.5,0.1c-0.2,0-0.4-0.1-0.6-0.1c0.7-7.8,0.8-16.6-0.1-24.4
	c-0.5-4.4-2.6-9.3-6.9-10.9c1-0.6,11.4-6.7,11.9,15.7C308,243,308.2,249.8,308.1,256.2z"/>
<path id="XMLID_9661_" class="st1" d="M325.4,255.7c0,0.1,0.1,0.2,0.1,0.3c-5.2,0.1-10.3,0.1-15.5,0.2c0-9.5-0.1-19.2-1.6-28.7
	c-0.7-4.7-3.5-9.8-9.1-8.8c-0.4,0.1-11-0.1-11.4,10.1c-0.3,7.1-0.2,23-0.1,27.6c-2.1,0-4.2,0-6.3,0.1c0.1-5.2,0.3-20-0.9-27.8
	c-0.7-4.7-3.5-9.8-9.1-8.8c-0.3,0-4.7,0-8,2.6c0.6-2.5-0.2-5.1-2-6.9c0,0-0.1,0-0.1-0.1c0,0,0-0.1,0-0.1c18.9,1.8,38.1,1.4,57.1,0.4
	c0,1-0.3,2.2-0.3,3c0,1.2,0.1,3.2-1,4.1c-0.2,0.1-1.4,0.3-1.7,0.5c-1.6,1.3-0.6,3.2,0.1,4.7C319.9,236.9,322.7,246.2,325.4,255.7z"
	/>
<path id="XMLID_9660_" class="st1" d="M331.9,247.3c-1.5,0.1-2.9,0.2-4.4,0.3c-1,0.1-2.1,0.1-3.1,0.3c-0.8-2.3-1.8-4.8-2.7-7.3l0,0
	c0-10.1,1-19.2,4.4-20.2c5.4,1.7,5.7,10.5,5.8,15.4C331.9,239.3,332,243.5,331.9,247.3z"/>
<path id="XMLID_9659_" class="st1" d="M336.3,250.7c-1.2-0.4-2.6-0.6-3.9-0.8c0-0.6,0.5-14.9,0-20.8c-0.4-3.7-2-7.9-5.3-9.2
	c0.7-0.5,8.6-5.7,9,13.4C336.2,238.9,336.4,245,336.3,250.7z"/>
<path id="XMLID_9658_" class="st1" d="M347.8,246.1c-0.1-0.1-0.2-0.1-0.3-0.1c-2.7,0.5-5.3,0.6-8,0.5c0.1-4.3,0.3-10.9,0.3-14.2
	c0-9.9,0.6-11.1,3.3-12.1c4.2,1.6,4.5,10.2,4.6,15C347.7,238.8,347.9,242.6,347.8,246.1z"/>
<path id="XMLID_9657_" class="st1" d="M351.2,249.9c-1-0.4-1.9-0.7-3-1.1c0.4-6.5,0.5-13.4-0.1-19.9c-0.3-3.6-1.6-7.7-4.1-9
	c0.6-0.5,6.8-5.6,7.1,13C351.1,238.4,351.3,244.3,351.2,249.9z"/>
<path id="XMLID_9656_" class="st1" d="M361.5,244.3C361.5,244.3,361.5,244.3,361.5,244.3c-1.1,0-2.1,0.1-3.2,0.3
	c-1.1,0.2-2.3,0.1-3.4,0.4c0-4.3,0.1-10.4,0.1-13.4c0-9.9,0.5-11.1,2.7-12.1c3.5,1.6,3.6,10.2,3.7,15
	C361.5,237.5,361.6,241,361.5,244.3z"/>
<path id="XMLID_9655_" class="st1" d="M364.4,249.1c-0.8-0.4-1.6-0.6-2.5-0.8c0.3-6.5,0.4-13.7,0-20.3c-0.2-3.6-1.3-7.7-3.4-9
	c0.5-0.5,5.5-5.6,5.8,13C364.3,237.6,364.5,243.5,364.4,249.1z"/>
<path id="XMLID_9654_" class="st1" d="M367.7,243.7c-0.2-4.4-0.4-9.3-0.4-12.7c0-9.9,0.4-11.1,2.3-12.1c2.9,1.6,3.1,10.2,3.1,15
	c0,2.8,0.1,5.8,0.1,8.8C371.1,243.1,369.4,243.4,367.7,243.7z"/>
<path id="XMLID_9653_" class="st1" d="M375.1,248.4c-0.7-0.4-1.4-0.6-2.1-0.8c0.1-1.5,0.1-2.9,0.1-4.4c0-0.1,0-0.2,0-0.3
	c0.1-5.2,0.1-10.6-0.2-15.6c-0.2-3.6-1.1-7.7-2.9-9c0.4-0.5,4.7-5.6,4.9,13C375.1,236.9,375.2,242.9,375.1,248.4z"/>
<path id="XMLID_9652_" class="st1" d="M383.9,241.1c-0.8,0.6-2,0.7-3,0.8c-0.8,0.1-1.5,0.3-2.4,0.3c0-4.4,0.2-9.5,0.2-13.6
	c0-9.6,0.4-10.8,2.3-11.8c2.9,1.6,3.1,10,3.1,14.6c0,3,0.1,6.3,0.1,9.5C384.1,241,384,241,383.9,241.1z"/>
<path id="XMLID_9651_" class="st1" d="M386.6,245.7c-0.7-0.4-1.4-0.6-2.1-0.8c0.3-6.4,0.3-13.4,0-19.8c-0.2-3.5-1.1-7.5-2.9-8.8
	c0.4-0.5,4.7-5.4,4.9,12.7C386.5,234.5,386.6,240.3,386.6,245.7z"/>
<path id="XMLID_9650_" class="st1" d="M393.1,241.2c-0.7-0.2-1.4-0.4-2.1-0.6c0,0,0,0,0,0c-0.1-1.3-0.2-2.6-0.3-3.9
	c-0.5-5.1-1.3-10.1-1.4-15.2c0-1.3-0.1-2.8,0.3-4.1c0.3-1,1.7-2.7,2.7-0.8c0.2,0.4,0.2,1.1,0.3,1.5c0.4,2.6,0.5,5.3,0.5,8
	C393.1,231.2,393.3,236.2,393.1,241.2z"/>
<path id="XMLID_9649_" class="st1" d="M397.4,236.5c-0.1-0.6-0.1-1.3-0.2-1.8c-0.2-4.7-0.5-9.4-0.7-14c0-1.1-0.1-2.3,0.1-3.4
	c0.2-1.1,0.2-1.2,1.2-1.7c0.9-0.8,1.4-0.6,1.7,0.8c0.1,0.2,0.1,0.4,0.2,0.6c0.7,2.2,0.5,4.6,0.6,6.9c0,4.5,0.1,9,0,13.5
	C399.4,236.9,398.4,236.6,397.4,236.5z"/>
<path id="XMLID_9644_" class="st0" d="M299.4,195.1C299.4,195.1,299.4,195.1,299.4,195.1C299.4,195.1,299.4,195.1,299.4,195.1
	C299.3,194.8,299.3,194.6,299.4,195.1z"/>
<path id="XMLID_9643_" class="st0" d="M171.2,198.3c-0.3,0.4-0.2,1,0.4,1c5.5-0.5,20.4,0,20.5-0.6c0.2-0.2,0.3-19.9,0-27.8
	c-0.4-9.9-10.8-9.7-11.2-9.7c-5.5-1-8.2,4-8.9,8.5c-1.5,9.3-0.9,19.2-0.9,28.6C171.2,198.3,171.2,198.3,171.2,198.3z"/>
<path id="XMLID_9642_" class="st1" d="M191.1,177.9c0,5.8,0.6,13.6,0.5,19.4c-2.9,0-10.4-0.4-13.4,0c-0.5-5-0.1-10.9,0-15.9
	c0.1-5.6,0.5-15.6,7.5-17.5C190,165.1,191.1,166.4,191.1,177.9z"/>
<path id="XMLID_9641_" class="st1" d="M172.7,178.4c0.5-21.7,10.7-15.8,11.7-15.2c-4.2,1.6-6.3,6.3-6.8,10.5
	c-0.9,7.6-0.7,16-0.1,23.6c-1.7,0.3-3.4,0.4-5,0.9C172.2,191.8,172.5,184.9,172.7,178.4z"/>
<path id="XMLID_9639_" class="st0" d="M148.6,198.8c-0.3,0.3-0.2,1,0.4,0.9c5.1-0.5,18.8,0,18.9-0.5c0.2-0.2,0.3-18.7,0-26.2
	c-0.4-9.3-10-9.1-10.3-9.2c-5.1-0.9-7.6,3.8-8.2,8C148,180.6,148.5,189.9,148.6,198.8C148.6,198.8,148.6,198.8,148.6,198.8z"/>
<path id="XMLID_9638_" class="st1" d="M167,179.6c0,5.4,0.5,12.8,0.4,18.2c-2.7,0-9.6-0.3-12.4,0c-0.4-4.7-0.1-10.2,0-15
	c0.1-5.2,0.5-14.7,6.9-16.5C166,167.5,167,168.8,167,179.6z"/>
<path id="XMLID_9637_" class="st1" d="M150,180.1c0.5-20.4,9.8-14.9,10.7-14.3c-3.9,1.5-5.8,5.9-6.3,9.9c-0.8,7.1-0.6,15.1-0.1,22.2
	c-1.6,0.2-3.1,0.4-4.6,0.9C149.6,192.7,149.9,186.2,150,180.1z"/>
<path id="XMLID_9635_" class="st0" d="M127.7,199.2c-0.2,0.3-0.1,0.9,0.4,0.8c4.5-0.5,16.8,0,17-0.5c0.2-0.2,0.3-17.1,0-24
	c-0.3-8.5-8.9-8.3-9.3-8.4c-4.5-0.9-6.8,3.4-7.4,7.3C127.1,182.5,127.6,191,127.7,199.2C127.6,199.1,127.6,199.2,127.7,199.2z"/>
<path id="XMLID_9634_" class="st1" d="M144.1,181.6c0,5,0.5,11.7,0.4,16.7c-2.4,0-8.6-0.3-11.1,0c-0.4-4.3-0.1-9.4,0-13.7
	c0.1-4.8,0.4-13.4,6.2-15.1C143.2,170.5,144.1,171.7,144.1,181.6z"/>
<path id="XMLID_9633_" class="st1" d="M128.9,182c0.4-18.7,8.8-13.6,9.6-13.1c-3.5,1.3-5.2,5.4-5.6,9c-0.7,6.5-0.6,13.8-0.1,20.3
	c-1.4,0.2-2.8,0.4-4.2,0.8C128.5,193.6,128.8,187.6,128.9,182z"/>
<path id="XMLID_9631_" class="st0" d="M112,199.5C112,199.5,112,199.6,112,199.5c-0.2,0.4-0.1,1,0.3,0.9c3.7-0.5,13.6,0,13.7-0.5
	c0.2-0.2,0.2-16.8,0-23.6c-0.3-8.4-7.2-8.2-7.5-8.3c-3.7-0.9-5.5,3.4-6,7.2C111.6,183.1,112,191.5,112,199.5z"/>
<path id="XMLID_9630_" class="st1" d="M125.3,182.3c0,4.9,0.4,11.6,0.3,16.4c-2,0-6.9-0.3-9,0c-0.3-4.3-0.1-9.2,0-13.5
	c0.1-4.7,0.3-13.2,5-14.8C124.6,171.4,125.3,172.6,125.3,182.3z"/>
<path id="XMLID_9629_" class="st1" d="M113,182.7c0.3-18.4,7.1-13.4,7.8-12.9c-2.8,1.3-4.2,5.3-4.5,8.9c-0.6,6.4-0.5,13.6,0,20
	c-1.2,0.2-2.3,0.4-3.4,0.8C112.7,194.1,112.9,188.2,113,182.7z"/>
<path id="XMLID_9627_" class="st0" d="M105.3,171.5c-2.5-0.8-3.8,3.1-4.1,6.5c-0.7,7.2-0.4,14.7-0.4,22c0,0,0,0.1,0,0.1
	c-0.1,0.3-0.1,0.8,0.2,0.8c2.5-0.4,9.3,0,9.4-0.4c0.1-0.2,0.2-15.2,0-21.4C110.2,171.4,105.5,171.5,105.3,171.5z"/>
<path id="XMLID_9626_" class="st1" d="M103.7,199.2c-0.8,0.2-1.6,0.3-2.3,0.7c-0.1-5,0-10.3,0.1-15.2c0.2-16.6,4.9-12.1,5.3-11.6
	c-1.9,1.2-2.9,4.8-3.1,8.1C103.3,186.9,103.4,193.4,103.7,199.2z"/>
<path id="XMLID_9625_" class="st1" d="M110.2,199.2c-1.3,0-4.8-0.3-6.1,0c-0.2-3.9,0-8.4,0-12.2c0.1-4.3,0.2-12,3.4-13.4
	c2,0.9,2.5,2,2.5,10.8C109.9,188.8,110.2,194.8,110.2,199.2z"/>
<path id="XMLID_9623_" class="st0" d="M93.7,173.6c-2.4-0.7-3.6,2.9-3.9,6.1c-0.6,6.7-0.4,13.8-0.4,20.5c0,0,0,0,0,0.1
	c-0.1,0.3-0.1,0.7,0.2,0.7c2.4-0.4,8.9,0,9-0.4c0.1-0.2,0.1-14.2,0-20C98.4,173.5,93.9,173.6,93.7,173.6z"/>
<path id="XMLID_9622_" class="st1" d="M92.2,199.6c-0.8,0.2-1.5,0.3-2.2,0.7c-0.1-4.6,0-9.6,0.1-14.2c0.2-15.5,4.7-11.3,5.1-10.9
	c-1.9,1.1-2.8,4.5-3,7.5C91.8,188.1,91.9,194.1,92.2,199.6z"/>
<path id="XMLID_9621_" class="st1" d="M98.3,199.6c-1.3,0-4.5-0.3-5.8,0c-0.2-3.6,0-7.8,0-11.4c0.1-4,0.2-11.2,3.3-12.5
	c1.9,0.8,2.4,1.8,2.4,10.1C98.1,189.8,98.4,195.4,98.3,199.6z"/>
<path id="XMLID_9619_" class="st0" d="M83.8,177.1c-2-0.6-3,2.5-3.3,5.3c-0.5,5.8-0.3,12-0.3,17.9c0,0,0,0,0,0.1
	c-0.1,0.2-0.1,0.7,0.2,0.6c2-0.3,7.5,0,7.6-0.4c0.1-0.2,0.1-12.4,0-17.5C87.8,177,83.9,177.1,83.8,177.1z"/>
<path id="XMLID_9618_" class="st1" d="M82.5,199.7c-0.6,0.2-1.3,0.3-1.9,0.6c-0.1-4,0-8.4,0.1-12.4c0.2-13.6,3.9-9.9,4.3-9.5
	c-1.6,1-2.3,3.9-2.5,6.6C82.2,189.7,82.2,195,82.5,199.7z"/>
<path id="XMLID_9617_" class="st1" d="M87.7,199.7c-1.1,0-3.8-0.2-4.9,0c-0.2-3.2,0-6.8,0-10c0.1-3.5,0.2-9.8,2.8-11
	c1.6,0.7,2,1.6,2,8.8C87.5,191.2,87.7,196.1,87.7,199.7z"/>
<path id="XMLID_9615_" class="st0" d="M159.4,108.3c-4.5-0.9-6.7,3.4-7.3,7.2c-1.2,7.9-0.8,16.3-0.7,24.3c0,0,0,0.1,0,0.1
	c-0.2,0.3-0.1,0.9,0.4,0.8c4.5-0.5,14.3-1.8,14.5-2.3c0.2-0.2,0-14.2-0.1-20.9C166,111.3,159.7,108.4,159.4,108.3z"/>
<path id="XMLID_9614_" class="st1" d="M152.5,139.4c-0.2-5.5,0-11,0.1-16.5c0.4-18.4,8.2-12.9,9-12.3c-3.5,1.3-4.6,4.8-5,8.4
	c-0.7,6.4-0.5,13.1,0,19.5C155.2,138.7,153.8,139,152.5,139.4z"/>
<path id="XMLID_9613_" class="st1" d="M165,137.4c-2.4,0-4.9,0.7-7.4,1c-0.4-4.3-0.6-8.6-0.5-12.9c0.1-4.7-0.4-12.5,5.3-14.1
	c2.8,2.8,2.8,8,2.8,12C165.3,128.2,165.1,132.5,165,137.4z"/>
<path id="XMLID_9611_" class="st0" d="M138.7,113c-4.1-0.8-6.2,3.3-6.7,6.9c-1.1,7.6-0.7,15.7-0.7,23.3c0,0,0,0.1,0,0.1
	c-0.2,0.3-0.3,1.5,0.2,1.5c4.1-0.4,13.3-1.8,13.4-2.2c0.2-0.2,0.1-14.3-0.1-20.8C144.7,115.9,139,113,138.7,113z"/>
<path id="XMLID_9610_" class="st1" d="M132.2,143.8c-0.2-5.3,0.1-11.4,0.2-16.7c0.4-17.7,7.5-12.4,8.3-11.9c-3.2,1.3-4.2,4.6-4.6,8
	c-0.7,6.2-0.4,13.5,0.1,19.7C134.9,143.2,133.5,143.4,132.2,143.8z"/>
<path id="XMLID_9609_" class="st1" d="M143.8,141.9c-2.2,0-4.3,0.5-6.6,0.8c-0.4-4.1-0.6-9.1-0.5-13.2c0.1-4.5-0.3-12.1,4.9-13.6
	c2.6,2.7,2.6,7.7,2.6,11.5C144.2,132.1,143.8,137.2,143.8,141.9z"/>
<path id="XMLID_9607_" class="st0" d="M121.6,118.6c-3.4-0.8-5,3-5.5,6.5c-0.9,7.1-0.6,14.6-0.5,21.7c0,0,0,0.1,0,0.1
	c-0.2,0.3-0.1,1.9,0.2,1.9c3.4-0.4,10.7-2.2,10.8-2.6c0.1-0.2,0.1-13.3,0-19.4C126.5,121.3,121.9,118.7,121.6,118.6z"/>
<path id="XMLID_9606_" class="st1" d="M116.4,147.7c-0.1-4.9,0.1-11,0.1-15.9c0.3-16.5,6.1-11.5,6.7-11.1c-2.6,1.2-3.4,4.3-3.7,7.5
	c-0.5,5.8-0.1,12.7,0.3,18.4C118.7,146.8,117.4,147.3,116.4,147.7z"/>
<path id="XMLID_9605_" class="st1" d="M126,145.6c-1.8,0-3.7,0.4-5.5,0.7c-0.3-3.8-0.6-8.5-0.6-12.3c0.1-4.2-0.3-11.2,4-12.7
	c2.1,2.5,2.1,7.2,2.1,10.7C126.1,136.5,126.1,141.2,126,145.6z"/>
<path id="XMLID_9603_" class="st0" d="M109,123.8c-2.8-0.7-4.3,2.9-4.6,6.1c-0.8,6.7-0.5,13.9-0.4,20.6c0,0,0,0,0,0.1
	c-0.2,0.3-0.1,1.5,0.2,1.5c2.8-0.4,9-1.7,9.1-2.1c0.1-0.2,0-12.6,0-18.4C113.1,126.3,109.2,123.9,109,123.8z"/>
<path id="XMLID_9602_" class="st1" d="M104.6,151.4c-0.1-4.7,0-10.4,0.1-15.1c0.3-15.6,5.2-10.9,5.7-10.5c-2.2,1.1-2.9,4.1-3.1,7.1
	c-0.4,5.5-0.1,12.3,0.2,17.7C106.5,150.8,105.4,151,104.6,151.4z"/>
<path id="XMLID_9601_" class="st1" d="M112.7,149.6c-1.5,0-3.1,0.6-4.7,0.9c-0.2-3.6-0.6-8.4-0.5-12.1c0.1-4-0.2-10.7,3.4-12
	c1.8,2.4,1.8,6.8,1.8,10.2C112.7,140.7,112.7,145.4,112.7,149.6z"/>
<path id="XMLID_9599_" class="st0" d="M98.2,129.1c-2.2-0.7-3.3,2.6-3.6,5.5c-0.6,6.1-0.4,12.5-0.3,18.7c0,0,0,0,0,0.1
	c-0.1,0.2-0.3,1.6-0.1,1.5c2.2-0.3,7.3-1.8,7.3-2.2c0.1-0.2,0-11.4,0-16.7C101.4,131.4,98.3,129.1,98.2,129.1z"/>
<path id="XMLID_9598_" class="st1" d="M94.7,154.2c-0.1-4.2,0-9.6,0.1-13.8c0.2-14.1,4-9.9,4.4-9.5c-1.7,1-2.3,3.7-2.5,6.4
	c-0.3,4.9-0.1,11.1,0.2,16C96.3,153.5,95.4,153.8,94.7,154.2z"/>
<path id="XMLID_9597_" class="st1" d="M101.1,152.3c-1.2,0-2.5,0.7-3.7,0.9c-0.2-3.3-0.4-7.7-0.3-11c0.1-3.6-0.2-9.6,2.6-10.9
	c1.4,2.1,1.4,6.2,1.4,9.2C101.1,144.4,101.1,148.6,101.1,152.3z"/>
<path id="XMLID_9595_" class="st0" d="M90.4,133.7c-1.6-0.6-2.4,2.4-2.6,5.2c-0.4,5.7-0.3,11.7-0.3,17.4c0,0,0,0,0,0.1
	c-0.1,0.2,0,0.6,0.1,0.6c1.6-0.3,5.1-1.3,5.2-1.7c0-0.5,0-10.2-0.1-15C92.7,135.9,90.5,133.8,90.4,133.7z"/>
<path id="XMLID_9594_" class="st1" d="M87.9,156.1c-0.1-3.9,0-7.9,0-11.8c0.1-13.2,2.9-9.2,3.2-8.9c-1.2,0.9-1.6,3.4-1.8,6
	c-0.3,4.6-0.2,9.4,0,14C88.9,155.6,88.4,155.8,87.9,156.1z"/>
<path id="XMLID_9593_" class="st1" d="M92.4,155c-0.9,0-1.8,0.1-2.6,0.3c-0.1-3.1-0.2-6.2-0.2-9.2c0-3.4-0.1-9,1.9-10.2
	c1,2,1,5.8,1,8.6C92.5,148,92.4,151.5,92.4,155z"/>
<path id="XMLID_9591_" class="st0" d="M84.4,139.6c-1.2-0.5-1.7,2.1-1.9,4.4c-0.3,4.8-0.2,9.9-0.2,14.7c0,0,0,0,0,0.1
	c-0.1,0.2,0,0.5,0.1,0.5c1.2-0.3,3.7-0.8,3.8-1.1c0-0.1,0-8.9-0.1-13C86,141.4,84.4,139.6,84.4,139.6z"/>
<path id="XMLID_9590_" class="st1" d="M82.6,158.4c0-3.3,0-6.6,0-10c0.1-11.1,2.1-7.8,2.3-7.5c-0.9,0.8-1.2,2.9-1.3,5.1
	c-0.2,3.9-0.1,7.9,0,11.8C83.3,158,82.9,158.2,82.6,158.4z"/>
<path id="XMLID_9589_" class="st1" d="M85.8,157.5c-0.6,0-1.3,0-1.9,0.2c-0.1-2.6-0.1-5.2-0.1-7.8c0-2.9-0.1-7.6,1.4-8.6
	c0.7,1.7,0.7,4.9,0.7,7.2C85.9,151.6,85.8,154.6,85.8,157.5z"/>
<path id="XMLID_9586_" class="st0" d="M304.3,127.9c0,0,0,4.6,0,6.3c0,2,0.1,6.7,0.1,6.7c0,0,6.1,0,7.4-0.2
	c0.4-0.1,0.6-12.6,0.4-12.6C309.8,128,306.7,127.7,304.3,127.9z"/>
<path id="XMLID_9585_" class="st1" d="M311.4,139.7c-1.2,0.2-3.5,0.2-4.7,0.2c-0.6,0-1.1-0.1-1.6,0c-0.2-2.8,0.1-9.5-0.2-11.2
	c2.1,0.2,4.8,0.1,6.9,0.2C311.8,132.4,311.4,139.6,311.4,139.7z"/>
<path id="XMLID_9580_" class="st0" d="M339.2,131.1c0,0,0,3.9,0,5.5c0,1.7,0.1,5.8,0.1,5.8c0,0,6.1,0,7.4-0.2
	c0.4-0.1,0.6-10.9,0.4-10.9C344.7,131.2,341.6,131,339.2,131.1z"/>
<path id="XMLID_9579_" class="st1" d="M346.3,141.4c-1.2,0.1-3.5,0.1-4.7,0.1c-0.6,0-1.1-0.1-1.6,0c-0.2-2.4,0.1-8.3-0.2-9.8
	c2.1,0.2,4.8,0.1,6.9,0.1C346.7,135.1,346.3,141.4,346.3,141.4z"/>
<path id="XMLID_9573_" class="st0" d="M367,135.8c0,0,0,4.6,0,6.5c0,2,0.1,6.8,0.1,6.8c0,0,4,0,4.9-0.3c0.3-0.1,0.4-12.8,0.3-12.8
	C370.6,136,368.7,135.7,367,135.8z"/>
<path id="XMLID_9572_" class="st1" d="M371.7,147.9c-0.8,0.2-2.3,0.2-3.1,0.2c-0.4,0-0.7-0.1-1.1,0c-0.1-2.8,0.1-9.7-0.1-11.4
	c1.4,0.2,3.1,0.1,4.6,0.2C372,140.5,371.7,147.8,371.7,147.9z"/>
<path id="XMLID_9570_" class="st0" d="M383.8,139.9c0,0,0,3.8,0,5.3c0,1.6,0.1,5.6,0.1,5.6c0,0,2.8,0,3.4-0.2
	c0.2-0.1,0.3-10.5,0.2-10.5C386.3,140,384.9,139.8,383.8,139.9z"/>
<path id="XMLID_9569_" class="st1" d="M387.1,149.8c-0.5,0.1-1.6,0.1-2.1,0.1c-0.3,0-0.5-0.1-0.7,0c-0.1-2.3,0-7.9-0.1-9.4
	c1,0.2,2.2,0.1,3.2,0.1C387.2,143.7,387.1,149.7,387.1,149.8z"/>
<path id="XMLID_9562_" class="st0" d="M390.6,143.7c0,0,0,3.8,0,5.3c0,1.6,0.1,5.6,0.1,5.6c0,0,2.8,0,3.4-0.2
	c0.2-0.1,0.3-10.5,0.2-10.5C393.1,143.8,391.8,143.5,390.6,143.7z"/>
<path id="XMLID_9561_" class="st1" d="M393.9,153.5c-0.5,0.1-1.6,0.1-2.1,0.1c-0.3,0-0.5-0.1-0.7,0c-0.1-2.3,0-7.9-0.1-9.4
	c1,0.2,2.2,0.1,3.2,0.1C394.1,147.5,393.9,153.5,393.9,153.5z"/>
<path id="XMLID_9920_" class="st0" d="M137.2,78.2c0,0.5,3.1-1.3,4.6-1.9c0.2-0.1,0.7-0.1,0.9-0.3c1-1,0.7-1.9,0.6-3.4
	c-0.2-2.2,0.3-6.8-1.9-8.2c-1.8-1.1-3.7,0.3-4.5,1.9c-0.7,1.7-0.7,3.9-0.7,5.7c-0.1,2-0.1,4.1,0.5,6C136.7,78.2,137,78.3,137.2,78.2
	z"/>
<path id="XMLID_9806_" class="st1" d="M140.5,65.5c1.1,0.6,2,2,1.9,3.9c0,1,0,5.6,0,5.6c-0.6,0.3-1.5,0.6-2.5,0.9
	C139.7,74,138.8,66.9,140.5,65.5z"/>
<path id="XMLID_9805_" class="st1" d="M137.1,68.9c0.2-2.8,1.5-3.8,2.7-3.6c-1.6,2-0.7,9.4-0.6,10.8c-0.4,0.1-0.7,0.3-1,0.4
	c-0.4,0.2-1,0-1.1-0.5C136.6,73.1,137,69.5,137.1,68.9z"/>
<path id="XMLID_9803_" class="st0" d="M107.2,91c0.1,0.3,0.3,0.3,0.5,0.3c0.1,0.5,2.4-1.4,3.6-2.1c0.2-0.1,0.5-0.1,0.7-0.4
	c0.7-1,0.4-1.9,0.2-3.2c-0.3-2-0.1-6.4-2-7.7c-1.5-1-3,0.4-3.5,2c-0.5,1.6-0.3,3.7-0.3,5.4C106.5,87.2,106.6,89.2,107.2,91z"/>
<path id="XMLID_9802_" class="st1" d="M109.6,79.2c0.8,0.5,1.6,1.8,1.6,3.5c0,0.9,0.3,5.2,0.3,5.2c-0.5,0.3-1.2,0.6-1.9,0.9
	C109.5,87.8,108.2,79.6,109.6,79.2z"/>
<path id="XMLID_9801_" class="st1" d="M107,82.4c0-2.6,0.9-3.6,1.9-3.5c-1.4,1.6-0.1,9.1,0.1,10.2c0,0,0,0,0,0.1
	c-0.2,0.1-0.5,0.2-0.6,0.4c-0.3,0.2-0.8,0-0.9-0.4C106.8,86.4,107,83,107,82.4z"/>
<path id="XMLID_9799_" class="st0" d="M90.9,100.5c0.1,0.2,0.2,0.2,0.3,0.2c0,0.3,1.6-0.9,2.4-1.3c0.1-0.1,0.4-0.1,0.5-0.2
	c0.5-0.7,0.3-1.2,0.2-2.2c-0.1-1.4,0-4.3-1.2-5.2c-1-0.7-2,0.2-2.3,1.3c-0.4,1.1-0.3,2.5-0.3,3.6C90.5,98,90.5,99.3,90.9,100.5z"/>
<path id="XMLID_9798_" class="st1" d="M93.3,93.2c0.3,0.4,0.5,1.1,0.5,1.8c0,0.6,0.1,3.5,0.1,3.5c-0.3,0.2-0.8,0.4-1.2,0.6
	c-0.2-1.4-0.7-5.7,0.5-5.8C93.2,93.3,93.2,93.3,93.3,93.2z"/>
<path id="XMLID_9797_" class="st1" d="M90.9,94.8c0.1-2.2,1.1-2.7,1.9-2.1c-0.6,0.1-0.9,0.7-1,1.4c-0.2,1.7,0,3.6,0.2,5.3
	c-0.1,0.1-0.2,0.1-0.3,0.2c-0.2,0.1-0.5,0-0.6-0.3C90.7,97.5,90.9,95.2,90.9,94.8z"/>
<path id="XMLID_9795_" class="st0" d="M181.8,103.2c-4.8-0.9-7.2,3.6-7.8,7.7c-1.3,8.5-0.8,17.4-0.8,26c0,0,0,0.1,0,0.1
	c-0.3,0.3-0.1,0.9,0.4,0.9c4.8-0.5,15.3-1.2,15.4-1.7c0.2-0.2,0.1-15.9-0.1-23.2C188.8,106.4,182.1,103.2,181.8,103.2z"/>
<path id="XMLID_9794_" class="st1" d="M174.4,136.5c-0.2-5.9,0-11.7,0.1-17.6c0.4-19.7,8.7-13.8,9.6-13.2c-3.7,1.4-4.9,5.1-5.3,9
	c-0.8,6.9-0.5,14,0,20.9C177.3,135.7,175.8,136,174.4,136.5z"/>
<path id="XMLID_9793_" class="st1" d="M187.8,134.9c-2.6,0-5.3,0.1-7.9,0.4c-0.4-4.6-0.6-9.2-0.5-13.8c0.1-5.1-0.4-13.4,5.7-15.1
	c3,3,3,8.6,3,12.8C188.1,124.5,187.9,129.7,187.8,134.9z"/>
<path id="XMLID_9791_" class="st0" d="M199.9,197.8c-0.3,0.4-0.2,1.1,0.4,1c5.6-0.6,20.8,0,21-0.6c0.2-0.2,0.3-20.5,0-28.8
	c-0.4-10.2-11-10-11.4-10.1c-5.6-1-8.4,4.1-9.1,8.8c-1.5,9.6-0.9,19.9-0.9,29.6C199.9,197.7,199.9,197.8,199.9,197.8z"/>
<path id="XMLID_9790_" class="st1" d="M220.3,176.7c0,6,0.6,14.1,0.5,20c-3,0-10.6-0.4-13.7,0c-0.5-5.2-0.1-11.3,0-16.5
	c0.1-5.8,0.5-16.1,7.6-18.1C219.2,163.4,220.3,164.8,220.3,176.7z"/>
<path id="XMLID_9789_" class="st1" d="M201.5,177.2c0.5-22.4,10.9-16.3,11.9-15.7c-4.3,1.6-6.4,6.5-6.9,10.9
	c-0.9,7.8-0.7,16.6-0.1,24.4c-1.8,0.3-3.5,0.5-5.1,1C201,191.1,201.3,183.9,201.5,177.2z"/>
<path id="XMLID_9787_" class="st0" d="M334.4,175.7c-0.4-3.8-1.9-8-4.9-7.1c-0.2,0.1-5.9-0.1-6.1,8.2c-0.2,6.4-0.3,23.8,0.1,23.8
	c3.7,0,7.3-0.4,11.1,0.2c0.3,0.1,0.5-0.3,0.4-0.5c0-0.2-0.1-0.6-0.1-0.6C334.9,191.8,335.2,183.5,334.4,175.7z"/>
<path id="XMLID_9786_" class="st1" d="M323.7,198.1c0-4.7,0.3-10.9,0.3-15.3c0-9.6,0.6-10.8,3-11.8c3.8,1.6,4,10,4.1,14.6
	c0.1,4.1,0.3,8.7,0,12.8c0,0,0,0,0,0c-0.9,0.1-5.4,0.2-7.4,0.3C323.7,198.4,323.7,198.1,323.7,198.1z"/>
<path id="XMLID_9785_" class="st0" d="M323.7,200c0-0.1,0-0.4,0-0.8c2-0.1,6.8-0.4,7.6-0.4c0.1,0,1.7,0.7,2.6,1.1
	C330.5,199.4,327,199.5,323.7,200z"/>
<path id="XMLID_9784_" class="st1" d="M334.2,199.7c-0.9-0.4-1.8-1-2.7-1.2c0.3-6.4,0.4-13-0.1-19.3c-0.3-3.5-1.4-7.5-3.7-8.8
	c0.5-0.5,6.1-5.4,6.4,12.7C334.2,188.5,334.3,194.3,334.2,199.7z"/>
<path id="XMLID_9782_" class="st0" d="M350.2,175.9c-0.4-3.8-1.9-8-4.9-7.1c-0.2,0.1-5.9-0.1-6.1,8.2c-0.2,6.4-0.3,23.8,0.1,23.8
	c3.7,0,7.3-0.4,11.1,0.2c0.3,0.1,0.5-0.3,0.4-0.5c0-0.2-0.1-0.6-0.1-0.6C350.7,192,351,183.7,350.2,175.9z"/>
<path id="XMLID_9781_" class="st1" d="M339.4,198.3c0-4.7,0.3-10.9,0.3-15.3c0-9.6,0.6-10.8,3-11.8c3.8,1.6,4,10,4.1,14.6
	c0.1,4.1,0.3,8.7,0,12.8c0,0,0,0,0,0c-0.9,0.1-5.4,0.2-7.4,0.3C339.4,198.6,339.4,198.3,339.4,198.3z"/>
<path id="XMLID_9780_" class="st0" d="M339.4,200.2c0-0.1,0-0.4,0-0.8c2-0.1,6.8-0.4,7.6-0.4c0.1,0,1.7,0.7,2.6,1.1
	C346.2,199.6,342.8,199.7,339.4,200.2z"/>
<path id="XMLID_9777_" class="st0" d="M364.5,172.9c-0.4-2.2-1.7-4.6-4.4-4.1c-0.2,0-5.3-0.1-5.5,4.7c-0.2,3.7-0.2,13.7,0.1,13.7
	c3.4,0,6.6-0.2,10,0.1c0.3,0,0.4-0.1,0.4-0.3c0-0.1,0-0.3,0-0.3C364.9,182.1,365.2,177.4,364.5,172.9z"/>
<path id="XMLID_9776_" class="st1" d="M354.8,185.7c0-2.7,0.3-6.3,0.3-8.8c0-5.5,0.5-6.2,2.7-6.8c3.4,0.9,3.6,5.7,3.7,8.4
	c0.1,2.3,0.2,5,0,7.4c0,0,0,0,0,0c-0.9,0-4.9,0.1-6.6,0.2C354.8,185.9,354.8,185.7,354.8,185.7z"/>
<path id="XMLID_9775_" class="st0" d="M354.8,186.8c0-0.1,0-0.2,0-0.5c1.8,0,6.1-0.2,6.8-0.2c0.1,0,1.6,0.4,2.3,0.7
	C360.9,186.5,357.8,186.5,354.8,186.8z"/>
<path id="XMLID_9774_" class="st1" d="M364.3,186.7c-0.8-0.2-1.6-0.6-2.5-0.7c0.3-3.7,0.4-7.5-0.1-11.1c-0.2-2-1.3-4.3-3.4-5.1
	c0.5-0.3,5.5-3.1,5.7,7.3C364.2,180.2,364.4,183.6,364.3,186.7z"/>
<path id="XMLID_9772_" class="st0" d="M374.4,177.4c-0.2-2.7-1.1-5.6-2.9-5c-0.1,0-3.5-0.1-3.7,5.8c-0.1,4.6-0.2,16.9,0,16.9
	c2.2,0,4.4-0.3,6.6,0.1c0.2,0,0.3-0.2,0.3-0.3c0-0.1,0-0.4,0-0.4C374.7,188.8,374.9,182.9,374.4,177.4z"/>
<path id="XMLID_9771_" class="st1" d="M368,193.2c0-3.3,0.2-7.8,0.2-10.9c0-6.8,0.3-7.7,1.8-8.4c2.3,1.1,2.4,7.1,2.4,10.4
	c0,2.9,0.2,6.2,0,9.1c0,0,0,0,0,0c-0.6,0-3.3,0.1-4.4,0.2C368,193.4,368,193.2,368,193.2z"/>
<path id="XMLID_9770_" class="st0" d="M367.9,194.5c0-0.1,0-0.3,0-0.6c1.2,0,4.1-0.3,4.5-0.3c0,0,1,0.5,1.5,0.8
	C372,194.2,369.9,194.2,367.9,194.5z"/>
<path id="XMLID_9769_" class="st1" d="M374.3,194.4c-0.5-0.3-1.1-0.7-1.6-0.9c0.2-4.5,0.2-9.2,0-13.7c-0.2-2.5-0.8-5.3-2.2-6.2
	c0.3-0.4,3.7-3.9,3.8,9C374.2,186.4,374.3,190.5,374.3,194.4z"/>
<path id="XMLID_9767_" class="st0" d="M280.2,258.1C280.2,258.1,280.2,258.1,280.2,258.1c-0.1,0-0.1,0-0.2-0.1
	C280,258.1,280.1,258.1,280.2,258.1z"/>
<path id="XMLID_9779_" class="st1" d="M350,199.9c-0.9-0.4-1.8-1-2.7-1.2c0.3-6.4,0.4-13-0.1-19.3c-0.3-3.5-1.4-7.5-3.7-8.8
	c0.5-0.5,6.1-5.4,6.4,12.7C349.9,188.7,350.1,194.5,350,199.9z"/>
<path id="XMLID_9648_" class="st1" d="M403.5,235.8c-0.8,0.5-1.6,1.1-2.4,1.6c-0.1-5.4,0-10.9-0.2-16.3c0-1.3-0.7-8.9-3.7-6.6
	c-1.2,0.9-1.2,3.1-1.3,4.5c-0.1,2.8,0.2,5.6,0.3,8.4c0.1,2.9,0.3,5.8,0.4,8.7c0.1,1.5,0.4,2.8-0.7,3.9c-0.7,0.7-1.5,0.8-2.1,1.5
	c-0.3-6.2,0.1-12.5-0.2-18.7c-0.1-1.4-0.2-10.6-3.6-7.7c-1.6,1.3-1.5,4.3-1.5,6.2c0,3.1,0.3,6.1,0.6,9.2c0.3,3.1,0.7,6.1,0.9,9.2
	c0,0.9,0.2,2,0.1,2.8c-0.1,0.9-0.2,1-1.1,1.5c-0.7,0.4-1.4,0.7-2,1.2c0-7.7,0.2-15.8-0.4-23.5c-0.3-3.8-1.5-8-3.8-7.1
	c-0.2,0.1-4.5-0.1-4.7,8.2c-0.1,6.7-0.1,23.1,0,23.3c0,0.6,0,1,0.1,1.3c-0.5,0.3-1,0.5-1.6,0.7c-0.4,0.1-0.7,0.2-1.1,0.3
	c0-8.1,0.3-16.5-0.4-24.5c-0.3-3.9-1.5-8.2-3.8-7.3c-0.2,0.1-4.5-0.1-4.7,8.4c-0.1,6.1-0.5,20.7-0.5,24.1c-0.5,0-1.3,0.2-1.3,0.2
	c0,0,0,0,0,0c0,0,0.3-16.6-0.4-24.6c-0.4-3.9-1.7-8.2-4.4-7.3c-0.2,0.1-5.4-0.1-5.6,8.4c-0.2,6.9-0.1,23.7,0,23.9l0,0
	c-0.4-0.1-2.2,0.4-2.6,0.5c0,0,0,0,0,0c0,0,0.4-16.6-0.5-24.6c-0.4-3.9-2.1-8.2-5.4-7.3c-0.2,0.1-6.6-0.1-6.8,8.4
	c-0.2,6.3-0.4,20.9-0.3,23.6c-0.1,0-1.4,0.6-1.6,0.7c0-8.3,0.5-16.9-0.7-25.1c-0.6-4-2.7-8.4-6.9-7.5c-0.3,0.1-8.3-0.1-8.7,8.6
	c-0.1,4.2,0.1,10.2,0.3,13.2c-2.8-7.4-5.5-14.4-5.1-15.2c0,0,3.8-0.2,3.8-1.1c0-1.5,0.3-8.8-0.2-8.8c0,0,0-2.2,0-2.2
	c0-0.7-1.5-0.5-1.9-0.5c-0.1-1.2-0.3-2.3-0.5-3.5c0-0.3-2.2-0.5-2.9-0.5c0,0,0-0.1,0-0.1c0.2-4,0.3-7.9,0.4-11.9
	c0-0.2-0.1-0.4-0.2-0.5c0.1-6.8,0.2-13.8-0.5-20.5c-0.4-3.8-1.9-8-4.9-7.1c-0.2,0.1-5.9-0.1-6.1,8.2c-0.1,4.2-0.2,13.2-0.1,18.8
	c-1.7-0.1-3-0.1-3.6,0.1c0.1,0.3,0.2,0.8,0.2,0.7c-0.1-0.2-0.2-0.5-0.2-0.7l0,0c0,0,0,0,0,0c-2.2-6.9-6.7-22.6-9-30.8
	c2.1-0.3,4.2-0.5,6.2-0.8c0.2,0,0.3-0.1,0.3-0.3c0-5.8,0-11.6,0.1-17.4c1.6-0.1,3.2,0,4.8,0.1c0,5.6,0,11.2,0,16.8
	c0,0.3,0.3,0.5,0.6,0.4c2.8-0.6,5.6-1,8.4-1.2c0.3,0,0.5-0.3,0.5-0.6c-0.6-2.5,2.7-1,3.3-0.7c0.3,0.2,0.7,0,0.7-0.4
	c0.1-5.1,0.3-10.1,0.6-15.2c1.9,0.2,3.8,0.4,5.7,0.6c-0.1,7-0.3,14-0.4,20.9c0,0.3,0.2,0.5,0.5,0.5c3.6-0.1,7.2-0.1,10.9-0.2
	c0.3,0,0.5-0.2,0.5-0.5c0.6-6.9,0.6-13.8,0.2-20.7c1.9-0.1,3.9-0.2,5.8-0.1c0.7,6.2,0.6,12.5-0.4,18.7c-0.1,0.3,0.1,0.6,0.5,0.6
	c2.8,0.2,5.6,0.2,8.3,0.1c0.3,0,0.5-0.2,0.5-0.5c0-5.4,0-10.8,0-16.2c1.1,0.2,2.1,0.4,3.2,0.5c1.3,0.1,1.2,0.4,1.5,1.6
	c0.1,0.7,0.1,1.4,0.2,2.1c0.2,3,0.2,6,0,9c0,0.2,0.2,0.5,0.4,0.5c1.3,0.2,2.5,0.3,3.8,0.2c0,0.5,0.1,1,0.2,1.5
	c0.1,0.2,0.3,0.4,0.5,0.4c1.1,0,2.2,0,3.3,0c0.3,0,0.5-0.2,0.5-0.5c-0.2-4.1-0.2-8.1,0-12.2c1.3,0,3.3,0.2,3.9,1.4
	c0.2,0.5,0.1,1.5,0.1,2.1c0,0.8,0.1,1.6,0.1,2.5c0.2,2.9,0.3,5.8,0.5,8.8c0,0.3,0.2,0.5,0.5,0.5c1.8,0,3.7,0,5.5,0
	c0.5,0,0.6-0.5,0.4-0.8c0.3-1.3,0.1-2.7,0-4.1c0-1.5-0.1-3-0.1-4.5c0-0.8-0.3-3.5,0.4-4c0.3-0.2,1.5,0.1,1.9,0.1
	c0.7,0,1.4,0.1,2.1,0.1c0.1,5.5,0.3,11,0.4,16.5c0,0.3,0.3,0.5,0.6,0.5c0.7-0.1,1.4-0.1,2.1-0.1c0,0.2,0,0.5,0,0.7
	c0,0.2,0.1,0.4,0.3,0.4c0.4,0.1,0.8,0.1,1.2,0.2c0.3,0.1,0.6-0.1,0.6-0.4c0.4-4.8,0.4-9.7-0.1-14.5c1,0,2,0,3,0
	c0.1,6.1,0.6,12.2,1,18.3c0,0.2,0.2,0.4,0.4,0.4c0.7,0,1.4,0.1,2.2,0.1c0.1,4.2,0.2,8.4,0.2,12.6c-0.4,0-0.7-0.1-1.1-0.2
	c-0.3-0.1-0.6,0.2-0.6,0.5c-0.2,0-0.1,17.3-0.3,25.7c-0.3,0-0.6-0.1-0.8-0.1c0.3-5.3,0.4-10.7,0.4-16c0-2.5,0.2-5.1,0-7.6
	c-0.1-1-0.2-3.3-1.4-3.6c-0.9-0.2-1.2,0.7-1.3,1.3c-0.4,2.6-0.1,5.5-0.1,8.2c-0.1,5.4-0.1,10.8-0.2,16.2c-0.3,0-0.6,0-0.9,0
	c-0.3-8.5,1.4-32.3-3.6-27.5c-0.1,0.1,0.5,12-1.3,12c-0.4,0-0.7-0.1-1.1-0.1c0.1-4.1,0.3-20.7-0.3-24.8c0-0.2-0.4-0.2-0.4,0.1
	c-0.4,4.2-0.1,8.5-0.1,12.7c0,4.1-0.3,12.7-0.1,12.8c0.1,0.3,2.5,0.7,3.3,0.3c0.8-0.4,0.6-6.1,0.6-8.1c0-0.9-0.2-2.2-0.1-3.1
	c0.1-0.4,0.1-1.3,0.9-1c0.7,0.3,1,19,1.1,27.2c0,0.2,0.2,0.5,0.5,0.5c0.6,0,1.2,0,1.9,0c0.2,0,0.5-0.2,0.5-0.5c0-4.3,0.1-8.7,0.1-13
	c0-2.2,0-4.3,0.1-6.5c0-1.1,0-2.2,0-3.3c0-0.4-0.1-1,0-1.4c0.2-0.8,0.5-1.3,0.9,0.1c0.5,1.8,0.2,4,0.2,5.9c0,2.1-0.1,4.3-0.1,6.4
	c-0.1,4.4-0.3,8.8-0.4,13.2c0,0.3,0.2,0.4,0.4,0.4c0.6,0.1,1.4,0.1,2,0.2c0.2,0,0.4-17.7,0-26.2c0.6,0.2,1.1,0.2,1.7,0.2
	c0.2,0,0.3-9.4,0.2-13.9c0-0.2-0.2-0.4-0.4-0.4c-0.7,0-1.5,0-2.2,0c-0.3-6-0.5-12.2-1.1-18.2c0-0.1,0-0.1,0-0.1
	c0-0.2-0.1-0.5-0.4-0.5c-1.2,0-2.5,0-3.7,0c-0.2,0-0.5,0.2-0.4,0.4c0.5,4.8,0.5,9.6,0.1,14.3c-0.3-0.1-0.3-0.3-0.3-0.8
	c0-0.3-0.2-0.5-0.5-0.5c-0.8,0-1.5,0-2.3,0.1c-0.1-5.5-0.3-10.9-0.4-16.4c0-0.3-0.2-0.5-0.5-0.5c-1-0.1-1.9-0.1-2.9-0.2
	c-0.5,0-1.5-0.3-2-0.1c-0.8,0.3-0.7,1-0.7,1.7c-0.1,2-0.1,4-0.1,5.9c0,1.7-0.2,3.9,0.4,5.6c-1.6,0-3.3,0-4.9,0
	c-0.2-3.8-0.5-7.6-0.7-11.4c-0.1-1.3,0.3-2.2-0.9-2.8c-1.4-0.7-2.9-1-4.5-0.9c-0.3,0-0.5,0.2-0.5,0.5c-0.2,4-0.3,8.1-0.1,12.1
	c-0.8,0-1.6,0-2.3,0c-0.1-0.4-0.1-0.9-0.1-1.4c0-0.3-0.2-0.5-0.5-0.5c-1.2,0.1-2.4,0.1-3.6-0.1c0.3-4.3,0.1-8.5-0.5-12.8
	c0-0.2-0.3-0.4-0.5-0.4c-1.8,0-3.5-0.2-5.3-0.6c-0.3-0.1-0.6,0.1-0.6,0.5c-0.1,5.4-0.1,10.8-0.1,16.3c-2.4,0.1-4.8,0.1-7.2-0.1
	c0.9-6.3,1-12.6,0.3-18.9c0-0.3-0.2-0.5-0.5-0.5c-2.3-0.1-4.5,0-6.8,0.1c-0.3,0-0.5,0.2-0.5,0.5c0.5,6.9,0.4,13.8-0.2,20.6
	c-3.3,0.1-6.6,0.1-9.9,0.2c0.1-6.9,0.2-13.9,0.4-20.8c0-0.3-0.2-0.4-0.5-0.5c-2.2-0.2-4.4-0.4-6.6-0.7c-0.3,0-0.4,0.2-0.5,0.5
	c-0.3,5-0.6,9.9-0.7,14.9c-0.9-0.4-1.9-0.7-2.9-0.2c-0.8,0.4-1.2,1-1.2,1.8c-2.5,0.2-5,0.5-7.5,1.1c0-5.5-0.1-11-0.1-16.6
	c0-0.2-0.2-0.4-0.4-0.4c-1.8-0.1-3.7-0.2-5.5-0.1c-0.2,0-0.4,0.2-0.4,0.4l0,12.1c0,0.9,0,1.9,0,2.8c0,0.7,0.3,2.1-0.3,2.6
	c-0.6,0.4-2.4,0.3-3.1,0.4c-0.9,0.1-1.7,0.2-2.6,0.3c-0.5-1.9-1-3.3-1.2-4c-0.3-1-0.6-4.2-1.7-5.2c-0.5-4.9-1.2-15.6-1.6-15.3
	c-5,0.6-11,1.1-16,1.5c-0.1-3.9-0.7-7.8-1.1-11.7c0.6,0.1,1.2,0,1.8-0.6c1.4-1.3,0.6-5.3,0.8-5.6c0.8-1.6,56,3.2,67.3,5
	c10.7,1.6,21.4,3.6,31.9,5.8c9.2,2,21.8,3.1,28,11.1c0.2,0.3,0.8,8.8,0.9,12.9l0.5,14.2c0.3,9.5,0.5,19,0.9,28.4
	c0,0.2,0.1,0.4,0.2,0.5c3.7,0.1,3,33.9,3.3,34C404.2,235.3,404,235.5,403.5,235.8z"/>
<g>
	<path class="st2" d="M377.2,172.8c0-0.3-0.2-0.5-0.5-0.5c-0.2,0-0.3,0-0.5,0c0.1,0.5,0.1,1.2,0.2,2c0,0,0.1,0.1,0.1,0.1
		c0.4,0.1,0.8,0.2,1.1,0.2c0.3,0.1,0.6-0.1,0.6-0.4c0.1-1.3,0.2-2.6,0.3-4c-0.3,0-0.6,0-0.9,0.1c0,0,0,0,0,0
		c-0.1,1.1-0.2,2.2-0.3,3.3C377.1,173.5,377.1,173.4,377.2,172.8z"/>
	<path class="st2" d="M382.2,213.4c0,0.5,0,0.9,0,1.3c0.4-0.1,0.7-0.1,0.8-0.1c0-0.4,0-0.8,0-1.2
		C382.7,213.4,382.5,213.4,382.2,213.4z"/>
	<path class="st2" d="M378.1,196.4c-0.1-4.4-0.5-7.9-1.6-8.8c0,0.6,0,1.1,0,1.6c0.2,1.1,0.3,4,0.3,7.6c0.2,0,0.4,0.1,0.6,0.1
		C377.8,197,377.9,196.7,378.1,196.4z"/>
	<path class="st2" d="M368.8,168.7c0.2-0.7,0.2-1.4,0.2-2.1c-0.3,0-0.6,0-1,0c0,0.6,0.1,1.2,0.3,1.8c-1.6,0-3.3-0.1-4.9-0.1
		c-0.1-3.8-0.3-7.6-0.4-11.4c0-1.3,0.3-2.2-0.9-2.8c-0.3-0.2-0.6-0.3-0.9-0.4c0,0.3,0,0.7,0,1c0.4,0.2,0.6,0.5,0.8,0.8
		c0.2,0.5,0,1.5,0.1,2.1c0,0.8,0,1.6,0.1,2.5c0.1,2.9,0.2,5.8,0.3,8.8c0,0.3,0.2,0.5,0.5,0.6c1.8,0,3.7,0.1,5.5,0.1
		C368.8,169.5,369,169,368.8,168.7z"/>
	<path class="st2" d="M381.9,171.2c0,0.1-0.1,0.2-0.1,0.3c0.1,2.2,0.2,4.5,0.3,6.7c0,0.2,0.2,0.4,0.4,0.4c0.7,0.1,1.4,0.1,2.2,0.2
		c0,2.7,0,5.4,0,8.1c0.1,0,0.2,0,0.4,0c0.2,0,0.3,0.1,0.4,0.2c0.1-2.9,0.2-6.4,0.2-8.7c0-0.2-0.2-0.4-0.4-0.5
		c-0.7,0-1.5-0.1-2.2-0.1c-0.2-6.1-0.2-12.2-0.7-18.2c0-0.1,0-0.1,0-0.1c0-0.2,0-0.3-0.1-0.4C382.3,163.1,382.2,167.1,381.9,171.2z"
		/>
	<path class="st2" d="M385.3,188.8c-0.3-1-0.5-0.9-0.7-0.4c0,1,0,2,0,3c-0.1,0-0.1,0-0.2,0c0,0.3,0,0.6,0,0.9c0.2,0,0.4,0,0.6,0
		C385.1,192.3,385.2,190.8,385.3,188.8z"/>
	<path class="st2" d="M382.9,191.5c-0.1,0-0.4,10-0.6,18.5c0,0.9,0,1.7,0,2.5c0.2,0,0.5,0,0.7,0c0.2-5.9,0.4-15,0.3-20.5
		c0,0,0.1,0,0.1,0c0-0.3,0-0.6,0-0.9C383.1,191,382.9,191.3,382.9,191.5z"/>
	<path class="st2" d="M353.3,164.7c0,0.5,0.1,1,0.2,1.5c0.1,0.2,0.3,0.4,0.5,0.4c1.1,0,2.2,0.1,3.3,0.1c0.3,0,0.5-0.2,0.5-0.5
		c0-0.7,0-1.4,0-2.1c-0.1,0-0.2,0-0.3,0c-0.2,0-0.4-0.2-0.5-0.4c-0.1-0.4-0.2-0.8-0.2-1.2c0,1.1,0,2.1,0,3.2c-0.8,0-1.6,0-2.3-0.1
		c-0.1-0.5-0.1-0.9-0.1-1.4c0-0.3-0.2-0.6-0.5-0.5c-1.2,0.1-2.4,0.1-3.6-0.1c0.4-4.3,0.3-8.5-0.2-12.8c0-0.2-0.3-0.4-0.5-0.4
		c-0.6,0-1.2-0.1-1.8-0.1c0,0.3,0,0.7,0,1c0,0,0.1,0,0.1,0c1.3,0.1,1.2,0.4,1.4,1.7c0.1,0.7,0.1,1.4,0.1,2.1c0.1,3,0,6-0.3,8.9
		c0,0.2,0.2,0.5,0.4,0.5C350.8,164.6,352.1,164.7,353.3,164.7z"/>
	<path class="st2" d="M307.8,162.8c0-0.2-0.1-0.4,0-0.5c-0.3,0-0.6,0.1-0.9,0.1c0,0,0,0,0,0.1c-0.3,0-0.6,0-0.9,0.1
		c-1.2,0.2-2.4,0.4-3.5,0.6c-0.2,0-0.4,0-0.5-0.2c-0.9,0.1-1.7,0.3-2.6,0.4c0.1-5.5,0.2-11,0.3-16.6c0-0.2-0.2-0.4-0.4-0.4
		c-0.7-0.1-1.4-0.1-2.1-0.2c0,0.3,0,0.5,0,0.8c0.6,0,1.2,0.1,1.7,0.1c-0.1,5.6-0.3,11.2-0.4,16.7c0,0.3,0.3,0.5,0.6,0.5
		c2.8-0.5,5.6-0.8,8.4-1C307.7,163.4,307.9,163.1,307.8,162.8z"/>
	<path class="st2" d="M329.6,166c0.6-6.1,0.7-12.2,0.4-18.3c0.7,0,1.4,0,2.1,0c0-0.3,0-0.7,0-1c-0.9,0-1.7,0-2.6,0.1
		c-0.3,0-0.5,0.2-0.5,0.5c0.3,6.3,0.1,12.6-0.5,18.8C328.9,166,329.2,166,329.6,166z"/>
	<path class="st2" d="M375.7,189c0-0.5,0-1,0-1.5c-0.3,0.1-0.6,0.3-0.9,0.6c-0.1,0.1,0.2,12-1.5,11.9c-0.4,0-0.7-0.1-1.1-0.2
		c0.2-4.1,0.8-20.7,0.3-24.8c0-0.2-0.4-0.2-0.4,0c-0.5,4.2-0.3,8.5-0.4,12.7c-0.1,4.1-0.6,12.7-0.4,12.8c0.1,0.3,2.5,0.8,3.3,0.4
		c0.8-0.4,0.8-6.1,0.8-8.1c0-0.9-0.2-2.2,0-3.1C375.5,189.6,375.5,189.2,375.7,189z"/>
	<path class="st2" d="M343.8,167.3c0.3,0,0.5-0.2,0.5-0.5c0-0.6,0-1.1,0-1.7c-0.3,0-0.7,0-1,0c0,0.4,0,0.8,0,1.2
		c-2.4,0-4.8,0-7.2-0.2c1.1-6.2,1.3-12.5,0.7-18.8c0-0.3-0.2-0.5-0.5-0.5c-1.1-0.1-2.1-0.1-3.2-0.1c0,0.3,0,0.7,0,1
		c0.9,0,1.8,0,2.7,0.1c0.5,6.3,0.3,12.5-0.9,18.7c-0.1,0.3,0.1,0.6,0.5,0.7C338.2,167.3,341,167.4,343.8,167.3z"/>
	<path class="st2" d="M293.5,164.4c0-0.1,0-0.2,0-0.4c-0.4,0-0.8,0.1-1.2,0.1c-0.4,0.2-1.2,0.2-2,0.2c0,0,0,0,0,0
		c0.1,0.2,0.1,0.4,0.2,0.6c0.9-0.1,1.8-0.2,2.6-0.3C293.4,164.7,293.5,164.6,293.5,164.4z"/>
	<path class="st2" d="M293.6,163.4c0.2-5.5,0.3-11,0.4-16.4c0.8,0,1.5,0,2.3,0l0-0.8c-0.9,0-1.8,0-2.6,0c-0.2,0-0.4,0.2-0.4,0.4
		l-0.3,12.1c0,0.9,0,1.9-0.1,2.8c0,0.5,0.1,1.3,0,1.9C293.1,163.4,293.3,163.4,293.6,163.4z"/>
	<path class="st2" d="M329.4,168.3c0-0.5,0.1-0.9,0.1-1.4c-0.3,0-0.7,0-1,0c0,0.3,0,0.5-0.1,0.8c-3.3,0-6.6,0-9.9,0
		c0.3-6.9,0.6-13.9,0.9-20.8c0-0.3-0.2-0.4-0.5-0.5c-1.1-0.1-2.1-0.3-3.2-0.4c0,0.3,0,0.6,0,0.9c0.9,0.1,1.8,0.2,2.7,0.4
		c-0.3,7-0.6,13.9-0.9,20.9c0,0.3,0.2,0.5,0.5,0.5c3.6,0,7.2,0,10.9,0.1C329.1,168.8,329.3,168.6,329.4,168.3z"/>
	<path class="st2" d="M373.5,156.4c0,5.5,0,11,0,16.5c0,0.3,0.3,0.5,0.6,0.5c0.6-0.1,1.1-0.1,1.6-0.1c0-0.3,0-0.6,0.1-0.9
		c-0.4,0-0.9,0-1.3,0.1c0-5.5,0-10.9,0-16.4c0-0.3-0.2-0.5-0.5-0.5c-0.6,0-1.2-0.1-1.7-0.1c0,0.3,0,0.6,0,0.9
		C372.7,156.4,373.1,156.4,373.5,156.4z"/>
	<path class="st2" d="M310.8,162c0.1,0.1,0.2,0.1,0.3,0.2c0.3,0.2,0.7,0,0.7-0.4c0-0.6,0.1-1.2,0.1-1.8c-0.6,0.1-0.9,0.4-0.7,1.4
		C311.3,161.7,311.1,162,310.8,162z"/>
	<path class="st2" d="M377.8,159c0.1,3.5,0.2,6.9,0.3,10.4c0.2,0,0.4,0,0.6,0c0.2-3.2,0.1-6.4-0.1-9.6c0.9,0,1.8,0,2.7,0
		c0-0.3,0-0.6-0.1-0.9c-1,0-2,0-3,0C378,158.9,377.9,158.9,377.8,159z"/>
	<path class="st2" d="M366.8,219.4c-0.1,0-1.6,0-2.9,1.5c0.3,1.1,0.5,2.4,0.6,3.6c0.7,8,0.4,24.6,0.4,24.6c0,0,0,0,0,0
		c0,0,0.9-0.2,1.3-0.2c0-3.4,0.4-18,0.5-24.1c0.1-2.5,0.5-4.3,1.1-5.5C367.6,219.3,367.2,219.2,366.8,219.4z"/>
	<path class="st2" d="M378.3,246.1c-0.1-0.2-0.1-16.6,0-23.3c0-2.3,0.4-3.9,0.9-5.1c-0.3-0.1-0.6-0.1-0.9,0c-0.1,0-2.2-0.1-3.6,2.4
		c0.3,1.2,0.5,2.5,0.6,3.7c0.6,8,0.4,16.4,0.4,24.5c0.4-0.1,0.7-0.2,1.1-0.3c0.5-0.2,1.1-0.4,1.6-0.7
		C378.3,247.1,378.2,246.7,378.3,246.1z"/>
	<path class="st2" d="M354.6,225.5c0.1-2.8,0.7-4.7,1.5-5.9c-0.2,0-0.4,0-0.6,0.1c-0.1,0-2.8-0.1-4.5,2.9c0.2,0.9,0.4,1.8,0.5,2.7
		c0.9,8,0.5,24.6,0.5,24.6c0,0,0,0,0,0c0.4-0.1,2.2-0.5,2.6-0.5l0,0C354.4,249.2,354.4,232.4,354.6,225.5z"/>
	<path class="st2" d="M341.2,220.2c-0.4,0-3.3,0-5.2,2.6c0.3,0.9,0.5,1.8,0.6,2.7c1.1,8.2,0.7,16.9,0.7,25.1
		c0.2-0.1,1.5-0.7,1.6-0.7c-0.1-2.7,0.1-17.3,0.3-23.6C339.2,223.3,340.1,221.4,341.2,220.2z"/>
	<path class="st2" d="M401.1,200.9c-0.1-0.1-0.2-0.3-0.2-0.5c-0.4-9.5-0.6-19-0.9-28.4l-0.5-14.2c-0.1-4.1-0.7-12.6-0.9-12.9
		c-6.2-8-18.8-9.1-28-11.1c-10.6-2.3-21.2-4.2-31.9-5.8c-11.3-1.7-66.6-6.5-67.3-5c0,0,0,0.1,0,0.2c10.9,0.1,54.8,5.1,64.7,6.8
		c10.7,1.9,21.3,4.1,31.8,6.6c9.2,2.2,21.7,3.6,27.8,11.7c0.2,0.3,0.6,8.8,0.6,12.9l0.1,14.2c0.1,9.5,0.1,19,0.2,28.5
		c0,0.2,0.1,0.4,0.2,0.5c1.3,0.1,2,4.4,2.3,10c1.5,1.1,1.9,5.8,1.9,6.8c0.2,5.4,0.1,10.9,0.2,16.3c0.8-0.5,1.6-1.1,2.4-1.6
		c0.5-0.3,0.7-0.5,0.8-0.9C404.1,234.8,404.8,201,401.1,200.9z"/>
	<path class="st2" d="M324.1,219.9c-0.9,0.1-2.4,0.3-3.9,1.1c0,1.1-0.1,2.1-0.1,2.5c0,0.7-2.1,0.9-3.2,1c-0.2,0.4-0.3,0.9-0.5,1.4
		c0.6,2.5,2.7,8,4.9,13.8c-0.2-3.1-0.5-9.1-0.3-13.2C321.1,223.1,322.5,221.1,324.1,219.9z"/>
	<path class="st2" d="M388.6,244.2c-0.1-5.9,0.4-11.8,0.3-17.7c-0.1-1.5-0.2-3.1-0.2-4.6c-0.3-2.4-0.9-4.6-2.6-4
		c0.3,1.2,0.5,2.5,0.6,3.8c0.6,7.7,0.4,15.8,0.4,23.5C387.6,244.8,388.1,244.5,388.6,244.2z"/>
	<path class="st2" d="M396.1,224.7c0-1.2-0.4-7.7-2.8-7c0.4,2.1,0.5,4.5,0.5,5.2c0.3,6.2-0.1,12.5,0.2,18.7c0.6-0.6,1.4-0.8,2-1.4
		C396,235,396.1,229.8,396.1,224.7z"/>
	<path class="st2" d="M381.4,215.1c0-0.6,0.1-1.3,0.1-1.9c0-0.1-0.1-0.1-0.1-0.2c0-3.3-0.1-8.3-0.2-13.1c-0.1,1.5-0.1,3-0.2,4.4
		c-0.2,3.8-0.4,7.6-0.6,11.5C380.7,215.5,381,215.2,381.4,215.1z"/>
	<path class="st2" d="M357.2,153.5c-0.2,2.6-0.3,5.1-0.4,7.7c0.2,0,0.3,0,0.5,0c0.3,0,0.5,0.3,0.5,0.5c0,0.3,0,0.5,0,0.8
		c0-2.8,0.1-5.7,0.3-8.5c0.6,0,1.4,0.1,2.1,0.3c0-0.3,0-0.6,0-0.9c-0.8-0.2-1.7-0.3-2.6-0.3C357.4,153,357.2,153.2,357.2,153.5z"/>
	<path class="st2" d="M369.1,155.2c-0.8,0.3-0.7,0.9-0.8,1.7c-0.1,2-0.2,4-0.2,5.9c0,0.8-0.1,1.8-0.1,2.7c0.3,0,0.6,0,1,0
		c0-0.3,0-0.6,0-0.9c0-1.5,0-3,0-4.5c0-0.8-0.2-3.5,0.4-4c0.3-0.2,1.5,0.1,1.9,0.2c0,0,0.1,0,0.1,0c0-0.3,0-0.6,0-0.9
		c-0.1,0-0.3,0-0.4,0C370.5,155.3,369.6,155,369.1,155.2z"/>
	<path class="st2" d="M377.2,216.5c0.6,0,1.2,0,1.9,0c0.2,0,0.5-0.2,0.5-0.4c0.1-4.3,0.3-8.7,0.4-13c0.1-2.2,0.1-4.3,0.2-6.5
		c0-1.1,0.1-2.2,0.1-3.2c0-0.4-0.1-1,0-1.4c0.2-0.5,0.4-0.9,0.6-0.6c0-0.4,0-0.9-0.1-1.3c-0.8-0.2-1.2,0.6-1.3,1.3
		c0,0.1,0,0.2,0,0.2c0,1.9,0,4.5-0.3,5.7c0,0.7,0,1.5,0,2.2c-0.2,5.4-0.4,10.8-0.6,16.1c-0.3,0-0.6,0-0.9,0
		c-0.1-4,0.4-11.3,0.4-17.5c-0.4,0-0.8,0-1.2-0.1c0.1,6,0,13.5-0.1,18C376.8,216.2,377,216.5,377.2,216.5z"/>
	<path class="st2" d="M343.8,150.1c-0.2,4.7-0.3,9.4-0.4,14.1c0.3,0,0.7,0,1,0c0.1-4.5,0.2-9,0.4-13.4c0.7,0.2,1.4,0.3,2.1,0.4
		c0-0.3,0-0.7,0-1c-0.8-0.1-1.6-0.3-2.4-0.5C344.1,149.5,343.8,149.7,343.8,150.1z"/>
	<path class="st2" d="M305.8,169.5c-0.2,0.1-5.9-0.2-6.3,8c-0.2,3.6-0.4,10.7-0.5,16.1c0.2,0.5,0.3,1.1,0.5,1.5c0,0,0,0,0,0l0,0
		c0.1,0.3,0.2,0.5,0.2,0.7c0,0-0.1-0.4-0.2-0.7c0.6-0.1,2-0.1,3.6-0.1c-0.1-5.6,0-14.6,0.1-18.8
		C303.3,172.6,304.5,170.6,305.8,169.5C305.8,169.5,305.8,169.5,305.8,169.5z"/>
	<path class="st2" d="M308.1,160.7c-0.4,0.2-0.7,0.4-0.9,0.7c1-0.1,2-0.2,3-0.3c0-0.1,0-0.2,0.1-0.4
		C309.6,160.5,308.8,160.4,308.1,160.7z"/>
	<path class="st2" d="M311.9,146.1c-0.4,4.5-0.7,9-0.9,13.5c0.1-0.1,0.3-0.2,0.4-0.3c0.2-0.1,0.4-0.1,0.6-0.2
		c0.2-4.2,0.4-8.3,0.8-12.5c0.7,0.1,1.3,0.2,2,0.3c0-0.3,0-0.6,0.1-0.9c-0.8-0.1-1.6-0.2-2.5-0.3
		C312.1,145.6,311.9,145.9,311.9,146.1z"/>
</g>
<g>
	<path class="st2" d="M315.1,226.6c-0.3,0.1-1.4,0.2-1.6,0.4c-1.6,1.1-0.8,3.2-0.2,4.7c3.1,8,5.1,16.2,6.9,24.5c1.8,0,3.6,0,5.4-0.1
		c-0.1-0.1-0.1-0.2-0.1-0.3c-2.7-9.5-5.5-18.8-9.7-27.7C315.5,227.6,315.3,227.1,315.1,226.6z"/>
	<path class="st2" d="M297.2,218.9c1.2-0.2,2-0.2,2.1-0.2c1.6-0.3,3-0.1,4.1,0.5c4.5,0.2,9,0.3,13.4,0.3c-0.1,1-0.4,2.2-0.5,3
		c0,0.2,0,0.4-0.1,0.6c0.4-0.1,0.9-0.2,1-0.3c1-0.9,0.9-2.9,1-4.1c0-0.8,0.3-2,0.3-3c-18.9,1-38.2,1.4-57.1-0.4c0,0,0,0,0,0
		C273.3,217.3,285.2,218.3,297.2,218.9z"/>
	<path class="st2" d="M263.7,221.2c0,0.4-0.1,0.8-0.2,1.2c1.4-1.1,2.9-1.7,4.3-2.1C266.7,220.4,265.2,220.6,263.7,221.2z"/>
	<path class="st2" d="M289.8,222.9c-2.1,1.3-3.9,3.6-4.4,7.5c-0.7,6.4-1.7,20.1-1.9,26c1.5,0,2.9,0,4.4,0
		c-0.2-4.6-0.2-20.5,0.1-27.6C288,226.3,288.8,224.4,289.8,222.9z"/>
</g>
<g>
	<path class="st2" d="M79.2,218c0.2-1.6,1.4-3.2,1.4-4.8c0-0.1,0-0.2,0-0.3c-1-0.5-1.9-1.1-2.6-1.9c0,0.1,0,0.2,0,0.3
		c0,1.6-1.2,3.2-1.3,4.8c-0.2,1.9,0,3.7,0.1,5.6c0,0.2,0,0.5,0,0.7c0.3-1.5,0.7-2.5,1.3-2c0,0,0.5,0,0.9,0.7
		C79.1,220,79.1,219,79.2,218z"/>
	<path class="st2" d="M81.8,223.5c-0.5-1.2-1.2-1.2-1.2-1.3c-0.3-0.2-0.6-0.1-0.8,0.3c0.3,1.1,0.5,2.6,0.5,5c0.1,5.7,0,19.5,0,20.5
		c0,0,0,0,0,0c0.2,0.4,0.3,0.9,0.6,1.3c-0.1-3.6-0.1-15.6,0.3-22.1C81.4,226,81.6,224.7,81.8,223.5z"/>
	<path class="st2" d="M90.2,226.2c-0.7-3-2.3-3.6-3-3.8c0.6,1.2,1.1,3,1.2,5.9c0.1,6.3,0.1,21.5,0,22.7c0.4,0.2,0.7,0.4,1.1,0.5
		c-0.1-3.4-0.1-15.7,0.3-22.2C89.8,228.3,90,227.2,90.2,226.2z"/>
	<path class="st2" d="M90,216.8c6.2,0.9,12.4,1.7,18.6,2.4c12.4,1.3,24.8,2.2,37.3,2.8c2.3,0.1,4.6,0.2,6.9,0.3c1-0.7,2.2-1,3.6-0.7
		c0.1,0,1.9,0,3.9,0.9c4.2,0.1,8.5,0.2,12.7,0.3c1.5-1.9,3.6-3,6.4-2.5c0.3,0.1,4.5,0,7.8,2.7c4.4,0,8.8,0.1,13.2,0.1
		c1.7-2.2,4.1-3.5,7.5-2.9c0.3,0.1,5.2,0,8.9,2.9c1.3,0,2.6,0,4,0c3.9,0,7.9,0,11.8,0c1.6-1.3,3.7-2,6.3-1.6c0.2,0,3.7,0,6.9,1.6
		c5.3,0,10.5,0,15.8,0c0.3-2,0.7-3.9-0.6-5.9c0,0,0,0-0.1,0c-14.2,0.3-28.4,0.6-42.6,0.9c-25,0.5-49.9,1.1-74.9,0.4
		c-12.5-0.3-24.9-0.9-37.3-2c-6.2-0.5-12.4-1.2-18.6-2c-2.3-0.3-4.8-0.7-6.9-1.8C82.9,215.5,86.7,216.3,90,216.8z"/>
	<path class="st2" d="M98.5,228c-0.7-2.4-2-3.1-2.7-3.3c0.6,1.2,1,2.9,1.1,5.6c0.1,6.3,0.1,21.3,0,22.7c0.2,0.1,0.4,0.3,0.7,0.3
		c0.1,0,0.3,0.1,0.4,0.1c-0.2-2.4-0.3-16.6,0.4-24C98.4,229,98.4,228.5,98.5,228z"/>
	<path class="st2" d="M273,263.4c0.4,0,0.8-0.1,1-0.2c-1.8-3.6-3.1-7.4-4.3-11.2C270.7,255.8,271.7,259.6,273,263.4z"/>
	<path class="st2" d="M267.8,245.9c0.1,0.3,0.2,0.6,0.3,0.9c-0.7-2.3-1.4-4.6-2.2-6.9c-0.4-1-0.7-2-1.1-3
		C265.7,239.9,266.8,242.9,267.8,245.9z"/>
	<path class="st2" d="M167.7,262.4c-1.3-7.1,0.1-20.4,0-26.6c0-4-1.3-6.4-2.8-8c0.4,1.2,0.6,2.6,0.7,4.2
		C165.8,239.7,164.2,258.6,167.7,262.4z"/>
	<path class="st2" d="M222.5,263.8c0.3-7.4,0.5-20.6,0.4-27.2c-0.1-3.2-1-5.5-2.4-7.1c0.1,0.7,0.2,1.4,0.2,2.1
		c0.3,8.6,0.3,28.6,0,32C220.9,263.8,221.7,263.8,222.5,263.8z"/>
	<path class="st2" d="M253.9,262.2c0.1-7.2,0-18.5-0.1-24.2c-0.1-2.8-0.9-4.9-2.2-6.5c0,0.3,0.1,0.5,0.1,0.8
		c0.3,7.7,0.7,25.4,0.6,29.8C252.7,262.1,253.3,262.1,253.9,262.2z"/>
	<path class="st2" d="M192.7,263.5c0.3-7.4,0.5-20.8,0.4-27.4c-0.1-3.6-1.1-6.1-2.6-7.8c0.3,1,0.5,2.1,0.5,3.4
		c0.3,8.1,0.2,26.6,0.1,31.4C191.4,263.3,192,263.4,192.7,263.5z"/>
	<path class="st2" d="M124.9,234.6c0-4.5-1.6-6.8-3.2-7.9c0.6,1.2,1,2.9,1,5c0.2,7.3,0.1,25.2,0,25.5c0,0-0.1,0-0.2,0
		c0,0.3,0.1,0.6,0.1,0.9c0.2,0.1,0.3,0.2,0.6,0.2c0.4,0.1,0.8,0.2,1.1,0.3C124.6,254.4,124.9,240.7,124.9,234.6z"/>
	<path class="st2" d="M110,233.1c0-5.2-1.8-7.2-3.3-8c0.6,1.2,1.1,3,1.1,5.4c0.2,6.9-0.1,24.1-0.2,24.1c0.1,0.3,0,0.7,0.2,0.9
		c0.3,0.3,0.8,0.2,1.2,0.3c0.1,0,0.2,0,0.3,0C109.6,251.6,110,238.8,110,233.1z"/>
	<path class="st2" d="M144.4,235.3c0-3.9-1.4-6.3-3-7.8c0.5,1.2,0.8,2.7,0.9,4.5c0.3,7.7,0.2,26.2,0,28.1c0,0,0,0,0,0
		c0,0.2,0,0.3,0,0.5c0.4,0.1,1,0.1,1.6,0.1C144.1,254.9,144.4,241.6,144.4,235.3z"/>
</g>
<g>
	<path class="st2" d="M259.8,179.9c0-3.1-0.2-7.4,1.1-10.7c-4.4,2.9-3.3,10-3.1,14.6c0.1,1.8,0.4,6.4,0.8,11.3c0.5,0,0.9,0,1.4,0.1
		C259.8,188.9,259.8,182.2,259.8,179.9z"/>
	<path class="st2" d="M236,171.1c0,0,0,0.1,0,0.1C236,171.2,236.1,171.1,236,171.1C236.1,171.1,236,171.1,236,171.1z"/>
	<path class="st2" d="M293.2,198.6c0.6,0,0.6-1-0.1-1c-4.1,0.2-11.2,0.4-13.6,0.3c0,0.5-0.1,0.9-0.1,1.4
		C284,199.1,288.6,198.8,293.2,198.6z"/>
	<path class="st2" d="M311.3,197.1C311.3,197.1,311.3,197.1,311.3,197.1C311.3,197.1,311.3,197.1,311.3,197.1
		c-4.5,0-13-0.4-13.1-0.8c-3.5-13.4-8-26.8-11.3-40.2c-0.1,0.1-0.3,0.1-0.4,0.1c-9.9,0.5-19.7,1.1-29.6,1.7
		c-7.8,0.5-15.6,1.3-23.5,1.7c0.4,1.3,0.5,2.7,0.6,4.1c0,0.3,0.1,0.6,0.1,1c6.4-0.8,12.9-1.9,19.3-2.7c9.8-1.2,19.6-2.4,29.4-3.6
		c0.1,0,0.3-0.1,0.4-0.2c4.1,13.2,9.5,26.2,13.8,39.4c0.1,0.4,8.6,0.3,13.1,0c0,0,0,0,0,0c0,0,0,0,0,0c0.9-0.1,1.7-0.1,2.1-0.2
		c0.1,2.6,0.1,5.3,0.2,7.9c0.2,0,0.4,0,0.5,0c0.1-2.8,0.2-5.6,0.3-8.3C313,197.1,312.3,197.1,311.3,197.1z"/>
</g>
</svg>
