<?xml version="1.0" encoding="utf-8"?>
<!-- Generator: Adobe Illustrator 24.0.3, SVG Export Plug-In . SVG Version: 6.00 Build 0)  -->
<svg version="1.1" id="Layer_1" xmlns="http://www.w3.org/2000/svg" xmlns:xlink="http://www.w3.org/1999/xlink" x="0px" y="0px"
	 viewBox="0 0 435.3 288.9" style="enable-background:new 0 0 435.3 288.9;" xml:space="preserve">
<style type="text/css">
	.st0{fill-rule:evenodd;clip-rule:evenodd;fill:#6A6D4F;}
	.st1{fill-rule:evenodd;clip-rule:evenodd;fill:#FFFFFF;}
	.st2{fill-rule:evenodd;clip-rule:evenodd;fill:#AFC2D2;}
</style>
<path class="st0" d="M405.1,154.1c-2.5-9.7-10-16.4-15.3-24.4c-1.1-1.7-3.2-4.1-3.8-6.3c-1.1-3.9-0.1-8.6-1.8-12.5
	c-1-2.4-3.8-4.5-5.6-6.9c-8-10.7-12.4-25.2-19.7-36.3c-1.8-7.3-6.3-12.7-10.3-18.8c-1.7-2.6-3.7-6-5.6-9c-1.8-2.9-4.8-6.4-5.6-9
	c-0.3-1,0.1-2.4-0.3-3.4c-0.7-1.6-2.7-2.7-3.4-4.4c-3.6-1.3-7.2-2.4-10.7-4.4c-3.1-1.7-5.7-5.3-9-3.8c-9.6-7.7-28.4-9.7-44.4-9.7
	c-6.2,0-12.1,0.3-17.9,0.9c-6.1,0.7-10.5,2.4-15.3,3.4c-5.2,1-10.5,1.6-15.7,2.9c-5.3,1.3-11,2.4-15.9,2.5
	c-10.4,0.3-21-2.9-30.9-1.8c-25.9,2.4-41,17.5-55.4,31.7c1.7,0.6,3.4-2.7,3.1-1.3c-1.9,3.1-5.5,5.5-7.2,8.7
	c-4.8,9.3-4.5,28.7-2.5,40.1c0.8,4.7,6.8,10.2,10,14.1c3.4,4,7.6,7.9,10,11.9c5.4,8.9,7.2,21.3,11.6,31.3
	c5.3,12.1,12.9,23.6,24.1,30.4c6.5,4,14.1,4.4,21.3,7.6c12.3,5.4,20,18.7,30,28.5c4.7,4.6,10.3,9,15.9,13.2c10,7.3,31.6,14.1,38.5,0
	c5.3,2.3,4.1-9.7,4.1-15c0-6.9-1.4-13.2-0.3-18.4c1.4-6.6,3-13.6,3.1-21.3c0.1-8.4-0.5-16.1-1.8-22.8c8.1,5.7,17.4-0.7,23.8-4.1
	c2.5,0.9,4.8,2.1,8.1,2.2c2.3,4.1,5.5,6,9.7,7.8c1.1,0.5,2.7,1.4,3.8,1.6c2.1,0.3,4.9-0.8,7.2-0.3c1.7,0.5,4.1,3.8,6.9,5.3
	c4.6,2.7,11.1,3.3,15.7,5.3c10.9,11.5,13.5,41.7,3.8,57.3c-1.7-1.4-6.4-1.8-8.7-0.6c-2.5-3.1-4.8-6.2-8.1-8.5
	c-4.2,0.5-8.5-0.6-13.4,0c-7.1,0.8-11.2,5.4-16.3,8.7c-3.7,2.4-7.2,5.7-8.5,8.5c-2.5,5.3-3.1,11.5-3.1,16.3c0,10.2,4,16.1,9.4,21.3
	c2.7,2.6,5.6,5.8,8.1,7.6c3.2,2.1,7.6,2.2,11.9,2.9c1.4,0.2,2.3,0.9,3.4,0.9c10.3,0.7,19.7-4.4,26.2-7.8c9.7-5.2,18.8-11.8,26-19.4
	c2.5-2.6,4.6-6.4,7.2-9.4c5.7-6.6,11.6-12.3,12.5-21.9c2.5-4,4.7-8.7,6.3-14.1c1.5-4.8,4.5-11.3,4.1-16.6c-0.1-1.8-1.5-3.9-2.2-6
	c-2.2-6.8-2.6-13.7-4.1-20c5.4-1.3,11.9-2.6,17-5c4-1.9,8.8-5,8.1-10C424.8,150.6,414.2,154.4,405.1,154.1z"/>
<path class="st1" d="M194.2,18.3c-9.2,0-18.2,0.1-25.3,2.2C178.8,21,187.1,22.1,194.2,18.3z"/>
<path class="st1" d="M195.1,22.8c1.7,0.3,4.9,1.4,6-0.3C199.2,22.6,196.5,22,195.1,22.8z"/>
<path class="st1" d="M253.3,70.9c-0.8,3.8,3.1,3.7,1.8,6.9c3.7,3.7,7,7.8,9.7,12.5c-0.5,0-0.7-0.1-0.9-0.3c0.8,2.1,1.4,4.4,2.2,6.3
	c0.2-7.4-1.3-13.2-4.1-17.5C257.1,78.1,256,73.7,253.3,70.9z"/>
<path class="st1" d="M332.8,90c0.3,0.1,0.5,0.3,0.6,0.6c1.6,0.1,2.1-1.4,1.6-2.5C333.4,87.9,333,88.8,332.8,90z"/>
<path class="st1" d="M271.8,105.6c0.1-0.7,1.1-0.6,0.9-1.6c-0.6,0.1-0.7-0.3-1.3-0.3C271.7,104.3,271.1,105.6,271.8,105.6z"/>
<path class="st1" d="M273.9,119.4c1.6-1.3,4.4-2.5,3.8-5C276,115.6,274.3,116.7,273.9,119.4z"/>
<path class="st1" d="M280.2,117.8c0.8,1.1,1.9-0.9,2.5,0c-0.5,0.6-0.9,1.1-0.9,2.2c4.9,7.1,9.7,14.3,11.9,24.1
	c0.7-0.1,1.1-0.5,2.2-0.3c-1.9-12.5-8.4-20.4-14.1-29.1C281.5,116,280.1,116.1,280.2,117.8z"/>
<path class="st1" d="M275.5,123.4c0.7-1.4,2.4-1.8,2.9-3.4C277.1,119.5,274.5,121.8,275.5,123.4z"/>
<path class="st1" d="M271.4,120.7c-0.5,0.5-1.7,2.1-0.3,2.5C271.5,122.5,272.8,121,271.4,120.7z"/>
<path class="st1" d="M279,122.9c-0.3,1.7-2.2,1.7-2.5,3.4c0.5,0.2,0,1.3,0.6,1.3C277.8,126.1,281.8,124,279,122.9z"/>
<path class="st1" d="M272.7,124.3c-0.7,0.8-2.5,2.5-0.9,3.8c0.2-1.4,1.8-1.3,1.6-3.1C273.3,124.7,273,124.5,272.7,124.3z"/>
<path class="st1" d="M280.8,125.9c-0.8,1.6-3.9,2.9-2.5,4.7c0.8-1.6,2.9-1.9,3.1-4C281.4,126.2,281.2,126.1,280.8,125.9z"/>
<path class="st1" d="M273.9,128.5c-0.6,1.6-3.4,2.9-1.3,4.7C273.4,131.7,276.7,129.6,273.9,128.5z"/>
<path class="st1" d="M279.3,133.5c1.5,0.7,1.7-2.3,3.8-2.2c0-1.1-0.5-1.8-0.9-2.5C281.6,130.8,279.8,131.4,279.3,133.5z"/>
<path class="st1" d="M275.5,131.9c-0.6,1.7-3.8,3-1.6,4.7c0.7-1.5,2.1-2.3,2.5-4C276,132.5,276.2,131.7,275.5,131.9z"/>
<path class="st1" d="M281.2,137.5c0.1,0.9,1.3-1.1,1.6,0c-1.4,3.8,2.6,5.7,2.2,8.5c-1.4-1.5-2.2-3.6-3.8-4.7
	c-0.6,1.3-1.7,1.8-1.8,3.4c3,1,6.9,3.8,10,2.5c-1.8-5.3-3.7-10.4-6.3-15C283.1,134.4,280.1,135.2,281.2,137.5z"/>
<path class="st1" d="M274.6,140c1.1-1.3,4.1-3.3,2.9-5C276.7,136.9,274.6,137.4,274.6,140z"/>
<path class="st1" d="M277.4,143.5c0.5-1.7,3-3,2.2-5C278.3,139.6,274.3,142.6,277.4,143.5z"/>
<path class="st1" d="M291.1,144.4c0-1.1-0.1-1.9-0.6-2.5C290.5,143,290.4,144,291.1,144.4z"/>
<path class="st1" d="M174.8,150c0.8-1.9-0.3-3.4-1.3-4.7C173.3,147.3,172.8,149.7,174.8,150z"/>
<path class="st1" d="M392.5,148.2c0.6,0,1,0,1.6,0c0-0.6-0.2-1-0.6-1.3C393.4,147.6,392.6,147.5,392.5,148.2z"/>
<path class="st1" d="M386.3,156c1.6-0.2,3.1-0.5,5-0.3c0.8-2.9,3.3-4,5.3-5.6C392.7,149.2,389.2,153.8,386.3,156z"/>
<path class="st1" d="M368.4,159.7c-9-2.2-18.4-5-24.1-10c-1.3,1.1-2.7,2.1-3.8,3.4c2.1,0.6,3.4,2.5,5.3,3.8c5.8,3.9,11.9,7.6,21,8.1
	c13.4,0.8,25.1,1.3,35.6-3.4C390.8,163.1,378.2,162.1,368.4,159.7z"/>
<path class="st1" d="M172.2,150.7c0,2.4-3.1,5.8-0.3,7.2C172.1,155.4,174.9,152.2,172.2,150.7z"/>
<path class="st1" d="M178.2,154.7c0.3,2.5,2.4,5.4,4.1,7.6c-0.2-1,0.8-0.7,0.9-1.3c-2.9-3-4.5-7.2-7.2-10.3
	C175.8,153,176.7,154.1,178.2,154.7z"/>
<path class="st1" d="M165.4,151.6c-0.8,2.9-2.1,5.5-2.5,8.7c1,1.4,1.9,2.9,3.1,4.1C166.7,159.6,169.5,154.5,165.4,151.6z"/>
<path class="st1" d="M398.4,153.2c-1.6,0-2.2,1-2.9,1.8c1.4,0.2,1.8-0.5,3.1-0.3C398.9,154,398.2,154,398.4,153.2z"/>
<path class="st1" d="M336.6,156.6c6.1,2.3,11.5,7.1,18.1,7.8c-5.7-2.9-10.5-6.5-15-10.7C338.7,154.8,337.4,155.5,336.6,156.6z"/>
<path class="st1" d="M175.1,155c0.1,2.3-2.7,5.2-0.6,6.5C174.6,159.2,177.7,156.5,175.1,155z"/>
<path class="st1" d="M381.3,156c1.1,0.1,1.8-0.2,2.2-0.9C382.5,155.2,381.6,155.3,381.3,156z"/>
<path class="st1" d="M167.3,171.6c0.1-0.3,0.5-0.7,0.9-0.6c-2.6-2.9-4-6.8-7.8-8.5c0.1-2.4-1-4.2-2.5-6c-0.2,1.6,0.9,1.7,0.6,3.4
	c-0.2,0.6-0.6,1-1.6,0.9c3.2,6.6,7.7,11.9,13.4,15.9C170.5,174.1,167.4,174.3,167.3,171.6z"/>
<path class="st1" d="M169.8,158.8c-0.2,2.7-3,6.9-0.6,9.4c0.6-2.6,1.4-5,1.8-7.8C170.5,159.9,170.5,159,169.8,158.8z"/>
<path class="st1" d="M177.6,159c0.2,2.3-2.2,4.7-0.6,6.3c0.7-1.4,0.8-3.3,1.8-4.4C178.7,160.1,178.2,159.5,177.6,159z"/>
<path class="st1" d="M171.7,170.7c0.8-2.2,1.6-4.2,1.8-6.9c-0.3,0-0.5-0.3-0.9-0.3C172.9,166.3,169.5,169,171.7,170.7z"/>
<path class="st1" d="M179.8,169.1c0.1-1.9,1.3-2.9,1.3-5c-0.5-0.1-0.6-0.5-0.9-0.6C180.4,165.5,178.2,167.8,179.8,169.1z"/>
<path class="st1" d="M173.5,172.6c0.7,0.1,0.6,0.8,1.3,0.9c0.3-1.9,2.5-5.3,0.7-6.5C175.1,169.1,174.2,170.6,173.5,172.6z"/>
<path class="st1" d="M178.2,171c0,1.6-1.3,3.2-0.6,4.4C178.4,174.9,179.6,171.6,178.2,171z"/>
<path class="st1" d="M336.8,243.2c3-4.2,7.9-7.3,7.6-13.2c-2.7-3.1-4.7-8.4-11-6.9c-0.3-0.6-0.7-1.3-1.3-0.6
	c-9.3,2.2-19.9,6.3-24.4,13.4c-1.4,2.2-3.4,5.8-3.8,8.1c-0.7,5,0.8,14.2,2.5,17.9c1.8,4,8.4,8.1,11.9,11c1.3,1,2.7,2.7,3.4,3.1
	c3.9,2.1,10.4,0.2,14.1-0.9c-1.3-2.5-1.7-5.7-2.5-8.7c-1.4-0.1-2.2,0.3-3.1,0.6c0.2,2.1,1,4.7-0.3,6.3c-0.8-1.7-1.1-4-1.8-6
	c-3.1,0.2-4.9-0.9-6.9-1.8c-1.4,0.8-1.1,3.2-3.4,3.1c0.1-2.1,2.6-4.4,0.9-6.3c-0.5-1-1,2.1-1.6,0.9c-0.1-1.1,0-2.1,0.3-2.9
	c-3.2-4.6-8.8-9.5-7.6-17c0.7-3.4,5.4-9,8.5-11.6c1.6-1.4,4.4-3.9,6.3-3.1c-2.1,5.8-11.6,10.3-10.7,18.1c0.5,3.9,3.6,6.3,5.3,9.7
	c2.1-1.3,3.6-3.1,5.6-4.4c-1.4-1.7-3.6-2.2-4.7-4.1c-3.7-6,1.9-16.3,9-15.7c7.9,1.1,5.5,11.5,1.8,15.3c0.5,1.3,1.7,1.8,1.6,3.8
	c4.8-3.2,11.5-2.6,15-6.5c3-3.3,3.6-8,6-12.3c-1.3-0.5-2.3-1.1-4.1-0.9C347.5,237.4,343.2,244.1,336.8,243.2z"/>
<path class="st1" d="M245.5,224.2c-0.6,1.4-0.2,3.6-0.3,5.3c0.8,0.3,1.5,0.8,2.5,0.9c-0.7-1.6-0.1-3.9,0-5.6
	C246.7,224.9,246.7,224,245.5,224.2z"/>
<path class="st1" d="M260.5,226c0.9,0.6,0.6,2.5,1.6,3.1c0.3-1.7,3.2-4,2.2-5C263.4,225.2,261.2,224.9,260.5,226z"/>
<path class="st1" d="M250.5,225.7c0.2,2.3-0.1,4.1-0.9,5.3c2.1,0.3,3.9,1,6.3,1.3c-0.3-2.3-0.7-4.6-1.3-6.5
	C253.2,225.7,251.8,225.7,250.5,225.7z"/>
<path class="st1" d="M259.9,232.9c-0.6-1.5-1.4-5.3-2.9-6.9C258.3,228.1,257.8,231.9,259.9,232.9z"/>
<path class="st1" d="M351.6,247c-0.7,1.4-2.4,1.8-2.9,3.4c0.6,1.8,1.6,3.2,2.5,4.7c1.8-0.9,3.8-1.6,5-3.1
	C354.2,250.8,353.2,248.6,351.6,247z"/>
<path class="st1" d="M326.2,248.3c0,1.3,1.3,1.3,1.8,1.8C328,249,326.9,249,326.2,248.3z"/>
<path class="st1" d="M345.3,251.7c0.1,2.3,1.1,3.9,1.8,5.6c1.1,0.3,0.9-0.8,1.8-0.6c-0.6-2.1-1.5-3.8-2.2-5.6
	C346.6,251.6,346.1,251.7,345.3,251.7z"/>
<path class="st1" d="M341.5,253c0.3,2.4,0.9,4.5,1.6,6.5c1.3,0.1,1.6-0.7,2.5-0.9c-0.3-2.3-1.8-3.4-1.8-6
	C342.7,252.4,342.5,253.1,341.5,253z"/>
<path class="st1" d="M329.4,254.8c-0.6-1.1-2.4-0.9-3.4-1.6c-1.1,2.3-5.5,2.7-4.7,6c1.6-0.7,3-4.2,5-2.5c-0.5,2.2-2.3,3.1-2.9,5.3
	c0.9,0.9,2.4,1.1,3.8,1.6c0.3-1.5-1.4-3.6,0.6-3.8c0.7,0.8,1,2.1,1.3,3.4c2.6-0.6,5.5-0.8,7.6-1.8c-1-1.9-1.3-4.6-1.8-6.9
	C332.4,254.7,330.9,253.9,329.4,254.8z"/>
<path class="st1" d="M336.2,254.2c0.8,2.4,1,5.4,2.5,7.2c0.6-0.7,2.1-0.5,2.5-1.3c-0.8-1.9-1.1-4.2-1.6-6.5
	C338.4,253.7,337.5,254.1,336.2,254.2z"/>
<path class="st1" d="M188.6,158.9c0.1,0.1,0.1,0.3,0.2,0.5C188.8,159.2,188.7,159,188.6,158.9z"/>
<path class="st1" d="M383.4,132.5c-4.5,4.2-11.6,6.3-16.6,9.7c-1.6,1.1-3.3,2.6-5.3,2.9c3.9-7.9,15.9-7.6,22.2-13.2
	c-4.6,1.3-9.2,4.1-12.8,5.3c2.9-4,8.6-5.2,13.2-7.6c-0.5-2.1-2.1-2.9-2.5-5c-3.1,0.5-5.2,1.8-8.5,2.2c-0.8,0.9-1.8,2.4-3.1,1.8
	c-3.7,5-7.7,11.2-12.3,14.4c3.1-4.6,5.2-9.8,9.4-13.2c1-0.8,2.7-1,3.8-1.8c3.1-2.4,5-6.2,9-7.2c-0.2-2.6,0.9-5.7-0.6-8.5
	c-0.8-1.4-3-2.4-4-3.8c-2.7-3.2-5.5-7.2-8.1-11c-3-4.1-4.5-8.8-6.9-12.5c-0.9-1.4-3.7-2.5-3.1-4.7c2.6,0.8,3.8,4.8,6,5
	c-7.6-12-13.4-25.8-20.6-38.1c-5.6-5.4-10.7-11.8-11-21c-8.8-3.3-17.8-6.5-27.5-8.7c1.6-1.1,4.4,0.8,6-0.3
	c-9.2-3.1-20.3-7.1-32.2-6.9c-3.4,0.1-7,1-10.7,1.3c-15.2,0.9-31,1.7-44.4,4.7c6.3,0.6,12-0.3,17.2-0.3c-0.9,0.2-2.2,0.1-2.5,0.9
	c0.8,0.2,2.3-0.3,2.5,0.3c-0.2,1-1.9,0.6-2.2,1.6c3.6-0.1,8.9-2.6,11.9-0.3c-4,4.4-9.5,6.2-15.9,5.6c-3.6-0.3-6.3-2.7-9.4-3.4
	c-5-1.3-10-0.2-14.1-1.3c6.1,2.1,12.4,4.8,20,5.6c4.1,0.5,9.7-0.1,11.6,2.2c-5.2,0.9-10.2,1-15,0.6c-8.5-0.7-15-5.2-22.6-4.4
	c-1,0.6,1.8,0.7,0.6,1.6c-11.3,3.1-16.5,13.6-23.9,19.2c2.3-8.6,9.5-12.3,14.7-17.9c-19.1-1.3-43.6-4.5-53.5,7.2
	c-0.8,0.3-1.5,0.8-2.5,0.9c-7.1,6.3-12.4,14.3-17.8,22.2c0,10.1,0.2,19.9,2.5,27.8c3.7-1.6,7.4-4.8,12.3-4.4
	c-1.9,4.6-6.6,6.3-11.6,7.8c0.2,4.7,4.2,7.2,3.8,11.6c-5.7-1.1-6.3-7.6-9-11.6c-1.6-7.8-3.4-16.7-2.9-25.7
	c-5,14.2,1.1,28.1,7.8,36.9c1-0.2,1.5,0.2,2.2,0.3c4.4,4.7,8.4,9.6,12.8,14.1c0-2.3-2.1-5.7,0-7.2c2.6,4.9,3,12,4.1,18.4
	c0,0.8-1,0.7-0.9,1.6c2.9,7.4,5.5,15.2,8.7,22.2c-0.3,3.7,2.2,7,3.8,9.7c1.9-6.1-1.8-8.5-4.1-12.5c-1.7-3-2.9-5.6-3.8-8.7
	c3.4,4.4,6.1,9.6,9.4,14.1c1-1.9,1.5-4.6,2.9-6.3c-0.5,3.9-3,10.1,1.3,12.5c0.6-3.8,3.6-7.2,2.2-11c0.2-0.6,1.8,0.2,1.6-0.9
	c2.3-6.1,4.9-13.4,11.2-14.4c-1.9,3.4-4.7,6.2-7.6,8.7c0.3,4.6-4.5,10,0.3,13.2c1.9-4,1.4-7,0.6-10.7c1.6-0.1,0.9,2.2,2.2,2.5
	c2.4-1.7-1.3-5.7,0.9-6.9c3,6.6,5.7,12.8,9.7,18.4c3.8,5.4,8.8,10.8,9.7,17.9c-3.8-3.3-4.8-9.4-8.7-12.5c-0.2,6.6,7,10,6.5,17
	c-2.7-3.4-4.7-7.6-7.2-11.2c-2.3,4,0.9,6.4,1.8,9.7c-1.7-0.3-2.2-3.4-3.8-2.9c0.2,0.9-0.6,0.9-0.3,1.8c1.4,0.9,3.3,1.6,5.3,2.2
	c1.8,0.6,4.8,0.2,5.3,2.2c-1.4,0.2-2.7-0.9-3.8,0c10.4,4.2,22.3,6.9,30.4,13.4c-0.3-1.5,0.6-1.5,0.9-2.2c-0.8-0.5-1.8-0.7-1.6-2.2
	c3-0.5,5.2,2.5,7.6,4.1c2.4,1.6,6.2,2.4,7.2,5.3c-4.1,1.1-8-4.7-11.2-5.3c2.3,2.6,7.8,3.7,7.8,7.6c-3.2-1.6-6.8-4.7-9.4-6
	c3.8,3.8,7.6,7.7,9,13.7c-8.1-5.8-14.3-15.3-24.7-17.9c12,7.1,19.8,18.3,28.7,28.5c0-2.4,0.5-4.4,1.6-5.6c0.6,3.1,2.9,6.9,1.8,9.7
	c1.1,0.2,1.6,1.1,2.5,1.6c0-2.1,0.1-4,1.6-4.7c2.2,0.6,0.9,4.6,2.5,5.6c-0.1-1.7,0.6-2.5,0.3-4.4c-0.8-1.5-2.5-2.1-2.9-4.1
	c2.1,0,2.7,2.7,4.4,1.3c0.7,1.6,1.7,2.6,3.8,2.9c1.1,0.5,0.1-1.4,1.3-0.9c1.5-0.1,0.7,2.1,2.2,1.8c0.5-0.8,0.6-1.9,1.6-2.2
	c6.1-1.1,15.7-4.4,16.3-11.2c0.7-8.5,0.2-15.3,0.6-25.1c0.5-10.9,3.6-22.3,2.5-30.4c-1.1-9-6.6-14.4-6.9-23.5
	c0.1-0.8-1.4,0.2-0.9-0.9c0.2-8.5,0.8-17.1,0.3-24.7c-0.7-11.2-7.2-18.3-12.3-23.8c4.5,5,6.5,13.9,5.3,21.9
	c-3-5.2-4.5-13.3-6.9-19.4c-1.4-3.4-3.7-6.1-1.3-8.7c-1.6-3.3-3.4-8.9-1.8-13.4c-2.1-1.7-2.6-10.1,0.9-11.2c1.9,0.9,0.6,4.7,1.6,6.9
	c0.7,1.5,2.1,2.3,3.1,2.5c-1.9-5.3-1.1-14,3.4-15.7c2.2,1,8.4-4.1,9.4-0.3c0.3,1.4-1.7,2.1-2.5,3.1c-2.2,2.9-4.6,9.7-4.7,12.5
	c0.9-2.6,2.3-5.6,3.8-8.1c1.4-2.5,2.7-5.8,5.3-6.3c-2.4,7.1-5.4,13.6-7.2,21.3c2.2,1.7,5.5,2.2,6.3,5.3c0.2,0.8-1.5-0.2-1.3,0.6
	c4,7.2,6.6,15.9,6,27.8c0.9,0.7,1.5,1.8,2.2,2.9c1-0.1,1.6-1.6,2.9-0.6c-0.1,2.2-0.8,2.1,0.3,3.4c0.1,0.9,1.6-0.8,1.8,0.3
	c-1,3.7-4.7,6.4-5.6,9c1.5-1.5,3.6-4.1,6-3.8c-0.7,0.7-1.7,2.3-0.9,3.4c0.9,0.7,1.8-0.9,2.9-1.3c-2.7-6.9-3.3-18.6-1.6-27.3
	c0.9,4.6,0.7,8.9,0.9,13.4c1.1,16.6,12.3,24.2,15.9,37.6c0.6,2.1,0,6.8,3.1,6c0.9-0.9-0.9-0.3-0.6-1.6c0.9-1.3,3.3-1,4.7-0.9
	c9.5,1,15.8,10,23.1,13.4c3.9-0.9,7.4-2.7,10.7-5c-2.9,0.9-7.9,1.4-10,0.6c4.5-4.2,10.4-7.1,16.6-9.7c-0.6-0.7-1.4-2.9-0.9-3.4
	c1-0.2,0.6,1.1,1.3,1.3c0.6-1.6-1.6-2.4,0-3.1c1.7,2.4,3.2,5,3.4,9c3,3,7.8,8.6,13.2,8.5c2.5-0.1,4.1-2.5,6.9-2.9
	c4.8-5.8,11.8-9.2,20.4-11.9C387.1,135.3,385.5,133.7,383.4,132.5z M224.6,155.6c2.3,2.6,6.9,3,8.1,6.5c-3.7-1.4-6.3-3.9-9.4-6
	C223.3,155.7,223.8,155.6,224.6,155.6z M231.1,165c-3-0.9-5.3-2.4-7.6-4.1c-0.1-0.7,0.2-0.8,0.3-1.3C226.3,161.6,230,162,231.1,165z
	 M230.5,168.8c-2.2-0.1-3.7-1.5-5.3-2.5c-1.4-0.8-3.9-1.3-4.1-3.4C224.2,163.6,229,165.3,230.5,168.8z M220.8,165.3
	c3.1,2.9,9.7,3.8,10.7,7.8c-4-1.3-9.5-3.7-11.9-7.6C219.8,165.5,220.2,165.3,220.8,165.3z M219.5,169.7c0.2,0,0.5,0,0.6,0
	c2.1,1,4.6,2.2,6.9,3.4c2.1,1.1,4.9,2.4,5,4.7c-4.9-1.6-8.7-4.2-12.5-6.9C219,170.4,219.5,170.6,219.5,169.7z M215.8,120.7
	c0.3,0,0.6,0,0.9,0c-0.8,5.7,1.7,13.9,0.7,18.8C212.8,136.5,214.6,125.8,215.8,120.7z M208,75c0.7,2.1-0.3,4.8-2.2,5.3
	C205.2,78.3,205.7,75,208,75z M172.2,68.3c0.2,0,0.5,0,0.6,0c-7.6,7.7-19.8,13.2-27.8,21c3.9-7.3,15.3-15.8,23.5-20
	C169.5,68.8,170.9,68.9,172.2,68.3z M167.3,99.4c-1.6-1.1-1.9-3.6-1.8-6.3c1.6-0.3,1.9,0.6,2.5,1.3C166.4,95.5,168.9,98,167.3,99.4z
	 M158.8,69c0.9,1.6-2.6,2.6-3.8,3.8c-1.5,1.5-2.9,3.9-4.7,6c-1.7,1.8-3.7,3.7-5,5.6c-4.2,5.8-7,13.2-15.9,14.1
	C139.9,89.3,145.8,75.6,158.8,69z M135.4,105c3.8-3.3,7.9-4.9,11.6-7.8c5.5-4.4,9.5-9.8,15.7-13.7c0.6-0.1,0.6,0.2,0.6,0.6
	c-4.7,3.3-7.9,8.6-11.9,12.8C147.5,100.9,142.5,105.3,135.4,105z M164.4,103.2c-1.9-1.5-2.1-4.8-2.2-8.1c0.3,0,0.6,0,0.9,0
	C163.9,97.3,165.8,100.6,164.4,103.2z M151.6,100.3c0.5-0.1,0.6,0.3,0.9,0.3c0.7,3.6,3.7,9,3.8,13.2c0,0.9,0.6,3-1.3,3.1
	C154.4,112.4,151.3,105.9,151.6,100.3z M153.2,121.6c-1.8-6.1-3.3-12.6-4.4-19.4c0.2,0,0.5,0,0.6,0c1.6,2.3,2.3,6.1,3.1,9.4
	C153.5,114.8,154.9,118.7,153.2,121.6z M155.1,97.2c0.2,0,0.5,0,0.6,0c1.9,3.4,5.5,11.6,2.2,15.3
	C157.3,107.2,154.6,102.5,155.1,97.2z M159.2,95.9c0.2,0,0.5,0,0.6,0c1.6,2.4,3.3,7.6,1.8,11C159.9,104.4,159.2,99.1,159.2,95.9z
	 M145.7,128.8c-0.9-6.9-2.5-13.2-3.1-20.4c0.2,0,0.5,0,0.6,0c1.7,2.3,2.1,6.5,2.9,10.3C146.7,122.1,148.8,126.9,145.7,128.8z
	 M150.7,123.1c-2.4-0.7-2.9-5.5-3.4-8.1c-0.8-3.7-1.8-7.6-1.6-10.7c0.3,0,0.6,0,0.9,0C148.1,110.1,151.7,116.9,150.7,123.1z
	 M165.1,117.1c5.2-7.7,8.1-16.7,15.7-21.9c0.2,0,0.5,0,0.6,0c0.5,1.8-1.6,3.2-2.5,4.4c-3.7,4.5-6.4,9.3-9.4,14.7
	c-1.7,3.2-4.5,6.2-6.9,9.4c-3.7,4.9-6,9.7-11,12.8C154.1,129.2,160.6,124,165.1,117.1z M172,119.6c-1.3,1.9-2.7,3.9-4.1,6
	c-1.3,1.9-2.3,4.6-3.8,6.3c-0.7,0.8-1.7,0.8-2.5,1.6c-2.3,2.2-3.3,6.6-7.6,6.5c0.2-1.7,1.8-3,2.9-4.1c1.1-1.4,2.3-2.5,3.4-4.1
	c2.2-3,3.4-6.2,5.3-9.4c3.7-6.3,10.7-12.3,16.3-17.9c2.6-2.6,5.6-5.7,8.7-8.5c3.4-3,7.3-5.6,10.7-7.6c0.3,0.1,0.1,0.3,0,0.3
	C191,99.1,180.4,107.4,172,119.6z M189.8,118.2c2.3,4.6,4.9,8.9,7.6,13.4c2.5,4.2,5.6,8.6,6.5,13.4c-2.4-1.3-2.9-4.1-4.1-6.3
	c-3.4-6.2-7.8-12.5-10.7-19.7c-0.3,0-0.2-0.6-0.3-0.9C189.2,118.2,189.5,118.2,189.8,118.2z M194.2,155.6
	c-4.2-9.2-9.8-18.3-13.4-28.2c-0.1-0.5,0.3-0.6,0.3-0.9c0.5,0.1,0.5,0.6,0.9,0.6c4.1,9.5,9.7,18.3,14.4,27.8
	c1.4,2.9,3.6,6.3,2.9,9.7C196.7,162.3,195.6,158.7,194.2,155.6z M198.6,168.2c-2.1,0.5-2.5-2.3-3.1-3.4
	c-5.6-10.4-12.4-21.6-17.5-32.5c-0.6-0.6,0-0.3,0-1.3c0.3,0,0.6,0,0.9,0c4.8,9.3,10.7,18.1,15.7,27.5
	C196.1,161.5,198.5,164.5,198.6,168.2z M195.7,173.5c-5.6-7.2-10.7-16-15.7-24.4c-1.9-3.2-4.5-6.8-4.7-10.7c1.7,1,2.7,3,3.8,4.7
	c3.1,4.9,6,10.7,9.4,15.7c0,0.1,0.1,0.1,0.1,0.2c-1.6-3.6-3.6-7.6-5.7-11.5c-2.1-3.9-5.3-7.7-5.3-12.3c2.9,2.2,3.9,6.1,5.6,9
	c5,9,10.4,18.4,15.3,27.8c0,0.8,0,1.6-0.9,1.6c0.5,1.5,1.9,1.9,1.8,4C197.8,176.9,197,175.1,195.7,173.5z M197,151.6
	c-1.3-2.6-2.7-5.4-4.1-8.1c-2.9-5.6-6.6-11.2-7.8-17.5c0.5-0.1,0.6,0.3,0.9,0.3c3.6,8.5,8.7,15.9,12.8,24.1c1.3,2.6,3.1,5.4,3.1,8.5
	C199.5,157.8,198.2,154,197,151.6z M204.2,155.4c-5.2-9-10.7-17.8-14.4-28.2c0.3,0,0.6,0,0.9,0c3.1,7.2,7.6,14.2,11.2,21
	C203.2,150.2,205.1,152.9,204.2,155.4z M198.2,129.7c-2.6-4.8-5.6-9.5-7.2-15c5.4,9.2,11.5,17.5,15.7,27.8
	C203.2,139.5,200.8,134.2,198.2,129.7z M194.2,112.8c4,6.9,8.7,13.3,11.6,21.3c-2.6-1.8-4-6.1-6-9.7
	C197.8,120.6,195,117.2,194.2,112.8z M204.5,126.5c-2.4-4.6-6.3-10.2-7.8-15.9c0.5,0.1,0.5,0.6,0.9,0.6c2.9,7,8.5,12.8,10,20
	C205.6,130.8,205.3,128.2,204.5,126.5z M203.3,118.7c-1.5-2.7-2.9-6-3.4-9.4c2.6,6.1,6.5,10.8,8.7,17.2
	C206.3,124.6,204.8,121.5,203.3,118.7z M215.4,185c-0.8,0.5-0.6,1.9-1.6,2.2c-2.9-0.8-1.7-6.9-4.7-6.5c-1.4-11.7,1.5-23.5,3.8-33.4
	c0.7-0.2,0.9-0.8,1.8-0.6c0.2,6.6-3.3,17.1-3.4,25.7c-0.1,5,1.8,7.4,3.1,11.2c0.8,0.8,0.7-0.7,1.8-0.3c2.2,2.2,4.9,4.4,7.8,6.3
	c2.6,1.7,6.9,3,6.9,6.5C225.5,192.7,220.2,189.2,215.4,185z M223.5,187.6c-2.6-1.6-5.3-3.2-7.2-5.3c-0.6-0.6,0-0.3,0-1.3
	c0.2,0,0.5,0,0.7,0c2.6,1.5,5.2,3.3,7.8,5c2.4,1.5,5.8,2.6,6.9,5.6C228.8,191.6,226.1,189.2,223.5,187.6z M218.9,180.4
	c0-0.3,0-0.6,0-0.9c0.2-0.1,0.5-0.3,0.9-0.3c2.5,1,4.8,2.6,7.2,4.1c2.1,1.3,5.3,2.3,6,5C227.1,186.8,223.5,183,218.9,180.4z
	 M220.8,176.9c0-0.3,0-0.6,0-0.9c0.2-0.2,0.7-0.3,1.3-0.3c3.3,3.4,9.5,4,11.6,8.7C228.6,182.6,224.7,179.8,220.8,176.9z M233.6,83.7
	c-0.3,4-1.9,7.4-3.4,10.7c-1,2.3-1.9,5.2-4.1,6.3c1.5-5.4,5-11.5,7.2-17.2C233.9,83.3,234,83.7,233.6,83.7z M259.3,109
	c0.2-0.1,0.3,0.1,0.3,0.3c1.1,3.2,0.7,9.6,0.9,13.7c0.7,12,5.6,21.5,6.5,33.2c-0.6,1.8,1.8,0.7,1.6,2.2c-0.7,7.2-3.2,15.2-4.4,22.8
	c-1,6.2,0.2,12.8,0,18.8c-0.1,2.5-0.5,5.4-1.6,7.6c-2.1-0.2-1-2.6-1.3-3.8c-1.4-5.6-1.7-13.7-0.9-21c0.6-5.4,2.6-10,3.4-14.7
	C267.4,147,253.9,130.6,259.3,109z M245.2,52.8c-2.7,0.2-2.2-2.9-2.5-5C246,44.3,248.4,51.3,245.2,52.8z M253.3,43.7
	c-1.6,0.6-3,1.3-4.7,1.6c-0.8-2.2,2.6-4.6,4.7-3.1C253.3,42.6,253.3,43.1,253.3,43.7z M343.5,84.9c2.7,2.6,0.2,7.8-0.3,11
	C342.7,93,343.5,88.5,343.5,84.9z M343.1,107.5c1,0.5,1.9,4,0.3,4.4C343.7,110,343.1,109.1,343.1,107.5z M335.6,58.7
	c2.2,1.8,2.4,5.6,3.8,8.7c1,2.4,3.6,6,1.6,10.3c0.1,0.6,0.7,0.8,0.6,1.6c-3,3.8-1.3,8.8-4.4,12.5c0.7,0.6,2.3,0.2,2.9,0.9
	c-1.8,4.4-13.5,3.9-14.1-1.3c-5.5,1.8-12,0.5-13.2-4.7c3.4,0.3,6.6,1.1,10,0.6c4.7-0.7,12.7-6.6,14.7-11
	C337,70.4,337.7,63.1,335.6,58.7z M325.6,100.6c0-0.3,0.1-0.6,0.3-0.6c5.2-0.6,9.6,2.9,15,1.6c0.6,1.7,0,4.9-2.2,5
	c-0.6-1.1-0.1-2.7,0.3-3.8C333.8,104.9,330.2,101,325.6,100.6z M336.8,105.9c-2.1,2.9-9.7,2.5-12.3,1.3c-2.4-6.4-12.5-6.1-11.2-14.4
	c3.9,4.9,8.6,8.9,13.4,12.8C330.6,106.2,334.4,103.8,336.8,105.9z M333.7,57.1c-1.7-1.3-2.7-3.2-3.8-5.3
	C331.7,51.8,333.4,54.6,333.7,57.1z M328.1,38.7c1.1,1.6,1.6,3.9,1.8,6.3C327.3,45.8,326.4,40.4,328.1,38.7z M325.9,80.3
	c-1.7,2.4-5.5,5.8-9,4.4c0.6-1.7,3-1.9,4.4-2.5C322.7,81.5,324.2,80.5,325.9,80.3z M307.4,26.4c4.7-2.5,14.8-2.2,13.4,4.7
	c-3.3-1.5-5.5-4.4-11.2-3.4c-4.7,4.2-8.4,9.6-14.7,12.3C299,35.4,303.8,31.5,307.4,26.4z M305.6,85.6c-4-4.8-7.7-9.8-7.2-19.1
	C299.9,73.5,303.9,79.7,305.6,85.6z M295.2,109c-2.5-4.8-6.1-11.7-4.4-18.8c0.5,0.1,0.5,0.6,0.9,0.6C292.7,97,295.2,103,295.2,109z
	 M292.7,49.6c-2.7,2.5-3.8,6.6-6.3,9.4C286.2,55.1,288.4,47.8,292.7,49.6z M280.2,73c-0.7-8.2-0.6-19.8-3.1-27.3
	C282.6,50.6,282.1,64.6,280.2,73z M283,92.5c-0.2-3.9-0.2-11.2,1.6-14.1c0.2-0.1,0.3,0.1,0.3,0.3c-1.5,23.5,8.6,35.4,11.2,54.7
	C292.3,123.1,284.1,107.2,283,92.5z M295.8,121.3c0.2,0,0.5,0,0.6,0c3.2,1,6.2,2.5,9.4,3.8c3.1,1.1,6.6,2.1,9,4.1
	C306.9,128.1,300.3,125.8,295.8,121.3z M327.2,115.6c-0.1-0.7,0.1-1.1,0.6-1.3c-4.6-5.5-11.6-8.7-14.4-15.9
	c3.1,3.4,10.1,8.7,13.4,12.5c1.6,1.7,2.2,3.7,4.7,4.1c1.7-0.3,3.4-0.8,5.6-0.6c-1.1,1-2.3,1.9-4.1,2.2c4,5.5,9.8,9.2,12.5,15.9
	C338.9,127.4,334.4,120.2,327.2,115.6z M343.7,105.9c1.9-4.7,1.5-11.9,2.9-17.2C347.5,94.1,349.1,104.3,343.7,105.9z"/>
<path class="st1" d="M273.4,109.7c0.7-1.4,2.4-1.8,3.1-3.1c-0.8,0-0.9-0.5-1.6-0.6C274.3,106.9,272.9,108.8,273.4,109.7z"/>
<path class="st1" d="M139.1,116.6c1,1.9,1.3,4.6,2.5,6.3C141.1,120.7,140.9,116.6,139.1,116.6z"/>
<path class="st1" d="M290,141.3c-0.3-6.3-4.7-12-6.3-15C285.7,131.3,287.3,136.7,290,141.3z"/>
<path class="st1" d="M392.5,141.9c-0.6-1-1.6,0.8-1.8,0c0.5-0.3,1.1-0.3,1.3-0.9c-0.8-0.9-1.5-1.8-2.5-2.5c-2.7,1.4-5.8,2.3-8.5,3.8
	c0.9,0,9-3.2,9.4-0.6c0.1,1-3.6,1.9-2.5,1.6c-1,0.3-2.6,0.5-3.4,0.6c-8.1,2.2-15,6.2-19.4,9.4c4.9,0.8,9.6,1.8,14.7,2.5
	c4.4-3.3,8-7.4,13.2-10C392.5,144.7,392.5,143.2,392.5,141.9z"/>
<path class="st1" d="M214.8,204.7c3.4,3.6,6.2,7.6,10,10.7C221.9,211.6,219.1,206.2,214.8,204.7z"/>
<path class="st1" d="M404.7,199.1c0.1-1,0.5-1.8,0.3-3.1c-3.1-1.3-7.2-1.3-10-2.9c2.4-1.4,7.9-1.3,10.7-0.3c0-2.1,0.1-4.4-0.3-6
	c-4.1,1-10.5-0.5-13.4,0.3c1.7-1.1,4.9-3.1,8.1-3.4c2.3-0.2,6.2,1,5-2.2c-7.4,1.8-16,5.8-24.7,4.4c6.4-3.9,17.1-3.3,24.1-6.5
	c0-1.4-0.7-1.9-0.6-3.4c-3.7,0.9-6.3,4.4-10.7,3.4c2.6-2.5,6.9-3.3,10-5.3c0-1.6-0.6-2.6-0.3-4.4c-4.6,0.9-8.6,2.3-14.4,1.8
	c-4,6-12.1,9.5-20,10.7c1.8-2.9,6.1-3.2,9.4-4.7c3.2-1.5,6.4-3.3,7.6-6c-6.9,0-10,3.9-17,3.8c1.3-1.8,4-2.3,6-3.4
	c-4.8,0.5-9.5-0.9-13.4-0.3c4.9,11,12.6,33.8,5.3,48.8c0.3,0.8,1.7,0.6,1.3,2.2c-4-1.6-4.7,4.7-6,7.8c2.3,2.1,6.3,2.5,8.1,5
	c-4,1.1-6.5-1.5-9-2.9c-1.8,5.2-5.6,8.4-7.8,13.2c1.7,1.8,3.2,3.9,5.6,5c3-1.7,4.5-4.9,7.6-6.5c-1.6,3-3.6,5.6-5.6,8.1
	c0.6,0.2,1.7,1.6,1.3,1.8c-3.7-0.9-5.6,1.4-8.5,2.9c0.1,1.5,1.8,1.4,1.8,2.9c-2.2,2.1-4.5-2.9-6.3,0.3c0.9,1.7,3.1,2.2,3.4,4.4
	c-2.5-0.1-3.7-1.8-4.7-3.4c-1.5,0.2-2.3,1.3-3.8,1.6c-0.6,0.3,0.7,1.9-0.6,2.2c-0.7-1.6-2.7-1.3-3.8,0c0.7,0.9,1.6,3.1,0.9,4.4
	c-1.9-0.5-1.6-3.2-3.1-4.1c-0.8-0.1-0.7,0.6-1.6,0.3c0.5,3.2,1.8,5.4,1.8,9c10.1-6.4,24.4-6.6,33.4-13.7c5.2-4,8.6-9.2,12.5-14.4
	c-3.3-0.7-5.5-2.6-7.8-4.4c3.2-0.6,6.4,1.7,9.4,2.5c0.9-1.1,2.7-1.5,3.4-2.9c-5.5-1.5-11.5-2.5-15.7-5.3c5.2-0.7,11.2,3,17.2,3.4
	c1.4-0.8,2.1-2.3,2.5-4.1c-1.5-3-6.8-2.3-8.7-4.7c3.6-1.6,8,0.8,10,2.9c3.8-8.1-5-13.4-12.5-13.2c6.8-2.9,14.8,0.9,15.9,6.9
	c0.8-3.4-2.4-5.2-4.1-7.2c3.1-1.3,4.4,1.8,6,3.1c0-2.9,2.4-3.2,2.5-6c-5.2-2.6-13.1-1.8-20-2.2c-1.5,4.7-2.9,9.5-5.6,12.8
	c1.3-4.5,3.6-7.9,4.4-12.8c-0.5-1-1.6-1.5-2.5-2.2c1,0,2.1,0,3.1,0c0.7-1.8,0.3-4.7,0.9-6.5c1.6,1.4-0.1,4.4,0.3,6.5
	c8-1,14.4,0.7,20.6,1.3c0.6-2.6,1.8-4.7,2.2-7.6c-8.7,0.5-17.6-1.6-24.4-4c7.2-0.6,15.7,2.9,24.7,2.5c0.2-2.9,1-6.9,1.3-8.7
	C405.3,195.7,405.5,198.6,404.7,199.1z M377.2,252.6c-3.8-0.9-5.3-4.4-7.8-6.5c-2.9-2.5-6.4-3.8-10-5.6c0-0.3,0.3-0.2,0.6-0.3
	c6-0.1,9.3,2.9,12.5,6C374.4,247.9,377.2,249.8,377.2,252.6z M379.1,205.1c-0.2-7.2-1.8-15.1-3.8-21.5c0.5-0.1,0.6,0.3,0.9,0.3
	C377.9,189.9,381,197.5,379.1,205.1z"/>
<path class="st1" d="M329,242.3c0.5-0.9,2.3-3.4,1.6-3.4C330.3,240,328.6,241.5,329,242.3z"/>
<path class="st2" d="M383.4,132.5c-4.5,4.2-11.6,6.3-16.6,9.7c-1.6,1.1-3.3,2.6-5.3,2.9c3.9-7.9,15.9-7.6,22.2-13.2
	c-4.6,1.3-9.2,4.1-12.8,5.3c2.9-4,8.6-5.2,13.2-7.6c-0.5-2.1-2.1-2.9-2.5-5c-3.1,0.5-5.2,1.8-8.5,2.2c-0.8,0.9-1.8,2.4-3.1,1.8
	c-3.7,5-7.7,11.2-12.3,14.4c3.1-4.6,5.2-9.8,9.4-13.2c1-0.8,2.7-1,3.8-1.8c3.1-2.4,5-6.2,9-7.2c-0.2-2.6,0.9-5.7-0.6-8.5
	c-0.8-1.4-3-2.4-4-3.8c-2.7-3.2-5.5-7.2-8.1-11c-3-4.1-4.5-8.8-6.9-12.5c-0.9-1.4-3.7-2.5-3.1-4.7c2.6,0.8,3.8,4.8,6,5
	c-7.6-12-13.4-25.8-20.6-38.1c-5.6-5.4-10.7-11.8-11-21c-8.8-3.3-17.8-6.5-27.5-8.7c1.6-1.1,4.4,0.8,6-0.3
	c-9.2-3.1-20.3-7.1-32.2-6.9c-3.4,0.1-7,1-10.7,1.3c-15.2,0.9-31,1.7-44.4,4.7c6.3,0.6,12-0.3,17.2-0.3c-0.9,0.2-2.2,0.1-2.5,0.9
	c0.8,0.2,2.3-0.3,2.5,0.3c-0.2,1-1.9,0.6-2.2,1.6c3.6-0.1,8.9-2.6,11.9-0.3c-4,4.4-9.5,6.2-15.9,5.6c-3.6-0.3-6.3-2.7-9.4-3.4
	c-5-1.3-10-0.2-14.1-1.3c6.1,2.1,12.4,4.8,20,5.6c4.1,0.5,9.7-0.1,11.6,2.2c-5.2,0.9-10.2,1-15,0.6c-8.5-0.7-15-5.2-22.6-4.4
	c-1,0.6,1.8,0.7,0.6,1.6c-11.3,3.1-16.5,13.6-23.9,19.2c2.3-8.6,9.5-12.3,14.7-17.9c-19.1-1.3-43.6-4.5-53.5,7.2
	c-0.8,0.3-1.5,0.8-2.5,0.9c-7.1,6.3-12.4,14.3-17.8,22.2c0,10.1,0.2,19.9,2.5,27.8c3.7-1.6,7.4-4.8,12.3-4.4
	c-1.9,4.6-6.6,6.3-11.6,7.8c0.2,4.7,4.2,7.2,3.8,11.6c-5.7-1.1-6.3-7.6-9-11.6c-1.6-7.8-3.4-16.7-2.9-25.7
	c-5,14.2,1.1,28.1,7.8,36.9c1-0.2,1.5,0.2,2.2,0.3c4.4,4.7,8.4,9.6,12.8,14.1c0-2.3-2.1-5.7,0-7.2c2.6,4.9,3,12,4.1,18.4
	c0,0.8-1,0.7-0.9,1.6c2.9,7.4,5.5,15.2,8.7,22.2c-0.3,3.7,2.2,7,3.8,9.7c1.9-6.1-1.8-8.5-4.1-12.5c-1.7-3-2.9-5.6-3.8-8.7
	c3.4,4.4,6.1,9.6,9.4,14.1c1-1.9,1.5-4.6,2.9-6.3c-0.5,3.9-3,10.1,1.3,12.5c0.6-3.8,3.6-7.2,2.2-11c0.2-0.6,1.8,0.2,1.6-0.9
	c2.3-6.1,4.9-13.4,11.2-14.4c-1.9,3.4-4.7,6.2-7.6,8.7c0.3,4.6-4.5,10,0.3,13.2c1.9-4,1.4-7,0.6-10.7c1.6-0.1,0.9,2.2,2.2,2.5
	c2.4-1.7-1.3-5.7,0.9-6.9c3,6.6,5.7,12.8,9.7,18.4c3.8,5.4,8.8,10.8,9.7,17.9c-3.8-3.3-4.8-9.4-8.7-12.5c-0.2,6.6,7,10,6.5,17
	c-2.7-3.4-4.7-7.6-7.2-11.2c-2.3,4,0.9,6.4,1.8,9.7c-1.7-0.3-2.2-3.4-3.8-2.9c0.2,0.9-0.6,0.9-0.3,1.8c1.4,0.9,3.3,1.6,5.3,2.2
	c1.8,0.6,4.8,0.2,5.3,2.2c-1.4,0.2-2.7-0.9-3.8,0c10.4,4.2,22.3,6.9,30.4,13.4c-0.3-1.5,0.6-1.5,0.9-2.2c-0.8-0.5-1.8-0.7-1.6-2.2
	c3-0.5,5.2,2.5,7.6,4.1c2.4,1.6,6.2,2.4,7.2,5.3c-4.1,1.1-8-4.7-11.2-5.3c2.3,2.6,7.8,3.7,7.8,7.6c-3.2-1.6-6.8-4.7-9.4-6
	c3.8,3.8,7.6,7.7,9,13.7c-8.1-5.8-14.3-15.3-24.7-17.9c12,7.1,19.8,18.3,28.7,28.5c0-2.4,0.5-4.4,1.6-5.6c0.6,3.1,2.9,6.9,1.8,9.7
	c1.1,0.2,1.6,1.1,2.5,1.6c0-2.1,0.1-4,1.6-4.7c2.2,0.6,0.9,4.6,2.5,5.6c-0.1-1.7,0.6-2.5,0.3-4.4c-0.8-1.5-2.5-2.1-2.9-4.1
	c2.1,0,2.7,2.7,4.4,1.3c0.7,1.6,1.7,2.6,3.8,2.9c1.1,0.5,0.1-1.4,1.3-0.9c1.5-0.1,0.7,2.1,2.2,1.8c0.5-0.8,0.6-1.9,1.6-2.2
	c6.1-1.1,15.7-4.4,16.3-11.2c0.7-8.5,0.2-15.3,0.6-25.1c0.5-10.9,3.6-22.3,2.5-30.4c-1.1-9-6.6-14.4-6.9-23.5
	c0.1-0.8-1.4,0.2-0.9-0.9c0.2-8.5,0.8-17.1,0.3-24.7c-0.7-11.2-7.2-18.3-12.3-23.8c4.5,5,6.5,13.9,5.3,21.9
	c-3-5.2-4.5-13.3-6.9-19.4c-1.4-3.4-3.7-6.1-1.3-8.7c-1.6-3.3-3.4-8.9-1.8-13.4c-2.1-1.7-2.6-10.1,0.9-11.2c1.9,0.9,0.6,4.7,1.6,6.9
	c0.7,1.5,2.1,2.3,3.1,2.5c-1.9-5.3-1.1-14,3.4-15.7c2.2,1,8.4-4.1,9.4-0.3c0.3,1.4-1.7,2.1-2.5,3.1c-2.2,2.9-4.6,9.7-4.7,12.5
	c0.9-2.6,2.3-5.6,3.8-8.1c1.4-2.5,2.7-5.8,5.3-6.3c-2.4,7.1-5.4,13.6-7.2,21.3c2.2,1.7,5.5,2.2,6.3,5.3c0.2,0.8-1.5-0.2-1.3,0.6
	c4,7.2,6.6,15.9,6,27.8c0.9,0.7,1.5,1.8,2.2,2.9c1-0.1,1.6-1.6,2.9-0.6c-0.1,2.2-0.8,2.1,0.3,3.4c0.1,0.9,1.6-0.8,1.8,0.3
	c-1,3.7-4.7,6.4-5.6,9c1.5-1.5,3.6-4.1,6-3.8c-0.7,0.7-1.7,2.3-0.9,3.4c0.9,0.7,1.8-0.9,2.9-1.3c-2.7-6.9-3.3-18.6-1.6-27.3
	c0.9,4.6,0.7,8.9,0.9,13.4c1.1,16.6,12.3,24.2,15.9,37.6c0.6,2.1,0,6.8,3.1,6c0.9-0.9-0.9-0.3-0.6-1.6c0.9-1.3,3.3-1,4.7-0.9
	c9.5,1,15.8,10,23.1,13.4c3.9-0.9,7.4-2.7,10.7-5c-2.9,0.9-7.9,1.4-10,0.6c4.5-4.2,10.4-7.1,16.6-9.7c-0.6-0.7-1.4-2.9-0.9-3.4
	c1-0.2,0.6,1.1,1.3,1.3c0.6-1.6-1.6-2.4,0-3.1c1.7,2.4,3.2,5,3.4,9c3,3,7.8,8.6,13.2,8.5c2.5-0.1,4.1-2.5,6.9-2.9
	c4.8-5.8,11.8-9.2,20.4-11.9C387.1,135.3,385.5,133.7,383.4,132.5z M224.6,155.6c2.3,2.6,6.9,3,8.1,6.5c-3.7-1.4-6.3-3.9-9.4-6
	C223.3,155.7,223.8,155.6,224.6,155.6z M231.1,165c-3-0.9-5.3-2.4-7.6-4.1c-0.1-0.7,0.2-0.8,0.3-1.3C226.3,161.6,230,162,231.1,165z
	 M230.5,168.8c-2.2-0.1-3.7-1.5-5.3-2.5c-1.4-0.8-3.9-1.3-4.1-3.4C224.2,163.6,229,165.3,230.5,168.8z M220.8,165.3
	c3.1,2.9,9.7,3.8,10.7,7.8c-4-1.3-9.5-3.7-11.9-7.6C219.8,165.5,220.2,165.3,220.8,165.3z M219.5,169.7c0.2,0,0.5,0,0.6,0
	c2.1,1,4.6,2.2,6.9,3.4c2.1,1.1,4.9,2.4,5,4.7c-4.9-1.6-8.7-4.2-12.5-6.9C219,170.4,219.5,170.6,219.5,169.7z M215.8,120.7
	c0.3,0,0.6,0,0.9,0c-0.8,5.7,1.7,13.9,0.7,18.8C212.8,136.5,214.6,125.8,215.8,120.7z M208,75c0.7,2.1-0.3,4.8-2.2,5.3
	C205.2,78.3,205.7,75,208,75z M172.2,68.3c0.2,0,0.5,0,0.6,0c-7.6,7.7-19.8,13.2-27.8,21c3.9-7.3,15.3-15.8,23.5-20
	C169.5,68.8,170.9,68.9,172.2,68.3z M167.3,99.4c-1.6-1.1-1.9-3.6-1.8-6.3c1.6-0.3,1.9,0.6,2.5,1.3C166.4,95.5,168.9,98,167.3,99.4z
	 M158.8,69c0.9,1.6-2.6,2.6-3.8,3.8c-1.5,1.5-2.9,3.9-4.7,6c-1.7,1.8-3.7,3.7-5,5.6c-4.2,5.8-7,13.2-15.9,14.1
	C139.9,89.3,145.8,75.6,158.8,69z M135.4,105c3.8-3.3,7.9-4.9,11.6-7.8c5.5-4.4,9.5-9.8,15.7-13.7c0.6-0.1,0.6,0.2,0.6,0.6
	c-4.7,3.3-7.9,8.6-11.9,12.8C147.5,100.9,142.5,105.3,135.4,105z M164.4,103.2c-1.9-1.5-2.1-4.8-2.2-8.1c0.3,0,0.6,0,0.9,0
	C163.9,97.3,165.8,100.6,164.4,103.2z M151.6,100.3c0.5-0.1,0.6,0.3,0.9,0.3c0.7,3.6,3.7,9,3.8,13.2c0,0.9,0.6,3-1.3,3.1
	C154.4,112.4,151.3,105.9,151.6,100.3z M153.2,121.6c-1.8-6.1-3.3-12.6-4.4-19.4c0.2,0,0.5,0,0.6,0c1.6,2.3,2.3,6.1,3.1,9.4
	C153.5,114.8,154.9,118.7,153.2,121.6z M155.1,97.2c0.2,0,0.5,0,0.6,0c1.9,3.4,5.5,11.6,2.2,15.3
	C157.3,107.2,154.6,102.5,155.1,97.2z M159.2,95.9c0.2,0,0.5,0,0.6,0c1.6,2.4,3.3,7.6,1.8,11C159.9,104.4,159.2,99.1,159.2,95.9z
	 M145.7,128.8c-0.9-6.9-2.5-13.2-3.1-20.4c0.2,0,0.5,0,0.6,0c1.7,2.3,2.1,6.5,2.9,10.3C146.7,122.1,148.8,126.9,145.7,128.8z
	 M150.7,123.1c-2.4-0.7-2.9-5.5-3.4-8.1c-0.8-3.7-1.8-7.6-1.6-10.7c0.3,0,0.6,0,0.9,0C148.1,110.1,151.7,116.9,150.7,123.1z
	 M165.1,117.1c5.2-7.7,8.1-16.7,15.7-21.9c0.2,0,0.5,0,0.6,0c0.5,1.8-1.6,3.2-2.5,4.4c-3.7,4.5-6.4,9.3-9.4,14.7
	c-1.7,3.2-4.5,6.2-6.9,9.4c-3.7,4.9-6,9.7-11,12.8C154.1,129.2,160.6,124,165.1,117.1z M172,119.6c-1.3,1.9-2.7,3.9-4.1,6
	c-1.3,1.9-2.3,4.6-3.8,6.3c-0.7,0.8-1.7,0.8-2.5,1.6c-2.3,2.2-3.3,6.6-7.6,6.5c0.2-1.7,1.8-3,2.9-4.1c1.1-1.4,2.3-2.5,3.4-4.1
	c2.2-3,3.4-6.2,5.3-9.4c3.7-6.3,10.7-12.3,16.3-17.9c2.6-2.6,5.6-5.7,8.7-8.5c3.4-3,7.3-5.6,10.7-7.6c0.3,0.1,0.1,0.3,0,0.3
	C191,99.1,180.4,107.4,172,119.6z M189.8,118.2c2.3,4.6,4.9,8.9,7.6,13.4c2.5,4.2,5.6,8.6,6.5,13.4c-2.4-1.3-2.9-4.1-4.1-6.3
	c-3.4-6.2-7.8-12.5-10.7-19.7c-0.3,0-0.2-0.6-0.3-0.9C189.2,118.2,189.5,118.2,189.8,118.2z M194.2,155.6
	c-4.2-9.2-9.8-18.3-13.4-28.2c-0.1-0.5,0.3-0.6,0.3-0.9c0.5,0.1,0.5,0.6,0.9,0.6c4.1,9.5,9.7,18.3,14.4,27.8
	c1.4,2.9,3.6,6.3,2.9,9.7C196.7,162.3,195.6,158.7,194.2,155.6z M198.6,168.2c-2.1,0.5-2.5-2.3-3.1-3.4
	c-5.6-10.4-12.4-21.6-17.5-32.5c-0.6-0.6,0-0.3,0-1.3c0.3,0,0.6,0,0.9,0c4.8,9.3,10.7,18.1,15.7,27.5
	C196.1,161.5,198.5,164.5,198.6,168.2z M195.7,173.5c-5.6-7.2-10.7-16-15.7-24.4c-1.9-3.2-4.5-6.8-4.7-10.7c1.7,1,2.7,3,3.8,4.7
	c3.1,4.9,6,10.7,9.4,15.7c0,0.1,0.1,0.1,0.1,0.2c-1.6-3.6-3.6-7.6-5.7-11.5c-2.1-3.9-5.3-7.7-5.3-12.3c2.9,2.2,3.9,6.1,5.6,9
	c5,9,10.4,18.4,15.3,27.8c0,0.8,0,1.6-0.9,1.6c0.5,1.5,1.9,1.9,1.8,4C197.8,176.9,197,175.1,195.7,173.5z M197,151.6
	c-1.3-2.6-2.7-5.4-4.1-8.1c-2.9-5.6-6.6-11.2-7.8-17.5c0.5-0.1,0.6,0.3,0.9,0.3c3.6,8.5,8.7,15.9,12.8,24.1c1.3,2.6,3.1,5.4,3.1,8.5
	C199.5,157.8,198.2,154,197,151.6z M204.2,155.4c-5.2-9-10.7-17.8-14.4-28.2c0.3,0,0.6,0,0.9,0c3.1,7.2,7.6,14.2,11.2,21
	C203.2,150.2,205.1,152.9,204.2,155.4z M198.2,129.7c-2.6-4.8-5.6-9.5-7.2-15c5.4,9.2,11.5,17.5,15.7,27.8
	C203.2,139.5,200.8,134.2,198.2,129.7z M194.2,112.8c4,6.9,8.7,13.3,11.6,21.3c-2.6-1.8-4-6.1-6-9.7
	C197.8,120.6,195,117.2,194.2,112.8z M204.5,126.5c-2.4-4.6-6.3-10.2-7.8-15.9c0.5,0.1,0.5,0.6,0.9,0.6c2.9,7,8.5,12.8,10,20
	C205.6,130.8,205.3,128.2,204.5,126.5z M203.3,118.7c-1.5-2.7-2.9-6-3.4-9.4c2.6,6.1,6.5,10.8,8.7,17.2
	C206.3,124.6,204.8,121.5,203.3,118.7z M215.4,185c-0.8,0.5-0.6,1.9-1.6,2.2c-2.9-0.8-1.7-6.9-4.7-6.5c-1.4-11.7,1.5-23.5,3.8-33.4
	c0.7-0.2,0.9-0.8,1.8-0.6c0.2,6.6-3.3,17.1-3.4,25.7c-0.1,5,1.8,7.4,3.1,11.2c0.8,0.8,0.7-0.7,1.8-0.3c2.2,2.2,4.9,4.4,7.8,6.3
	c2.6,1.7,6.9,3,6.9,6.5C225.5,192.7,220.2,189.2,215.4,185z M223.5,187.6c-2.6-1.6-5.3-3.2-7.2-5.3c-0.6-0.6,0-0.3,0-1.3
	c0.2,0,0.5,0,0.7,0c2.6,1.5,5.2,3.3,7.8,5c2.4,1.5,5.8,2.6,6.9,5.6C228.8,191.6,226.1,189.2,223.5,187.6z M218.9,180.4
	c0-0.3,0-0.6,0-0.9c0.2-0.1,0.5-0.3,0.9-0.3c2.5,1,4.8,2.6,7.2,4.1c2.1,1.3,5.3,2.3,6,5C227.1,186.8,223.5,183,218.9,180.4z
	 M220.8,176.9c0-0.3,0-0.6,0-0.9c0.2-0.2,0.7-0.3,1.3-0.3c3.3,3.4,9.5,4,11.6,8.7C228.6,182.6,224.7,179.8,220.8,176.9z M233.6,83.7
	c-0.3,4-1.9,7.4-3.4,10.7c-1,2.3-1.9,5.2-4.1,6.3c1.5-5.4,5-11.5,7.2-17.2C233.9,83.3,234,83.7,233.6,83.7z M259.3,109
	c0.2-0.1,0.3,0.1,0.3,0.3c1.1,3.2,0.7,9.6,0.9,13.7c0.7,12,5.6,21.5,6.5,33.2c-0.6,1.8,1.8,0.7,1.6,2.2c-0.7,7.2-3.2,15.2-4.4,22.8
	c-1,6.2,0.2,12.8,0,18.8c-0.1,2.5-0.5,5.4-1.6,7.6c-2.1-0.2-1-2.6-1.3-3.8c-1.4-5.6-1.7-13.7-0.9-21c0.6-5.4,2.6-10,3.4-14.7
	C267.4,147,253.9,130.6,259.3,109z M245.2,52.8c-2.7,0.2-2.2-2.9-2.5-5C246,44.3,248.4,51.3,245.2,52.8z M253.3,43.7
	c-1.6,0.6-3,1.3-4.7,1.6c-0.8-2.2,2.6-4.6,4.7-3.1C253.3,42.6,253.3,43.1,253.3,43.7z M343.5,84.9c2.7,2.6,0.2,7.8-0.3,11
	C342.7,93,343.5,88.5,343.5,84.9z M343.1,107.5c1,0.5,1.9,4,0.3,4.4C343.7,110,343.1,109.1,343.1,107.5z M335.6,58.7
	c2.2,1.8,2.4,5.6,3.8,8.7c1,2.4,3.6,6,1.6,10.3c0.1,0.6,0.7,0.8,0.6,1.6c-3,3.8-1.3,8.8-4.4,12.5c0.7,0.6,2.3,0.2,2.9,0.9
	c-1.8,4.4-13.5,3.9-14.1-1.3c-5.5,1.8-12,0.5-13.2-4.7c3.4,0.3,6.6,1.1,10,0.6c4.7-0.7,12.7-6.6,14.7-11
	C337,70.4,337.7,63.1,335.6,58.7z M325.6,100.6c0-0.3,0.1-0.6,0.3-0.6c5.2-0.6,9.6,2.9,15,1.6c0.6,1.7,0,4.9-2.2,5
	c-0.6-1.1-0.1-2.7,0.3-3.8C333.8,104.9,330.2,101,325.6,100.6z M336.8,105.9c-2.1,2.9-9.7,2.5-12.3,1.3c-2.4-6.4-12.5-6.1-11.2-14.4
	c3.9,4.9,8.6,8.9,13.4,12.8C330.6,106.2,334.4,103.8,336.8,105.9z M333.7,57.1c-1.7-1.3-2.7-3.2-3.8-5.3
	C331.7,51.8,333.4,54.6,333.7,57.1z M328.1,38.7c1.1,1.6,1.6,3.9,1.8,6.3C327.3,45.8,326.4,40.4,328.1,38.7z M325.9,80.3
	c-1.7,2.4-5.5,5.8-9,4.4c0.6-1.7,3-1.9,4.4-2.5C322.7,81.5,324.2,80.5,325.9,80.3z M307.4,26.4c4.7-2.5,14.8-2.2,13.4,4.7
	c-3.3-1.5-5.5-4.4-11.2-3.4c-4.7,4.2-8.4,9.6-14.7,12.3C299,35.4,303.8,31.5,307.4,26.4z M305.6,85.6c-4-4.8-7.7-9.8-7.2-19.1
	C299.9,73.5,303.9,79.7,305.6,85.6z M295.2,109c-2.5-4.8-6.1-11.7-4.4-18.8c0.5,0.1,0.5,0.6,0.9,0.6C292.7,97,295.2,103,295.2,109z
	 M292.7,49.6c-2.7,2.5-3.8,6.6-6.3,9.4C286.2,55.1,288.4,47.8,292.7,49.6z M280.2,73c-0.7-8.2-0.6-19.8-3.1-27.3
	C282.6,50.6,282.1,64.6,280.2,73z M283,92.5c-0.2-3.9-0.2-11.2,1.6-14.1c0.2-0.1,0.3,0.1,0.3,0.3c-1.5,23.5,8.6,35.4,11.2,54.7
	C292.3,123.1,284.1,107.2,283,92.5z M295.8,121.3c0.2,0,0.5,0,0.6,0c3.2,1,6.2,2.5,9.4,3.8c3.1,1.1,6.6,2.1,9,4.1
	C306.9,128.1,300.3,125.8,295.8,121.3z M327.2,115.6c-0.1-0.7,0.1-1.1,0.6-1.3c-4.6-5.5-11.6-8.7-14.4-15.9
	c3.1,3.4,10.1,8.7,13.4,12.5c1.6,1.7,2.2,3.7,4.7,4.1c1.7-0.3,3.4-0.8,5.6-0.6c-1.1,1-2.3,1.9-4.1,2.2c4,5.5,9.8,9.2,12.5,15.9
	C338.9,127.4,334.4,120.2,327.2,115.6z M343.7,105.9c1.9-4.7,1.5-11.9,2.9-17.2C347.5,94.1,349.1,104.3,343.7,105.9z"/>
<g>
	<path class="st1" d="M166.3,121.3c0.3-0.4,0.6-0.8,0.8-1.2c-0.1-0.6-0.2-1.2-0.3-1.7c-0.3,0.4-0.5,0.7-0.8,1.1
		C166.1,120,166.2,120.6,166.3,121.3z"/>
	<path class="st1" d="M172.5,113.7c0.4-0.4,0.8-0.8,1.2-1.2c-0.3-1.4-0.6-2.7-0.9-4.1c-0.4,0.7-0.9,1.5-1.3,2.3
		C171.9,111.6,172.2,112.7,172.5,113.7z"/>
	<path class="st1" d="M356.8,151.1c1.2-0.7,2.3-1.4,3.4-2.2c-1.5,0.5-3.6,0.8-5.5,0.9C355.4,150.4,356.1,150.8,356.8,151.1z"/>
	<path class="st1" d="M363.3,85.4c-0.3-0.4-0.5-0.8-0.8-1.3c-0.1,0.3-0.1,0.6-0.1,0.9C362.7,85.2,363,85.4,363.3,85.4z"/>
	<path class="st1" d="M385.9,134.4c-0.7-0.7-1.6-1.4-2.5-2c-3.6,3.4-8.8,5.4-13.4,7.8c0.3,1,0.5,2.1,0.5,3.3
		c0.4,0.4,0.9,0.9,1.4,1.5c3.1-2.5,6.9-4.4,11.1-6C384,137.5,384.9,135.9,385.9,134.4z"/>
	<path class="st1" d="M360.1,91.8c0.7,0.6,2.3,0.2,2.9,0.9c-1.8,4.4-13.5,3.9-14.1-1.3c-0.6,0.2-1.2,0.3-1.8,0.5
		c0.5,3.7,0.8,8.2-0.4,11.1c1,0.8,2,1.7,3,2.5c3.9,0.7,7.7-1.7,10.1,0.3c-2.1,2.9-9.7,2.5-12.3,1.3c-0.4-1-1-1.9-1.7-2.7
		c-0.4,0.5-1,0.9-1.6,1.2c2.1,1.8,4.1,3.7,5.5,5.2c1.6,1.7,2.2,3.7,4.7,4.1c1.7-0.3,3.4-0.8,5.6-0.6c-1.1,1-2.3,1.9-4.1,2.2
		c3.5,4.7,8.3,8.1,11.2,13.3c0,0,0.1-0.1,0.1-0.1c1-0.8,2.7-1,3.8-1.8c3.1-2.4,5-6.2,9-7.2c-0.2-2.6,0.9-5.7-0.6-8.5
		c-0.8-1.4-3-2.4-4-3.8c-1.8-2.1-3.6-4.6-5.4-7.1c-0.5,2.2-1.5,3.9-3.4,4.4c0.8-2,1.2-4.6,1.5-7.2c-0.3-0.4-0.6-0.8-0.8-1.2
		c-0.4-0.6-0.8-1.2-1.2-1.8c0,0.1,0,0.2,0,0.2c0-0.1,0-0.3,0-0.4c-1.6-2.6-2.8-5.4-4.1-7.9C361.6,89.2,361.1,90.6,360.1,91.8z
		 M366.4,111.9c0.2-1.8-0.3-2.7-0.3-4.4C367.1,108,368,111.5,366.4,111.9z M361.7,106.7c-0.6-1.1-0.1-2.7,0.3-3.8
		c-5.3,1.9-8.9-1.9-13.5-2.3c0-0.3,0.1-0.6,0.3-0.6c5.2-0.6,9.6,2.9,15,1.6C364.4,103.4,363.8,106.6,361.7,106.7z"/>
	<path class="st1" d="M388.1,137.3c-0.2-0.4-0.5-0.8-0.7-1.1c-0.5,0.6-1,1.3-1.5,1.9C386.6,137.8,387.4,137.5,388.1,137.3z"/>
	<path class="st1" d="M337.9,94.8c2.1,2.4,4.5,4.7,6.9,6.8c0.5-3,0.7-6.3,1.1-9.4c-0.6,0.1-1.2,0.1-1.8,0.1c-0.4,1.3-0.8,2.6-1,3.7
		c-0.2-1.1-0.2-2.4-0.1-3.8c-1.9-0.2-3.6-0.7-5-1.7c-0.2,0.5-0.5,0.9-0.9,1.3c0.7,0.6,2.3,0.2,2.9,0.9
		C339.7,93.6,338.9,94.3,337.9,94.8z"/>
	<path class="st1" d="M172.5,143.7c0.1-0.4,0.1-0.8,0-1.3c-0.7-1.4-1.2-2.9-1.7-4.5c-0.1,0.1-0.3,0.2-0.4,0.4
		C171,140.1,171.7,141.9,172.5,143.7z"/>
	<path class="st1" d="M365.9,136.4c1-0.2,0.6,1.1,1.3,1.3c0.6-1.6-1.6-2.4,0-3.1c0.9,1.2,1.7,2.5,2.3,4c4.9-2.1,10.6-3.3,14.3-6.6
		c-4.6,1.3-9.2,4.1-12.8,5.3c2.9-4,8.6-5.2,13.2-7.6c-0.5-2.1-2.1-2.9-2.5-5c-3.1,0.5-5.2,1.8-8.5,2.2c-0.8,0.9-1.8,2.4-3.1,1.8
		c-0.7,1-1.4,2-2.2,3c0.2,0.3,0.3,0.7,0.4,1c-0.2-0.2-0.5-0.4-0.7-0.6c-3,4.2-6.2,8.5-9.8,11c2.8-4.2,4.8-8.9,8.4-12.3
		c-5.4-4.9-9.7-11-16.1-15.1c-0.1-0.7,0.1-1.1,0.6-1.3c-2.9-3.5-6.7-6-9.9-9.3c-0.4,0.9-1,1.5-2,1.6c-0.5-1.1-0.2-2.5,0.2-3.6
		c0-0.1-0.1-0.1-0.1-0.2c-5.2,1.8-8.8-2-13.3-2.4c0-0.3,0.1-0.6,0.3-0.6c4.2-0.5,8,1.8,12.2,1.9c-0.7-1.1-1.4-2.2-1.9-3.5
		c0.9,1,2.1,2.2,3.5,3.4c0.4,0,0.8-0.1,1.2-0.2c0.1,0.4,0.2,0.9,0.2,1.4c0.9,0.8,1.8,1.6,2.7,2.4c0.2-0.7,0.4-1.4,0.6-2.1
		c-3.2-2.5-7.5-3.9-8.2-8c-4.1,1-9.9-0.3-10.3-3.9c-5.5,1.8-12,0.5-13.2-4.7c3.4,0.3,6.6,1.1,10,0.6c1.5-0.2,3.4-1,5.4-2.1
		c-1-1.3-2.1-2.6-3-3.9c-1.9,2.2-5.2,4.6-8.2,3.3c0.6-1.7,3-1.9,4.4-2.5c1.1-0.4,2.2-1.1,3.4-1.5c-2.2-3.6-3.7-7.9-3.4-14
		c1.6,6.8,5.4,12.8,7,18.6c3.9-2.3,7.8-5.9,9.1-8.7c-0.3-6,0.3-13.3-1.8-17.6c2.2,1.8,2.4,5.6,3.8,8.7c1,2.4,3.6,6,1.6,10.3
		c0.1,0.6,0.7,0.8,0.6,1.6c-1.9,2.4-1.9,5.2-2.4,7.9c1.4,0.2,2.8,0.3,4.2,0.3c0.1-0.9,0.1-1.8,0.1-2.6c0.7,0.7,1.1,1.6,1.2,2.5
		c0.3,0,0.6-0.1,1-0.1c4-0.6,10.5-5,13.5-9c-5.7-10.2-10.6-21-16.4-31c-5.2-5-9.9-10.9-10.8-19c-4.4,4.1-8,9.1-14,11.6
		c4.1-4.6,8.9-8.5,12.5-13.5c0.2-0.1,0.5-0.2,0.7-0.4c-8.6-3.2-17.4-6.3-26.9-8.5c1.6-1.1,4.4,0.8,6-0.3c-5.8-2-12.4-4.3-19.4-5.7
		c-0.2,0-0.3,0-0.5,0c-15.2,0.9-31,1.7-44.4,4.7c6.3,0.6,12-0.3,17.2-0.3c-0.9,0.2-2.2,0.1-2.5,0.9c0.8,0.2,2.3-0.3,2.5,0.3
		c-0.2,1-1.9,0.6-2.2,1.6c3.6-0.1,8.9-2.6,11.9-0.3c-4,4.4-9.5,6.2-15.9,5.6c-3.6-0.3-6.3-2.7-9.4-3.4c0,0,0,0,0,0
		c-1.2,0.9-2.6,1.7-4,2.2c3.1,1,6.4,1.8,10,2.1c4.1,0.5,9.7-0.1,11.6,2.2c-5.2,0.9-10.2,1-15,0.6c-5.5-0.4-10.1-2.4-14.8-3.6
		c-0.4,0-0.8,0-1.3-0.1c-1-0.1-1.9-0.3-2.8-0.7c-1.2-0.1-2.5-0.1-3.8,0c-0.9,0.5,1.2,0.7,0.9,1.3c0.7,0.1,1.5,0.2,2.2,0.3
		c4.1,0.5,9.7-0.1,11.6,2.2c-5.2,0.9-10.2,1-15,0.6c-1.5-0.1-2.9-0.4-4.2-0.7c-8,4.4-12.6,12.5-18.8,17.1
		c2.3-8.6,9.5-12.3,14.7-17.9c-4.7-0.3-9.7-0.7-14.7-1c-10.6,3.4-15.7,13.5-22.9,18.9c2.3-8.6,9.5-12.3,14.7-17.9
		c-3.8-0.3-7.9-0.6-12-0.9c-7.8,0.9-14.5,3.2-18.6,8.1c-0.8,0.3-1.5,0.8-2.5,0.9c-7.1,6.3-12.4,14.3-17.8,22.2
		c0,7.9,0.2,15.7,1.3,22.5c3.6-4,7.6-7.7,12.6-10.2c0.9,1.6-2.6,2.6-3.8,3.8c-1.5,1.5-2.9,3.9-4.7,6c-1.2,1.2-2.4,2.5-3.5,3.7
		c0.2,0.7,0.3,1.4,0.5,2.1c0.5-0.2,1.1-0.5,1.7-0.8c5.2-5.7,13.3-11.3,19.4-14.5c1-0.5,2.4-0.3,3.8-0.9c0.2,0,0.5,0,0.6,0
		c-4.4,4.5-10.4,8.2-16.3,12.1c1-0.2,2-0.3,3.1-0.2c-1.9,4.6-6.6,6.3-11.6,7.8c0.1,2.5,1.3,4.3,2.3,6.2c3.9-3.7,7.4-7.7,12.3-10.7
		c0.6-0.1,0.6,0.2,0.6,0.6c-4.6,3.3-7.8,8.4-11.7,12.6c0.3,0.9,0.5,1.9,0.4,3c-0.9-0.2-1.7-0.5-2.4-0.9c-0.2,0.2-0.4,0.4-0.6,0.6
		c0.4,0.1,0.7,0.3,1.1,0.3c0.6,0.6,1.1,1.3,1.7,1.9c0-0.4,0-0.8,0-1.2c0.5-0.1,0.6,0.3,0.9,0.3c0.2,0.8,0.4,1.8,0.8,2.8
		c1.1,1.3,2.3,2.6,3.4,3.9c-0.8-3.1-1.9-6.1-1.7-9.4c-0.8,0.2-1.7,0.4-2.7,0.5c10.5-9.2,16.4-22.9,29.4-29.4
		c0.9,1.6-2.6,2.6-3.8,3.8c-1.5,1.5-2.9,3.9-4.7,6c-1.7,1.8-3.7,3.7-5,5.6c-3.6,5-6.2,11-12.4,13.3c0.9,1.7,2.1,4.3,2.8,7
		c0.5-0.4,1-0.8,1.5-1.2c-0.7-2.5-1-5.5-1-7.5c0.2,0,0.5,0,0.6,0c1,1.4,1.9,3.8,2.3,6.3c0.4-0.3,0.8-0.5,1.2-0.7
		c-0.8-1.7-0.8-4.1-0.9-6.4c0.3,0,0.6,0,0.9,0c0.5,1.5,1.5,3.5,1.7,5.4c0.7-0.4,1.4-0.9,2.2-1.3c-1.4-1.2-1.7-3.5-1.6-6.1
		c1.6-0.3,1.9,0.6,2.5,1.3c-1.4,1,0.2,2.9-0.2,4.3c0.7-0.5,1.4-0.9,2-1.4c5.5-4.4,9.5-9.8,15.7-13.7c0.6-0.1,0.6,0.2,0.6,0.6
		c-4.7,3.3-7.9,8.6-11.9,12.8c-3.1,3.2-6.9,6.8-12.1,7.8c-0.1,0.8-0.2,1.6-0.5,2.2c-0.4-0.6-0.7-1.3-1-2c-0.6,0.1-1.2,0.1-1.9,0.1
		c0.4,1.7,0.5,3.3,0.3,4.8c1.2,1.3,2.4,2.6,3.7,3.9c0-2.3-2.1-5.7,0-7.2c1.5,2.8,2.2,6.3,2.8,10c0.3-0.4,0.5-0.8,0.8-1.2
		c-0.3-2.2-0.7-4.5-0.8-6.9c0.2,0,0.5,0,0.6,0c0.8,1.1,1.3,2.7,1.7,4.4c0.5-0.8,0.9-1.6,1.4-2.5c-0.4-2.2-0.7-4.2-0.6-6
		c0.3,0,0.6,0,0.9,0c0.3,1.2,0.7,2.3,1.1,3.5c0.5-1,1.1-1.9,1.7-2.9c-0.2-0.9-0.3-1.8-0.5-2.7c0.2,0,0.5,0,0.6,0
		c0.3,0.4,0.5,0.9,0.8,1.4c0.4-0.7,0.9-1.4,1.4-2c0-0.4,0-0.9,0-1.3c0.4-0.1,0.5,0.2,0.7,0.3c0.8-1.1,1.7-2,2.7-3c0-0.1,0-0.3,0-0.4
		c0.2,0,0.3,0,0.4,0c0.8-0.7,1.6-1.3,2.5-1.9c0.2,0,0.5,0,0.6,0c0.4,1.5-0.9,2.7-1.9,3.7c0.8,1.6,1.6,3.7,2.1,5.8
		c0.1-0.1,0.2-0.2,0.3-0.2c0.4-0.4,0.8-0.8,1.2-1.2c-0.7-2.5-0.9-5.4-0.9-7.4c0.2,0,0.5,0,0.6,0c0.9,1.3,1.8,3.4,2.2,5.6
		c0.3-0.3,0.6-0.6,1-1c-0.5-1.6-0.5-3.6-0.6-5.6c0.3,0,0.6,0,0.9,0c0.3,1.1,1,2.5,1.4,3.9c0.5-0.5,0.9-0.9,1.4-1.3
		c-0.5-1.2-0.6-2.8-0.5-4.5c1.6-0.3,1.9,0.6,2.5,1.3c-0.6,0.5-0.6,1.1-0.5,1.8c0,0,0.1-0.1,0.1-0.1c3.4-3,7.3-5.6,10.7-7.6
		c0.3,0.1,0.1,0.3,0,0.3c-4.5,4.5-9,8.6-13.4,12.9c-0.1,0.5-0.2,1-0.4,1.5c-0.2-0.2-0.4-0.3-0.5-0.5c-0.6,0.6-1.2,1.2-1.8,1.8
		c0,0.9-0.2,1.8-0.5,2.5c-0.3-0.4-0.5-0.8-0.7-1.3c-0.6,0.6-1.2,1.2-1.8,1.8c0.1,2-0.2,3.8-1.3,5.1c-0.1-1.1-0.3-2.1-0.5-3.1
		c-0.5,0.5-0.9,1-1.4,1.6c0.2,1,0.4,1.9,0.4,2.8c0,0.9,0.6,3-1.3,3.1c-0.2-1.2-0.5-2.5-0.9-3.9c-0.3,0.4-0.6,0.7-0.9,1.1
		c0.7,2.6,1.3,5.3,0,7.5c-0.5-1.8-1-3.6-1.5-5.5c-0.4,0.5-0.8,1-1.1,1.5c0.3,1.9,0.4,3.7,0.1,5.5c-1-0.3-1.7-1.3-2.2-2.6
		c-0.5,0.7-1,1.5-1.6,2.2c0.5,2.4,0.7,4.8-1.3,6.1c-0.2-1.2-0.3-2.3-0.5-3.4c-0.1,0.1-0.1,0.2-0.2,0.2c-0.5,0.7-0.9,1.6-1.4,2.4
		c1,2.6,2,5.2,2.9,7.9c1.7-2.4,3.8-4.2,6.7-4.7c-1.4,2.5-3.2,4.6-5.2,6.6c0.3,0.4,0.7,0.9,1,1.3c0.1-0.4,0.2-0.8,0.7-1
		c1.1,2.5,2.2,4.9,3.3,7.2c1.3,2.1,2.6,4.2,4,6.1c0.2-0.4,0.4-0.9,0.6-1.4c-0.2-0.3-0.3-0.6-0.5-0.9c-1.9-3.2-4.5-6.8-4.7-10.7
		c0.6,0.4,1.2,0.9,1.6,1.4c0.1-0.7,0.5-1.4,1-2c-0.2-0.8-0.3-1.7-0.3-2.6c0.5,0.4,1,0.9,1.4,1.4c0.3-0.3,0.5-0.5,0.7-0.8
		c-0.5-0.9-0.9-1.8-1.3-2.7c-1.1,1.2-2.4,2.3-3.9,3.3c2.5-7.3,8.9-12.5,13.5-19.4c5.2-7.7,8.1-16.7,15.7-21.9c0.2,0,0.5,0,0.6,0
		c0.5,1.8-1.6,3.2-2.5,4.4c-3.7,4.5-6.4,9.3-9.4,14.7c-0.3,0.5-0.5,0.9-0.8,1.4c0.3,0.5,0.5,0.9,0.8,1.4c0.7-0.8,1.5-1.7,2.3-2.5
		c-0.2-0.6-0.3-1.1-0.4-1.7c0.3,0.4,0.5,0.9,0.8,1.3c0.7-0.7,1.4-1.5,2.1-2.2c-0.1-0.4-0.3-0.9-0.4-1.3c0.5,0.1,0.5,0.6,0.9,0.6
		c0,0.1,0.1,0.1,0.1,0.2c2.4-2.3,4.8-4.6,7-6.8c2.6-2.6,5.6-5.7,8.7-8.5c3.4-3,7.3-5.6,10.7-7.6c0.3,0.1,0.1,0.3,0,0.3
		c-7.9,7.9-16,14.7-23.1,22.9c2.4,4.8,5.5,8.9,7.3,14.2c0.2,0.1,0.3,0.3,0.5,0.3c3.6,8.5,8.7,15.9,12.8,24.1
		c0.8,1.7,1.9,3.4,2.5,5.3c0.1,0,0.2,0,0.4,0c2.3,2.6,6.9,3,8.1,6.5c-3.1-1.2-5.5-3.2-8.1-5.1c0.1,0.6,0.2,1.1,0.2,1.7
		c-2.4-1-3.7-4.8-4.9-7.2c-1.3-2.6-2.7-5.4-4.1-8.1c-2.9-5.6-6.6-11.2-7.8-17.5c-2-1.9-3.3-4.7-4.7-7.3c-1-1.9-2-4.1-2.7-6.4
		c-0.5,0.6-1,1.2-1.5,1.8c3,5.7,7.3,10.9,8.6,17.1c-0.4-0.1-0.7-0.3-1-0.5c3.9,8.1,8.7,15.9,12.8,24.2c1.2,2.5,2.9,5.3,3,8.3
		c3,0.9,6.8,2.6,8.1,5.6c-2.2-0.1-3.7-1.5-5.3-2.5c-1.1-0.7-3-1.1-3.8-2.4c-2.1-2.3-3.1-5.5-4.4-8.2c-0.8-1.8-1.7-3.5-2.6-5.3
		c-0.1,0.8-0.2,1.6-0.3,2.4c1.1,1.9,2.2,3.8,3.2,5.8c1.1,2.2,2.7,4.5,3.5,7c3.2,2.7,9.5,3.7,10.4,7.6c-3.2-1-7.2-2.7-10-5.3
		c0,0.1,0,0.2,0,0.4c-2.1,0.5-2.5-2.3-3.1-3.4c-1.5-2.8-3.1-5.7-4.8-8.6c-0.1,0.4-0.2,0.8-0.2,1.2c2.3,4.1,4.5,8.2,6.7,12.3
		c2.1,1,4.6,2.2,6.8,3.4c1.7,1,4,2,4.7,3.6c-0.4-10.4,2-20.7,4.1-29.5c0.7-0.2,0.9-0.8,1.8-0.6c0.2,6.6-3.3,17.1-3.4,25.7
		c-0.1,5,1.8,7.4,3.1,11.2c0.8,0.8,0.7-0.7,1.8-0.3c2.2,2.2,4.9,4.4,7.8,6.3c2.6,1.7,6.9,3,6.9,6.5c-5.4-3.3-10.7-6.9-15.5-11
		c-0.8,0.5-0.6,1.9-1.6,2.2c-2.9-0.8-1.7-6.9-4.7-6.5c-0.1-1-0.2-2-0.2-3c-4-1.3-7.2-3.3-10.3-5.4c0,0.8,0,1.5-0.9,1.5
		c0.2,0.8,0.7,1.3,1.2,1.8c0.1,0,0.2,0,0.3,0c3.3,3.4,9.5,4,11.6,8.7c-5-1.7-8.9-4.6-12.8-7.4c0-0.2,0-0.3,0-0.4
		c-0.8-0.9-1.4-2-2.2-3c-2.2-2.9-4.4-6-6.5-9.3c-0.1,0.6-0.2,1.2-0.3,1.8c1.5,2.6,2.7,5.3,3.1,8.4c-1.5-1.3-2.5-3-3.5-4.8
		c-0.1,0.9-0.1,1.9-0.1,2.8c0,0.2,0,0.4,0,0.6c1,1.7,1.6,3.6,1.5,5.9c-0.2-0.2-0.4-0.5-0.6-0.7c0.2,0.5,0.3,0.9,0.5,1.3
		c0.5,0.3,0.9,0.6,1.1,1.2c-0.2,0-0.4,0-0.5,0c0.2,0.5,0.4,1,0.6,1.5c1.2,0.5,2.5,0.9,3.8,1.3c-0.5-0.4-0.9-0.8-1.3-1.2
		c-0.6-0.6,0-0.3,0-1.3c0.2,0,0.5,0,0.7,0c2.6,1.5,5.1,3.3,7.7,5c5.8,2.1,11.3,4.5,15.7,8.1c-0.3-1.5,0.6-1.5,0.9-2.2
		c-0.8-0.5-1.8-0.7-1.6-2.2c3-0.5,5.2,2.5,7.6,4.1c2.4,1.6,6.2,2.4,7.2,5.3c-4.1,1.1-8-4.7-11.2-5.3c2.3,2.6,7.8,3.7,7.8,7.6
		c-3.2-1.6-6.8-4.7-9.4-6c3.8,3.8,7.6,7.7,9,13.7c-7.4-5.3-13.3-13.7-22.2-17.1c0.9,0.6,1.6,1.3,2,2.2c9.5,7,16.4,16.6,24.2,25.5
		c0-2.4,0.5-4.4,1.6-5.6c0.3,1.6,1.1,3.5,1.6,5.2c5.2-1.7,10.5-4.8,10.9-9.8c0.7-8.5,0.2-15.3,0.6-25.1c0.5-10.9,3.6-22.3,2.5-30.4
		c-1.1-9-6.6-14.4-6.9-23.5c0.1-0.8-1.4,0.2-0.9-0.9c0.2-8.5,0.8-17.1,0.3-24.7c-0.5-8.4-4.3-14.4-8.2-19.3
		c-0.1,0.5-0.2,1.1-0.4,1.6c1.8,4.7,2.5,10.4,1.6,15.7c-1.6-2.7-2.7-6.3-3.8-9.9c-0.2,0.4-0.3,0.8-0.5,1.1c-1,2.3-1.9,5.2-4.1,6.3
		c0.9-3.1,2.4-6.4,3.9-9.7c-0.7-2.5-1.5-4.9-2.3-7.1c-1.4-3.4-3.7-6.1-1.3-8.7c-1.6-3.3-3.4-8.9-1.8-13.4
		c-2.1-1.7-2.6-10.1,0.9-11.2c1.9,0.9,0.6,4.7,1.6,6.9c0.7,1.5,2.1,2.3,3.1,2.5c-1.9-5.3-1.1-14,3.4-15.7c2.2,1,8.4-4.1,9.4-0.3
		c0.3,1.4-1.7,2.1-2.5,3.1c-2.2,2.9-4.6,9.7-4.7,12.5c0.9-2.6,2.3-5.6,3.8-8.1c1.4-2.5,2.7-5.8,5.3-6.3c-0.2,0.6-0.4,1.2-0.6,1.9
		c2.4-0.4,3.7,4.7,1,5.9c-1.7,0.1-2.1-1-2.3-2.4c-1.9,5.1-3.9,10.2-5.3,15.9c2.2,1.7,5.5,2.2,6.3,5.3c0.2,0.8-1.5-0.2-1.3,0.6
		c4,7.2,6.6,15.9,6,27.8c0.9,0.7,1.5,1.8,2.2,2.9c1-0.1,1.6-1.6,2.9-0.6c-0.1,2.2-0.8,2.1,0.3,3.4c0.1,0.9,1.6-0.8,1.8,0.3
		c-1,3.7-4.7,6.4-5.6,9c1.5-1.5,3.6-4.1,6-3.8c-0.7,0.7-1.7,2.3-0.9,3.4c0.9,0.7,1.8-0.9,2.9-1.3c-1.5-3.7-2.3-8.9-2.5-14.3
		c-1.9-4.8-3.2-10.7-5-15.4c-1.4-3.4-3.7-6.1-1.3-8.7c-1.6-3.3-3.4-8.9-1.8-13.4c-2.1-1.7-2.6-10.1,0.9-11.2
		c1.9,0.9,0.6,4.7,1.6,6.9c0.7,1.5,2.1,2.3,3.1,2.5c-1.6-4.2-1.3-10.7,1.2-14c0,0,0-0.1,0-0.1c0,0,0,0.1,0.1,0.1
		c0.6-0.8,1.3-1.4,2.2-1.7c2.2,1,8.4-4.1,9.4-0.3c0.3,1.4-1.7,2.1-2.5,3.1c-2.2,2.9-4.6,9.7-4.7,12.5c0.9-2.6,2.3-5.6,3.8-8.1
		c1.4-2.5,2.7-5.8,5.3-6.3c-0.7,2.1-1.5,4.2-2.3,6.3c1-1.5,2.5-2.4,4.3-1.7c-2.7,2.5-3.8,6.6-6.3,9.4c-0.1-0.9,0-1.9,0.2-3
		c-1.2,3.3-2.3,6.7-3.2,10.3c2.2,1.7,5.5,2.2,6.3,5.3c0.2,0.8-1.5-0.2-1.3,0.6c4,7.2,6.6,15.9,6,27.8c0.9,0.7,1.5,1.8,2.2,2.9
		c1-0.1,1.6-1.6,2.9-0.6c-0.1,2.2-0.8,2.1,0.3,3.4c0.1,0.9,1.6-0.8,1.8,0.3c-1,3.7-4.7,6.4-5.6,9c1.5-1.5,3.6-4.1,6-3.8
		c-0.7,0.7-1.7,2.3-0.9,3.4c0.9,0.7,1.8-0.9,2.9-1.3c-2.7-6.9-3.3-18.6-1.6-27.3c0.9,4.6,0.7,8.9,0.9,13.4
		c1.1,16.6,12.3,24.2,15.9,37.6c0.6,2.1,0,6.8,3.1,6c0.9-0.9-0.9-0.3-0.6-1.6c0.9-1.3,3.3-1,4.7-0.9c3.3,0.4,6.1,1.7,8.8,3.3
		c2.7-1.5,5.7-2.9,8.7-4.1c-0.6-0.7-1.4-2.9-0.9-3.4c1-0.2,0.6,1.1,1.3,1.3c0.6-1.6-1.6-2.4,0-3.1c1.7,2.4,3.2,5,3.4,9
		c1.2,1.2,2.7,2.8,4.4,4.3c4.2-3.4,9.4-5.8,14.7-8.1C366.3,139.1,365.5,136.9,365.9,136.4z M344.1,82.1c1.5-0.6,3-1.6,4.7-1.8
		c-1.7,2.4-5.5,5.8-9,4.4C340.4,82.9,342.8,82.7,344.1,82.1z M333.7,57.1c-1.7-1.3-2.7-3.2-3.8-5.3
		C331.7,51.8,333.4,54.6,333.7,57.1z M328.1,38.7c1.1,1.6,1.6,3.9,1.8,6.3C327.3,45.8,326.4,40.4,328.1,38.7z M167.9,89.3
		c3.9-7.3,15.3-15.8,23.5-20c1-0.5,2.4-0.3,3.8-0.9c0.2,0,0.5,0,0.6,0C188.2,76,175.9,81.5,167.9,89.3z M205.8,80.3
		c-0.6-1.9-0.1-5.3,2.2-5.3C208.7,77,207.6,79.8,205.8,80.3z M223.5,160.9c-0.1-0.7,0.2-0.8,0.3-1.3c2.4,1.9,6.1,2.4,7.2,5.4
		C228.1,164.1,225.8,162.6,223.5,160.9z M230.9,75c0.7,2.1-0.3,4.8-2.2,5.3C228.1,78.3,228.6,75,230.9,75z M221.1,129.7
		c-1.5-2.8-3.1-5.5-4.5-8.3c-0.1,1.3-0.1,2.6,0,4c1.2,2.1,2.4,4.1,3.6,6.2c2.5,4.2,5.6,8.6,6.5,13.4c-2.4-1.3-2.9-4.1-4.1-6.3
		c-1.8-3.2-3.8-6.4-5.7-9.7c0.3,2.2,0.5,4.4,0.6,6.4c2.4,4.4,5,8.7,7.2,12.8c1.3,2.1,3.2,4.7,2.3,7.2c-3.2-5.7-6.6-11.2-9.6-17.1
		c0,0.4-0.1,0.8-0.2,1.2c-2.1-1.4-2.9-4.4-2.9-7.8c-0.6-1.4-1.2-2.9-1.8-4.4c0.3,0,0.6,0,0.9,0c0.3,0.7,0.6,1.3,0.9,2
		c0.1-1.3,0.2-2.7,0.4-4c-1.1-2-2.1-4.1-2.9-6.3c-0.3,0-0.2-0.6-0.3-0.9c0.5,0.1,0.8,0.1,1,0.1c0.8,1.7,1.7,3.3,2.6,4.9
		c0.2-0.9,0.3-1.7,0.5-2.4c0.2,0,0.3,0,0.5,0c-0.9-1.9-1.7-3.9-2.3-6c5.4,9.2,11.5,17.5,15.7,27.8
		C226.1,139.5,223.7,134.2,221.1,129.7z M217.1,112.8c4,6.9,8.7,13.3,11.6,21.3c-2.6-1.8-4-6.1-6-9.7
		C220.7,120.6,217.9,117.2,217.1,112.8z M227.4,126.5c-2.4-4.6-6.3-10.2-7.8-15.9c0.5,0.1,0.5,0.6,0.9,0.6c2.9,7,8.5,12.8,10,20
		C228.5,130.8,228.2,128.2,227.4,126.5z M226.2,118.7c-1.5-2.7-2.9-6-3.4-9.4c2.6,6.1,6.5,10.8,8.7,17.2
		C229.2,124.6,227.7,121.5,226.2,118.7z M233.6,83.7c-0.3,4-1.9,7.4-3.4,10.7c-1,2.3-1.9,5.2-4.1,6.3c1.5-5.4,5-11.5,7.2-17.2
		C233.9,83.3,234,83.7,233.6,83.7z M218.9,180.4c0-0.3,0-0.6,0-0.9c0.2-0.1,0.5-0.3,0.9-0.3c2.5,1,4.8,2.6,7.2,4.1
		c2.1,1.3,5.3,2.3,6,5C227.1,186.8,223.5,183,218.9,180.4z M259.3,109c0.2-0.1,0.3,0.1,0.3,0.3c1.1,3.2,0.7,9.6,0.9,13.7
		c0.7,12,5.6,21.5,6.5,33.2c-0.6,1.8,1.8,0.7,1.6,2.2c-0.7,7.2-3.2,15.2-4.4,22.8c-1,6.2,0.2,12.8,0,18.8c-0.1,2.5-0.5,5.4-1.6,7.6
		c-2.1-0.2-1-2.6-1.3-3.8c-1.4-5.6-1.7-13.7-0.9-21c0.6-5.4,2.6-10,3.4-14.7C267.4,147,253.9,130.6,259.3,109z M242.4,169.7
		c0.2,0,0.5,0,0.6,0c2.1,1,4.6,2.2,6.9,3.4c2.1,1.1,4.9,2.4,5,4.7c-4.9-1.6-8.7-4.2-12.5-6.9C241.9,170.4,242.4,170.6,242.4,169.7z
		 M242.4,165.6c0.2-0.1,0.7-0.2,1.3-0.2c3.1,2.9,9.7,3.8,10.7,7.8C250.3,171.9,244.9,169.5,242.4,165.6z M238.7,120.7
		c0.3,0,0.6,0,0.9,0c-0.8,5.7,1.7,13.9,0.7,18.8C235.7,136.5,237.5,125.8,238.7,120.7z M246.5,187.6c-2.6-1.6-5.3-3.2-7.2-5.3
		c-0.6-0.6,0-0.3,0-1.3c0.2,0,0.5,0,0.7,0c2.6,1.5,5.2,3.3,7.8,5c2.4,1.5,5.8,2.6,6.9,5.6C251.7,191.6,249,189.2,246.5,187.6z
		 M241.8,180.4c0-0.3,0-0.6,0-0.9c0.2-0.1,0.5-0.3,0.9-0.3c2.5,1,4.8,2.6,7.2,4.1c2.1,1.3,5.3,2.3,6,5
		C250,186.8,246.5,183,241.8,180.4z M243.7,176.9c0-0.3,0-0.6,0-0.9c0.2-0.2,0.7-0.3,1.3-0.3c3.3,3.4,9.5,4,11.6,8.7
		C251.5,182.6,247.6,179.8,243.7,176.9z M247.5,155.6c2.3,2.6,6.9,3,8.1,6.5c-3.7-1.4-6.3-3.9-9.4-6
		C246.2,155.7,246.7,155.6,247.5,155.6z M254,165c-3-0.9-5.3-2.4-7.6-4.1c-0.1-0.7,0.2-0.8,0.3-1.3C249.2,161.6,252.9,162,254,165z
		 M253.4,168.8c-2.2-0.1-3.7-1.5-5.3-2.5c-1.4-0.8-3.9-1.3-4.1-3.4C247.1,163.6,252,165.3,253.4,168.8z M245.2,52.8
		c-2.7,0.2-2.2-2.9-2.5-5C246,44.3,248.4,51.3,245.2,52.8z M253.3,43.7c-1.6,0.6-3,1.3-4.7,1.6c-0.8-2.2,2.6-4.6,4.7-3.1
		C253.3,42.6,253.3,43.1,253.3,43.7z M276.2,43.7c-1.6,0.6-3,1.3-4.7,1.6c-0.8-2.2,2.6-4.6,4.7-3.1
		C276.2,42.6,276.2,43.1,276.2,43.7z M343.5,111.9c0.2-1.8-0.3-2.7-0.3-4.4C344.1,108,345.1,111.5,343.5,111.9z M309.3,58.9
		c-0.2-3.9,1.9-11.1,6.3-9.4C312.9,52.1,311.9,56.2,309.3,58.9z M294.9,39.9c4.1-4.6,8.9-8.5,12.5-13.5c4.7-2.5,14.8-2.2,13.4,4.7
		c-3.3-1.5-5.5-4.4-11.2-3.4C304.9,31.9,301.2,37.3,294.9,39.9z M303.1,73c-0.7-8.2-0.6-19.8-3.1-27.3C305.6,50.6,305,64.6,303.1,73
		z M298.3,66.5c1.6,7,5.6,13.2,7.2,19.1C301.5,80.8,297.9,75.8,298.3,66.5z M305.9,92.5c-0.2-3.9-0.2-11.2,1.6-14.1
		c0.2-0.1,0.3,0.1,0.3,0.3c-1.5,23.5,8.6,35.4,11.2,54.7C315.2,123.1,307,107.2,305.9,92.5z M318.7,121.3c0.2,0,0.5,0,0.6,0
		c3.2,1,6.2,2.5,9.4,3.8c3.1,1.1,6.6,2.1,9,4.1C329.8,128.1,323.2,125.8,318.7,121.3z M327.2,115.6c-0.1-0.7,0.1-1.1,0.6-1.3
		c-2.9-3.5-6.8-6.1-10-9.3c0.2,1.3,0.3,2.6,0.3,3.9c-1.2-2.3-2.7-5.1-3.6-8.2c-0.4-0.7-0.8-1.5-1.2-2.4c0.2,0.2,0.4,0.5,0.7,0.7
		c-0.3-1.1-0.5-2.3-0.6-3.4c-0.2-0.9-0.3-1.9-0.1-3c0,0,0,0,0.1,0.1c0.1-0.9,0.2-1.7,0.4-2.6c0.5,0.1,0.5,0.6,0.9,0.6
		c0.2,1.6,0.6,3.1,0.9,4.6c3.4,3.7,7.2,7,11.1,10.1c3.9,0.7,7.7-1.7,10.1,0.3c-2.1,2.9-9.7,2.5-12.3,1.3c-1.3-3.5-4.9-5-7.7-7
		c0.2,0.7,0.3,1.4,0.5,2.1c3.3,2.9,7.2,6.1,9.4,8.7c1.6,1.7,2.2,3.7,4.7,4.1c1.7-0.3,3.4-0.8,5.6-0.6c-1.1,1-2.3,1.9-4.1,2.2
		c4,5.5,9.8,9.2,12.5,15.9C338.9,127.4,334.4,120.2,327.2,115.6z"/>
	<path class="st1" d="M203.3,176.3c1.4,0.9,3.3,1.6,5.3,2.2c0.1,0,0.2,0.1,0.4,0.1c-0.1-1.9-0.2-3.9-0.1-5.8c-1-1.8-2.1-3.5-3.2-5.2
		c-2.3,4,0.9,6.4,1.8,9.7c-1.7-0.3-2.2-3.4-3.8-2.9C203.8,175.4,203,175.4,203.3,176.3z"/>
	<path class="st1" d="M206.3,161.9c-0.1,2.9,1.2,5.2,2.7,7.4c0.1-1.2,0.2-2.4,0.4-3.7C208.5,164.2,207.5,162.9,206.3,161.9z"/>
	<path class="st1" d="M194.2,137.4c-0.5,0.5-1.1,1.1-1.7,1.6c0.9,1.6,1.9,3.3,2.8,4.9c0.5-1.6-0.9-3.8-0.4-5.1
		C194.6,138.3,194.4,137.9,194.2,137.4z"/>
	<path class="st1" d="M202.9,149.1c-1.9-3.2-4.5-6.8-4.7-10.7c1.2,0.7,2.1,1.9,2.9,3.2c-0.5-1-0.8-2-1.4-3c-0.8-1.5-1.7-3-2.6-4.5
		c-0.6,0.8-1.2,1.5-1.9,2.2c2.2,4,4.6,8,6.7,11.8c1.2,2,3.1,4.5,2.4,7c0.3,0.5,0.6,0.9,1,1.4c1.4,2,3,4,4.5,6.2
		c0.1-0.6,0.2-1.2,0.3-1.8C207.6,157,205.3,153,202.9,149.1z"/>
	<path class="st1" d="M193.1,148.4c0.1-1.9-0.2-3.7-0.6-5.6c-0.3-0.6-0.6-1.2-1-1.8c-0.1,1.1-0.3,2.2-0.7,3.3
		C191.6,145.5,192.3,146.9,193.1,148.4z"/>
	<path class="st1" d="M189.4,141.6c0.3-0.8,0.7-1.7,1.1-2.5c-1.3-2.3-2.5-4.7-3.6-7.1c-0.6,0.6-1.3,0.7-2,1.2
		C186.4,136,187.9,138.8,189.4,141.6z"/>
	<path class="st1" d="M187.6,146.2c0.2-0.1,0.3-0.2,0.2-0.6c0.2-0.5,0.4-1.1,0.6-1.6c-1.6-3.2-3.3-6.4-4.7-9.6
		c-0.6,0.7-1.1,1.6-1.6,2.4C183.8,140,185.7,143.1,187.6,146.2z"/>
	<path class="st1" d="M183.2,144.4c1,1.9,2.1,3.8,3.2,5.7c0.1-0.5,0.1-0.9,0.1-1.4c-1.9-3.5-3.8-7-5.6-10.5
		c-0.2,0.2-0.3,0.4-0.5,0.5C181.4,140.6,182.2,142.6,183.2,144.4z"/>
	<path class="st1" d="M203.6,143.8c0.1,0.4,0.2,0.8,0.3,1.2c-0.6-0.3-1-0.7-1.4-1.1c2.7,4.4,5.2,9.3,8.2,13.8c0-0.1,0-0.2,0.1-0.4
		c-1.4-3.1-3.1-6.4-4.9-9.7C205.1,146.3,204.3,145.1,203.6,143.8z"/>
	<path class="st1" d="M179.1,143.1c0.8,1.3,1.6,2.7,2.5,4.1c0.2-0.4,0.3-0.7,0.5-1.1c-1.2-2.1-2.6-4.1-3.5-6.4
		c-0.4,0.1-0.9,0.2-1.5,0.2C177.9,141,178.5,142.1,179.1,143.1z"/>
	<path class="st1" d="M185.6,152.7c-0.9-1.7-1.8-3.4-2.7-5.1c-0.1-0.2-0.3-0.5-0.4-0.7c-0.1,0.5-0.2,1-0.3,1.5c1,1.8,2,3.5,3.1,5.3
		C185.4,153.3,185.5,153,185.6,152.7z"/>
	<path class="st1" d="M192.4,151.8c-0.8-1.6-1.6-3.2-2.4-4.7c-0.2,1-0.4,2-0.2,2.9c0.5,0.9,1.1,1.9,1.6,2.8c0.2,0.1,0.3,0.2,0.5,0.4
		C192,152.6,192.2,152.2,192.4,151.8z"/>
	<path class="st1" d="M180.9,134.7c0.6-0.7,1.3-1.5,1.9-2.3c-0.4-1-0.8-2-1.2-3c-0.7,1-1.4,1.9-2.1,2.8
		C179.9,133,180.4,133.8,180.9,134.7z"/>
	<path class="st1" d="M182.5,128c0.4,1,0.9,2,1.3,2.9c0.6-0.9,1.2-1.9,1.7-2.9c-0.2-0.7-0.4-1.4-0.5-2.1c0.5-0.1,0.6,0.3,0.9,0.3
		c0.1,0.2,0.1,0.3,0.2,0.5c0.7-1.4,1.5-2.9,2.3-4.4c0.4-0.6,0.8-1.3,1.2-1.9c-0.2-0.5-0.4-0.9-0.6-1.4c-1.2,1.5-2.4,3-3.6,4.6
		C184.4,125.1,183.5,126.6,182.5,128z"/>
	<path class="st1" d="M255.2,85.9c0.1-0.3,0.2-0.6,0.4-0.9c-1.1-1.3-2.3-2.6-3.4-3.8C253.4,82.6,254.4,84.2,255.2,85.9z"/>
	<path class="st1" d="M191.5,137.2c0.5-0.8,1-1.5,1.5-2.2c-1.2-2.5-2.2-5-3.2-7.7c-0.6,1.1-1.2,2.3-1.8,3.3
		C189.1,132.9,190.3,135.1,191.5,137.2z"/>
	<path class="st1" d="M275.1,81.3c1.7,1.9,3,4.4,4,7.1c0.1-0.7,0.2-1.4,0.4-2.1C278,84.4,276.5,82.8,275.1,81.3z"/>
	<path class="st1" d="M283,92.5c0-0.4,0-0.8-0.1-1.3c-1.1-1.8-2.3-3.4-3.5-4.9c0.4,2,0.6,4,0.7,6c0.6,3,0.8,6.1,0.4,9.2
		c0.3,2.7,0.9,5.2,1.7,7.5c0.2,0,0.3,0.1,0.3,0.4c0.2,0.4,0.3,1,0.4,1.5c1.2,3.1,2.8,6,4.4,8.7c0.1-2.6,0.2-5.3,0.2-7.8
		C285.3,105.5,283.5,98.9,283,92.5z"/>
	<path class="st1" d="M141.9,89.5c1.3,2.9,2.9,5.6,4.6,8c0.1-0.1,0.3-0.2,0.4-0.3c0.2-0.1,0.3-0.3,0.5-0.4c-1.9-2.5-2.8-6.1-4.6-8.7
		C142.5,88.6,142.2,89,141.9,89.5z"/>
	<path class="st1" d="M168.8,117.9c0.5-0.6,1.1-1.3,1.6-1.9c-0.1-0.4-0.1-0.7-0.2-1.1c-0.1-0.5-0.2-0.9-0.3-1.4
		c-0.1,0.2-0.3,0.5-0.4,0.7c-0.3,0.6-0.7,1.2-1.1,1.8C168.5,116.7,168.6,117.3,168.8,117.9z"/>
	<path class="st1" d="M178,108.3c0.5-0.5,1-1,1.5-1.5c-0.6-2.1-1.2-4.1-1.5-6.2c-0.7,0.8-1.3,1.7-1.9,2.6
		C176.7,104.8,177.4,106.5,178,108.3z"/>
	<path class="st1" d="M139.9,62.4c-3,8.3-2,16.6,0.6,23.7c0.5-0.6,1-1.3,1.5-1.9C140.7,77.4,139.5,69.9,139.9,62.4z"/>
	<path class="st1" d="M200.9,131c0.3,0,0.5,0,0.9,0c3.3,6.3,7,12.3,10.6,18.5c0.2-0.8,0.3-1.5,0.5-2.2c0,0,0.1,0,0.1,0
		c-3.3-6.4-6.8-12.9-9.2-19.8c-0.1-0.5,0.3-0.6,0.3-0.9c0.4,0.1,0.4,0.4,0.7,0.5c-0.1-0.2-0.1-0.3-0.2-0.5
		c-1.8-3.4-4.4-7.4-6.2-11.5c-0.5,0.7-1,1.3-1.5,2c3.3,5.4,6.7,10.7,9,17.1c-2.6-1.8-4-6.1-6-9.7c-1.2-2.2-2.6-4.2-3.7-6.4
		c-0.4,0.6-0.8,1.1-1.2,1.7c-0.2,0.2-0.3,0.5-0.5,0.7C196.6,123.9,198.8,127.4,200.9,131z"/>
	<path class="st1" d="M197.3,131.6c0,0,0,0.1,0.1,0.1c0.5-0.2,1.1-0.4,1.6-0.5c-0.3,0.5-0.6,1.1-1,1.6c0.9,1.4,1.8,2.9,2.6,4.4
		c-0.1-0.6-0.2-1.2-0.2-1.9c2.9,2.2,3.9,6.1,5.6,9c1.7,3.1,3.5,6.3,5.3,9.4c0.1-0.4,0.2-0.8,0.3-1.2c-2.1-3.7-4.2-7.5-6.2-11.3
		c-2.9-3.1-5-7.7-7.2-11.6c-1.5-2.7-3.1-5.5-4.5-8.3c-0.4,0.6-0.8,1.2-1.3,1.8C194,126,195.7,128.8,197.3,131.6z"/>
	<path class="st1" d="M191.6,124.4c-0.3,0.4-0.5,0.8-0.8,1.2c-0.3,0.5-0.6,1-0.9,1.6c0.3,0,0.5,0,0.8,0c1,2.3,2.1,4.5,3.3,6.8
		c0.6-0.6,1.3-1.2,2.1-1.6C194.5,129.8,193,127.2,191.6,124.4z"/>
	<path class="st1" d="M175.3,110.9c0.3-0.3,0.6-0.6,0.9-0.9c-0.5-1.6-0.9-3.3-1.3-5c-0.3,0.4-0.5,0.8-0.8,1.2
		C174.6,107.8,174.9,109.4,175.3,110.9z"/>
	<path class="st1" d="M190.4,119.5c0.5-0.7,1-1.3,1.5-2c-0.2-0.5-0.4-1.1-0.6-1.6c-0.5,0.8-1,1.5-1.6,2.3
		C190,118.6,190.2,119.1,190.4,119.5z"/>
	<path class="st1" d="M184,157.6c0.1-0.4,0.2-0.9,0.3-1.3c-0.9-1.5-1.8-3-2.7-4.5C181.5,154.2,181.9,156.3,184,157.6z"/>
</g>
</svg>
