<svg xmlns="http://www.w3.org/2000/svg" width="328.933" height="134.941" viewBox="0 0 328.933 134.941">
  <path id="Path_7270" data-name="Path 7270" d="M75.694,190.561c5.795-4.563,11.8-4.249,18.353-1.508,9.559,3.994,19.208,7.865,29.057,11.045,9.293,3,18.711,6.2,28.8,4.9,7.526-.972,12.244-4.338,13.084-9.247.834-4.882-2.23-9.43-9.754-12.5-18.41-7.51-37.4-11.787-57.464-8.71-3.349.514-6.755,1.654-9.974-.563,1.332-3.291,3.79-5.09,6.048-7.049,6.6-5.724,13.987-10.4,20.934-15.644,4.851-3.664,8.386-2.959,13.1.231,14.9,10.077,30.417,19.084,47.318,25.546,7.238,2.768,14.5,2.228,21.747.928,4.095-.735,5.112-3.37,4.112-7.4a9.3,9.3,0,0,0-3.127-4.654,66.354,66.354,0,0,0-22.272-13.368,90.212,90.212,0,0,0-25.5-5.441c-5.233-.332-10.513-1.234-15.131-5.785,9.706-4.926,19.6-6.811,29.165-9.789,9.406-2.929,16.883.052,24.124,5.315,14.767,10.733,29.725,21.166,45.943,29.645,5.314,2.778,10.617,5.759,16.861,5.633,5.9-.118,7.867-3.229,5.411-8.605a34.023,34.023,0,0,0-11-12.983c-11.871-8.861-24.686-15.925-39.006-20.085-1.495-.435-3.9.173-4.325-2.428,13.461-4.022,27.095-2.385,40.638-2.327a4.806,4.806,0,0,1,3.743,1.118c5.672,5.42,12.511,9.692,16.688,16.574,8.039,13.248,20.006,22.944,30.5,33.972,2.274,2.39,5.316,3.747,8.148,5.39,4.2,2.435,8.326,2.12,12.538.279,4.686-2.049,5.6-3.712,4.849-8.936-.929-6.475-4.136-11.772-8.736-16.255-8.834-8.611-18.463-16.09-29.628-21.578-3.265-1.6-7.451-2.758-9.163-8.046,6.723,1.907,12.589,3.234,18.219,5.233,14.3,5.077,28.7,10.18,39.351,21.769,2.721,2.963,6.039,5.521,7.72,9.43,4.852,11.282,9.375,22.676,10.58,35.023a24.905,24.905,0,0,0,2.277,8.62c2.314,4.742,6.1,5.924,10.9,3.669,3.5-1.644,5.1-4.222,5.385-8.328.809-11.444-4.527-20.58-10.551-29.379-1.961-2.865-4-5.416-4.883-9.082,4.235.181,7.512,1.618,10.705,3.035,7.091,3.151,14.6,4.355,22.184,5.339,4.763.617,9.268-.58,13.55-2.351,3.158-1.307,3.75-4.1,1.39-6.52-3.6-3.686-7.357-7.372-12.926-8-14.074-1.574-28.059-4.086-42.251-4.415-6.478-.151-12.1-2.324-17.715-5.372-16.29-8.843-32.626-17.652-51.133-21.236-1.944-.377-4.354.017-6.266-2.459,7.982-1.165,15.5-2.19,23-3.377,8.382-1.326,16.543-3.391,24.066-7.535,3.424-1.886,5.542-4.305,4.82-8.514-.713-4.161-2.644-7-7.114-7.787a28.4,28.4,0,0,0-12.141.021,113.472,113.472,0,0,0-41.827,19.789,30.33,30.33,0,0,1-19.618,6.534c-10.863-.076-21.765-1.027-32.614.465-1.355.187-2.9,1.129-4.452-1,5.612-2.474,10.905-4.561,15.966-7.108,5.1-2.568,9.975-5.592,14.95-8.416,7.444-4.227,12.6-10.326,14.857-18.638,2.079-7.663-1.449-11.205-9.07-8.706a83.114,83.114,0,0,0-14.107,6.425,156.491,156.491,0,0,0-35.372,26.182c-4.007,4.012-6.3,10.259-10.859,13.051s-11.026,2.3-16.555,3.664c-4.662,1.151-9.189,2.818-14.645,2.538a58.59,58.59,0,0,1,14.6-11.079,53.663,53.663,0,0,0,8.294-5.2c5.107-4.172,5.622-9.385,1.82-14.4-3.234-4.271-7.491-4.818-12.854-.656-7.532,5.844-15.034,11.911-20.378,19.945-5.125,7.7-12.925,13.3-16.872,21.913-.492,1.073-2.063,1.674-3.174,2.437q-10.447,7.165-20.914,14.306c-1.451.992-2.577,2.884-4.724,1.825,1.38-3.592,2.807-7.115,4.087-10.691a94.893,94.893,0,0,0,3.56-10.873c1.69-7.477,3.117-15.014-.593-22.412-3.542-7.064-11.089-8.585-16.444-2.565-4.685,5.267-8.1,11.244-7.96,19.036.237,12.784,4.447,25.132,3.191,38.16-.449,4.667-1.4,8.32-4.06,11.839-2.085,2.764-4.758,5.3-3.9,9.534A4.967,4.967,0,0,0,75.694,190.561Zm12.012-11.236c21.509-3.682,42.71-3.437,63.23,5.121,1.5.627,3.032,1.216,4.464,1.979,3.687,1.969,5.683,4.82,5.079,9.274-.6,4.428-4.172,4.527-7.233,5.2a31.06,31.06,0,0,1-12.144.2c-15.027-2.661-29.64-6.521-42.806-14.675-3.646-2.258-8.238-2.562-12.325-5.565C86.936,179.986,87.278,179.4,87.707,179.325Zm200.805-34.7a123.217,123.217,0,0,1,21.1,16.632c3.631,3.469,5.389,8.053,5.858,13.138.325,3.517-1.208,4.875-4.559,5.194-5.057.482-9.18-1.657-12.577-4.811-10.542-9.791-21.264-19.477-29.9-31.057-2.989-4-4.222-9.237-7.79-13.091C269.52,136.536,279.673,139.264,288.512,144.626Zm-45.064,7.592c3.787,2.777,6.6,6.427,9.479,10a5.256,5.256,0,0,1,.878,5.407c-1.08,2.115-3.33,1.222-5.17,1.111-8.815-.533-15.78-5.648-23.078-9.7-7.113-3.946-13.754-8.735-20.663-13.055-3.073-1.923-5.075-4.868-7.544-7.366-3.445-3.486-7.6-5.972-11.788-8.517C207.108,131.928,226.237,139.6,243.448,152.218Zm-90.5-1.682c14.186,1.311,27.9,4.288,39.436,13.492,1.061.846,2.205,1.6,3.185,2.53,1.881,1.782,3.072,4.12,2.279,6.575-.82,2.54-3.619,2.1-5.649,2.205-12.856.689-24.6-3.118-35.453-9.649-8.1-4.874-15.949-10.17-23.8-15.449-1.888-1.27-3.934-2.658-4.561-5.386A87.347,87.347,0,0,0,152.944,150.536Zm40.036-38.314c12.623-10.4,25.08-20.952,40.236-27.613,3.349-1.472,7.09-4.773,10.408-1.381,3.65,3.73-.058,7.677-1.7,11.143-1.656,3.5-4.949,5.8-8.2,7.8-9.973,6.148-19.984,12.227-31.335,15.676-2.841.863-5.429,2.529-8.236,3.541-2.431.875-4.731,2.912-8.043,1.3A21.8,21.8,0,0,1,192.98,112.222ZM80.408,132.759A26.933,26.933,0,0,1,85.192,117.5c1.818-2.728,4.692-5.065,8.2-4.091,3.046.846,4.349,3.87,4.926,6.921a25.741,25.741,0,0,1,.46,8.9,77.326,77.326,0,0,1-13.882,33.458C83.394,152.477,80.428,142.843,80.408,132.759Zm222.38-33.748a14.856,14.856,0,0,1,8.786.631c2.11.915,3.835,2.173,4.2,4.542.39,2.512-1.277,4.042-3.146,5.234a27.475,27.475,0,0,1-4.371,2.152c-14.53,5.936-30.027,6.021-45.363,7.6C274.489,108.879,287.515,101.716,302.788,99.011Zm-145.53,5.637a18.409,18.409,0,0,1,5.368-3.622c2.932-1.139,5.528-.428,7.153,2.123,1.495,2.347,2.167,5.142-.02,7.556a16.325,16.325,0,0,1-4.35,3.6,112.067,112.067,0,0,0-25.723,18.381,22.408,22.408,0,0,1-9.922,5.543C138.558,125.589,146.564,114.03,157.258,104.648Zm205.183,93.637a13.519,13.519,0,0,1,.253,1.61c-.115,3.372,1.275,7.446-3.52,8.854-3.1.908-6.674-2.179-7.232-7.179-1.3-11.659-6.6-22.32-7.418-34.306C351.722,176.867,361.234,185.166,362.441,198.285Zm21.251-38.021c2.79.405,4.881,2.335,7.128,3.849,1.074.724,2.44,1.423,1.8,3.176-.533,1.471-1.833,1.891-3.155,2.272-2.7.775-5.4.418-8.1-.005-11.332-1.783-21.969-5.744-32.463-10.745C360.616,157.135,372.163,158.593,383.692,160.265Z" transform="translate(-71.101 -78.14)" fill="#afc2d2" opacity="0.497"/>
</svg>
