<?xml version="1.0" encoding="utf-8"?>
<!-- Generator: Adobe Illustrator 24.0.3, SVG Export Plug-In . SVG Version: 6.00 Build 0)  -->
<svg version="1.1" xmlns="http://www.w3.org/2000/svg" xmlns:xlink="http://www.w3.org/1999/xlink" x="0px" y="0px"
	 viewBox="0 0 224.5 288.9" style="enable-background:new 0 0 224.5 288.9;" xml:space="preserve">
<style type="text/css">
	.st0{fill-rule:evenodd;clip-rule:evenodd;fill:#6A6D4F;}
	.st1{fill-rule:evenodd;clip-rule:evenodd;fill:#FFFFFF;}
	.st2{fill-rule:evenodd;clip-rule:evenodd;fill:#AFC2D2;}
</style>
<g id="Layer_1">
	<path class="st0" d="M103.2,71.9c-1.2-3.8-4.3-8-3.7-11.9c-1.1,0-1.1-0.6-1.5-1.1c-1.6-2.2-2.5-6.4-3.7-9.7
		c-1.2-3.4-3.3-6.5-4.3-9.3c-0.4-1.1-0.5-2.3-0.9-3.2c-2.7-6.7-7.8-11.5-8.8-18.3c-0.6-0.9-0.9,0.9-1.3,0.2
		c-0.7-1.6-2.5-2.1-3.7-3.2c-4.9-1.8-10.9-5.5-17.3-6.3C49.6,8,45.3,14.2,40,16.6c2.1-2.2,5.2-3.4,7.1-5.8
		C33.2,17,25,28.9,19.3,43.4c-0.2,3.6-1.2,7.1-1.7,10.8c-2.2,15.7-1.7,35.5-0.4,51.6c0.4,4.7,1.1,9.5,1.1,14c0,3.8-0.5,7.3-0.2,10.8
		c0.2,2.7,1.2,5.1,1.5,7.8c1,8.4,1.2,17.2,1.9,25.7c0.4,4.2,0.7,8.6,1.1,12.7c0.4,4.2,1.3,8.2,1.5,12.3c0.4,7.4,0.9,14.6,2.2,21.8
		c1,0.6,1.4,1.6,1.7,2.4c2.4,5.5,3.8,11.2,5.8,16.6c5.1,13.4,12.9,24.8,19,37.1c1.2,2.4,3,4.6,3.4,7.3c1.9,1.8,3.8,2,6.5,3
		c3.3,1.2,7.8,3.8,12.9,2.2c1.4-0.4,1.5-1.4,2.8-2.4c2.7-2,5.6-3.7,7.8-5.8c3-2.9,6.4-5.9,8.4-9.7c2.2-4.1,3.3-9.5,4.7-15.1
		c1.4-5.4,3.3-11.5,3.2-16.2c0-1.1-0.5-2.2-0.4-3.2c0.1-2.3,1.1-4.8,1.3-7.3c0.6-8.2,1.9-16.7,1.1-25c-0.1-0.9-0.5-2-0.6-3
		c-0.5-4.6,0-9.6-0.2-14.7c-0.2-4.8-0.2-9.8-0.4-14.7c-0.4-10-1.4-20.1-0.6-29.3c0.4-4.2,1.3-8.1,1.5-12.1c0.2-4.6-0.4-9.2,0-13.8
		c0.1-1.3,0.7-2.3,0.9-3.5c1-6,0.2-12.4-0.2-18.6C104.4,80.5,104.4,75.7,103.2,71.9z"/>
	<path class="st1" d="M50,14.7c-2.3,5.5-4.2,11.5-6.5,17c0.3,0.9,0.8,1.6,1.3,2.4c0.9-2.8,2.1-5.6,3.2-8.2c1.2-2.6,2.2-5.4,4.3-7.1
		c0.8-0.2,0.3,0.8,1.1,0.6c3.7,0.5,4.7,3.6,7.5,5c0.6-0.8,1.1-1.8,1.7-2.6c-2.6-2.9-5.4-5.5-7.8-8.6C52.4,12.6,51.4,13.7,50,14.7z"
		/>
	<path class="st1" d="M63.8,19.7c1.2-1.3,2-3.2,3.2-4.5c-3.1-0.2-6.5-1.1-9.1-1.1C60,15.8,61.4,18.2,63.8,19.7z"/>
	<path class="st1" d="M70.2,16.2c2.3,4.1,4.4,8.4,7.1,12.1c-0.4,1.4,0.9,3.7,2.2,4.7c0.4-1.4,1.4-2,3-2.2C79,26,76.1,18.4,70.2,16.2
		z"/>
	<path class="st1" d="M32.9,28.5c0.8,1.3,1.3,2.8,2.4,3.9c1-2.4,2.1-4.8,4.1-6.3c-0.1,1.7,1.9,2.1,2.6,3.7c1-4.6,3-8.2,4.3-12.5
		c0.2,0,0.2-0.3-0.2-0.2C41.3,20.5,36.7,24,32.9,28.5z"/>
	<path class="st2" d="M68.1,17.5c-3.3,6.2-6.5,12.5-9.3,19.2c1.3,2.4,2.5,5,3.9,7.3c1.2-1.4,3.6-6.8,5.6-6.7c2.4,0.1,2,4.9,4.3,5.8
		c1.5-3.1,3.5-5.6,5.2-8.4c-3.9-4.8-5.6-11.8-9.1-17C68.4,17.7,68.4,17.4,68.1,17.5z"/>
	<path class="st1" d="M33.6,45.8c0.5,1,1.3,1.8,2.2,2.6c0.9-2.4-0.4-7.1,3-7.1c0.3,2.5,3.2,3.6,4.5,4.3c0.6-1.9,1.4-3.6,2.4-5.2
		c-2.3-3.4-3.8-7.7-6.7-10.6C37.5,35.5,35.3,40.4,33.6,45.8z"/>
	<path class="st2" d="M25.6,36.5c-1,3.7-3.5,9-3.5,13.8c1.8-3.3,3.6-6.6,7.3-8c0.8,0.2,1.1,0.9,1.9,1.1c0.5-3.4,1.9-5.9,2.8-8.8
		c-1.4-1.1-2-3.1-3.2-4.3C29.2,32.4,27.1,34.1,25.6,36.5z"/>
	<path class="st1" d="M51.7,31.3c-2.3,5.7-4.6,11.3-6.7,17c0.5,0.5,0.7,1.3,1.3,1.7c2.2-4.3,3.1-9.8,6.9-12.5
		c1.7,3.5,4.9,7.1,7.1,10.8c0.3-0.9,0.8-1.6,1.3-2.4c-3-5-6.5-9.5-9.3-14.7C52.1,31.3,51.9,31.3,51.7,31.3z"/>
	<path class="st1" d="M81.5,34.8c-1.6,2.7-3.6,5.4-5.4,8c-0.9,1.3-2.2,3.1-1.3,5c2.8-2.3,3.5-6.7,8-7.3c0.1,1-0.8,1.1-0.9,1.9
		c3.2,3.3,4.7,8.2,6.7,12.7c0.4-0.4,0.8-0.7,1.5-0.6c-1.6-7.3-4.9-12.9-7.1-19.6C82.5,34.8,82,34.8,81.5,34.8z"/>
	<path class="st1" d="M46.5,37.6c0.6,0.1,0.6-0.5,0.6-0.9c-0.3,0-0.3-0.3-0.6-0.2C46.4,37.1,46.4,36.9,46.5,37.6z"/>
	<path class="st1" d="M59,55.9c0.7,1.4,1.4,2.9,2.4,4.1c0.8-2.6,1.9-5.3,3-7.8c1.1-2.4,2.3-5.2,4.7-6.3c0.2,5.2,2,8.8,3.2,12.9
		c0.8-1.3,1.4-2.8,2.4-3.9c-2.8-4.6-4.4-10.4-6.9-15.3C65,45.2,61.8,50.4,59,55.9z"/>
	<path class="st1" d="M54.5,43.2c0.1,0.5-0.3,1.6,0.2,1.7C55,44.2,55.3,43.6,54.5,43.2z"/>
	<path class="st2" d="M35.7,69.5c0.6,0.3,1,0.7,1.5,1.1c0.9-5.6,1.7-11.3,3.2-16.2c1.1,0.5,0.8-0.5,1.9-0.4c0.9,2.8,3.6,5.2,6,7.1
		c0-1.1,0.2-2.1,0.4-3c-3.7-4.3-6.5-9.6-10.6-13.6C37.6,53.1,35.5,61.1,35.7,69.5z"/>
	<path class="st1" d="M28.4,46c-0.9,2-2.6,3.5-4.1,5.8c-1.2,1.8-3,4.1-3.5,5.6C20.1,60,20.1,64,20,67.1c-0.2,4.1-0.4,7.3-0.2,10.8
		c1.1-5.2,4.1-8.5,5.4-13.6c1.3,0.3,0.8-1.2,1.9-1.1c1.4,0.4,1.7,1.6,3.5,1.1c0.8,0.4,1.9,2.4,2.4,1.7c0.4-4.7,1.4-8.7,2.2-12.9
		C32.5,51,30.7,48.2,28.4,46z"/>
	<path class="st1" d="M50.2,75.1c0.4-0.3,0.9-0.5,1.5-0.6c0.9-5.7,0.6-12.7,2.2-17.3c3.7,4,5.5,9.9,8,15.1c1.4-0.3,2.5,0.8,3.5,0.2
		c-4.7-6.6-8.7-14.1-12.5-21.6C50.6,57.4,51,67.7,50.2,75.1z"/>
	<path class="st1" d="M70,63.4c-0.5-4.4-1.5-8.3-2.6-12.1C66,55.4,69.2,59.6,70,63.4z"/>
	<path class="st1" d="M79.1,52.2c-3.9,6.8-7.5,14-11,21.1c2.1,0.6,4.2,1.8,6.3,0.6c2.3,0.3,4.8,2.8,6,2.6c0.8-7.4,0.7-17.7-0.4-24.6
		C79.6,52.1,79.5,52.3,79.1,52.2z"/>
	<path class="st1" d="M68.5,66.2c-0.5-3.3-1.9-7.5-2.8-11C63.9,58.8,67.5,62.8,68.5,66.2z"/>
	<path class="st1" d="M86.4,55.2c-0.5,0.4,0,0.9,0.4,1.1C87.2,56,86.8,55.4,86.4,55.2z"/>
	<path class="st1" d="M83.2,65c0.4,2.1,0,5.1,0.4,7.1c3.5-3.6,5.8-8.4,10.8-10.6c0.6,0.3,1.3,0.6,1.9,0.9c-0.9-2.5-1.6-5-3-6.9
		C89.6,58.3,86.3,61.6,83.2,65z"/>
	<path class="st1" d="M83,60.4c0-0.4,0.6-0.3,0.4-0.9c-0.3,0-0.5-0.1-0.6-0.2C82.9,59.7,82.5,60.5,83,60.4z"/>
	<path class="st1" d="M62.7,61.5c-0.4,0.7,0,1.1,0.4,1.5C63.1,62.3,63.1,61.7,62.7,61.5z"/>
	<path class="st1" d="M92.2,84.4c2.5-1.7,5.3-4.9,8.2-6.9c-1-4.9-1.3-10.6-3.9-14C95.8,71.1,93.5,77.2,92.2,84.4z"/>
	<path class="st1" d="M95.3,64.1c-0.1,0.5-0.7,1.6-0.2,1.9C94.9,65.4,96.1,64.1,95.3,64.1z"/>
	<path class="st1" d="M41.5,73.8c1.6-3,6-4.4,5.8-8.4c-1.4,2.1-3.2,4.6-4.7,6.5C42.2,72.4,40.9,73.1,41.5,73.8z"/>
	<path class="st1" d="M83.6,79.8c1.8-1.5,2.2-5.4,5.4-4.7c-0.5,2.9-0.8,5.9-1.5,8.6c0.4,0.6,1.2,0.8,1.7,1.3
		c0.6-6.8,2.7-13.2,3.2-19.4c-1.9,2.5-4.8,6.3-6.9,9.3C84.3,76.7,82.8,77.6,83.6,79.8z"/>
	<path class="st1" d="M26.9,66.9c-1.7,3.7-2.5,8.3-3.7,13.2c-1.4,5.8-3.8,11.3-2.4,16.6c1.2-7.5,3.4-14,5.6-20.5
		c0.4-0.4,0.1-1.2,0-1.7c0.9-0.2,0.9-1.3,1.7-1.5c3.6,0.3,5.2,2.3,7.8,3.9c1,0.6,1.9,1.1,2.8,1.7c0.7,0.5,1.9,1.6,2.8,0.9
		c0.1-0.7-1.2-2-1.3-3.2C36.3,72.6,31.7,69.6,26.9,66.9z"/>
	<path class="st1" d="M39.4,72.1c0.1-0.5,0.7-0.4,0.6-1.1C39.5,70.9,38.8,71.8,39.4,72.1z"/>
	<path class="st1" d="M55.6,75.5c0.4,2.1,0.8,4.2,1.9,5.6c1.2-0.7,3.1-0.8,4.5-1.3c-0.1-2-0.4-3.6-0.6-5.4
		C59.1,74.5,57.5,75.1,55.6,75.5z"/>
	<path class="st1" d="M46.3,74.7c-0.9,0.8-1.4,1.5,0,2.2C46,75.9,46.9,75.2,46.3,74.7z"/>
	<path class="st1" d="M67.2,76.4c-0.5-0.1-0.9-1.4-1.3-0.9c0.6,0.9-0.1,3.1,0.4,4.1c1.1,0,2.2,0,3.2,0c0-1.1,0-2.2,0.2-3
		C69.1,76.1,68.1,76.1,67.2,76.4z"/>
	<path class="st1" d="M50.4,78.5c0.9,1.5,1.5,3.4,2.4,5c0.6-0.1,1.1-0.3,1.7-0.4c-0.6-1.9-0.7-4.5-1.7-6
		C52.2,77.7,50.9,77.7,50.4,78.5z"/>
	<path class="st1" d="M30.1,77.3c0,0.6-0.1,1.3,0.4,1.3c-0.2-0.7,0.2-0.8,0.2-1.3C30.5,77.3,30.3,77.3,30.1,77.3z"/>
	<path class="st1" d="M31.6,78.8c0.4,1.2,0.1,2.9,0.4,4.1c0,0.7,0,1.4,0,2.2c0,0.4,0,0.7,0,1.1c-0.1,0.8,0.4,0.3,0.2-0.2
		c0-2.3,0-4.5,0.2-6.5C32,79.3,32.1,78.8,31.6,78.8z"/>
	<path class="st1" d="M71.7,82.6c0.7,0.3,1.4,0.5,2.4,0.4c0.1-1.3,0.4-2.5,0.4-3.9c-0.8-0.1-1.3-0.5-2.4-0.4
		C71.9,80.4,72.3,81.3,71.7,82.6z"/>
	<path class="st1" d="M46.3,82.2c1.2-0.3,1.7-1.3,3.2-1.3c0.1-0.9-0.3-1.3-0.6-1.7C48.1,80.2,45.4,80.2,46.3,82.2z"/>
	<path class="st1" d="M91.6,88.3c3.6,4.9,6.3,10.7,9.3,16.2c0.4-8.3,1-16.7-0.4-24.4C98,83.3,94.2,85.2,91.6,88.3z"/>
	<path class="st1" d="M34.2,80.7c0.1,0.5-0.3,1.6,0.2,1.7C34.2,81.8,35.3,80.8,34.2,80.7z"/>
	<path class="st1" d="M77.4,83.9c0.6,0.3,1.2,0.5,1.9,0.6c0.1-1,0.8-1.5,0.6-2.8c-0.8-0.2-1-0.9-1.9-0.9
		C78.1,82.2,78,83.4,77.4,83.9z"/>
	<path class="st1" d="M36.4,82.9c0-0.7,0.3-1,0.4-1.5C35.8,80.9,36,82.7,36.4,82.9z"/>
	<path class="st1" d="M68.1,82.2c0.8-0.2,1,0.3,1.7,0.2C70.1,81.3,67.7,82.1,68.1,82.2z"/>
	<path class="st1" d="M20,82.2c-0.1,0.9-0.9,2.3-0.2,3.2C19.6,84.3,20.5,83,20,82.2z"/>
	<path class="st1" d="M41.1,84.4c0.6,1.8,1.4,3.3,1.9,5.2c1.4,0,2-0.9,3-1.3c-0.7-2.1-1.5-4-2.2-6C43.1,83.1,41.5,83.2,41.1,84.4z"
		/>
	<path class="st1" d="M50.6,83.5c-0.5,1.2-2.9,1.3-2.2,3c1.1,0.1,1.3-0.7,2.2-0.9C49.9,84.5,51.6,84.2,50.6,83.5z"/>
	<path class="st1" d="M84,84.6c-0.1,0.9-0.5,1.5-0.9,2.2c1.6,1.1,2.6,2.9,4.1,4.1c0.1-1,0.9-1.2,1.1-2.2
		C86.8,87.5,85.9,85.5,84,84.6z"/>
	<path class="st1" d="M37.7,86.5c0.8,1.8,1.5,3.7,2.8,5c-0.2-1.5-0.7-4.6-1.7-6C38.5,86,37.7,85.8,37.7,86.5z"/>
	<path class="st1" d="M90.7,102.7c-5.6-7.7-11.5-18-24.4-16.8c-1.4,14.2-1.5,28.6-0.9,43.6c3.9-3,8.2-6.7,16.2-5.8
		c6.7,0.8,13.8,4.8,17.5,7.8c0.8-6.2,1.1-13.1-1.3-18.6C96.5,109.9,93,105.8,90.7,102.7z M85.6,116.5c-5.8-0.3-9.5-3.7-14-4.5
		c0.4-3.7,2.8-4.7,5.6-7.3c1.9-1.8,3.6-4.2,6.5-4.3c0.9,2.2,2,5.5,3.2,8.8c0.8,2.2,1.9,4.4,1.9,6.5C87.5,116,86.4,115.5,85.6,116.5z
		"/>
	<path class="st1" d="M66.6,192c-0.2-3.2-1.5-6.6-1.9-10.1c-0.9-6.6-1.4-14.1-1.7-21.4c-0.3-7.7,0.7-15.7-0.2-22.9
		c-0.1-0.7-0.1-1.4-0.6-2.2c0.9-3.5,0.4-7.7,0.4-11.9c0-12.8,0-25.8-1.5-36.7c-0.1,0-0.3,0-0.4,0c-0.6,0.2-0.9,0.7-1.7,0.6
		c-0.9,8.6-0.2,16.9,0.2,25.9c0.3,6.8,0.2,14.4,1.3,19.4c-0.7,0.8-0.6,1.7-0.6,2.6c-0.6,7.8,0.7,17.4,1.1,26.8
		c0.5,11.9,1.6,23.7,1.5,33.9c0,3.8-2.3,7.1-1.7,10.6c3.3-0.1,6.1-0.7,9.5-0.6c-1-3.4-3.4-7.1-3.7-11.2
		C66.3,193.9,66.6,192.9,66.6,192z"/>
	<path class="st1" d="M32.5,90.2c0.9,1.6,1.3,3.9,2.6,5.2c0.9-1.2,2.5-1.5,3.2-2.8c-1.2-1.4-1.7-3.4-2.8-5
		C34.6,88.6,33.2,89,32.5,90.2z"/>
	<path class="st1" d="M53.8,89.5c-4.1,2.2-8.8,3.1-12.7,5.6c-2.2,1.4-4.2,4.3-6.3,6.7c-7.6,9-14.5,20.7-11.4,37.1
		c6.7-5.4,14.6-16.8,27.4-15.5c0.3,0.4-0.2,0.8,0.4,1.1c1,0.3,2,1,3,1.7c0.9,0.6,1.9,2,2.6,1.5c-0.6-13,0.1-27.4-2.8-38.2
		C54,89.5,53.9,89.5,53.8,89.5z M45.4,115.9c-0.7-0.3-0.9,0.1-1.5-0.4c-4,2.5-7.6,5.4-12.1,7.3c-0.8-1.1-0.8-2.8-0.6-4.1
		c0.6-5.1,4.5-10.4,6.5-14.2c0.8-0.2,1.2,1,1.5,0c1.5,3.1,3.9,5.3,5.2,8.6c0.5,0.5,1.4,0.5,1.7,1.1
		C45.9,114.8,45.6,115.3,45.4,115.9z"/>
	<path class="st1" d="M90.3,91.5c-0.6,1.1-1,2.5-1.5,3.7c0.6,0.3,0.6,1.1,1.3,1.3c0.4-1.1,1.2-1.9,1.9-2.8
		C91.2,93.1,91.1,92,90.3,91.5z"/>
	<path class="st1" d="M28.6,95.2c1.3,0.6,1.9,2,2.6,3.2c0.8-0.3,1.4-0.9,1.7-1.7c-1.3-1-1.7-2.8-2.6-4.1
		C29.9,93.6,29,94.1,28.6,95.2z"/>
	<path class="st1" d="M25.8,99.7c0.6,1.1,1.2,2.1,1.7,3.2c0.4-0.9,1-1.4,1.5-2.2c-0.9-0.9-1-2.6-2.2-3.2
		C26.6,98.4,25.9,98.8,25.8,99.7z"/>
	<path class="st1" d="M93.7,100.8c-0.2-1.2,1.3-2.5,0.4-3C94.1,98.7,92.7,100.1,93.7,100.8z"/>
	<path class="st1" d="M95.9,104c1.7,1.3,2.1,3.8,3.2,5.6c1.2-3.4-1.7-5.5-2.8-8C96.5,102.7,96,103.2,95.9,104z"/>
	<path class="st1" d="M24.1,109c0.5-1.2,1-2.5,1.7-3.5c-0.5-1-1.1-2-1.7-2.8C23.7,105,21.8,107.6,24.1,109z"/>
	<path class="st2" d="M75.2,109.8c2.8,1.2,6,2,9.5,2.6c-1-2.6-1.8-5.3-3-7.8C79.6,106.4,77,107.8,75.2,109.8z"/>
	<path class="st2" d="M34.6,118c1.5-1.3,3.3-2.4,5.6-3c-0.4-1.6,1.5-1,1.9-1.7c-1.6-1.4-2.2-3.7-3.9-5C37.4,111.7,35.2,115,34.6,118
		z"/>
	<path class="st1" d="M21.7,111.8c-0.4,2.5-1,4.7-0.9,7.6c-0.2,1,0.3,1.5,0.2,0.2c0.6-2.3,0.9-4.8,1.7-6.9
		C22.3,112.5,22.2,111.9,21.7,111.8z"/>
	<path class="st1" d="M44.3,126.7c0.1,1.4,0.7,2.4,0.9,3.7c1.2,0.1,2.1,0.5,3,0.9c0.1-1.6,0.4-2.9,0.4-4.5
		C47.6,125.7,45.5,126,44.3,126.7z"/>
	<path class="st1" d="M77.4,126.7c0.2,1.2,0.5,4.2,1.9,5c0.3-1.5,0.4-3.3,0.6-5C79.1,126.7,78.1,126.1,77.4,126.7z"/>
	<path class="st1" d="M81,131.6c0.6,0,1.3,0,1.9,0c-0.1-1.5,0.1-2.6,0.4-3.7c-0.6-0.5-1.6-0.5-2.4-0.9C81,128.6,81,130.1,81,131.6z"
		/>
	<path class="st1" d="M73.3,128.6c0.9,0.7,1.1,2.3,1.7,3.2c0.5-0.1,0.8-0.3,1.5-0.2c-0.2-1.5-0.8-2.5-0.6-4.3
		C74.7,127.5,73.9,127.9,73.3,128.6z"/>
	<path class="st1" d="M50,127.5c0.5,1.8-1,4.4,0.6,4.7c0.3-1.1,1-1.9,1.3-3C51.5,128.5,50.6,128.1,50,127.5z"/>
	<path class="st1" d="M40.9,128.6c0.3,1.1,0.9,1.8,1.3,2.8c1.8-0.2,0.8-2.4,0.6-3.7C41.8,127.7,41.6,128.4,40.9,128.6z"/>
	<path class="st1" d="M84.9,132.3c1-0.5,0.6-2.6,1.3-3.5c-0.7,0-0.9-0.5-1.7-0.4C84.7,129.6,84,131.7,84.9,132.3z"/>
	<path class="st1" d="M69.8,130.5c0.3,1,1.1,1.5,1.5,2.4c0.8,0.1,1-0.4,1.7-0.4c-0.5-1.1-0.8-2.2-1.3-3.2
		C71.1,129.7,70.6,130.3,69.8,130.5z"/>
	<path class="st1" d="M87.1,133.8c0.4,0.2,0.9,0.4,1.3,0.6c0.3-1.5,0.8-2.8,1.1-4.3c-0.6-0.2-1.1-0.5-1.7-0.6
		C87.6,131,87.2,132.2,87.1,133.8z"/>
	<path class="st1" d="M38.3,131.2c0.5,0.4,0.8,1.1,1.1,1.7c0.7,0.1,0.9-0.4,1.3-0.6c-0.7-0.5-0.5-1.8-1.1-2.4
		C39.4,130.6,38.5,130.5,38.3,131.2z"/>
	<path class="st1" d="M53.2,130.3c-0.2,1.1-1.2,2.5-0.6,3.7c0.8-0.6,0.9-2,1.3-3C53.4,130.9,53.7,130.3,53.2,130.3z"/>
	<path class="st1" d="M89.9,135.3c1.4,0.6,2.4,1.6,3.7,2.4c0-2.5,1.1-3.8,1.9-5.4c-1.6-0.3-2.8-1.1-4.3-1.5
		C90.7,132.3,90.4,133.9,89.9,135.3z"/>
	<path class="st1" d="M65.9,137.2c1-1.3,2.3-2.3,3.7-3.2c-0.4-0.9-0.8-1.6-1.5-2.2C67,133.1,64.3,134.7,65.9,137.2z"/>
	<path class="st1" d="M35.3,134c0.2,0.4,0.4,0.9,0.6,1.3c0.8-0.2,1.2-0.8,1.9-1.1c0.1-0.9-0.6-1.1-0.6-1.9
		C36.4,132.7,35.6,133.1,35.3,134z"/>
	<path class="st1" d="M99.1,134.4c-0.9-0.2-1.3-0.9-2.2-1.1c-0.8,1.7-1.4,3.6-2.4,5.2c1.4,1.3,2.7,2.8,4.7,3.4
		C99.3,139.4,99,137.2,99.1,134.4z"/>
	<path class="st1" d="M99.4,145.2c-8.8-2.5-11.3-11.3-22.9-11c-0.3,0-0.2,0.3-0.2,0.6c-4.9,1.3-7.9,4.7-10.6,8.2
		c0.4,7.2,0.7,14.7,1.3,20.9c0.2,1.9,2.7,4.1,3.9,5.4c1.4,1.6,2.7,2.9,4.1,4.1c-0.2-1.4-2.3-2-1.7-3.4c4.9,1.9,5.9,8.9,13.2,7.8
		c2.7-0.4,7.4-3.1,9.7-5.2c1.6-1.4,3.9-4.8,4.3-7.1C101.5,159.6,99,152.7,99.4,145.2z M95,156.6c-2,6.9-15.8,10.9-21.1,4.3
		c-0.8-3.1-3.3-4.6-3.9-8c-0.9-0.9-2.8-0.8-2.6-2.8c0.9-0.7,1.5,0.5,2.4,0.4c-0.1-0.7-0.9-1.2-0.4-1.7c0.4-1.4,1.4-2.2,1.9-3.5
		c0.7-0.4,1.3-0.8,2.2-1.1c1.5-2,4.1-3,8.2-3c3.9,0,9.2,1.6,11,2.8c2.8,1.9,3.6,7.7,4.7,11C96.5,156.1,96.5,157,95,156.6z"/>
	<path class="st1" d="M34,134.4c-1.9,1.6-3.7,3.3-5.6,5.2c-1.6,1.6-4,3-4.1,5.4c2.8-3.7,7-6,10.6-8.8
		C34.6,135.5,34.6,134.7,34,134.4z"/>
	<path class="st1" d="M48.2,134.4c-4.6-0.6-7,1-9.3,2.8c-0.4,0.3-0.1,1.2-0.4,1.5c-2.2,1.3-4.3,3-7.1,5.2c-1.2,1-6.5,3.9-6.9,5.4
		c-0.7,2.3,1.2,5,0.9,8.2c0.9-0.1,1.3-0.8,2.2-0.9c0.2-2.5,2.7-3.4,1.7-5.8c3.3-4.5,9.4-7,17.3-6.3c3,1.8,5.6,4,7.3,7.1
		c0.3,0.6,1-0.5,1.3,0.2c-0.1,0.4-0.8,0.2-0.9,0.6c2.2,11.8-17.8,21.5-24.4,10.1c-1,0.1-1.9,0-2.4-0.4c-0.5-0.9,1.1-1.6,0-1.7
		c-0.1-0.5-1.6-0.7-1.9-0.2c0.5,2.8,0.8,6,1.1,9.1c3.8,3.6,8.3,10.5,16,9.5c4.5-0.6,8.2-3.3,10.4-6.7c0.7-0.2,1,0.1,1.5-0.4
		c4.5-6.3,2.5-18.6,2.6-28.7C53.9,140.4,52.1,136.4,48.2,134.4z"/>
	<path class="st2" d="M78.6,145.4c-1.7,1.1-3.5,2.1-4.7,3.7c7.5,1.8,15.1,3.4,21.4,6.5c-2.5-3.3-6-5.5-7.1-10.1
		C85.8,144.3,82.3,146,78.6,145.4z"/>
	<path class="st2" d="M44.1,147.1c-4.1,2-12,4.1-13.8,8.2c6.3-1.7,12.4-3.7,19.2-5C48.2,150,45.6,146.4,44.1,147.1z"/>
	<path class="st1" d="M52.1,153.6c-0.6,0.2-1.2,0.2-1.5,0.6C51.1,154.1,52.1,154.3,52.1,153.6z"/>
	<path class="st2" d="M45,164c3.9-0.6,6.5-4.6,7.6-7.8c-5.7,2.6-13.1,2.3-18.6,5.2C36.7,163.2,40.9,164.7,45,164z"/>
	<path class="st1" d="M25.8,159.7c0.5-0.5,1.4-0.6,1.7-1.3C26.6,158.3,25,158.7,25.8,159.7z"/>
	<path class="st1" d="M84.7,181.4c-1.2,0.1-2.8,0.2-4.1,0c-4.1-0.6-9.7-6.1-11.6-8.6c-0.3-0.4-0.6-1.6-1.3-1.3
		c0.6,2.7-0.2,5.7,0.6,8.4c0.2,0.6,0.8,1.1,1.1,1.7c3.6,7.4,7,14.3,10.6,21.1c1.8,3.4,4.3,6.4,5,9.7c2,1.1,3.1,3.2,5.4,5.2
		c1.5,1.3,4.8,4.2,7.5,3.5c3.4-0.9,3-7,3.5-11.6c1.2-11.8,0.2-30.1-0.7-39.9C97.7,175,92,180.7,84.7,181.4z"/>
	<path class="st1" d="M40,182.3c-0.8-0.3-1.6-1-2.6-1.5c-4-2-8.1-5-10.4-7.8c0.5,5.6,1.9,13,1.3,17.7c1.9,9.4,4.2,18.4,5.8,28
		c1.9,2.3,5.4,2.2,8.4,0.6c3-1.6,7.7-6.1,9.9-9.9c2-3.5,2.5-9.8,3.4-14.5c1.4-7,2.9-12.6,2.4-19.4C54.7,179.4,48,185.3,40,182.3z"/>
	<path class="st1" d="M71.1,195.5c0.9-4.2-1.4-7.2-2.6-10.6C69.4,188.4,68.8,193.4,71.1,195.5z"/>
	<path class="st1" d="M59,195.3c0.2-0.9,0.8-2.7,0.2-3.7C59.4,192.9,58.3,194.1,59,195.3z"/>
	<path class="st1" d="M57.1,202.8c0.7-1,1.7-3.8,0.9-5C57.8,199.6,56.7,201.3,57.1,202.8z"/>
	<path class="st1" d="M73.7,200.4c-0.2-0.9-0.2-1.9-0.6-2.6C73.1,198.8,73.1,199.9,73.7,200.4z"/>
	<path class="st1" d="M79.7,211.4c0.6-1.8-1-2.9-1.7-4.1C78.5,208.8,78.9,210.3,79.7,211.4z"/>
	<path class="st1" d="M55.3,207.6c-0.5,0.9,0,1.6,0.4,2.2C56.2,209.1,55.9,207.8,55.3,207.6z"/>
	<path class="st1" d="M70.4,214.7c-0.9,0.1-0.7-0.9-1.5-0.9c-3.7,0.7-9.2,0.7-10.8-1.5c-0.8,6.6-3.7,11-5.8,16.2
		c0.5,0.8,1.5-1.4,2.6-1.5c0.3-0.7,0.5-1.3,1.1-1.7c5.6-2.3,13.9-1,20.5-1.1c2.5,0,4.1,0.2,5.6,1.5c-1.7-6.1-4.2-11.4-7.1-16.2
		C73.7,211.5,72.7,213.7,70.4,214.7z"/>
	<path class="st1" d="M64.6,209.9c0,0.5,0,1,0,1.5c0.4,0,0.9,0,1.3,0c0-0.6,0.1-1.2-0.2-1.5C65.3,209.9,65,209.9,64.6,209.9z"/>
	<path class="st1" d="M54.7,214.2c0.5-1.2,0.4-2.6-0.4-3.5C53.6,211.9,54,213.4,54.7,214.2z"/>
	<path class="st1" d="M80.8,214c0.2-0.6,0.5-1.1,0.6-1.7c-0.3,0-0.3-0.3-0.6-0.2C80.9,212.9,80,213.3,80.8,214z"/>
	<path class="st1" d="M53.8,217.9c0.6-1.5-0.3-3.1-0.9-4.1C52.1,215,53.4,216.7,53.8,217.9z"/>
	<path class="st1" d="M82.5,214.2c-0.1,0.8-1.1,1.8-0.4,2.6C82,216,83.6,214.7,82.5,214.2z"/>
	<path class="st1" d="M83.4,219.6c0-1.2,1.6-2.9,0.6-3.7C83.8,217,82.3,218.7,83.4,219.6z"/>
	<path class="st1" d="M53,221.6c0-1.4-0.9-3.8-1.9-5C51.5,218.4,52.3,220,53,221.6z"/>
	<path class="st1" d="M85.6,217.7c-0.5,1.8-2.2,4.2,0,5.2c0.1-1.6,0.8-2.7,1.1-4.1C86.4,218.3,86,218,85.6,217.7z"/>
	<path class="st1" d="M50.8,225.2c2-1.7-0.7-4.9-1.1-6.9C48.2,220.4,50.9,222.6,50.8,225.2z"/>
	<path class="st1" d="M48.7,229.3c0.4-0.7,1-1.2,1.3-1.9c-1.3-1.7-0.9-5.2-2.4-6.7C46.5,223.4,48.5,226.5,48.7,229.3z"/>
	<path class="st1" d="M89.2,221.4c-0.1,2.3-1.4,6.9,0.9,7.8c0-2.4,0.3-4.4,0.6-6.5C90.3,222.2,90,221.5,89.2,221.4z"/>
	<path class="st1" d="M87.3,221.8c0,1.3-1.4,3,0,3.7C87,224.1,87.9,222.8,87.3,221.8z"/>
	<path class="st1" d="M91.6,223.3c0,2.4,0,4.9,0,7.3c0.7-0.1,0.8,0.4,1.5,0.2c0-2.4,0.4-4.4,0.2-6.9
		C92.6,223.9,92.5,223.2,91.6,223.3z"/>
	<path class="st1" d="M40.9,224.6c-1.2-0.8-2.5,0.2-4.3,0c0.7,3,2.3,5.2,3.2,8c0.7-0.1,1.9,0.3,2.2-0.2
		C41,230.4,40.8,227.6,40.9,224.6z"/>
	<path class="st1" d="M94.6,224.6c-0.2,2.4,0.2,4.2,0.2,6.5c0.6-1.3,0.8-5.2,0.2-6.3C95,224.6,94.9,224.6,94.6,224.6z"/>
	<path class="st1" d="M97.8,225c-0.2,0-0.4,0-0.6,0c-0.4,1.7-0.3,4.7,0.4,6c0.3,0,0.6,0,0.9,0C97.9,229.5,98.9,226.2,97.8,225z"/>
	<path class="st1" d="M57.3,228c-0.7,0.8-1.9,1.5-3,2.4c-1,0.7-2.6,1.7-2.4,2.4c11.4,0.2,21.2-1.1,30.8-2.6
		c-1.9-0.2-3.4-3.5-5.6-3.2C71.5,227.6,63.1,227.9,57.3,228z"/>
	<path class="st1" d="M57.1,238c1.4,0.6,2,1.9,3.5,2.6c3.9,1.9,10.7-0.2,15.3,0c2.6-1.5,5.8-3.6,8.2-5.2c0.8-0.5,2.2-0.9,1.9-1.7
		C76,234.7,65.4,235.2,57.1,238z"/>
	<path class="st2" d="M46.9,235c-1.2,1.1-2.7,1.7-5.2,1.5c4.6,11.6,11.4,21,16.4,32.1c0.4,0,0.5-0.2,0.9-0.2c-0.5,1.6,2.6,3,4.1,4.1
		c-2.4-9.8-4.8-18.2-5.6-29.3C52.5,241.9,50.5,237.7,46.9,235z"/>
	<path class="st1" d="M59.9,244.9c0.3,0,0.2,0.3,0.2,0.6c1.3-0.1,3,0.3,3.5-0.6C62.2,245.1,60.6,244.5,59.9,244.9z"/>
	<path class="st1" d="M78.2,244.9c0,0.4,0,0.7,0,1.1c1,0.1,1.3-0.4,2.4-0.2c0-0.4,0-0.7,0-1.1C79.6,244.5,79.2,245,78.2,244.9z"/>
	<path class="st1" d="M72.8,246c0,0.4,0,0.7,0,1.1c1-0.3,2.1-0.4,3-0.6C76.3,244.4,73.7,246,72.8,246z"/>
	<path class="st1" d="M66.6,247.9c1.1,0.1,2-0.1,2.8-0.4c0-0.4-0.2-0.5-0.2-0.9C68.1,246.9,66.3,246.3,66.6,247.9z"/>
	<path class="st1" d="M60.5,247c0,0.4,0,0.7,0,1.1c0.9,0.3,3.4,0.6,3.7-0.4C63.7,246.7,61.3,247.7,60.5,247z"/>
	<path class="st1" d="M78.4,249.8c0.3,0.5,1.5,0.1,2.2,0.2C81.3,247.7,78.6,248.8,78.4,249.8z"/>
	<path class="st1" d="M61.4,252.6c0.9-0.4,2.8,0.2,3.2-0.6c-1-0.5-2.8-1.3-3.7-1.3C61.3,251.2,61.3,251.9,61.4,252.6z"/>
	<path class="st1" d="M80.2,251.1c-0.3,0.7-1.5,0.6-1.7,1.3c0.7-0.1,1.2-0.3,2.2-0.2C80.5,251.8,80.9,250.9,80.2,251.1z"/>
	<path class="st1" d="M69.8,251.6c-1,0-2,0.1-2.6,0.4C67.7,252.2,69.2,251.9,69.8,251.6z"/>
	<path class="st1" d="M80.4,253.9c-0.4,0.8-2.1,0.3-1.9,1.7c0.3,0.5,1.5,0.1,2.2,0.2C80.5,255.3,80.9,254.2,80.4,253.9z"/>
	<path class="st1" d="M73.7,256.3c0.8,0,1.9,0.1,1.9-0.6C74.9,255.8,73.8,255.6,73.7,256.3z"/>
	<path class="st1" d="M68.1,257c0.5,0.6,1.4-0.3,2.4,0C70.7,256,68.3,256.4,68.1,257z"/>
	<path class="st1" d="M62.5,257.4c0.8,0.6,1.8-0.3,3,0C65.2,256.5,62.9,257.1,62.5,257.4z"/>
	<path class="st1" d="M78.4,258c0,0.9,0,1.9,0,2.8c0.7,0,1.4,0,2.2,0C80.8,258.5,80.8,257,78.4,258z"/>
	<path class="st1" d="M73.9,258.9c-0.2,1,0.3,1.3,0.2,2.2c0.4,0,0.7,0,1.1,0c0.4-0.5,0.1-1.8,0.4-2.4
		C74.8,258.5,74.7,259,73.9,258.9z"/>
	<path class="st1" d="M62.9,259.5c0.4,0.5,0.2,1.5,0.6,1.9c1-0.1,2.4,0.2,3-0.2c0.1-0.9-0.6-0.9-0.4-1.7
		C64.9,259.8,63.7,259,62.9,259.5z"/>
	<path class="st1" d="M70.7,259.3c-0.7,0.1-1.2,0.3-2.2,0.2c0.2,0.5,0.1,1.3,0.4,1.7c0.6,0,1.3,0,1.9,0
		C70.8,260.6,71,259.7,70.7,259.3z"/>
	<path class="st1" d="M80.4,262.8c-0.4,0.6-2,0-1.9,1.1c0.7,0,1.4,0,2.2,0C80.5,263.5,80.8,262.7,80.4,262.8z"/>
	<path class="st1" d="M64.6,265.4c0.6-0.6,2.5,0.2,2.6-0.9c-0.5-0.7-2-0.6-3.2-0.6C64.1,264.5,64.1,265.2,64.6,265.4z"/>
	<path class="st1" d="M74.1,264.5c0.4-0.2,1.2,0,1.1-0.6C74.6,263.8,74,263.8,74.1,264.5z"/>
	<path class="st1" d="M69.4,264.1c0,0.4,0.2,0.5,0.2,0.9c0.8,0,1.7,0.1,1.7-0.6C71.1,263.8,70,264.2,69.4,264.1z"/>
	<path class="st1" d="M78.2,266.4c0.8-0.3,2.3,0.2,2.4-0.9C79.9,266,78.4,265.6,78.2,266.4z"/>
	<path class="st1" d="M67.6,266.9c-1.1,0-2.1-0.2-3-0.4c0,0.8,0.2,1.4,0.4,1.9c0.9,0,1.9,0,2.8,0C68,267.7,67.5,267.6,67.6,266.9z"
		/>
	<path class="st1" d="M74.1,266.7c-0.3,1,1.1,0.8,0.9,0C74.7,266.7,74.4,266.7,74.1,266.7z"/>
	<path class="st1" d="M70,267.1c0,0.4,0.2,0.5,0.2,0.9c0.7-0.1,1.5,0,1.5-0.6C71.6,266.8,70.5,267.2,70,267.1z"/>
	<path class="st1" d="M77.8,272.1c0.9-1.4,2.9-1.7,3-3.9c-1.1,0.1-1.9,0.5-2.8,0.9C78,270,77.2,271.2,77.8,272.1z"/>
	<path class="st1" d="M71.1,270.5c0.1,0.9,0.2,3.6,1.3,4.1c0.4-1.1-0.2-3.1-0.4-4.3C71.6,270.3,71.3,270.4,71.1,270.5z"/>
	<path class="st1" d="M65.7,270.8c0.3,1.1,0.9,2,1.1,3.2c1.1,0.1,2.4,1,3.2,0.6c-0.7-1.1-1.2-2.4-1.5-3.9
		C67.6,270.8,66.6,270.8,65.7,270.8z"/>
	<path class="st1" d="M59.4,26.3c-1,1.6-2.2,3.2-3.5,4.5C57.5,29.8,59.3,28,59.4,26.3z"/>
	<path class="st1" d="M53.2,31.3c0.7,0.3,1.2,1.9,1.7,1.7C54.4,32.5,54,30.8,53.2,31.3z"/>
	<path class="st1" d="M57.9,49.2c-0.5,1.9-0.3,2.2,0.4,0.4C58.1,49.6,58.2,49.3,57.9,49.2z"/>
	<path class="st1" d="M82.1,51.8c0.1,0.4-0.3,1.4,0.2,1.5c0.3-0.7,1.8-2.3,1.5-2.2C83.3,51.4,83.1,52,82.1,51.8z"/>
	<path class="st1" d="M63.3,60.9c1.2-0.2,1.1,2.2,1.7,1.9c-0.6-1-0.5-2.6-1.3-3.5C63.8,60,63.2,60.1,63.3,60.9z"/>
	<path class="st1" d="M46.3,63.2c-1.1,1.6-3,3.5-3.5,5C43.7,66.6,46.6,64.4,46.3,63.2z"/>
	<path class="st1" d="M43.3,74.7c1.2-1.6,4.2-2.4,3.7-5C46.1,71.4,43.6,73.8,43.3,74.7z"/>
	<path class="st1" d="M55.3,132.9c-0.1,0.6-0.8,1.7-0.4,2.2C54.9,134.2,56.3,133.3,55.3,132.9z"/>
	<path class="st2" d="M74.8,154.7c1.9,5.8,13.1,8.7,17.7,3.2c-1.3-0.1-1.9,0.5-2.6,1.1C84.7,157.8,79.3,155.8,74.8,154.7z"/>
	<path class="st1" d="M68.3,210.6c0.1-0.3,0-1.3-0.2-0.6c0.1,0.4-0.3,1.3,0.2,1.3c0.2-0.5,1.2-1.2,0.9-1.5
		C69,210.1,68.7,210.4,68.3,210.6z"/>
	<path class="st1" d="M44.6,231.7c-1.5-1.7-1.2-5.5-1.5-7.8c-1.6,1.9,0.8,6.1,0,8.6c2-0.2,3.1-1.3,4.3-2.4c-1-2.1-1.3-4.9-1.7-7.5
		C42.5,224,47.8,230.3,44.6,231.7z"/>
	<path class="st2" d="M83.2,241.2c0.1,1.4-0.3,3.3,0.2,4.3c0.2,0.5,1.6-0.1,1.3,0.9c-0.1,0.5-1.1,0-1.3,0.4
		c0.4,5.3,0.9,11.3,0.4,16.8c-0.2,0.7,0.7,0.3,0.6,0.9c-1-0.2-0.6,0.9-0.9,1.3c2.1-0.7,3.6-3.9,6-5c0.9,0,0.5,1.4,0.6,1.5
		c3-8.5,4.7-18.2,7.3-27c-3.1,0.2-5-0.8-6.9-1.7C89.4,237.4,86,239,83.2,241.2z"/>
	<path class="st1" d="M73.5,250.9c0.8-0.3,2,0,2.4-0.6C75,250.3,73.3,250.6,73.5,250.9z"/>
	<path class="st1" d="M92.7,238.7c-1.3,3.7-4.8,5.3-7.5,7.6c0.1,1.4-0.3,3.3,0.2,4.3c0.2,0.5,1.6-0.1,1.3,0.9
		c-0.1,0.5-1.1,0-1.3,0.4c0.3,3.8,0.7,8,0.6,12.1c1.1-1.1,2.2-2.5,3.6-3.1c0.9,0,0.5,1.4,0.6,1.5c2.4-7,4.1-14.8,6-22.2
		C95,239.8,93.9,239.2,92.7,238.7z"/>
	<path class="st1" d="M55.5,245.1c-5-1.2-7-5.5-10.6-8.2c-0.7,0.6-1.4,1.1-2.4,1.3c4.6,10.8,10.9,19.8,15.6,30.3
		c0.4,0,0.5-0.2,0.9-0.2c-0.2,0.7,0.3,1.5,1.1,2.1C58.1,262.3,56.2,254.7,55.5,245.1z"/>
</g>
<g id="Layer_2">
</g>
</svg>
