<svg xmlns="http://www.w3.org/2000/svg" width="327.657" height="288.877" viewBox="0 0 327.657 288.877">
  <g id="Group_89" data-name="Group 89" transform="translate(-34.991 -91.466)">
    <path id="Path_7705" data-name="Path 7705" d="M109.04,212.092c-3.275-3.009,3.18-9.751,5.173-12.068,5.229-6.035,11.645-10.88,16.818-16.991,5.574-6.609,10.171-13.984,15.726-20.611,2.509-3.007,7.029-9.6,10.343-3.965,1.84,3.123,2.433,7.74,3.084,11.264a76.808,76.808,0,0,1,1.227,12.2c.076,5.248.8,14.921-3.525,18.867-5.115,4.674-14.443,5.382-20.994,6.033-8.888.862-17.815,1.035-26.281,4.2A.976.976,0,0,1,109.04,212.092Z" transform="translate(25.666 22.736)" fill="#afc2d2"/>
    <path id="Path_7706" data-name="Path 7706" d="M178.584,234.819c-5.977-11.014-17.623-16.895-24.806-26.951-3.007-4.195-9.769-18.063,1.092-16.013,4.751.9,8.562,4.214,12.337,6.991a27.107,27.107,0,0,0,7.546,4.309c2.51.805,5.4.576,7.758,1.8,3.218,1.667,4.291,4.559,2.509,7.642-1.762,3.084-3.927,4.6-4.923,8.218a18.014,18.014,0,0,0,.459,10.593c.25.785-.459,1.246-1.092,1.15.25.421.536.843.785,1.3C180.844,234.934,179.177,235.892,178.584,234.819Z" transform="translate(39.983 35.158)" fill="#afc2d2"/>
    <path id="Path_7707" data-name="Path 7707" d="M50.927,183.02l4.616-3.773a1,1,0,0,1,1.36.076c4.251-2.8,8.658-5.689,11.876-9.539,3.562-4.291,4.865-9.769,7.183-14.729,1.762-3.775,4.291-7.375,8.007-9.463,3.888-2.2,7.144-.823,11.263-1.206,2.548-.23,4.463-1.15,5.516,1.782.728,1.991.25,4.884.288,6.972.058,3.064.134,6.148.192,9.232.211,10.286,2.164,22.3-2.26,31.951a.981.981,0,0,1-1.513.191c-12.662-11.2-29.862-11.933-45.857-9.846A.969.969,0,0,1,50.927,183.02Z" transform="translate(5.493 18.459)" fill="#afc2d2"/>
    <path id="Path_7708" data-name="Path 7708" d="M147.358,241.433c3.831,4.541,7.7,9.157,10.5,14.443,2.663,5.038,2.969,10.056,4.405,15.438,2.2,8.18,9.5,6.475,15.592,9.1,3.41,1.475,4.08,4.234,1.993,7.26-5.479,7.949-18.026,11.455-27.047,11.991-12.316.728-24.232-3.506-34.881-9.328-.747.288-1.724-.5-1.206-1.341q14.566-23.674,29.134-47.369A.962.962,0,0,1,147.358,241.433Z" transform="translate(28.627 52.526)" fill="#afc2d2"/>
    <path id="Path_7709" data-name="Path 7709" d="M81.979,279.306c-3.889-7.337-10.709-10.67-16.454-16.148-4.5-4.31-5.92-10.324-9.117-15.42a5.9,5.9,0,0,1-2.491-5.823,1.015,1.015,0,0,1,.958-.958c7.529-.25,13.218,5.324,20.956,3.658,5.421-1.169,10.745-4,16.321-1.9,4.616,1.743,7.719,6.014,9.022,10.651,1.781,6.321-.555,12.853.613,19.116q13.733-16.146,27.985-31.835,7.471-8.132,15.056-16.167c4.157-4.368,8.179-8.773,13.389-11.876a.96.96,0,0,1,1.436.823c.269,6.724-3.295,12.26-6.474,17.892-1.878,3.371-3.927,7.01-4.176,10.937-.25,3.888,1.82,7.087,2.241,10.822.689,6.359-3.679,11.742-7.567,16.225-5.5,6.359-11.723,12.162-16.607,19.039-6.014,8.468-12.489,25.687-25.63,24.155C85.963,310.7,87.342,289.477,81.979,279.306Z" transform="translate(6.623 42.466)" fill="#afc2d2"/>
    <path id="Path_7710" data-name="Path 7710" d="M61.944,226.813c-2.987,2.644-7.068,4.559-10.612,1.667-1.685-1.4-2.528-3.525-3.352-5.478a17.434,17.434,0,0,0-4.961-7.241c-3.621-3.237-3.123-7.356-.039-11.014a19.025,19.025,0,0,1,8.218-5.44c1-4.118,6.838-4.482,10.612-4.539,6.571-.077,7.6-3.984,11-8.333,1.436-1.858,3.466-3.7,5.937-3.888,2.606-.192,4.693,1.59,6.686,3.007,3.276,2.317,6.724,4.539,9.846,7.068,3.792,3.064,5.038,7.2,2.107,11.473-3.639,5.286-11.665,6.609-17.124,9.136a54.918,54.918,0,0,0-10.44,6.149C66.925,221.6,64.665,224.419,61.944,226.813Z" transform="translate(1.927 31.958)" fill="#afc2d2"/>
    <g id="Group_88" data-name="Group 88" transform="translate(34.991 91.466)">
      <path id="Path_7711" data-name="Path 7711" d="M54.441,99.318c1.616,1.347,3.138,2.832,4.865,4.019a104.106,104.106,0,0,0,21.8,11.979c6.176,2.361,11.933,5.843,17.813,8.943a7.5,7.5,0,0,1,2.832,2.617c4.569,7.629,12.049,11.895,19.22,16.348,6.572,4.081,13.161,7.906,18.856,13.345,2.875,2.746,7.3,4.078,11.224,5.467a35.561,35.561,0,0,1,12.761,7.432c2.656,2.464,6.013,4.173,9.163,6.29l1.162-1.1,3.492,5.444,1.4-3.408c.916,1.351,1.81,2.214,2.137,3.257a5.4,5.4,0,0,0,3.15,3.379,47.076,47.076,0,0,1,14.862,11.607,61.236,61.236,0,0,0,18.063,14.321c.4.2.82.343,1.737.723A79.242,79.242,0,0,0,221.8,201.5c.609-2.807.626-5.744,1.07-8.607-.286,5.654-.105,11.271-1.92,16.862-1.327,4.088-.484,8.612.651,12.938a54.535,54.535,0,0,1,1.943,11.7c.088,2.376-1.066,4.876-2.012,7.175-.4.983-1.7,1.6-2.829,2.153,3.915-5.323,3.142-10.984,1.926-16.764-.942-4.476-1.6-9.011-2.5-13.5a2.875,2.875,0,0,0-1.354-1.782c-8.608-4.189-15.619-10.331-21.934-17.423a80.859,80.859,0,0,0-6.6-6.04c-1.563,4.246-2.886,8.011-4.357,11.718a7.714,7.714,0,0,1-1.906,2.538c-.3.29-1.063.1-1.614.135.042-.544-.128-1.277.161-1.6,3.061-3.469,4.169-7.7,4.907-12.1.374-2.229-1.341-2.578-2.96-3.318a29.14,29.14,0,0,1-.567,3.462,9.009,9.009,0,0,1-1.125,1.96,8.067,8.067,0,0,1-.758-2.037c-.1-1.135.084-2.294.061-3.441a12.282,12.282,0,0,0-.453-2.029c-1.478,2.73-2.683,4.993-3.927,7.236a6.332,6.332,0,0,1-1.21,1.66c-.32.285-.9.276-1.368.4a3.811,3.811,0,0,1-.109-1.248c.573-2.22,1.355-4.4,1.771-6.643a23.564,23.564,0,0,0,.005-4.453l-1.021-.053a20.376,20.376,0,0,1-.593,2.714,6.276,6.276,0,0,1-1.073,1.467c-.347-.524-.906-1.017-1-1.582a11.578,11.578,0,0,1-.08-3.427,3.418,3.418,0,0,0-1.579-3.5c-3.5-2.715-6.782-5.735-10.428-8.224a46.355,46.355,0,0,0-8.016-3.849c-2.226-.954-4.542-1.7-6.91-2.576-.777,4.9-1.412,9.57-2.274,14.2-1.367,7.349-3.456,14.439-8.057,20.545a2.78,2.78,0,0,0-.566,2.093c1.508,4.911.347,9.751-.37,14.562-.852,5.727-2.037,11.4-3.187,17.7,4.249-.347,8.6-.384,12.831-1.124,6.247-1.092,12.4-2.733,18.609-4.033a34.409,34.409,0,0,1,6.7-.623c-10.933,3.13-21.6,7.394-33.182,7.492-2.7.023-5.505.186-7.954-1.509,2.571-4.139,2.94-8.757,3.6-13.211.913-6.116,1.3-12.308,1.979-18.46a8.183,8.183,0,0,1,.884-3.04c3.608-6.435,4.8-13.492,5.564-20.687.527-4.989,1.17-9.967,1.882-15.968-4.6-3.173-9.728-7.33-15.413-10.478a169.83,169.83,0,0,1-22.059-14.948,17.659,17.659,0,0,0-1.132,3.456c-.775,6.914-1.352,13.85-2.171,20.757C99.1,164,98.3,169.827,99.066,175.748c.62,4.78,1.2,9.569,1.609,14.37.444,5.263.836,10.56-.775,15.725-.338,1.081-.586,2.479-2.617,2.141,1.751-5.251,1.662-10.581,1.3-15.888-.317-4.576-.938-9.131-1.458-13.692a46.078,46.078,0,0,1,1.19-16.86c.257-.994,1.112-2.243-.757-2.756-.184-.05-.288-.816-.239-1.228.775-6.529,1.543-13.059,2.417-19.575a9.088,9.088,0,0,1,1.258-3.876c1-1.437.912-2.352-.084-3.772-3.811-5.436-9.62-8.226-15.1-11.3-4.17-2.343-8.87-3.734-13.312-5.6a36.589,36.589,0,0,1-4.931-2.4,87.9,87.9,0,0,1-8.012-5.348,80.516,80.516,0,0,1-5.881-5.519Z" transform="translate(-28.434 -88.71)" fill="#6a6d4f"/>
      <path id="Path_7712" data-name="Path 7712" d="M202.312,227.894l2.2-.665c-.259-5.246-2.892-9.579-6.067-14.059,2.941.215,7.273,6.8,10.329,14.581.788-4.624-1.227-9.852-7.648-19.855,2.194.393,6.093,5.289,10.663,13.515.458-7.706-1.922-13.8-7.448-18.66,2.85-.6,4.43,1.155,8.685,9.619a4.848,4.848,0,0,0,.878-1.009c3.4-7.513,5.247-15.329,4.3-23.618a9.879,9.879,0,0,0-5.972-8.172,17.493,17.493,0,0,1-8.222-7.675,16.021,16.021,0,0,0-3.073-3.345c-.883-.842-2.145-1.375-2.81-2.341-3.412-4.965-9.008-4.649-13.936-5.925a8.184,8.184,0,0,0-2.359.209c.551-.344.785-.607,1.042-.634,5.494-.562,10.853-.523,15.261,3.573,1.008.936,2.075,1.813,3.034,2.8,1.952,2,3.8,4.1,5.783,6.067,1.6,1.582,3.123,3.477,5.071,4.436,6.154,3.03,9.14,7.719,8.6,14.554-.667,8.428,1,7.114-6.924,21.951,3.858.254,6.186,2.823,8.578,5.377,4.235,4.52,8.766,8.759,12.065,14.112a7.463,7.463,0,0,0,3.7,2.519c4,1.468,8.087,2.69,12.139,4.008l.415-.554c-4.493-4.264-8.858-8.676-13.522-12.745-3.738-3.261-7.921-6.009-11.738-9.184a16.321,16.321,0,0,1-3.311-4.354,6.615,6.615,0,0,1-.611-3.4c3.811,6.674,10.236,10.243,16.055,14.512a62.836,62.836,0,0,1,7.476,6.394c4.736,4.782,9.258,9.777,13.925,14.631a32.775,32.775,0,0,0,3.362,2.761q11.048,8.764,22.1,17.524a1.275,1.275,0,0,1,.469.821c-8.38-5.419-15.08-13.242-25.046-17.515,7.434,8.8,13.675,17.892,23.879,22.882a8.015,8.015,0,0,1,1.394.8c8.526,6.574,17.871,12.157,24.937,20.49.663.781.781,2.025,1.152,3.054-1.069-.342-2.529-.351-3.142-1.077-5.562-6.586-13.211-10.66-19.479-16.387a23.168,23.168,0,0,0-5.238-3.7c-7.4-3.654-12.461-9.739-17.405-16.042-3.683-4.693-7.529-9.269-11.48-13.739a14.962,14.962,0,0,0-9.077-4.948,42.289,42.289,0,0,1-9.648-2.852,14.385,14.385,0,0,1-4.632-3.9c-4.4-4.982-8.611-10.136-13.022-15.109a11.9,11.9,0,0,0-4.091-2.52c.553,5.816.08,11.2-3.285,16.795l-4.463-6.792c-.361,1.836-.335,3.19,1.309,4.669,4.978,4.48,7.2,10.331,7.508,16.952a6.4,6.4,0,0,1-.1,1.371,4.645,4.645,0,0,1-.6,1.621C213.08,241.024,210.867,232.911,202.312,227.894Zm8.2-1.4.77-.119-2.145-8.9-.493.127Z" transform="translate(16.539 -67.554)" fill="#6a6d4f"/>
      <path id="Path_7713" data-name="Path 7713" d="M138.825,221.756c3.163,1.976,3.152,5.138,4.463,8.188-.384-4.062-.724-7.653-1.063-11.245l.752-.313q1.7,3.751,3.4,7.5l.436,0c0-2.938.039-5.877-.043-8.812-.012-.423-.53-.947-.947-1.227q-4.059-2.727-8.187-5.35a12.688,12.688,0,0,0-1.767-.789l.192-.7c1.62.393,3.546.359,4.8,1.26,3.388,2.43,6.91,4.907,9.562,8.053,1.77,2.1,2.59,5.306,3.045,8.145,1.135,7.078,1.16,14.063-4.112,19.922a45.664,45.664,0,0,0-3.483,4.836,5.428,5.428,0,0,1-7.156,1.618,17.523,17.523,0,0,1-.367,3.472,8.133,8.133,0,0,1-1.516,2.113,7.633,7.633,0,0,1-.39-2.191c.47-3.887-.981-7.28-2.486-10.7.843,7.934,1.8,15.83-.956,23.509l-.952-.02c0-.825-.054-1.655.009-2.476.249-3.2.673-6.391.755-9.594a38.243,38.243,0,0,0-.557-5.508,14.35,14.35,0,0,0,.75-3.417c-.123-2.193-.507-4.37-.847-7.064,2.244.986,2.667,2.778,3.4,4.228.75,1.489,1.251,3.1,2.066,5.182,2.053-8.57-.73-16.018-3.068-23.537,1.651-.061,1.651-.061,6.262,6.409C140.175,229.551,139.535,225.858,138.825,221.756Zm9.927.419c-1.6,5.86-2.182,11.153-.311,16.8,2.576-4.757,2.337-9.559,2.007-14.336C150.4,223.907,149.509,223.234,148.751,222.175Zm-3.641,12.854-.689-.068c-1.341,5.808-2.683,11.615-4.039,17.484,1.821.02,2.651-.778,2.852-2.4.469-3.78,1.009-7.552,1.5-11.329C144.892,237.489,144.986,236.257,145.11,235.029Zm-5.7,4.257c.074-3.722-1.514-8.4-3.7-10.344C137.025,232.6,138.192,235.866,139.415,239.286Z" transform="translate(-0.937 -50.218)" fill="#6a6d4f"/>
      <path id="Path_7714" data-name="Path 7714" d="M92.716,253.127l.4-2.849.362-.147c.278.755.875,1.552.781,2.257-.372,2.76-.982,5.486-1.464,8.233a84.753,84.753,0,0,0-1.248,9.442c.216-.7.451-1.4.643-2.1a52.21,52.21,0,0,1,7.128-14.994c4.177-6.4,9.569-11.717,14.028-17.817a5.423,5.423,0,0,1,1.423-1.483,9.762,9.762,0,0,1,2.1-.712l.3.5q3.37-4.268,6.738-8.534l.924.232v18.991l.669-.011q.817-9.767,1.636-19.534l.7-.122,1.613,8.587.453.011c0-2.282-.053-4.565.036-6.841a5.577,5.577,0,0,1,.754-1.778,6.867,6.867,0,0,1,1.637,1.31,13.454,13.454,0,0,0,1.624,2.545l-.25-4.789.585-.394,2.079,2-.307.469-1.537-.408c.138,2.259.327,4.432.361,6.607.008.554-.481,1.116-.742,1.674-.432-.453-1.063-.834-1.259-1.373a33.341,33.341,0,0,0-2.043-5.182c0,2.34-.043,4.68.015,7.019.039,1.6.285,3.206.3,4.809,0,.486-.463.975-.715,1.464-.4-.4-1.029-.731-1.156-1.2a54.553,54.553,0,0,0-2.039-6.874l-.939,17.15-1.066-.011c-2.286-4.946-1.682-10.4-2.194-15.652l-.684-.155q-2.651,9.216-5.3,18.431l-.566-.038c0-2.564-.135-5.138.038-7.69.176-2.578.659-5.135,1.02-7.792-.213.093-.471.122-.551.255-3.653,6.116-7.3,12.233-9.2,19.194-.162.593-.78,1.061-1.185,1.586-.141-.667-.547-1.413-.38-1.991,1.125-3.895,2.36-7.757,3.585-11.621a14.7,14.7,0,0,0,.793-2.775c-5.365,7.4-6.416,16-6.652,24.891-2.2-1.285-1.835-8.411.37-18.112a31.834,31.834,0,0,0-2.919,4.854c-2.12,5.474-4.058,11.02-5.983,16.566-.627,1.809-.509,1.849-2.826,1.447l-1.136,12.953c-.548-.874-1.177-1.452-1.285-2.116a36.061,36.061,0,0,1,.151-14.8,22.612,22.612,0,0,0,.646-6.944c-.363-5.262-1.067-10.5-1.617-15.747a2.415,2.415,0,0,1,.289-1.378C92.067,245.726,91.7,249.541,92.716,253.127Zm29.479-22.38c-2.8,2.667-3.273,6.2-3.395,9.856Q120.5,235.675,122.194,230.747Z" transform="translate(-15.914 -45.262)" fill="#6a6d4f"/>
      <path id="Path_7715" data-name="Path 7715" d="M149.795,160.837a35.027,35.027,0,0,0-1.41-13.677c2.053,1.252,2.378,2.164,2.883,7.876,2.383-6.98-2.865-9.384-7.657-12.568,1.27-.238,1.721-.476,2.047-.359,3.891,1.378,7.152,3.422,8.458,7.712a5.147,5.147,0,0,0,1.878,2.634c3.569,2.347,7.257,4.511,10.907,6.733.588.358,1.248.609,1.8,1.015,5.713,4.207,11.577,8.231,17.064,12.718,5.138,4.2,10.572,7.46,17.146,8.831A15.89,15.89,0,0,1,210.862,186l-.274.861c-1.216-.315-2.457-.555-3.639-.965-1.514-.524-2.934-1.512-4.476-1.726-6.937-.97-12.674-4.228-17.936-8.664-2.266-1.909-4.875-3.406-7.3-5.131-6.52-4.639-13.039-9.278-19.516-13.975a34.3,34.3,0,0,1-3.181-2.976c-1.1,3.095-2.062,5.983-3.154,8.822-.667,1.737-1.471,1.87-3.276.769-3.392-2.07-3.306-5.085-2.944-8.195a10.028,10.028,0,0,0-5.123-10.349c-3.53-2.136-6.94-4.482-10.321-6.852-5.508-3.86-10.932-7.839-16.45-11.684a2.894,2.894,0,0,0-2.239-.186c-4.269,1.4-6.755.232-8.235-3.985a31.3,31.3,0,0,0-1.377-3.645,33.543,33.543,0,0,0-2.051-3.208l.354-.578c.748.409,1.775.636,2.189,1.264,1.12,1.7,1.986,3.579,2.938,5.392a11.245,11.245,0,0,0,1.135,2.224,2.739,2.739,0,0,0,3.92.384,3.029,3.029,0,0,0,.073-2.971,54.075,54.075,0,0,0-7.222-7.246c-.909-.721-2.872-.115-4.558-.115a3.482,3.482,0,0,1,4.151-1.644,11.263,11.263,0,0,1,3.576,1.985c1.652,1.354,3.133,2.918,4.653,4.427a3.484,3.484,0,0,1,1.07,1.467c1.181,5.493,6.135,7.242,9.979,10.01,6.017,4.33,12.189,8.442,18.294,12.652a9.262,9.262,0,0,0,.905.694,12.24,12.24,0,0,1,6.744,12.289c-.086.992-.234,1.979-.272,2.972C147.239,159.718,147.392,159.878,149.795,160.837Z" transform="translate(-12.809 -84.462)" fill="#6a6d4f"/>
      <path id="Path_7716" data-name="Path 7716" d="M70.513,160.318q1.4,7.749,2.8,15.5a2.7,2.7,0,0,1,.088,1.136,18.8,18.8,0,0,1-.789,2,7.859,7.859,0,0,1-1.482-1.686c-1.9-4.153-3.71-8.346-5.579-12.512a3.131,3.131,0,0,0-.709-.807c.929,5.69,1.871,11.461,2.88,17.638h7.667l.026.593c-2.044.6-3.833,1.541-6.352.847-1.8-.5-4,.446-6.017.765-.85.134-1.691.313-2.537.473l-.246-.824,4.912-1.959c-1.332-6.078-2.745-12.138-8.362-16.467,2.445-.667,3.537.7,4.539,1.952,1.036,1.294,1.849,2.767,3.134,4.731a29.313,29.313,0,0,0-2.923-10.321,16.771,16.771,0,0,1-.709-3.456c1,.671,2.3,1.131,2.941,2.051,2.61,3.738,5.019,7.617,7.488,11.424-1.006-7.568-3.68-14.755-6.341-21.977,4.346,4.915,6.574,10.887,8.727,16.9l.815-.282L67.017,141.41c4.662,4.135,11.061,29,8.48,34.329l-4.912-15.56Z" transform="translate(-27.335 -73.939)" fill="#6a6d4f"/>
      <path id="Path_7717" data-name="Path 7717" d="M212.625,186.933c4.912,4.189,9.639,8.624,14.786,12.5,5.817,4.381,10.69,9.9,16.349,14.216,6.3,4.812,12.266,10.186,19.343,14.2,7.968,4.518,14.462,11.253,20.391,18.338,1.864,2.229,3.7,4.489,5.416,6.829.386.526.242,1.44.342,2.175-.681-.185-1.562-.163-2.009-.594a55,55,0,0,1-4.353-4.709,105.812,105.812,0,0,0-25.346-22.315c-6.5-4.134-12.307-9.5-17.877-14.887-3.221-3.111-5.839-6.818-9.7-9.326-1.578-1.024-2.788-2.6-4.23-3.849-2.763-2.4-5.6-4.7-8.353-7.113-1.809-1.581-3.521-3.272-5.275-4.913Z" transform="translate(27.166 -57.963)" fill="#6a6d4f"/>
      <path id="Path_7718" data-name="Path 7718" d="M76.986,111.979c-1.264,1.778-2.559,3.534-3.781,5.34-1.029,1.52-2.407,2.982-2.864,4.676-.929,3.457-1.277,7.065-2,10.585a18.57,18.57,0,0,1-1.635,5.455c-1.906,3.352-1.451,7.129-2.4,10.631a12.467,12.467,0,0,1-.927,3.294c-4.419,7.165-4.13,15.2-4.322,23.119A46.7,46.7,0,0,1,56.517,189.7c-.746,2.1-1.636,4.014-3.916,5.109-1.042.5-1.61,1.985-2.394,3.022l-.779-.405c.4-.835.592-1.916,1.235-2.464,5.417-4.623,5.6-11.113,6.22-17.384.6-6.081.807-12.2,1.366-18.285a12.232,12.232,0,0,1,1.51-4.507A46.848,46.848,0,0,0,64.8,139.168c.884-6.044,2.109-12.042,3.311-18.034.932-4.647,4.622-7.087,7.911-9.81Z" transform="translate(-29.925 -84.497)" fill="#6a6d4f"/>
      <path id="Path_7719" data-name="Path 7719" d="M139.289,150.616c-1.506-.15-2.76,0-3.775-.428a48.621,48.621,0,0,1-8.007-3.88c-6.129-4.03-12.13-8.262-18.071-12.565a63.816,63.816,0,0,1-5.157-4.853c-2.071-1.89-4.115-3.826-6.328-5.54-2.413-1.87-5-3.514-7.518-5.244q-9.354-6.432-18.71-12.861c-.929-.642-1.781-1.4-2.668-2.1l.43-.693a8.911,8.911,0,0,1,1.972.713q9.966,6.535,19.875,13.155c2.093,1.4,3.977,3.13,6.106,4.473a30.068,30.068,0,0,1,8.619,8.422,21.244,21.244,0,0,0,5.732,5.128c3.565,2.359,7.364,4.361,11.052,6.534C128.149,144.006,133.443,147.153,139.289,150.616Z" transform="translate(-23.037 -87.611)" fill="#6a6d4f"/>
      <path id="Path_7720" data-name="Path 7720" d="M168.692,288.4c-9.078,1.046-17.87-.465-26.594-2.668l-.124.607,12.519,3.321c-9.558,1.87-31.513-8.705-33.006-16.123C135.688,284.043,151.958,286.89,168.692,288.4Z" transform="translate(-4.637 -27.573)" fill="#6a6d4f"/>
      <path id="Path_7721" data-name="Path 7721" d="M122.9,173.739l9.08,17.166c.639-6.914-.689-13.35-1.452-19.86,2.994,5.248,3.3,11.128,4.114,16.866l6.737-14.083.835.378c-.8,1.906-1.747,3.765-2.38,5.725-1.429,4.411-2.638,8.893-4.081,13.3a28.29,28.29,0,0,1-2.286,4.215l-1.59-2.491c-.145,2.04-.517,3.977-3.037,4.767,2.948-7.229-1.543-12.764-3.737-18.743a71.879,71.879,0,0,0-3.244-6.71Z" transform="translate(-4.507 -63.539)" fill="#6a6d4f"/>
      <path id="Path_7722" data-name="Path 7722" d="M69.885,91.466a11.65,11.65,0,0,1,1.448,1.083C76.41,97.7,82.673,101,89.055,104.2a98.065,98.065,0,0,1,9.442,6.02q3.064,2.01,6.068,4.115a14.1,14.1,0,0,1,2.853,2.26c.486.581.451,1.6.651,2.422a10.107,10.107,0,0,1-2.276-.719c-7.263-4.351-13.512-10.287-21.4-13.663a32.665,32.665,0,0,1-12.9-9.669c-.785-.982-1.413-2.089-2.114-3.138Z" transform="translate(-22.923 -91.466)" fill="#6a6d4f"/>
      <path id="Path_7723" data-name="Path 7723" d="M133.442,297.389c-7.125-1.674-11.668-6.815-16.28-11.971.216,2.849,1.368,5.092,4.1,7.5,2.153,1.9,4.445,3.652,7.029,5.756-4.827-.581-11.446-6.464-12.042-10.724-.642-4.581-.836-9.223-1.243-13.838-.353-4-.728-8.006-1.15-12.615.715,1.09,1.535,1.822,1.69,2.675.517,2.852.8,5.746,1.162,8.624a17.15,17.15,0,0,0,.624,3.412l.762-5.62.543.065c-.288,3.026-.362,6.093-.927,9.066a5.844,5.844,0,0,0,1.99,5.962c4.145,3.614,8.369,7.137,12.561,10.7Z" transform="translate(-7.316 -31.795)" fill="#6a6d4f"/>
      <path id="Path_7724" data-name="Path 7724" d="M173.671,207.02c-3.542-.521-4.3.426-3.56,3.489.82,3.406,1.346,6.886,1.913,10.347.63,3.845,1.291,7.663,3.612,10.94-1.286.627-1.983.551-2.569-1.082a84.518,84.518,0,0,1-2.756-9.423c-.847-3.634-1.346-7.348-2.145-10.994-.561-2.556.374-4.528,2.952-4.978a22.867,22.867,0,0,1,5.94-.05c-5.065,4.2-3.153,9.543-3.015,14.567a21.4,21.4,0,0,1,8.261-12.512c-5.416,6.147-7.911,13.15-6.035,21.476l-1.187-.111C172.648,221.708,171.511,214.6,173.671,207.02Z" transform="translate(11.69 -51.588)" fill="#6a6d4f"/>
      <path id="Path_7725" data-name="Path 7725" d="M74.635,317.795c-2.139-3.261-2.476-6.96-2.464-10.589a118.1,118.1,0,0,1,8.588-42.95,7.731,7.731,0,0,1,2.083-2.718C77.326,279.935,72.054,298.255,74.635,317.795Z" transform="translate(-21.943 -31.782)" fill="#6a6d4f"/>
      <path id="Path_7726" data-name="Path 7726" d="M78.657,239.21c-.276,2.29-.231,4.677-.886,6.853-2.214,7.356-5.082,14.423-9.8,20.636-.938,1.235-1.2,3.018-1.637,4.586-2.206,7.883-4.366,15.779-6.549,23.668a6.774,6.774,0,0,1-.315.763l-.739-.17c.665-3.649,1.035-7.382,2.052-10.929a193.055,193.055,0,0,1,7.261-20.975c1.918-4.611,4.147-9.126,5.87-13.836,1.31-3.589,2.863-7.09,4.308-10.63Z" transform="translate(-26.659 -39.63)" fill="#6a6d4f"/>
      <path id="Path_7727" data-name="Path 7727" d="M175.183,228.135a6.173,6.173,0,0,1-.217-1.82c1.375-7.368,3.956-14.173,9.731-19.285a21.788,21.788,0,0,1,4.882-2.9,1.948,1.948,0,0,1,1.836.344,2.147,2.147,0,0,1-.095,1.87c-.667,1.267-1.537,2.428-2.729,4.247,4.239-1.849,7.975-3.073,12.035-1.721-4.813.725-9.648,1.339-13.322,5.017-3.526,3.53-5.067,8.125-6.321,12.883l-.928-.285c0-.9-.307-1.949.05-2.669q3.293-6.638,6.867-13.134c.909-1.648,2.172-3.1,3.065-4.826-4.726,1.56-7.522,5.3-9.579,9.366-2.044,4.042-3.262,8.5-4.844,12.777Z" transform="translate(14.122 -51.965)" fill="#6a6d4f"/>
      <path id="Path_7728" data-name="Path 7728" d="M84.989,262.283a28.776,28.776,0,0,0-2.218,4.423c-3.034,10.945-5.481,22.046-5.074,33.456.212,5.914,1.6,11.787,2.479,17.674.119.79.388,1.559.586,2.337l-.608.224a67.79,67.79,0,0,1-2.5-6.524c-2.663-9.713-2.482-19.553-.711-29.361,1.044-5.783,2.514-11.492,3.893-17.211a10.439,10.439,0,0,1,1.616-3.514C82.9,263.154,83.888,262.906,84.989,262.283Z" transform="translate(-20.73 -31.521)" fill="#6a6d4f"/>
      <path id="Path_7729" data-name="Path 7729" d="M275.943,249.387a59.558,59.558,0,0,1-19.325-15.263c-7.572-9.316-15.88-17.588-26.005-24.025a4.811,4.811,0,0,1-1.459-1.428c5.582,3.042,11.348,5.864,15.9,10.387,4.282,4.247,7.985,9.089,12.36,13.228,5.093,4.819,10.644,9.151,15.983,13.711,1.075.919,2.09,1.909,3.134,2.865Z" transform="translate(33.147 -50.335)" fill="#6a6d4f"/>
      <path id="Path_7730" data-name="Path 7730" d="M125.52,251.437c.289,2.425.7,4.842.836,7.273.146,2.513.032,5.04.032,7.563l.555.082c.834-5.446,1.666-10.89,2.518-16.468.636,8.5-1.356,16.377-4.105,24.111l-.686-.08V262.826c-1.46,6.275-2.9,12.489-4.35,18.7l-.966-.113c-.565-6.89-1.128-13.781-1.744-21.295,2.434,5.7,2.244,11.23,2.965,16.649,2-8.33,4.045-16.629,3.521-25.353Z" transform="translate(-5.997 -35.871)" fill="#6a6d4f"/>
      <path id="Path_7731" data-name="Path 7731" d="M86.739,268.246c2.063-11.3,1.683-22.444-2.332-33.344l.562-.181,1.247,1.124,1.088-.877c3.446,5.146,5.4,24.024,2.975,29.13l-.361-2.687-2.437,6.982Z" transform="translate(-17.649 -41.193)" fill="#6a6d4f"/>
      <path id="Path_7732" data-name="Path 7732" d="M86.16,319.1a48.313,48.313,0,0,1-2.6-4.858,45.926,45.926,0,0,1-3.114-17.049c-.053-8.908.142-17.792,2.9-26.349a27.474,27.474,0,0,1,4.311-7.669c-4.227,8.863-4.878,18.338-5.339,27.843-.463,9.566.546,18.913,4.489,27.81Z" transform="translate(-19.042 -31.209)" fill="#6a6d4f"/>
      <path id="Path_7733" data-name="Path 7733" d="M78.579,262.488c-6.83,18.107-12.939,35.924-8.495,55.506-1.494-1.546-2.857-6.11-3.154-9.629-.975-11.54,2-22.434,5.327-33.269a51.739,51.739,0,0,1,2.813-7.5A39.447,39.447,0,0,1,78.579,262.488Z" transform="translate(-23.849 -31.449)" fill="#6a6d4f"/>
      <path id="Path_7734" data-name="Path 7734" d="M188.185,253.992c.64-.463,1.252-.974,1.926-1.381,5.694-3.425,9.909-8.358,13.681-13.678a4.887,4.887,0,0,0,.484-3.662c-.692-2.538-1.8-4.959-2.449-7.729l3.625,4.488c-.324-4.763-.869-9.015-5.375-11.858,2.511-.774,3.63.609,4.516,2.074,2.479,4.095,2.687,8.618,2.582,13.282-.076,3.371-2.143,5.473-4.045,7.663a108.616,108.616,0,0,1-9.492,9.912c-1.208,1.078-3.442,1.005-5.208,1.458Z" transform="translate(18.77 -46.377)" fill="#6a6d4f"/>
      <path id="Path_7735" data-name="Path 7735" d="M64.827,197.442c.081,3.156-2.157,5.251-6,5.205-1.962-.023-4.305.155-5.3-2.251-.607-1.47.84-4.413,2.809-5.59a18.076,18.076,0,0,1,4.373-1.913C63.106,192.227,64.742,194.125,64.827,197.442Z" transform="translate(-28.533 -55.918)" fill="#6a6d4f"/>
      <path id="Path_7736" data-name="Path 7736" d="M109.808,288.679l.908-10.941.812.049c-.323,4.77-.589,9.546-1.038,14.3-.059.62-1.07,1.144-1.625,1.727-.492.513-.963,1.044-1.722,1.87-.619-4.138-1.19-8.054-1.793-11.964-.585-3.789-3.021-7.282-2.175-11.957,3.229,2.368,3.7,5.459,4.458,8.318s1.232,5.8,1.831,8.7Z" transform="translate(-11.125 -28.193)" fill="#6a6d4f"/>
      <path id="Path_7737" data-name="Path 7737" d="M143.192,150.507c1.414.811,2.877,1.55,4.237,2.448,6.372,4.211,12.653,8.566,19.093,12.672,4.763,3.038,7.862,7.561,11.206,12.08a6.846,6.846,0,0,1-1.509-.589,8.967,8.967,0,0,1-2.1-1.764c-5.1-6.691-12.489-10.422-19.225-15.009-3.661-2.491-7.232-5.117-10.814-7.723a9.153,9.153,0,0,1-1.314-1.477Z" transform="translate(2.832 -70.747)" fill="#6a6d4f"/>
      <path id="Path_7738" data-name="Path 7738" d="M91.228,313.4c-.87-1.264-2.144-2.415-2.536-3.814-1.151-4.095-2.507-8.256-2.761-12.453-.407-6.693-.059-13.436.145-20.153.035-1.205.913-2.384,1.512-3.473-.444,13.459-1.639,26.849,4.164,39.6Z" transform="translate(-17.181 -27.583)" fill="#6a6d4f"/>
      <path id="Path_7739" data-name="Path 7739" d="M71.2,231.148c2.841,0,5.7.2,8.518-.045,4.863-.423,9.7-1.182,14.554-1.693a34.916,34.916,0,0,1,16.238,1.941,24.248,24.248,0,0,1,2.283,1.06,10.674,10.674,0,0,1,1.169.925,15.582,15.582,0,0,1-2.209-.324c-9.054-3.052-18.219-2.337-27.431-.936a54.928,54.928,0,0,1-8.426.7,22.091,22.091,0,0,1-4.892-1.115Z" transform="translate(-22.352 -43.135)" fill="#6a6d4f"/>
      <path id="Path_7740" data-name="Path 7740" d="M81.2,237.183a28.492,28.492,0,0,1,.678,4c.2,6.8-5.273,22.855-10.044,28.461.209-.863.357-1.748.638-2.587,2.228-6.656,4.659-13.251,6.648-19.976.929-3.144,1.019-6.537,1.489-9.816Z" transform="translate(-22.06 -40.329)" fill="#6a6d4f"/>
      <path id="Path_7741" data-name="Path 7741" d="M130.973,274.831c5.89,2.066,12.122,4.886,18.658,6.36,6.475,1.46,13.255,1.563,19.421,2.211C159.3,286.7,136.952,281.761,130.973,274.831Z" transform="translate(-1.308 -27.117)" fill="#6a6d4f"/>
      <path id="Path_7742" data-name="Path 7742" d="M64.747,189.737c-.051-2.742,2.728-5.113,6.12-5.221a3.955,3.955,0,0,1,4,3.527c-.011,2.586-3.379,5.167-6.817,5.225C66.039,193.3,64.79,191.967,64.747,189.737Zm5.773-1.9c-2.941.062-3.446.67-2.963,3.262Z" transform="translate(-24.549 -58.812)" fill="#6a6d4f"/>
      <path id="Path_7743" data-name="Path 7743" d="M81.98,236.761c2.436,4.006-.843,28.072-4.507,32.52C78.975,258.442,80.48,247.581,81.98,236.761Z" transform="translate(-20.083 -40.477)" fill="#6a6d4f"/>
      <path id="Path_7744" data-name="Path 7744" d="M83.289,235.283c4.35,4.538,3.884,28.1-.842,33.334A88.12,88.12,0,0,0,83.289,235.283Z" transform="translate(-18.337 -40.996)" fill="#6a6d4f"/>
      <path id="Path_7745" data-name="Path 7745" d="M73.4,262.858A58.387,58.387,0,0,0,67.38,280.5c-1.069,6.144-2.186,12.279-3.327,18.673C62.065,289.663,68.293,264.994,73.4,262.858Z" transform="translate(-24.925 -31.319)" fill="#6a6d4f"/>
      <path id="Path_7746" data-name="Path 7746" d="M43.073,202.941a4.975,4.975,0,0,1,5.321-4.835c2.371.2,4,1.853,3.893,3.958-.14,2.772-2.191,3.85-6.755,3.55C43.473,205.479,42.952,204.912,43.073,202.941Zm3.234-1.078,3.669.8C49.266,200.271,48.255,200.059,46.307,201.863Z" transform="translate(-32.16 -54.048)" fill="#6a6d4f"/>
      <path id="Path_7747" data-name="Path 7747" d="M57.485,190.033l3.9.883,1.063-2.017c1.57,1.86,2.209,3.027.012,3.791-1.516.528-3.075.935-4.582,1.486-.388.142-.615.674-.979.938-1.115.807-2.6,2.442-3.321,2.163-1.4-.539-2.37-2.17-3.265-3.087Z" transform="translate(-29.614 -57.273)" fill="#6a6d4f"/>
      <path id="Path_7748" data-name="Path 7748" d="M129.139,140.84c-9.251-2.873-16.125-9.551-24.484-14.662C107.481,125.532,126.358,137.22,129.139,140.84Z" transform="translate(-10.544 -79.293)" fill="#6a6d4f"/>
      <path id="Path_7749" data-name="Path 7749" d="M38.711,226.947l-.485-6.967-1.413.369.336-3.213-2.159.948,2.534-9.952C39.685,208.748,41.546,223.653,38.711,226.947Z" transform="translate(-34.991 -50.524)" fill="#6a6d4f"/>
      <path id="Path_7750" data-name="Path 7750" d="M118.7,274.386c5.4,7.708,12.1,13,20.869,15.848C133.968,292.61,118.978,281.355,118.7,274.386Z" transform="translate(-5.615 -27.273)" fill="#6a6d4f"/>
      <path id="Path_7751" data-name="Path 7751" d="M68.906,239.578q-5.3,12.44-10.6,24.88l-.542-.234C59.878,255.32,62.487,246.63,68.906,239.578Z" transform="translate(-26.998 -39.489)" fill="#6a6d4f"/>
      <path id="Path_7752" data-name="Path 7752" d="M92.473,306.683c-.708-.847-1.8-1.591-2.055-2.557a72.907,72.907,0,0,1-2.271-10.687,46.211,46.211,0,0,1,.288-8.9,7.332,7.332,0,0,1,1.337-2.977c-.336,8.439-.557,16.762,3.219,24.584Z" transform="translate(-16.382 -24.754)" fill="#6a6d4f"/>
      <path id="Path_7753" data-name="Path 7753" d="M61.408,264.311c1.972-8.464,3.827-16.97,8.609-24.436l.7.246L62.283,264.63Z" transform="translate(-25.72 -39.384)" fill="#6a6d4f"/>
      <path id="Path_7754" data-name="Path 7754" d="M55.152,262.21c2.615-8.7,5.369-17.328,11.171-24.53l.582.274-11.2,24.538Z" transform="translate(-27.916 -40.155)" fill="#6a6d4f"/>
      <path id="Path_7755" data-name="Path 7755" d="M126.608,268.524c.274-4.084.786-7.952.72-11.809-.064-3.775-.717-7.54-.911-11.364a18.542,18.542,0,0,1,2.272,8.657c.2,3.026.043,6.072.551,9.236.811-2.249,1.62-4.5,2.4-6.678C131.98,259.828,129.02,267.154,126.608,268.524Z" transform="translate(-2.906 -37.463)" fill="#6a6d4f"/>
      <path id="Path_7756" data-name="Path 7756" d="M174.085,264.1c8.481-.384,15.384-3.842,22.032-7.968C192.358,262.086,178.39,267.408,174.085,264.1Z" transform="translate(13.822 -33.678)" fill="#6a6d4f"/>
      <path id="Path_7757" data-name="Path 7757" d="M76.387,196.933c-8.9,2.206-15.928,7.546-22.885,13.332C53.3,205.922,69.85,196.248,76.387,196.933Z" transform="translate(-28.495 -54.466)" fill="#6a6d4f"/>
      <path id="Path_7758" data-name="Path 7758" d="M81.845,154.391l-.95,2.636c.407.467,1.044.933.969,1.151-1.462,4.164-3.006,8.3-4.549,12.437-.035.095-.261.119-.986.42-.351-3.1,1.02-5.6,1.794-8.192-.372-.4-1.139-.989-1.054-1.162,1.27-2.594,2.652-5.134,4.007-7.685Z" transform="translate(-20.504 -69.522)" fill="#6a6d4f"/>
      <path id="Path_7759" data-name="Path 7759" d="M104.374,212.483c-1.908-3.611-3.883-7.354-5.977-11.319,3.7.7,4.068,4.234,6.27,7.06-.247-1.271-.369-1.913-.5-2.553-.146-.731-.3-1.462-.511-2.507,2.538,1.058,2.667,3.134,3.211,5.067C107.5,210.456,105.83,211.346,104.374,212.483Z" transform="translate(-12.74 -52.969)" fill="#6a6d4f"/>
      <path id="Path_7760" data-name="Path 7760" d="M132.391,198.667c8.2-3.009,16.038-7.872,25.371-5.332C148.808,192.754,140.942,197.326,132.391,198.667Z" transform="translate(-0.81 -55.966)" fill="#6a6d4f"/>
      <path id="Path_7761" data-name="Path 7761" d="M75.483,229.887q14.383-2.377,28.765-4.753l.166,1.075c-9.661,1.11-18.974,4.559-28.834,4.33Z" transform="translate(-20.781 -44.557)" fill="#6a6d4f"/>
      <path id="Path_7762" data-name="Path 7762" d="M51.667,251.376c-.717-6.178,1.148-12.539-1.385-18.589l.574-.488c.68.782,1.817,1.493,1.956,2.361a52.992,52.992,0,0,1,.836,9.293,49.446,49.446,0,0,1-1.247,7.529Z" transform="translate(-29.625 -42.043)" fill="#6a6d4f"/>
      <path id="Path_7763" data-name="Path 7763" d="M205.871,240.047c-2.642,5.5-15,14.614-18.37,13.981Z" transform="translate(18.53 -39.324)" fill="#6a6d4f"/>
      <path id="Path_7764" data-name="Path 7764" d="M207.87,223.414c-4.507-5.547-8.691-11.49-17.057-11.54l.161-.917a13.289,13.289,0,0,1,2.763-.224C201.318,211.678,205.288,216.767,207.87,223.414Z" transform="translate(19.692 -49.621)" fill="#6a6d4f"/>
      <path id="Path_7765" data-name="Path 7765" d="M76.575,186.64c2.876,1.383,5.782,2.709,8.619,4.17a4.177,4.177,0,0,1,2.4,4.549,10.526,10.526,0,0,1-1.462,2.9l-.621-.313c0-.569-.038-1.142.007-1.708a3.681,3.681,0,0,0-2.338-4.02,51.368,51.368,0,0,1-5.46-2.888,9.815,9.815,0,0,1-1.855-2.052Z" transform="translate(-20.647 -58.066)" fill="#6a6d4f"/>
      <path id="Path_7766" data-name="Path 7766" d="M52.316,251.522l4.376-16.752.548-.195a7.213,7.213,0,0,1,.8,2.463,29.994,29.994,0,0,1-4.649,14.151C53.335,251.282,53.127,251.279,52.316,251.522Z" transform="translate(-28.911 -41.244)" fill="#6a6d4f"/>
      <path id="Path_7767" data-name="Path 7767" d="M190.98,262.918c-3.341,1.7-6.606,3.581-10.051,5.036a36.29,36.29,0,0,1-7.277,1.9,4.343,4.343,0,0,1-2.99-.893c7.3-.566,13.3-4.692,19.941-6.852Z" transform="translate(12.621 -31.581)" fill="#6a6d4f"/>
      <path id="Path_7768" data-name="Path 7768" d="M159.189,197.538l-22.016,1.971C139.484,196.869,155.954,195.517,159.189,197.538Z" transform="translate(0.868 -54.584)" fill="#6a6d4f"/>
      <path id="Path_7769" data-name="Path 7769" d="M98.265,292.232a32.9,32.9,0,0,1-.9,3.485,1.5,1.5,0,0,1-1.113.858,1.457,1.457,0,0,1-.933-1.046c-.262-2.545-.408-5.1-.592-7.654l.805-.157,1.4,5.439,1.186-3.3,1.914,2.134-1.046-1.042c1.567-1.174,3.134-2.348,4.789-3.589l2.179,1.687c-1.082.784-2,1.451-2.921,2.113-.447.323-1.109.538-1.316.971C100.791,294.085,99.749,294.372,98.265,292.232Z" transform="translate(-14.029 -22.72)" fill="#6a6d4f"/>
      <path id="Path_7770" data-name="Path 7770" d="M54.12,256c.543-6.888,5.918-18.506,9.234-20.255C60.163,242.747,57.141,249.374,54.12,256Z" transform="translate(-28.278 -40.833)" fill="#6a6d4f"/>
      <path id="Path_7771" data-name="Path 7771" d="M169.19,279.456c-9,1.775-17.957,3.031-26.268-2.5C151.433,280.633,160.341,279.691,169.19,279.456Z" transform="translate(2.886 -26.37)" fill="#6a6d4f"/>
      <path id="Path_7772" data-name="Path 7772" d="M200.5,248.7a40.753,40.753,0,0,1-15.811,11.018,8.585,8.585,0,0,1-2.644.158Z" transform="translate(16.616 -36.287)" fill="#6a6d4f"/>
      <path id="Path_7773" data-name="Path 7773" d="M57.058,279.364c-.793-5.529,4.089-18.223,7.334-19.174Z" transform="translate(-27.277 -32.255)" fill="#6a6d4f"/>
      <path id="Path_7774" data-name="Path 7774" d="M82.279,200.667c-.874,3.55-4.739,3.018-6.93,4.881-2.029,1.724-5,2.343-7.553,3.448l-.565-1.183,14.545-7.871Z" transform="translate(-23.677 -53.398)" fill="#6a6d4f"/>
      <path id="Path_7775" data-name="Path 7775" d="M57.007,181.315l-1.962,7.848c-1.121-2.833-2.434-5.216-2.965-7.764-.484-2.329.9-4.33,3.076-5.732L53.5,180.186l.359.276,1.236-2.1.743.431-.49,2.726Z" transform="translate(-29.028 -61.917)" fill="#6a6d4f"/>
      <path id="Path_7776" data-name="Path 7776" d="M133.739,195.861c-2.083-2.578-.736-4.551.412-6.5,1.983-3.362,3.983-6.715,6.077-10.008a9.7,9.7,0,0,1,2.552-2.441C140.289,183.466,134.815,188.479,133.739,195.861Z" transform="translate(-0.719 -61.479)" fill="#6a6d4f"/>
      <path id="Path_7777" data-name="Path 7777" d="M164.893,271.157l19.471-1.423C181.053,272.7,168.164,273.615,164.893,271.157Z" transform="translate(10.596 -28.906)" fill="#6a6d4f"/>
      <path id="Path_7778" data-name="Path 7778" d="M72.2,241.982c-.709,6.888-4.218,12.623-7.544,18.433l-.7-.285q3.753-9.216,7.5-18.432Z" transform="translate(-24.825 -38.745)" fill="#6a6d4f"/>
      <path id="Path_7779" data-name="Path 7779" d="M158.425,274h21.623C177.169,276.149,162.137,276.242,158.425,274Z" transform="translate(8.326 -27.409)" fill="#6a6d4f"/>
      <path id="Path_7780" data-name="Path 7780" d="M66.007,209.774c-1.749-.326-2.7,4.73-4.817.163-.705,1.732-1.128,2.99-1.731,4.154a7.207,7.207,0,0,1-1.409,1.483c-.423-.576-1.125-1.113-1.208-1.733a24.92,24.92,0,0,1,.122-4.022l1.443,1.2c.767-1.012,1.331-2.382,2.344-2.957,2.083-1.182,1.452,1.44,2.479,2.2l.981-2.041Z" transform="translate(-27.343 -50.653)" fill="#6a6d4f"/>
      <path id="Path_7781" data-name="Path 7781" d="M97.769,220.527l-7.929,4.458.132.363,8.889-2.513.243.788-12.833,4.535c2.266-5.423,6.976-6.418,11.2-8.145Z" transform="translate(-16.994 -46.354)" fill="#6a6d4f"/>
      <path id="Path_7782" data-name="Path 7782" d="M58.186,214.35c-.835.742-1.656,1.5-2.507,2.221a26.3,26.3,0,0,1-3.161,2.544c-.961.588-2.276,1.359-3.156,1.1a4.022,4.022,0,0,1-2.1-2.615,14.432,14.432,0,0,1,.078-4.062l1.11-.093c.174.912.3,1.839.539,2.732.173.635.358,1.47.82,1.754.319.195,1.148-.354,1.7-.653,2.1-1.135,4.193-2.3,6.287-3.457Z" transform="translate(-30.734 -48.659)" fill="#6a6d4f"/>
      <path id="Path_7783" data-name="Path 7783" d="M155.565,177.8c-.517,4.739-7.513,13.322-10.54,12.695C148.543,186.258,151.926,182.183,155.565,177.8Z" transform="translate(3.624 -61.168)" fill="#6a6d4f"/>
      <path id="Path_7784" data-name="Path 7784" d="M155.84,171.461a26.258,26.258,0,0,1-1.641,5.069,55.184,55.184,0,0,1-4.777,6.979c-.349.446-1.539.235-2.34.327.312-.559.581-1.148.943-1.672,1.431-2.072,2.957-4.081,4.318-6.2.977-1.523,1.747-3.177,2.61-4.773Z" transform="translate(4.345 -63.487)" fill="#6a6d4f"/>
      <path id="Path_7785" data-name="Path 7785" d="M156.983,182.866c-.856,5.705-7.381,12.2-10.332,10.88Z" transform="translate(4.194 -59.391)" fill="#6a6d4f"/>
      <path id="Path_7786" data-name="Path 7786" d="M51.611,211l-2.7,3.616c-3.308-3.673-.461-6.053,1.4-9.285l.67,2.524,1.731-.662-1.158,3.881Z" transform="translate(-30.641 -51.507)" fill="#6a6d4f"/>
      <path id="Path_7787" data-name="Path 7787" d="M54.09,275.832c-1.229-3.791,2.521-15.388,5.265-16.553C57.608,264.772,55.889,270.176,54.09,275.832Z" transform="translate(-28.373 -32.575)" fill="#6a6d4f"/>
      <path id="Path_7788" data-name="Path 7788" d="M95.408,302.068c-2.41-1.833-3.207-14.021-1.354-17.28Z" transform="translate(-14.622 -23.623)" fill="#6a6d4f"/>
      <path id="Path_7789" data-name="Path 7789" d="M76.065,183.954c-1.713-.074-2.838-.143-3.965-.17-3.739-.089-5.823,1.525-6.66,5.205-.322,1.409-.477,2.859-.846,4.253-.343,1.3-1.088,2.172-3.01,1.452,1.5-2.956,2.871-5.856,4.431-8.649C67.892,182.684,72.9,181.429,76.065,183.954Z" transform="translate(-25.659 -59.478)" fill="#6a6d4f"/>
      <path id="Path_7790" data-name="Path 7790" d="M144.672,200.385c4.934-1.383,9.9-2.283,15.018-1.263C154.734,200.2,149.765,201.109,144.672,200.385Z" transform="translate(3.5 -53.84)" fill="#6a6d4f"/>
      <path id="Path_7791" data-name="Path 7791" d="M174.595,171.1c-4.7-1.67-7.6-4.915-10.894-8.258C165.845,162.449,173.163,168.168,174.595,171.1Z" transform="translate(10.178 -66.426)" fill="#6a6d4f"/>
      <path id="Path_7792" data-name="Path 7792" d="M84.952,200.522c4.669,1.143,8.919,6.607,8.647,10.591Z" transform="translate(-17.458 -53.195)" fill="#6a6d4f"/>
      <path id="Path_7793" data-name="Path 7793" d="M95.9,201.374c2.954-.227,6.382,5.167,7.069,12.09Z" transform="translate(-13.617 -52.898)" fill="#6a6d4f"/>
      <path id="Path_7794" data-name="Path 7794" d="M41.883,199.471c1.928-3.383,5.408-4.812,8.443-3.8,1.485.5,2.926,1.294,2.636,3.837C49.393,195.96,45.884,197.789,41.883,199.471Z" transform="translate(-32.572 -55.009)" fill="#6a6d4f"/>
      <path id="Path_7795" data-name="Path 7795" d="M90.572,183.253l12.192,5.086-.322.742A26.123,26.123,0,0,1,90.117,184.2Z" transform="translate(-15.645 -59.255)" fill="#6a6d4f"/>
      <path id="Path_7796" data-name="Path 7796" d="M112.332,285.708c-1.059-5.4-2.112-10.751-3.15-16.033C111.833,272.274,113.7,281.551,112.332,285.708Z" transform="translate(-8.955 -28.927)" fill="#6a6d4f"/>
      <path id="Path_7797" data-name="Path 7797" d="M76.213,173.311c1.722-4.037,3.033-8.284,6.233-11.567l.766.39Q80.256,168,77.3,173.863Z" transform="translate(-20.525 -66.803)" fill="#6a6d4f"/>
      <path id="Path_7798" data-name="Path 7798" d="M71.312,238.54c-3.976-.977-8.815-6.514-8.791-10.063Z" transform="translate(-25.33 -43.384)" fill="#6a6d4f"/>
      <path id="Path_7799" data-name="Path 7799" d="M163.138,203.2c-4.605.149-8.539,1.443-12.939.347C152.666,201.75,160.673,201.421,163.138,203.2Z" transform="translate(5.439 -52.669)" fill="#6a6d4f"/>
      <path id="Path_7800" data-name="Path 7800" d="M41.066,199.894l3.473,10.119c-1.244.145-1.821-.23-2.524-1.781C39.53,202.754,39.408,201.311,41.066,199.894Z" transform="translate(-33.247 -53.415)" fill="#6a6d4f"/>
      <path id="Path_7801" data-name="Path 7801" d="M53.077,185.259l3.168,3.457-8.63.68-.173-.959,4.8-1.278-2.055-1.106.4-.747h2.557Z" transform="translate(-30.622 -58.551)" fill="#6a6d4f"/>
      <path id="Path_7802" data-name="Path 7802" d="M42.109,228.636c-2.855-3.438-3.6-9.157-1.586-11.267Z" transform="translate(-33.448 -47.282)" fill="#6a6d4f"/>
      <path id="Path_7803" data-name="Path 7803" d="M76.6,177.365c2.622-1.682,8.895.128,11.006,3.145Z" transform="translate(-20.389 -61.547)" fill="#6a6d4f"/>
      <path id="Path_7804" data-name="Path 7804" d="M123.849,220.239l11.3-10.073.725.828-11.379,9.963Z" transform="translate(-3.808 -49.81)" fill="#6a6d4f"/>
      <path id="Path_7805" data-name="Path 7805" d="M89.879,201.03a6.283,6.283,0,0,1,5.059,8.123C93.278,206.49,91.619,203.825,89.879,201.03Z" transform="translate(-15.729 -53.016)" fill="#6a6d4f"/>
      <path id="Path_7806" data-name="Path 7806" d="M91.739,185.541l-9.569-5.2C85.02,179.355,90.061,182.012,91.739,185.541Z" transform="translate(-18.434 -60.35)" fill="#6a6d4f"/>
      <path id="Path_7807" data-name="Path 7807" d="M45.785,231.081c-3-2.786-3.883-7.7-2.075-9.971Z" transform="translate(-32.258 -45.97)" fill="#6a6d4f"/>
      <path id="Path_7808" data-name="Path 7808" d="M155.463,207.162c1.9-1.9,6.676-2.194,9.2,0Z" transform="translate(7.287 -51.404)" fill="#6a6d4f"/>
      <path id="Path_7809" data-name="Path 7809" d="M89.04,221.779c2.414-3.24,6.045-4.657,9.779-5.927l-9.286,6.625Z" transform="translate(-16.023 -47.815)" fill="#6a6d4f"/>
      <path id="Path_7810" data-name="Path 7810" d="M68.521,173.81c2.228-1.508,6.709-1.6,9.488.222l-9.423.539Z" transform="translate(-23.224 -62.968)" fill="#6a6d4f"/>
      <path id="Path_7811" data-name="Path 7811" d="M49.873,205.39l-4.01,7.119C44.732,209.985,46.923,206.047,49.873,205.39Z" transform="translate(-31.282 -51.486)" fill="#6a6d4f"/>
      <path id="Path_7812" data-name="Path 7812" d="M48.552,232.426c-2.925-2.182-3.742-5.273-2.267-7.619Z" transform="translate(-31.279 -44.672)" fill="#6a6d4f"/>
      <path id="Path_7813" data-name="Path 7813" d="M50.549,209.955l1.7-1.436.669,5.758c-3.249-.634-2.848-2.49-2.3-4.4Z" transform="translate(-29.639 -50.388)" fill="#6a6d4f"/>
      <path id="Path_7814" data-name="Path 7814" d="M35.52,202.352c-.85-3.029.259-5.475,3.04-6.555Z" transform="translate(-34.904 -54.853)" fill="#6a6d4f"/>
      <path id="Path_7815" data-name="Path 7815" d="M92.112,191.673c-1.678-1.793-3.2-3.427-4.753-5.082C89.407,185.438,92.1,188.229,92.112,191.673Z" transform="translate(-16.613 -58.176)" fill="#6a6d4f"/>
      <path id="Path_7816" data-name="Path 7816" d="M38.21,199.688l-2.082,7.145C34.62,204.181,35.342,201.4,38.21,199.688Z" transform="translate(-34.861 -53.487)" fill="#6a6d4f"/>
      <path id="Path_7817" data-name="Path 7817" d="M216.222,196.68l10.375,8.768-.357.451c-1.74-1.4-3.5-2.784-5.211-4.223-1.74-1.462-3.43-2.983-5.143-4.477Z" transform="translate(28.491 -54.543)" fill="#6a6d4f"/>
      <path id="Path_7818" data-name="Path 7818" d="M61.493,204.1c1.624,3.2-2,2.673-2.532,4.482C57.847,205.888,58.265,205.21,61.493,204.1Z" transform="translate(-26.774 -51.941)" fill="#6a6d4f"/>
      <path id="Path_7819" data-name="Path 7819" d="M55.737,189.45c-1.593-2.652-1.042-4.989,1.574-6.991Z" transform="translate(-28.024 -59.534)" fill="#6a6d4f"/>
      <path id="Path_7820" data-name="Path 7820" d="M128.232,140.4l5.41,3.791-.374.55c-2.093-.843-4.458-1.269-5.6-3.576Z" transform="translate(-2.467 -74.294)" fill="#6a6d4f"/>
      <path id="Path_7821" data-name="Path 7821" d="M52.756,186.233l-4.224-3.53c2.363-.428,3.787.781,4.953,2.365.085.116-.513.734-.792,1.119Z" transform="translate(-30.239 -59.479)" fill="#6a6d4f"/>
      <path id="Path_7822" data-name="Path 7822" d="M56.581,220.035l1.248,5.771c-2.275-1.525-2.8-3.469-2.04-5.57Z" transform="translate(-27.806 -46.347)" fill="#6a6d4f"/>
      <path id="Path_7823" data-name="Path 7823" d="M73.582,174.64l6.879.69-.091,1-6.887-.616Z" transform="translate(-21.483 -62.277)" fill="#6a6d4f"/>
      <path id="Path_7824" data-name="Path 7824" d="M37.87,192.946,35.6,197.677C34.641,195.129,35.346,193.419,37.87,192.946Z" transform="translate(-34.921 -55.853)" fill="#6a6d4f"/>
      <path id="Path_7825" data-name="Path 7825" d="M59.869,226.171c-2.43-1.613-2.234-3.412-2.084-5.735C59.979,222.025,59.523,223.905,59.869,226.171Z" transform="translate(-27.02 -46.206)" fill="#6a6d4f"/>
      <path id="Path_7826" data-name="Path 7826" d="M44.366,209.182l2.934,3.334-.073.562c-.854-.226-2.007-.189-2.49-.74a9.33,9.33,0,0,1-1.174-2.961Z" transform="translate(-31.982 -50.156)" fill="#6a6d4f"/>
      <path id="Path_7827" data-name="Path 7827" d="M80.311,192.678l-4.52.449-.107-1.05a4.768,4.768,0,0,1,4.519-.521Z" transform="translate(-20.71 -56.458)" fill="#6a6d4f"/>
      <path id="Path_7828" data-name="Path 7828" d="M75.919,194.528c.111-.1.249-.307.326-.286,1.1.3,2.189.624,3.28.944-.154.311-.349.905-.454.89-1.133-.166-2.252-.428-3.375-.663Z" transform="translate(-20.706 -55.399)" fill="#6a6d4f"/>
      <path id="Path_7829" data-name="Path 7829" d="M35.973,192.964c.174-3.334.989-4.223,3.423-4.022Z" transform="translate(-34.646 -57.268)" fill="#6a6d4f"/>
      <path id="Path_7830" data-name="Path 7830" d="M47.748,180.261a4.5,4.5,0,0,1,4.75,1.686l-.3.785-4.684-1.737Z" transform="translate(-30.595 -60.343)" fill="#6a6d4f"/>
      <path id="Path_7831" data-name="Path 7831" d="M52.212,228.584l2.925,3.764C52.61,232.331,51.5,231.12,52.212,228.584Z" transform="translate(-29.022 -43.347)" fill="#6a6d4f"/>
      <path id="Path_7832" data-name="Path 7832" d="M69.1,233.1,65.8,228.691C68.5,229.108,69.349,230.119,69.1,233.1Z" transform="translate(-24.178 -43.309)" fill="#6a6d4f"/>
      <path id="Path_7833" data-name="Path 7833" d="M39.411,180.315c2.2-1.617,3.5-1.274,4.431,1.035Z" transform="translate(-33.44 -60.637)" fill="#6a6d4f"/>
      <path id="Path_7834" data-name="Path 7834" d="M50.013,231.952l-2.533-4.538.979-.561,2.607,4.486Z" transform="translate(-30.608 -43.954)" fill="#6a6d4f"/>
      <path id="Path_7835" data-name="Path 7835" d="M55.224,174.21l4.205-3.088.571.748-4.089,3.192Z" transform="translate(-27.891 -63.512)" fill="#6a6d4f"/>
      <path id="Path_7836" data-name="Path 7836" d="M113.614,288.046l-3.652-3.43C112.2,284.035,113.257,285.119,113.614,288.046Z" transform="translate(-8.681 -23.736)" fill="#6a6d4f"/>
      <path id="Path_7837" data-name="Path 7837" d="M100.676,192.26l-4.324-1.192.263-.95,4.327,1.189Z" transform="translate(-13.457 -56.845)" fill="#6a6d4f"/>
      <path id="Path_7838" data-name="Path 7838" d="M56.21,172.556l-3.146,3.5-.8-.715,3.156-3.491Z" transform="translate(-28.929 -63.257)" fill="#6a6d4f"/>
      <path id="Path_7839" data-name="Path 7839" d="M37.592,183.712c1.618-1.912,2.879-2.334,4.491-.8Z" transform="translate(-34.078 -59.702)" fill="#6a6d4f"/>
      <path id="Path_7840" data-name="Path 7840" d="M61.917,224.775l-2.424-2.936.82-.7,2.518,2.826Z" transform="translate(-26.392 -45.959)" fill="#6a6d4f"/>
    </g>
  </g>
</svg>
