<svg xmlns="http://www.w3.org/2000/svg" width="286.651" height="192.872" viewBox="0 0 286.651 192.872">
  <g id="Group_76" data-name="Group 76" transform="translate(-97.881 -2159.74)">
    <g id="Group_14" data-name="Group 14" transform="translate(181.723 2159.74)">
      <path id="Path_7254" data-name="Path 7254" d="M696.574,338.139A68.136,68.136,0,1,1,764.709,270,68.213,68.213,0,0,1,696.574,338.139Zm0-134.015A65.879,65.879,0,1,0,762.452,270,65.954,65.954,0,0,0,696.574,204.124Z" transform="translate(-595.169 -173.567)" fill="#728296"/>
      <g id="Group_10" data-name="Group 10" transform="translate(64.162 11.208)">
        <path id="Path_7255" data-name="Path 7255" d="M649.221,199.677l-3.263,1.364-.874-2.093,8.9-3.719.876,2.092-3.248,1.357,3.792,9.072-2.394,1Z" transform="translate(-645.084 -190.457)" fill="#728296"/>
        <path id="Path_7256" data-name="Path 7256" d="M658.574,201.622l-1.841.418.961,4.23-2.513.572L652.5,195.035l5.521-1.255a3.769,3.769,0,0,1,4.829,2.9,3.475,3.475,0,0,1-1.787,4.092l3.676,3.892-2.886.655Zm-.434-5.6-2.637.6.741,3.257,2.635-.6a1.676,1.676,0,1,0-.739-3.257Z" transform="translate(-638.737 -191.808)" fill="#728296"/>
        <path id="Path_7257" data-name="Path 7257" d="M668.983,202.665l-5.4.228-.674,2.116-2.827.119,4.167-12.284,3.226-.137,5.169,11.892-2.81.119Zm-4.8-2.03,4.005-.169L665.954,195Z" transform="translate(-632.248 -192.615)" fill="#728296"/>
        <path id="Path_7258" data-name="Path 7258" d="M667.87,192.657l2.912.386,2.106,9.665,4.53-8.788,2.914.384-6.21,11.384-3.2-.423Z" transform="translate(-625.582 -192.657)" fill="#728296"/>
        <path id="Path_7259" data-name="Path 7259" d="M678.7,194.2l8.155,2.607-.676,2.106-5.7-1.822-.8,2.505,5.581,1.784-.674,2.106L679,201.7l-.857,2.678,5.7,1.822-.679,2.125-8.153-2.607Z" transform="translate(-619.468 -191.34)" fill="#728296"/>
        <path id="Path_7260" data-name="Path 7260" d="M686.489,196.69l2.3,1.156-4.4,8.793,4.577,2.292-1.017,2.028-6.88-3.446Z" transform="translate(-614.286 -189.205)" fill="#728296"/>
      </g>
      <g id="Group_11" data-name="Group 11" transform="translate(6.316 0)">
        <path id="Path_7261" data-name="Path 7261" d="M709,327.8a96.081,96.081,0,0,1-95.088-80.41l2.227-.373a94.168,94.168,0,0,0,185.72,0l2.227.373A96.076,96.076,0,0,1,709,327.8Z" transform="translate(-613.915 -134.925)" fill="#728296"/>
        <path id="Path_7262" data-name="Path 7262" d="M616.142,267.4l-2.227-.373a96.426,96.426,0,0,1,190.174,0l-2.227.373a94.168,94.168,0,0,0-185.72,0Z" transform="translate(-613.915 -186.618)" fill="#728296"/>
      </g>
      <g id="Group_12" data-name="Group 12" transform="translate(0 90.611)">
        <path id="Path_7263" data-name="Path 7263" d="M622.455,236.508h0a3.643,3.643,0,0,0-5.15,0l-.288.29-.289-.29a3.643,3.643,0,0,0-5.15,0h0a3.643,3.643,0,0,0,0,5.15l5.436,5.436,0,0,0,0,5.436-5.436A3.643,3.643,0,0,0,622.455,236.508Z" transform="translate(-610.512 -235.441)" fill="#728296"/>
        <path id="Path_7264" data-name="Path 7264" d="M724.724,236.508h0a3.643,3.643,0,0,0-5.15,0l-.29.29-.289-.29a3.64,3.64,0,0,0-5.148,0h0a3.643,3.643,0,0,0,0,5.15l5.436,5.436,0,0,0,0,5.436-5.436A3.643,3.643,0,0,0,724.724,236.508Z" transform="translate(-522.981 -235.441)" fill="#728296"/>
      </g>
      <g id="Group_13" data-name="Group 13" transform="translate(46.938 50.45)">
        <path id="Path_7265" data-name="Path 7265" d="M690.824,279.006a15.223,15.223,0,0,0-1.236-2.47l-2.1-.987s.618.74-1.234.494a8.644,8.644,0,0,1-3.582-1.605l-2.717-.123-1.112-1.2.371-1.392-.987-3.333-1.73-.124s-1.112.618-2.593-.865a11.175,11.175,0,0,1-2.223-3.333l-3.335.123-.616.494-2.717-1.852s-1.483-.122-1.977.494a14.484,14.484,0,0,1-2.1,1.73l-1.976.618-1.728-.371-1.73-.369s-.122-3.335.371-3.706a1.527,1.527,0,0,0,.494-1.112l-2.964-.369a18.991,18.991,0,0,0,.74-3.829c-.122-.74-.371-1.112-.865-.865a22.713,22.713,0,0,1-2.222.74s1.728,1.236-.5,1.483a3.756,3.756,0,0,1-3.211-.865s-2.717-2.717-1.974-3.086,1.481-1.976,1.481-1.976l3.088-1.112s2.222-2.1,3.7-1.977,3.829.249,3.829.249.247,1.481.494,2.346a3.8,3.8,0,0,0,1.234,1.605,15.293,15.293,0,0,1,.494-2.593c.371-1.236-.247-1.977.371-2.348s2.595-1.975,3.582-2.223,1.112-2.221,1.112-2.221a2.746,2.746,0,0,1,2.346-2.595,4.462,4.462,0,0,0,3.211-1.852s.247-1.852,1.73-1.852h2.593c.865,0,2.964-1.605,2.964-1.605s-1.359-1.234-.865-1.852,2.47-2.346,2.47-2.346l2.223.863.865,1.977,2.715.618-2.964-7.039-2.1-.987-.369-1.483a1.307,1.307,0,0,1-1.977.618c-1.483-.74-1.359-1.605-1.359-1.605s.124-1.605-.247-1.605h-2.223l-1.852,2.593s-4.076-1.977-3.951-2.593.987-3.335,1.852-3.458,7.162,0,7.162,0l.494,1.234s.371,2.223,1.236,2.593a9.05,9.05,0,0,0,2.223.5l-.371-.989s.124-1.359.74-1.481,1.483-.247,1.483-.247l.494-1.661s-2.47-2.786-3.582-3.155a38.445,38.445,0,0,1-3.829-1.854l-2.964,1.236s-2.468.494-3.211-.124a8.909,8.909,0,0,0-2.47-1.112s-3.812,1.73-5.363,1.358c-.6-.141-1.4-.375-2.162-.607-1.186.8-2.331,1.65-3.448,2.535-.006.3-.124.542-.51.542-.041,0-.109-.013-.158-.017A54.756,54.756,0,0,0,635.8,253.828l1.425,2.58.494-.987s-1.359-1.852-1.112-2.348.494-4.32.989-4.32,1.358,2.221,1.358,2.221v2.964s2.222.742,2.346,1.483a9.823,9.823,0,0,1,0,1.977s2.593,2.593,3.582,2.468a30.666,30.666,0,0,1,3.457.006l2.221,1.6s1.112-.865,1.236,0,2.223,2.841,2.223,2.841.987,2.223,1.728,2.593,3.088,0,3.088,0,1.975,1.852,1.605,2.841-.989,2.346-.989,2.346l-1.358,1.021.249,5.772s1.852,5.681,2.715,6.05,4.322,2.595,4.818,3.953,0,4.569,0,4.569l1.728,5.185v3.953s0,6.705.972,7.876a54.2,54.2,0,0,0,5.558,2.053c.113-.386.232-.7.015-.915-.371-.369-1.236-.987-1.112-1.358s.618-.987.987-1.728a18.854,18.854,0,0,0,.618-3.706s2.964-1.481,3.458-2.468a8.19,8.19,0,0,0,.618-2.47l2.593-1.483s-.616-2.84.865-4.322a22.178,22.178,0,0,1,3.829-2.84s1.728-1.483,1.728-2.717a13.472,13.472,0,0,1,.5-2.964v-2.593S691.689,280.983,690.824,279.006Z" transform="translate(-635.803 -213.802)" fill="#728296"/>
        <path id="Path_7266" data-name="Path 7266" d="M682.3,227.866v-3.985c-.191-.759-3.985-3.985-3.985-3.985a5.192,5.192,0,0,0-1.139,3.036V225.4h2.561v2.466Z" transform="translate(-600.393 -208.585)" fill="#728296"/>
        <path id="Path_7267" data-name="Path 7267" d="M713.423,257.186a15.666,15.666,0,0,1-.826-1.386l-3.415-2.466v-2.088a4.3,4.3,0,0,0-.57-3.036,23.757,23.757,0,0,1-1.518-4.174s-2.847-.95-3.985-1.139a44.982,44.982,0,0,0-5.124,0s-.189,3.415-3.6,1.518-2.99-4.174-2.99-4.174h1.281l-3.985-.948-4.363,1.9s-3.987.38-3.227-.759a42.937,42.937,0,0,1,2.847-3.415l.948-1.329-.044-.171c2.587-.431,7.446-1.537,7.446-1.537s1.9,2.466,3.036,3.8,1.835,0,1.835,0l-.887-2.847a2.777,2.777,0,0,1,3.985,1.243c1.329,2.741,2.088,2.194,2.088,2.194s4.744-1.409,5.692.045a10.122,10.122,0,0,0,1.9,2.21l-1.9,2.088,2.847,1.138a10.381,10.381,0,0,0,1.1-.544,54.572,54.572,0,0,0-7.739-17.844.966.966,0,0,1-.353-.52,55.113,55.113,0,0,0-4.927-6.195.816.816,0,0,0-.23.245c-.57.95.826,3.606-1.579,4.365a9.385,9.385,0,0,1-3.734.57l-2.04-1.518-2.324,3.226-1.329,3.226-3.606,3.985-5.313,2.466s.57,3.606-.189,4.554-1.9,2.658-1.9,2.658l-.948,4.554c-.57,1.707-2.847.568-2.658,3.793s-.781,5.883-.011,6.831,2.669,4.176,2.669,4.176,2.086,3.415,3.793,3.226,6.642-2.277,8.16-1.139,1.138,2.277,1.138,2.277,1.232-.189,2.515,1.518,1.85,5.5,1.85,5.5,2.656,3.985,2.656,5.5a11.227,11.227,0,0,1-.759,3.417l.759,7.591a41.244,41.244,0,0,0,1.633,4.738A54.662,54.662,0,0,0,713.423,257.186Z" transform="translate(-604.125 -209.574)" fill="#728296"/>
      </g>
      <path id="Path_7268" data-name="Path 7268" d="M706.651,276.719l-2.112-.791a78.123,78.123,0,0,0,2.069-48.383l2.173-.607a80.363,80.363,0,0,1-2.131,49.78Z" transform="translate(-530.035 -152.108)" fill="#728296"/>
      <path id="Path_7269" data-name="Path 7269" d="M626.977,276.721a80.293,80.293,0,0,1-2.13-49.782l2.171.607a78.064,78.064,0,0,0,2.071,48.381Z" transform="translate(-600.782 -152.108)" fill="#728296"/>
    </g>
    <path id="Path_7092" data-name="Path 7092" d="M-510.051,522.327c-.906-.2-1.822-.357-2.716-.6-.85-.227-1.9-.226-1.908-1.572,0-.21-.57-.416-.877-.623l-.795,1.2L-521.8,518.5l.788-2.959,1.475,1.13.256-.276-.809-1.321c2.379-.2,1.724,2.06,2.623,3l1.85-1.16.39,1.367.288-.034-.075-1.262,1.271.337-.3,1.582c.3-.027.825.03.873-.095a5.746,5.746,0,0,0,.22-1.331c12.961,2.844,25.27.695,36.992-6.17l2.526,3.407c-2.381,1.244-4.589,2.554-6.919,3.586a53.189,53.189,0,0,1-18.711,4.481,2.8,2.8,0,0,0-.763.279H-506l-3.727-.631c1.141-1.006,1.22-1.7.274-3.062-.068.645-.141,1.69-.183,1.688C-511.346,521-510.149,521.846-510.051,522.327Zm-.917-1.237.153-2.893C-512.278,519.181-512.287,520.049-510.968,521.09Z" transform="translate(699.714 1776.056)" fill="#5779a3"/>
    <path id="Path_7093" data-name="Path 7093" d="M-587.589,484.412c-.171.16-.445.293-.494.485-.926,3.609-4.617,4.694-6.463,7.6l-1.283-2.2-.443.195.8,3.116c-1.21-1.078-2.2-1.963-3.264-2.911,1.539-1.536,2.916-3.02,4.435-4.343.347-.3,1.182-.045,1.936-.045l-.5-1.192c.3-.926,2.668-2.346,3.574-2.16a2.706,2.706,0,0,1,3.178-2.374c.221-1.439.354-1.577,2.92-3.038l1.055,1.637c-.191-3.341,2.318-3.777,4.226-4.784,1.5-.792,3-1.6,4.558-2.254,1.749-.736,3.432-1.8,5.48-1.486.148.022.339-.153.49-.263,1.478-1.085,1.9-1.063,3.017.235l.605-1.447a8.228,8.228,0,0,1,2.688.274c1.738.805,3.327-.308,4.983-.113a2.932,2.932,0,0,0,.809,2.8l1.034-2.54a4.718,4.718,0,0,1,.459,1.213,5.488,5.488,0,0,1-.364,1.469c.981-.443,1.616-.727,2.248-1.018.123-.056.335-.2.336-.2,1.014,1.607.977-.361,1.276-.4l1.6.383h0v2.319l1.2-.7c.025.269.126.525.044.619a20.873,20.873,0,0,1-1.886,1.927c-.045.04-.628-.535-.638-.543l-2.253-.691,1.207-.123.089-.56-1.977-.494-.087.3.791.894-1.771-.733-.279.705-1.5-.886.193.023-.034-.173-.142.177a12.984,12.984,0,0,1-1.656.274c-2.141.088-4.284.183-6.427.181-2.219,0-4.154.933-6.167,1.65a3.55,3.55,0,0,1-1.283-.049l1.082-2.466-1.527.388-1.035-.471c.116.422.224.847.35,1.266a2.151,2.151,0,0,0,.195.372q-.2.246-.394.491l.222.127.3-.515c.913-.419.7.3.763.751-.448.4-.831.969-1.356,1.165-2.712,1.02-5.008,2.787-7.713,4.222l.324-1.6-.225-.084-1.708,2.583-1.1-.714.319,1.315q-2.271,1.812-4.529,3.616a1.149,1.149,0,0,0-.187-.22q.076-.359.152-.72l.543-.666-.265-.216Zm29-11.55c-.9-1.4-1.192-1.439-3.172-.168Zm-26.994,7.57,1.88.574.364-.2-.847-1.5Zm37.432-6.94-.105-.1a.935.935,0,0,0-.091.2c-.005.024.059.064.091.1Zm-.569.3-.086-.056-.017.194c.032-.014.074-.019.093-.043S-548.719,473.825-548.717,473.793Z" transform="translate(696.613 1774.358)" fill="#5779a3"/>
    <path id="Path_7094" data-name="Path 7094" d="M-578.38,445.832c.89-1.66.89-1.66,3.851-1.8a2.575,2.575,0,0,1,2.609-2.014l-.023-.024-.25.983.281.075.28-1.058-.014.024,1.781-.632.01-.053,2.973-1.309.5,1.889,1.29-.9-1.144-.707.026-.524,9.174-.376q-.137,1.092-.277,2.183l.271.064.568-1.175.981,1.387,1.719-.874-2.32-1.366,4.962,1.238.891.293-.007-.008c-.578,1.729-1.554.1-2.317.275l-.107-.238-.1.157.224.057c.773,1.07-.49,1.438-.942,2.36a8.921,8.921,0,0,1,1.243-.174c.849.015,1.737.042,1.146,1.323-1.079-.3-2.148-.64-3.238-.891-.633-.147-1.3-.139-1.947-.228-.767-.1-1.339-.573-2.331-.328-1.633.4-3.43.119-5.153.208-.741.037-1.5.35-1.506-.853,0-.036-.494-.071-.528.222-.436.5-.782,1.172-1.331,1.468-.676.365-1.491.418-1.846-.643-.056-.166-.559-.184-.855-.27a3.344,3.344,0,0,0-.144.741,7.9,7.9,0,0,0,.165,1.056c-1.394.477-2.857.684-4,1.81-.379-.845.691-2.1-1.031-2.15.2,1.024,1.591,2.4-.641,2.783l-.149-1.668-.373.019c-.161.722-.148,1.957-.512,2.081-1.893.644-2.952,2.8-5.16,2.777-.064.122-.127.244-.191.366a.506.506,0,0,1-.068.251c-.669-.306-.948-.1-.828.63l-.3.368-1.827-1.789-.313.309,1.367,2.03-3.514,2.661-.2-1.668-.184-.028a2.271,2.271,0,0,0-.081.6,2.213,2.213,0,0,1-1.059,2.513,16.993,16.993,0,0,0-2.136,1.746l-.464-1.19a9.974,9.974,0,0,1-1.316,1.436c-.834.613-.507,1.05.083,1.527l-1.8,1.8a13.655,13.655,0,0,1-.636-1.286,7.96,7.96,0,0,1-.261-1.151c-.349-.114-.695-.243-1.05-.339s-.7-.152-1.045-.225c1.635-1.323,3.327-2.584,4.894-3.984,1.9-1.7,3.614-3.615,5.573-5.238,1.034-.857,2.136-2.063,3.478-1.392.353-.666.482-1.291.861-1.557,1.3-.912,2.692-1.7,4.15-2.592.05.4.082.668.116.934l-.381.847.38.129Zm17.071-2.958.522-.159a19.467,19.467,0,0,0,2.353-.46c.246-.076.37-.553.534-.856.014-.025-.1-.12-.192-.215l-.806.453c-.376-1.505-1.429-1.082-2.174-.555C-561.406,441.318-561.245,442.255-561.308,442.874Zm-2.5.643c.263-.133.387-.164.39-.2a1.267,1.267,0,0,0-.061-.327Z" transform="translate(696.662 1773.158)" fill="#5779a3"/>
    <path id="Path_7095" data-name="Path 7095" d="M-550.468,488.8l-.192-1.491a4.272,4.272,0,0,0,1.115-.574c.6-.639,1.155-1.121,1.86-.148l-.989,2.319,3.512,1.033.314,0-.107-.214a11.809,11.809,0,0,0-.805-1.115c-.631-.694-2.084-.6-1.943-2.039,1.569.553,3.156,1.063,4.7,1.673,1.468.578,2.888,1.276,4.34,1.894.529.225,1.213.294.7,1.135L-539,492.855c-.237-.44-.362-1.02-.706-1.216-.361-.206-.931-.046-1.656-.046l-.355-.58-1.267,1.529c-2.8-.993-5.615-1.927-8.365-3.033-.52-.209-.765-1.1-1.22-1.811l-.155,1.429-4.783-.932.433-2.65-.593-.223a7.779,7.779,0,0,0-.533,1.082c-.319,1-.644,1.656-2.021,1.683a61.341,61.341,0,0,0-6.617.836c-.605.079-1.222.069-1.64.09l-2.109.817v-3.182c-1.158,1.047-1.775,2.227-1.081,3.787-2.4,1.118-4.807,2.225-7.195,3.372-.263.127-.368.586-.63.7a19.075,19.075,0,0,1-2.017.66c.027,1.6-1.941,1.659-3.134,3.055l-.5-2.529-.665.542-.231.217-.994-.771.011.011-.157-.608,2.92-2.566.891,1.027c.93-.567-.03-2.1,1.328-2.332.076.9.153,1.791.245,2.874.647-.824,1.675-1.218,1.276-2.476l1.42.111v-2.2l3.339-1.55-.175,1.863,2.991.591c.94-1.293-.613-.852-.819-1.363l-.983-1.561a28.684,28.684,0,0,1,10.288-3.284l-.2,1.371.444.221c.3-.54.607-1.08,1-1.776,2.484-.266,2.718-.187,3.064,1.258,1.185-1.786,2.842-1.272,4.448-1.01q-.381,1.376-.76,2.752c.5-.214.644-.737.807-.743,1.41-.053,1.286-.828.915-1.762l2.41,1.041-.148.356,1.916-.664.19.329c-1.348,1.038-.654,2.251-.361,3.431l.431.312Zm6.016-.75-.06-.2c-.054.044-.148.083-.155.133-.009.071.046.15.074.226C-544.547,488.156-544.5,488.105-544.452,488.053Zm-29.469-.353c.032-.036.092-.072.09-.107s-.06-.069-.095-.1c-.033.035-.091.072-.09.107S-573.954,487.665-573.921,487.7Z" transform="translate(697.078 1774.952)" fill="#5779a3"/>
    <path id="Path_7096" data-name="Path 7096" d="M-485.663,475.1c-1.1,1.259-2.708,1.349-4.167,1.734-1.113.294-.9-.363-.563-1.014l-.307-.2-1.251,1.712-6.9.963.1-1-.674.274-.38-1.434-.38-.09-1.424,2.245-.517-.1.128-2.208c-.963.122-1.42.946-1.362,2.5-.334-.437-.668-.874-1.194-1.56-.453.307-1.06.688-1.631,1.117-.525.4-2.4-.078-2.828-.745l.211-.446-.257.007.05.44a2.962,2.962,0,0,1-3.12-.347c-.317-.2-.983.19-1.331.008-1.575-.827-3.691-.788-4.47-2.968-.2-.554-1.235-.807-1.932-1.226.685-1.988.987-2.132,2.724-1.155l-1.215,1.475c1.55.651,1.777-.12,1.74-1.126a2.255,2.255,0,0,1,2.6,1.408,2.03,2.03,0,0,1-.005.929c-.038.6-.09,1.2-.137,1.8l.635.1c.308-1.011.617-2.023.923-3.025l1.511.388.074.422,1.548.051-.318.827,2.5,2.356-.272-3.181c.631-.1,1.144-.161.963.809-.069.367.25.807.433,1.335.314-.186.681-.283.845-.52,1.254-1.813,2.37-2.05,4.344-.912a1.072,1.072,0,0,0,.8.028,12.276,12.276,0,0,1,1.947-.832c2.339-.414,4.7-.72,7.047-1.06.361-.053.726-.066,1.314-.115l-.871,1.359c1.055.208.985.173,1.39-.648a2.78,2.78,0,0,1,1.166-1.329c2.825-1.188,5.695-2.271,8.554-3.378a1.644,1.644,0,0,1,.541-.01,3.783,3.783,0,0,1-1.278,3.662l.448.285,2.668-2.31-.256-.279-.6.251-.527-1.915,2.426-1.752a19.363,19.363,0,0,1,1.721,2.229,3.985,3.985,0,0,1,.154,1.558c-.424-.049-.848-.106-1.272-.144a3.366,3.366,0,0,0-.524.048l.469,1.011c-1.764.85-3.47,1.758-5.245,2.5-1.511.632-3.1,1.073-4.654,1.6l.02.019a.128.128,0,0,0,.1-.19l.107-.218Zm-9.742,1.309c2.062.289,2.655-1.365,3.929-2.753l-2.581.4Zm-1.893-1.72-1.083,1.269c.866-.344.816,2.108,1.849.719Z" transform="translate(699.792 1774.259)" fill="#5779a3"/>
    <path id="Path_7097" data-name="Path 7097" d="M-564.273,454.669l3.449-.6-2.1,2.526a3.87,3.87,0,0,1,.586,1.456c-.009.226-.738.55-1.169.605a31.653,31.653,0,0,0-8.585,2.515,8.07,8.07,0,0,1-1.967.243l-1.062,1.147c-.192-.285-.364-.538-.537-.791-1.558,1.666-1-.572-1.962-1.055l.158,3.184-5.614,3.329.017.017a19.378,19.378,0,0,0,.2-2.141,8.4,8.4,0,0,0-.44-1.681l-.765,3.079c.367,1.674.353,1.644-1.636,2.608-.349.17-.443.861-.793,1.036a18.847,18.847,0,0,0-3.624,2.994l-.4-.565-.127,1.137-.62.624a4.682,4.682,0,0,0-1.627.124c-.186.082-.071.851-.093,1.308l-3.108,2.521-1.712-1.906.292-.26,1.425.637c.085-1.172.5-2.255-1.425-2.413,2.261-2.041,4.145-4.154,6.426-5.672,1.833-1.219,3.025-3.144,5.026-4.079.441-.206.938-.286,1.4-.449.244-.087.587-.166.686-.355,1.044-1.977,2.966-2.641,4.86-3.413a15.984,15.984,0,0,0,2.426-1.58c-.444,1.264.08,1.521,1.148,1.289l-1.043-1.63c.807,0,1.506-.214,1.86.045.733.534.927.073,1.4-.324,1.148-.959,2.4-1.789,3.822-2.823l.073,1.157c.556-1.375,1.709-1.3,2.811-1.337a5.231,5.231,0,0,1-.455,1.162,9.559,9.559,0,0,1-1.055,1.126l2.644-.393Z" transform="translate(696.65 1773.749)" fill="#5779a3"/>
    <path id="Path_7098" data-name="Path 7098" d="M-570.4,500.37c2.35-.493,4.692-1.035,7.06-1.419.327-.053.781.682,1.325,1.193l3.712.267-.206-1.679c.876.291,1.7.564,2.526.841a1.943,1.943,0,0,0,.366.155c1.313.144,2.634.232,3.937.436.386.061.721.441,1.079.675l-1.5.408,2.2,1.664.237-1.736c.749-.281,1.24-.188,1.443.758a11.745,11.745,0,0,0,.741,1.988c.281.673,1.76.544,2.32-.224a6.666,6.666,0,0,0,.508-1.016c2.061.329,2.433,1.947,2.766,3.629.851-1,1.594-1.155,1.848-.466.207-.283.413-.566.808-1.109v2.924l.258-.008.375-1.994.471-.178,1.356,2.132c2.349-.43,2.4-.406,4.46,2.026l1.907-.613-.409,1.728,1.075-.936c.531.424,1.089.852,1.625,1.308a8.714,8.714,0,0,1,.688.725,8.194,8.194,0,0,1-1,.246c-.161.021-.341-.1-.824-.248l.389,2.243c-1.388.509-2.418-.484-3.544-1.027a52.631,52.631,0,0,1-4.842-2.5,14.422,14.422,0,0,1-2.263-2.211l-.34.753c-2.188-.392-3.128-1.067-3.324-2.249l-1.217.292-.48-2.407c-.555.3-1.644.434-.832,1.946l-.422-.005c-.371-.383-.762-.75-1.11-1.152-.442-.511-.853-1.034-1.431-.153l.02-.02-2.731-.74-.471-1.872-.424-.027-.47,1.116a9.134,9.134,0,0,0-1.14-.983c-.242-.152-.824-.228-.9-.111-1.115,1.738-2.471.166-3.686.234-.261.015-.57-.86-.916-1.419l-2.537-.335-.128.481.972.861-9.27,2.062.843-2.272C-570.81,502.161-570.721,501.314-570.4,500.37Zm16.972,2.128.185.527.223-.076-.232-.6.062-.845-1.95-.957-.849,1a12.513,12.513,0,0,1,1.389.353A11.9,11.9,0,0,1-553.428,502.5Zm3.807,1.629c1.493.211,1.677,0,1.2-1.294ZM-531.5,512.1l.561.358.751-1.173-.451-.306Zm-31.336-9.477.56-.337-.719-1.138-.433.244Zm32.086,10.854.5.575a5.734,5.734,0,0,0,.63-.507c.019-.019-.221-.4-.3-.385A4.481,4.481,0,0,0-530.746,513.475Zm-25.794-14.063-.319.047.1.783.326-.057Zm2.057.64-.17-.194c-.06.065-.181.153-.167.189a.977.977,0,0,0,.2.252ZM-539.731,508c.036-.028.1-.054.1-.087s-.05-.073-.078-.109c-.036.029-.1.054-.1.087S-539.759,507.965-539.731,508Z" transform="translate(697.747 1775.549)" fill="#5779a3"/>
    <path id="Path_7099" data-name="Path 7099" d="M-506.316,489.027l11.666-.4.607,1.091c.425-.4.8-.741,1.173-1.1.273-.261.516-.745.8-.77a25.97,25.97,0,0,0,7.684-2.373c2.6-1.087,5.1-2.423,7.891-3.768l2.328,3.163c-4.6,3.218-9.7,4.894-15.025,6.6l.158-1.124-.316-.087-.418,1.361-5.448,1.017-.339-.5,1.831-.832-1.778-.68c-.094,1.633-1.013,2.351-2.636,2.326-2.361-.035-4.721-.008-7.1-.008l.032-.629-1.549.43C-505.823,491.6-506.479,490.263-506.316,489.027Zm18.9-.158,2.191.629,1.058-1.27a7.584,7.584,0,0,1-1.292-.105,3.67,3.67,0,0,1-.757-.369Z" transform="translate(700.321 1774.863)" fill="#5779a3"/>
    <path id="Path_7100" data-name="Path 7100" d="M-520.708,456.017l2.069-.233-.947,1.8c.8,0,1.48,0,2.16,0q.507.268,1.01.541l.167-.49-.941-.241-.041-.826-.02.019c2.289.649,4.561,1.364,6.871,1.924,1.487.36,3.028.492,4.545.726.144.155.286.311.429.466l.317-.424,2.508.238c.107.18.273.527.311.514,1.134-.4,1.2.306,1.184,1.109-.006.376,0,.751,0,.992l1.847.908a36.652,36.652,0,0,1-3.816.5,28.476,28.476,0,0,1-3.5-.3l.317-.749c-1.351,1.652-2.8.29-4.211.34l.108-1.317-.3-.057-.233,1.235-.891-.21.13-1.53-.41-.047-.552,1.549c-.511-1.3-2.224-.447-2.445-1.91v-.014l.222-.255-.438.027-.025.483c-.121.212-.3.624-.354.609a16.192,16.192,0,0,1-2.3-.793c-.253-.115-.379-.517-.55-.8-.2-.315-.377-.64-.665-1.131l-.511.836-2.832-.6,1.277-1.052c-.5-.48-.991-.958-1.452-1.4l-.73,1.848-4.211-2.331c-.146-.234-.378-.61-.612-.983-.109-.215-.216-.432-.325-.649l-.213.124.361.651c-.177.216-.436.646-.517.615a5.887,5.887,0,0,1-1.8-.9c-.459-.4-.7-1.057-1.489-.695l-.3-.668-1.756-.71-.243-1.09.984-.2-.087,1.237.546.079c.111-.726.187-1.462.353-2.175a2.721,2.721,0,0,1,.506-.776c1.876.8,3.761,1.579,5.624,2.408a18.575,18.575,0,0,1,2.3,1.241,1.434,1.434,0,0,1,.588.817c.289,1.322.729,1.646,1.977,1.069.708-.327.865-.22.818.487-.01.116-.023.232-.035.348Zm6.412,4.352.16-.2-.142-.011c0,.08,0,.16,0,.24l-.234.119Zm-3.468-.82.506-.309a2.057,2.057,0,0,0-.226-.284,5.378,5.378,0,0,0-.549.385l-.075.327Zm-2.243-1.412-.585.65.253.238q.322-.281.641-.563l.082-.341Zm14.668,4.86.1-.086-.089-.1-.107.134Z" transform="translate(699.202 1773.577)" fill="#5779a3"/>
    <path id="Path_7101" data-name="Path 7101" d="M-505.591,503.774l2.562.046.409.2-1.326,1.027.214.312,3.247-.33-.547,1.706.246.105.9-1.464,1.247,1.707.449-.077.29-2.176a12.746,12.746,0,0,1-1.4-.115c-.125-.023-.2-.291-.3-.446a5.85,5.85,0,0,1,1.521-.631,50.543,50.543,0,0,0,17.615-5.026c1.26-.637,2.465-1.386,3.884-2.191.758,1.024,1.554,2.1,2.481,3.344-9.287,5.918-19.351,8.358-30.116,8.3.327-.187.652-.38.983-.561.478-.262.959-.516,1.706-.917-2.543-.841-4.383-.444-4.378.731.994-.682,1.1-.084,1.066.724l-1.737-.237c-.118-.458-.1-1.051-.382-1.344-.6-.613-.665-.6-.086-1.084.281-.234.53-.508.793-.764Z" transform="translate(700.293 1775.456)" fill="#5779a3"/>
    <path id="Path_7102" data-name="Path 7102" d="M-573.735,502.893l.494-.926,1.337.88c.208.383.416.766.656,1.206l.45-1.4c.193.093.563.216.553.273a5.052,5.052,0,0,1-.375,1.311,6.331,6.331,0,0,1-.727.99l-.582-.036c-.085.116-.172.232-.257.347-3.715,2.118-7.451,4.2-11.13,6.379a22.575,22.575,0,0,0-2.415,2.067,8.26,8.26,0,0,1-5.179,1.657v.92l1.679-.223.075.373c-.705.378-.87,1.885-2.227.938-.062-.043-.431.193-.419.231.086.3.231.593.065.531l-3.894,4.61c-.338-.315-.579-.534-.812-.759-2.173-2.1-2.194-2.268-.078-4.31a41.953,41.953,0,0,1,4.7-4.278c1.868-1.318,3.13-3.5,5.688-3.926.571-.095.869-1.333,1.494-1.72,1.712-1.061,3.456-2.069,5.072-3.282.177-.133.543-.28.653-.2,1.52,1.14,1.882-.291,2.468-1.113.751-1.053,1.476-1.263,2.216-.55.435.547.867,1.1,1.308,1.639.123.151.273.279.411.417.1-.22.331-.567.265-.638C-572.708,503.8-573.232,503.356-573.735,502.893Zm-12.324,9.983c.41-1.1.392-1.983-1.3-2.314C-586.826,511.507-586.442,512.191-586.059,512.876Zm12.905-7.512-.059-.093c-.028.024-.074.047-.077.074s.034.062.054.094Z" transform="translate(696.639 1775.68)" fill="#5779a3"/>
    <path id="Path_7103" data-name="Path 7103" d="M-541.607,460.21l1.413,0c.431,1.13.861,2.26,1.33,3.49l1.956-1.661,1.133.226c-.187.858-.376,1.716-.569,2.6h.862l.594-2.083,3.557,1.8,1.7,3.618-.324.257-.937-.562c-.459.335-.809.8-1.2.832-.932.081-1.472-.816-2.136-3.236l-.392-.061-.216,1.982c-1.7-.826-3.5-1.685-5.276-2.592-.172-.087-.165-.483-.289-.709a6.884,6.884,0,0,0-.494-.7l-.552.719-1.379-.689.919-.3.45.256.071-.19-.537-.049-.8-1.1.769-.921h-1.6l-.441,1.317-1.39-.7q-.1-1.173-.2-2.35l-.286-.021-.719,1.487-.387-.051.491,1.169-2.925-1.229.155-1.777-1.2,1.34c-1.832-1-5.068.237-5.338-3.305-.473.52-.9,1.374-1.525,1.567s-1.436-.445-2.168-.45a20.169,20.169,0,0,0-2.911.358l-.325-1.79,1.279-.686c.194-.659-.951-1.821.75-1.729-.56,1.621-.466,2.142.255,2.585.422-.486.816-.9,1.167-1.351.252-.321.449-.687.671-1.033l1.061.152a3.534,3.534,0,0,0-.236.771c-.039.5-.012,1.009-.012,1.514l.391.009a7.858,7.858,0,0,1,.523-1.567c.175-.308.675-.708.91-.643a1.808,1.808,0,0,1,1.077.877c.337.779.712.771,1.236.28.773-.724,1.386-.739,1.665-.03l3.005.565-.244.99a5.727,5.727,0,0,0,1.454.854c.8.165,1.651.109,2.472.213a1.532,1.532,0,0,1,1.155.708l1.083-.162c-.12.613-.245,1.229.756.925l.368.268.426,1.665.495-.163Zm9.28,4.791-.276-.645-.195.051.155.873c-.045.8-.111,1.6-.117,2.407a.758.758,0,0,0,.351.509c.076.05.4-.091.445-.211.313-.755,1.53-1.572-.108-2.265C-532.229,465.652-532.244,465.246-532.327,465Z" transform="translate(698.064 1773.757)" fill="#5779a3"/>
    <path id="Path_7104" data-name="Path 7104" d="M-498.991,459.095l7.275-.973c-.028.224-.062.51-.053.434,1.632-.65,3.4-1.306,5.129-2.053,3.275-1.415,6.529-2.883,9.934-4.391l2.259,3.255-5.148,2.575q.306-1.765.614-3.53l-.229-.058c-.474,1.141-.949,2.281-1.483,3.569h1.118a56.972,56.972,0,0,0-6.767,2.673c-1.054.566-1.405.275-2.2-.934.328,2.107-.882,2.121-1.847,2.29-2.79.487-5.591.92-8.394,1.324-.317.046-.68-.227-1.022-.352.155-.469.31-.939.472-1.428.143,0,.325-.057.423.009.506.343,1.118.711,1.281-.179a2.972,2.972,0,0,0-.535-1.659C-498.3,459.4-498.7,459.281-498.991,459.095Z" transform="translate(700.601 1773.67)" fill="#5779a3"/>
    <path id="Path_7105" data-name="Path 7105" d="M-507.171,506.521l-1.6-.418.107,1.058.022-.022c-.842-.011-1.692.043-2.525-.05-1.3-.145-2.65-.319-2.332-2.43-.915,1.8-1.912,1.7-3.01.509q.311-.588.623-1.175l-.532-.2-.216,1.261c-.739-.229-1.48-.445-2.214-.687-1.292-.427-2.6-.826-3.863-1.319-.905-.352-1.759-.837-2.711-1.3l.583-.767-3.813-.566.91-.882h0l.24.392.428-.652a6.143,6.143,0,0,1,1.023-.6c.577-.206,1.186-.322,1.887-.5l1.441.919c-.6.506-1.223,1.036-1.851,1.566l.125.393a6.589,6.589,0,0,0,1.589-.625,4,4,0,0,0,.779-1.189c.321.223.849.7.931.629,1.144-.943,1.015.546,1.561.776,1.836-1.276,1.308.937,1.882,1.33l.992-.831.509,1.243c.65-.96,1.452-1.148,2.251.069l-.57,1.044.406.166.377-1.01a4.284,4.284,0,0,1,.933.865c.548.947,1.672.755,1.859.284.443-1.119,1.017-.731,1.68-.506.59.2,1.172.424,1.759.639l.54.921.037.038Z" transform="translate(699.438 1775.526)" fill="#5779a3"/>
    <path id="Path_7106" data-name="Path 7106" d="M-585.356,495.783c.385,1.192.86,2.186-.685,3.2a55.346,55.346,0,0,0-5.166,4.481,4.367,4.367,0,0,1-1.259.536l-2.187,2.862q-.125-.24-.247-.483l-.343.223.353.483-.708,1.074c-.878-1.5-2.735-1.8-2.825-3.894l1.626.693c-.373-2.169,1.188-3.137,2.434-4.262,1.48-1.338,3.028-2.6,4.639-3.975l.881,1.916.357-.078.3-1.942-1.388-.135,1.821-1.186,1.184-.057-.011-.011-.643,1.871c1.315.373,1.7.13,1.636-1.1Z" transform="translate(696.625 1775.408)" fill="#5779a3"/>
    <path id="Path_7107" data-name="Path 7107" d="M-544.247,477.56l-4.555-1.748c1.722-.276,3.046-.57,4.384-.654.442-.027.785.206.822-.433a3.072,3.072,0,0,1,1.189.233,6.172,6.172,0,0,1,1.025,1.186c1.811-.739,5.219.278,5.967,1.78l-.745-.334-.434.231q.593,1.656,1.187,3.309l.3-.139-.335-2.944c.23.014.46.045.69.036.664-.022.637.026.636.828a5.577,5.577,0,0,0,.469,1.48l1.262-1.073,3.549,1.428-1.3.612.009.016-.333.007-1.694-1.085-.5,1.474-.406-.124.226,1.376c-1.55.314-.38-1.435-1.445-1.634l-.555,1.2-1.916-1.937-.616.518-.236-1.271h-2.2c.269-.673.932-1.467-.474-1.626-.2-.022-.328-.6-.527-1l-1.046,1.423-1.306-.458c-.432-.726-.752-1.267-1.074-1.808l-.457.249.439.885Zm4.186-1.2-.191.153c.028.033.064.1.083.094a1.22,1.22,0,0,0,.213-.09Z" transform="translate(698.626 1774.581)" fill="#5779a3"/>
    <path id="Path_7108" data-name="Path 7108" d="M-527.1,499.828q-.456.442-.91.882c-.237-.044-.583,0-.695-.145-1.132-1.43-3.043-1.452-4.392-2.477-.581-.441-1.194-.841-1.917-1.346l-.138.156-2.892-1.552.072-.376,0-.6-.093-.057.568-.326-.705-.6a2.328,2.328,0,0,0-.655-.3c-.869-.1-1.938,1.769-2.542-.493l-.748,1.082-2.549-1.4c.412-.5.824-1,1.267-1.529l.355.58c.725,0,1.3-.16,1.656.046.344.2.469.776.706,1.216l1.035-1.577c.169.085.4.288.5.237,1.051-.517,1.542-.256,1.476.955,0,.055.489.26.619.18,1.28-.783,1.994,0,2.782.857a4.783,4.783,0,0,0,1.37.739l-.162,1.114c.872.36,1.44,1.845,2.667.565l.5,2.468.85-1.117,1.551,2.066Zm-9.727-5.386c.076-.037.187-.056.209-.112s-.04-.149-.065-.225l-.277.141Zm-5-2.164-.082-.255c-.032.022-.088.042-.093.069a1.889,1.889,0,0,0-.005.256Z" transform="translate(698.791 1775.227)" fill="#d1e5e9"/>
    <path id="Path_7109" data-name="Path 7109" d="M-538.543,449.146l-.607,1.511-6.272-3.1.758-2.847-1.122.121.2-.2-.206-.091-.544-.783q-.284-.615-.569-1.23c1.458.611,1.458.611,3.054,2.723.078-.365.157-.729.287-1.328l3.227,1.47-.176,1.78c2.372-.643,4.3.166,6.183,1.174l-2.823.2-.222-1.12Z" transform="translate(698.702 1773.283)" fill="#5779a3"/>
    <path id="Path_7110" data-name="Path 7110" d="M-521.2,484.888c.24-.016.566-.139.706-.029.646.514,1.241,1.092,2.019,1.8a3.35,3.35,0,0,0-1.014.019,3.546,3.546,0,0,0-.748.569c.3.173.62.523.881.482.552-.088,1.293.2,1.55-.79.086-.332,1-.447,1.677-.4l-.58.663a17.314,17.314,0,0,0,1.5,1.8c.205.189.679.088,1.03.12.047.586.805,1.3-.292,1.682h-2.217l.613-2.123c-1.156.3-1.451,2.032-2.878,1.236-1.247-.7-2.58-1.24-3.8-1.99.065-.824,1.994-.056.875-1.351Zm.444,1.646c.031-.032.086-.065.087-.1s-.051-.07-.079-.105c-.032.032-.088.062-.09.1S-520.792,486.5-520.761,486.534Zm.422.468c-.028-.031-.062-.093-.082-.088a.838.838,0,0,0-.178.077c.027.032.06.093.081.088A.672.672,0,0,0-520.338,487Z" transform="translate(699.676 1774.988)" fill="#5779a3"/>
    <path id="Path_7111" data-name="Path 7111" d="M-506.094,488.765c-.163,1.237.493,2.571-.441,3.716h-2.616l-.13.357c-.253-.2-.448-.5-.664-.512-.452-.035-.832-.974-1.394-.142a5.959,5.959,0,0,1-.91-.431c.151-.7.3-1.4.525-2.443l.944,1.729.842-2.551c.266-.1.549-.312.8-.278C-508.12,488.355-507.11,488.573-506.094,488.765Z" transform="translate(700.099 1775.125)" fill="#d1e5e9"/>
    <path id="Path_7112" data-name="Path 7112" d="M-546.573,442.575q.286.615.569,1.23l-.878.766-.758.566-.594-2.27c-.981.138-1.991.14-1.7,1.6.057.285-.333.658-.516.99l-.331-.026-.346-2.362-.519-.073a5.823,5.823,0,0,0-.266.974,8.776,8.776,0,0,0,.033,1.179l-.923-.306c.591-1.282-.3-1.309-1.146-1.323a8.907,8.907,0,0,0-1.243.174c.451-.923,1.714-1.29.941-2.36l-.021.024c.763-.172,1.738,1.454,2.317-.275a6.526,6.526,0,0,1,3.222,1.109C-548.248,442.6-547.307,442.465-546.573,442.575Z" transform="translate(698.368 1773.225)" fill="#d1e5e9"/>
    <path id="Path_7113" data-name="Path 7113" d="M-522.127,486.656l-.752.473c-.288-1.025,1.117-2.724-1.3-2.629a7.767,7.767,0,0,1,.528,1.814c.019.355-.394.731-.613,1.1-.178-.333-.374-.657-.53-1-.2-.439-.37-.892-.553-1.339l-.422.142.112,1.812-3.433-1.666-.152-.342c1.678-.181,3.217-.543,3.619-2.629l3.428,1.658Q-522.163,485.352-522.127,486.656ZM-525.709,484l.476.351c.145-.3.294-.6.423-.906.015-.033-.092-.118-.213-.266Z" transform="translate(699.414 1774.891)" fill="#5779a3"/>
    <path id="Path_7114" data-name="Path 7114" d="M-538.867,448.956l1.166-1.728.222,1.12,2.823-.2c1.13.215,2.258.434,2.626,1.775a2.724,2.724,0,0,0-.506.776c-.165.714-.241,1.449-.353,2.175l-.546-.079.087-1.237-.984.2.243,1.09-.864-.206,1.054-2.875c-1.332-1-2.609-.655-3.9.144-.234.145-.615.053-.927.071Z" transform="translate(699.026 1773.473)" fill="#d1e5e9"/>
    <path id="Path_7115" data-name="Path 7115" d="M-498.829,458.824c.286.186.691.309.831.572a2.972,2.972,0,0,1,.535,1.659c-.162.889-.775.522-1.281.179-.1-.067-.281-.009-.423-.009-.162.489-.317.959-.472,1.428l-.837.019-1.847-.908c0-.241-.005-.617,0-.992.012-.8-.05-1.511-1.184-1.109-.038.013-.2-.334-.311-.514l1.62-.21c.342.565.684,1.13,1.048,1.727.279-.165.643-.546,1.043-.588.88-.091.7-.581.568-1.111Z" transform="translate(700.439 1773.941)" fill="#d1e5e9"/>
    <path id="Path_7116" data-name="Path 7116" d="M-527.977,498.941l-1.551-2.066-.85,1.117-.5-2.468c-1.227,1.281-1.8-.2-2.667-.565l.162-1.114c.194.122.387.241.58.363.323.207.655.607.967.591,1.752-.087,3.015.869,4.287,1.847l-.864-.125-.132.3,1.034.828Z" transform="translate(699.241 1775.352)" fill="#5779a3"/>
    <path id="Path_7117" data-name="Path 7117" d="M-521.806,469.544l-3.9.613,1.326-1.938,4.53,2.1-1.447.869.165,2.2-.819-.779-1.442.33a4.947,4.947,0,0,1,.269-1.162C-522.785,471.1-522.357,470.463-521.806,469.544Z" transform="translate(699.557 1774.319)" fill="#5779a3"/>
    <path id="Path_7118" data-name="Path 7118" d="M-538.733,449.905c.312-.018.693.074.927-.071,1.293-.8,2.571-1.144,3.9-.144l-1.054,2.875c-1.109-.532-2.242-1.022-3.309-1.628C-538.532,450.787-538.583,450.26-538.733,449.905Z" transform="translate(699.032 1773.547)" fill="#5779a3"/>
    <path id="Path_7119" data-name="Path 7119" d="M-499.738,503.981c.1.155.18.423.3.446a12.743,12.743,0,0,0,1.4.116l-.29,2.176-.449.077-1.247-1.707-.9,1.464-.246-.105.547-1.706-3.247.33-.214-.312,1.326-1.027-.409-.2Z" transform="translate(700.428 1775.743)" fill="#d1e5e9"/>
    <path id="Path_7120" data-name="Path 7120" d="M-572.36,505.289a6.341,6.341,0,0,0,.727-.99,5.052,5.052,0,0,0,.375-1.311c.009-.056-.36-.18-.553-.273l-.451,1.4-.657-1.206a2.96,2.96,0,0,1,2.613-2.607c-.321.944-.41,1.79.893,1.984l-.843,2.272Z" transform="translate(697.653 1775.613)" fill="#d1e5e9"/>
    <path id="Path_7121" data-name="Path 7121" d="M-521.746,514.745l-1.495,3.223a11.67,11.67,0,0,1-1.416-1.8,8.392,8.392,0,0,1-.556-1.867c1.061.707.672-.8,1.255-1.629a4.576,4.576,0,0,1,.465,1.45c-.032.421-.357.82-.292,1.366l1.668-1.078Z" transform="translate(699.577 1776.111)" fill="#5779a3"/>
    <path id="Path_7122" data-name="Path 7122" d="M-509.846,488.525l-.842,2.551-.944-1.729c-.225,1.04-.375,1.741-.525,2.443l-.557-.075-.183-3.3-.992.446.47-.484-1-.29-.134-.467.623-.3,2.485.576-.98,1.161C-511.2,489.146-510.928,487.2-509.846,488.525Z" transform="translate(700.006 1775.089)" fill="#5779a3"/>
    <path id="Path_7123" data-name="Path 7123" d="M-533.45,482.808l-.226-1.376.406.124.5-1.474,1.694,1.085.333-.007-.009-.016,1.106.6-1.094,1.221-.564-.176.264.9-.518.37Z" transform="translate(699.235 1774.798)" fill="#d1e5e9"/>
    <path id="Path_7124" data-name="Path 7124" d="M-550.634,445.392c.183-.332.573-.705.516-.99-.291-1.464.719-1.466,1.7-1.6l.594,2.27.758-.566c.088.743.178,1.486.279,2.332Zm1.345-.352c.16-.249.337-.41.308-.51a.474.474,0,0,0-.378-.266.458.458,0,0,0-.317.321C-549.684,444.693-549.489,444.817-549.289,445.04Z" transform="translate(698.552 1773.294)" fill="#5779a3"/>
    <path id="Path_7125" data-name="Path 7125" d="M-530.823,482.907l1.094-1.221a11.286,11.286,0,0,1,2.13-.208c.3.023.85.607.8.792a8.2,8.2,0,0,1-.893,1.656l-1.327-1.133c-.3.2-1.142.481-1.428,1.041-.44.865-.756.43-1.19.165l.518-.37Z" transform="translate(699.317 1774.853)" fill="#5779a3"/>
    <path id="Path_7126" data-name="Path 7126" d="M-579.3,489.311v2.2l-1.42-.111c.4,1.258-.629,1.652-1.276,2.476-.091-1.083-.169-1.979-.245-2.874Z" transform="translate(697.278 1775.17)" fill="#d1e5e9"/>
    <path id="Path_7127" data-name="Path 7127" d="M-565.423,454.646l-1.218,2.406-2.644.393a9.558,9.558,0,0,0,1.055-1.126,5.223,5.223,0,0,0,.455-1.162Z" transform="translate(697.8 1773.772)" fill="#d1e5e9"/>
    <path id="Path_7128" data-name="Path 7128" d="M-542.244,493.6l.748-1.082c.6,2.262,1.674.391,2.542.493a2.328,2.328,0,0,1,.655.3l.137.926.093.057,0,.6-.072.376-1.089-.61Z" transform="translate(698.89 1775.299)" fill="#5779a3"/>
    <path id="Path_7129" data-name="Path 7129" d="M-537.782,461.806l-1.956,1.661c-.468-1.231-.9-2.361-1.33-3.49Z" transform="translate(698.937 1773.987)" fill="#d1e5e9"/>
    <path id="Path_7130" data-name="Path 7130" d="M-507.948,473.762l.271,3.181-2.5-2.356.318-.827Z" transform="translate(700.183 1774.543)" fill="#d1e5e9"/>
    <path id="Path_7131" data-name="Path 7131" d="M-514.411,488.053l1,.29-.47.484.992-.446.183,3.3c-.649-.434-1.832.233-2.089-1.011,1.1-.387.339-1.1.292-1.682Zm.919,2.39c.027-.028.076-.054.077-.084s-.044-.061-.068-.093c-.028.028-.077.055-.079.084S-513.519,490.411-513.493,490.443Z" transform="translate(699.997 1775.119)" fill="#d1e5e9"/>
    <path id="Path_7132" data-name="Path 7132" d="M-504.9,507.663c.037-.808-.073-1.406-1.066-.724-.005-1.176,1.835-1.572,4.378-.731-.747.4-1.229.654-1.706.916-.331.181-.656.374-.983.561Z" transform="translate(700.353 1775.833)" fill="#d1e5e9"/>
    <path id="Path_7133" data-name="Path 7133" d="M-546.333,474.335c-1.488.231-1.488.231-2.408-2.509A2.316,2.316,0,0,1-546.333,474.335Z" transform="translate(698.628 1774.465)" fill="#5779a3"/>
    <path id="Path_7134" data-name="Path 7134" d="M-507.8,504.622l-.54-.921,1.783.017.337.6c-.263.256-.512.53-.793.764-.578.483-.512.471.086,1.084.286.293.264.886.382,1.344-.423-.016-.847-.025-1.269-.048a1.537,1.537,0,0,1-.345-.129c.053-.333.109-.683.165-1.034l.231-1.639.214-.273Z" transform="translate(700.257 1775.75)" fill="#b1d3db"/>
    <path id="Path_7135" data-name="Path 7135" d="M-595.446,459.369a7.947,7.947,0,0,0,.261,1.151,13.6,13.6,0,0,0,.636,1.286c-.686,1.308-.917,1.435-1.492.815l-.573-2.785Z" transform="translate(696.698 1773.963)" fill="#d1e5e9"/>
    <path id="Path_7136" data-name="Path 7136" d="M-558.666,454.476c-.222.346-.419.712-.671,1.033-.352.449-.745.866-1.167,1.351-.721-.443-.815-.964-.255-2.585Z" transform="translate(698.129 1773.757)" fill="#d1e5e9"/>
    <path id="Path_7137" data-name="Path 7137" d="M-557.652,439.63l2.32,1.366-1.719.874-.981-1.387-.568,1.175-.271-.064q.139-1.091.277-2.183Z" transform="translate(698.22 1773.158)" fill="#d1e5e9"/>
    <path id="Path_7138" data-name="Path 7138" d="M-480.156,468.4l.527,1.915.6-.251.256.279-2.668,2.31-.448-.285a3.783,3.783,0,0,0,1.277-3.662l-.01.018.47-.3Z" transform="translate(701.323 1774.326)" fill="#d1e5e9"/>
    <path id="Path_7139" data-name="Path 7139" d="M-572.256,490.33c-.694-1.56-.077-2.74,1.081-3.787v3.182l.013-.019-.309.3Z" transform="translate(697.668 1775.058)" fill="#d1e5e9"/>
    <path id="Path_7140" data-name="Path 7140" d="M-595.364,459.391l-1.168.466-.886,1.318c-1.623-.668-1.629-1.025-.04-2.348.349.073.7.131,1.045.225S-595.714,459.276-595.364,459.391Z" transform="translate(696.616 1773.941)" fill="#b1d3db"/>
    <path id="Path_7141" data-name="Path 7141" d="M-592.874,460.093c-.59-.478-.918-.914-.083-1.527a9.974,9.974,0,0,0,1.316-1.436l.464,1.19Z" transform="translate(696.825 1773.872)" fill="#d1e5e9"/>
    <path id="Path_7142" data-name="Path 7142" d="M-555.9,469.593l-1.034,2.54a2.932,2.932,0,0,1-.809-2.8Z" transform="translate(698.262 1774.364)" fill="#b1d3db"/>
    <path id="Path_7143" data-name="Path 7143" d="M-499.6,458.962c.132.531.312,1.02-.568,1.111-.4.042-.765.422-1.043.588-.363-.6-.705-1.162-1.048-1.727Z" transform="translate(700.502 1773.945)" fill="#5779a3"/>
    <path id="Path_7144" data-name="Path 7144" d="M-542.633,462.862l-.919.3-1.167-.985c.135-.4.271-.809.441-1.317h1.6l-.769.921.8,1.1Z" transform="translate(698.79 1774.023)" fill="#d1e5e9"/>
    <path id="Path_7145" data-name="Path 7145" d="M-555.927,484.521c.371.934.5,1.709-.914,1.762-.163.006-.307.529-.807.743q.379-1.376.76-2.752Z" transform="translate(698.269 1774.966)" fill="#d1e5e9"/>
    <path id="Path_7146" data-name="Path 7146" d="M-547.1,461.779l-.491-1.169.387.051.719-1.487.286.021q.1,1.175.2,2.35Z" transform="translate(698.675 1773.955)" fill="#d1e5e9"/>
    <path id="Path_7147" data-name="Path 7147" d="M-523.831,458.033l.73-1.848c.461.445.957.924,1.452,1.4l-1.277,1.052Z" transform="translate(699.632 1773.834)" fill="#d1e5e9"/>
    <path id="Path_7148" data-name="Path 7148" d="M-510.488,522.015c-.1-.481-1.294-1.324.413-1.271.042,0,.115-1.043.183-1.688.947,1.363.868,2.056-.274,3.062Z" transform="translate(700.15 1776.369)" fill="#d1e5e9"/>
    <path id="Path_7149" data-name="Path 7149" d="M-535.916,477.936l.335,2.944-.3.139q-.595-1.654-1.187-3.309l.434-.231.745.334Z" transform="translate(699.099 1774.693)" fill="#d1e5e9"/>
    <path id="Path_7150" data-name="Path 7150" d="M-522.4,486.592q-.036-1.3-.072-2.607l1.256.936-.674,1.687Z" transform="translate(699.687 1774.955)" fill="#d1e5e9"/>
    <path id="Path_7151" data-name="Path 7151" d="M-574.66,502.857c.5.463,1.027.907,1.489,1.408.065.071-.17.418-.265.638-.137-.138-.288-.266-.411-.417-.441-.542-.873-1.092-1.308-1.639Z" transform="translate(697.563 1775.715)" fill="#d1e5e9"/>
    <path id="Path_7152" data-name="Path 7152" d="M-593.18,474.989c.022-.457-.094-1.226.093-1.308a4.682,4.682,0,0,1,1.627-.124Z" transform="translate(696.836 1774.534)" fill="#d1e5e9"/>
    <path id="Path_7153" data-name="Path 7153" d="M-552.006,445.078a8.775,8.775,0,0,1-.033-1.179,5.821,5.821,0,0,1,.266-.974l.519.073.347,2.362Z" transform="translate(698.495 1773.3)" fill="#5779a3"/>
    <path id="Path_7154" data-name="Path 7154" d="M-535.91,462.468l-.594,2.083h-.862c.193-.882.382-1.74.569-2.6Z" transform="translate(699.087 1774.067)" fill="#b1d3db"/>
    <path id="Path_7155" data-name="Path 7155" d="M-597.466,461.135l.886-1.318.573,2.785Z" transform="translate(696.664 1773.98)" fill="#5779a3"/>
    <path id="Path_7156" data-name="Path 7156" d="M-584.315,452.768l-1.367-2.03.313-.309,1.828,1.789Z" transform="translate(697.139 1773.602)" fill="#b1d3db"/>
    <path id="Path_7157" data-name="Path 7157" d="M-527.7,497.544l-1.034-.828.132-.3.864.125,1.175.406h0l-.074,1.083Z" transform="translate(699.435 1775.456)" fill="#d1e5e9"/>
    <path id="Path_7158" data-name="Path 7158" d="M-543.063,459.749c-1,.3-.876-.312-.756-.925C-543.285,458.9-542.277,458.593-543.063,459.749Z" transform="translate(698.823 1773.941)" fill="#d1e5e9"/>
    <path id="Path_7159" data-name="Path 7159" d="M-542.412,459.98l.592,1.493-.5.163-.426-1.665Z" transform="translate(698.87 1773.987)" fill="#d1e5e9"/>
    <path id="Path_7160" data-name="Path 7160" d="M-586.982,495.265l-1.184.057,1.027-.665C-587.087,494.86-587.035,495.063-586.982,495.265Z" transform="translate(697.039 1775.385)" fill="#d1e5e9"/>
    <path id="Path_7161" data-name="Path 7161" d="M-583.335,451.825c-.12-.73.159-.936.828-.63Z" transform="translate(697.232 1773.627)" fill="#b1d3db"/>
    <path id="Path_7162" data-name="Path 7162" d="M-590.932,473l.127-1.137.4.565Z" transform="translate(696.927 1774.466)" fill="#d1e5e9"/>
    <path id="Path_7163" data-name="Path 7163" d="M-506.286,504.325l-.337-.6,1-.237Z" transform="translate(700.326 1775.741)" fill="#d1e5e9"/>
    <path id="Path_7164" data-name="Path 7164" d="M-513.929,487.322l-.623.3-.076-.444Z" transform="translate(700.003 1775.083)" fill="#d1e5e9"/>
    <path id="Path_7165" data-name="Path 7165" d="M-552.038,441.105l-.891-.293Z" transform="translate(698.459 1773.214)" fill="#d1e5e9"/>
    <path id="Path_7166" data-name="Path 7166" d="M-509.443,506.813h.685l-.1.35-.567-.371Z" transform="translate(700.212 1775.874)" fill="#5779a3"/>
    <path id="Path_7167" data-name="Path 7167" d="M-506.2,458.909l-.317.425c-.143-.155-.285-.311-.429-.466Z" transform="translate(700.313 1773.942)" fill="#d1e5e9"/>
    <path id="Path_7168" data-name="Path 7168" d="M-583.631,466.724l-.317.562-.2-.2.538-.341Z" transform="translate(697.201 1774.259)" fill="#5779a3"/>
    <path id="Path_7169" data-name="Path 7169" d="M-527.116,499.225l-.428.652-.24-.392Z" transform="translate(699.473 1775.569)" fill="#d1e5e9"/>
    <path id="Path_7170" data-name="Path 7170" d="M-530.628,466.516l.132-.224c.061.071.159.135.173.215.009.055-.1.13-.151.2Z" transform="translate(699.358 1774.242)" fill="#5779a3"/>
    <path id="Path_7171" data-name="Path 7171" d="M-570.088,444.551c-.057.046-.117.091-.176.134a.631.631,0,0,1-.078-.241c.006-.051.1-.092.163-.137Z" transform="translate(697.757 1773.355)" fill="#5779a3"/>
    <path id="Path_7172" data-name="Path 7172" d="M-549.519,505.122l.068.024-.048-.044Z" transform="translate(698.597 1775.806)" fill="#5779a3"/>
    <path id="Path_7173" data-name="Path 7173" d="M-533.672,478.491l-.113.046-.035-.153a.4.4,0,0,1,.12.026C-533.683,478.42-533.682,478.463-533.672,478.491Z" transform="translate(699.23 1774.729)" fill="#5779a3"/>
    <path id="Path_7174" data-name="Path 7174" d="M-582.475,450.962c.064-.122.128-.244.191-.366C-582.347,450.718-582.411,450.839-582.475,450.962Z" transform="translate(697.268 1773.609)" fill="#b1d3db"/>
    <path id="Path_7175" data-name="Path 7175" d="M-517.9,456.305l-.113-.085.094.1Z" transform="translate(699.867 1773.836)" fill="#5779a3"/>
    <path id="Path_7176" data-name="Path 7176" d="M-480.2,468.42l-.47.3Z" transform="translate(701.372 1774.327)" fill="#5779a3"/>
    <path id="Path_7177" data-name="Path 7177" d="M-486.88,475.174l-.033.127c.018-.035.035-.072.054-.107Z" transform="translate(701.121 1774.6)" fill="#5779a3"/>
    <path id="Path_7178" data-name="Path 7178" d="M-544.424,477.457l.034.032-.034-.04Z" transform="translate(698.802 1774.691)" fill="#5779a3"/>
    <path id="Path_7179" data-name="Path 7179" d="M-587.729,484.974l-.323.076.135-.3A1.143,1.143,0,0,1-587.729,484.974Z" transform="translate(697.043 1774.986)" fill="#5779a3"/>
    <path id="Path_7180" data-name="Path 7180" d="M-571.513,489.886l.309-.3Z" transform="translate(697.71 1775.181)" fill="#5779a3"/>
    <path id="Path_7181" data-name="Path 7181" d="M-572.91,441.919h.274l.015-.024h-.311Z" transform="translate(697.653 1773.258)" fill="#5779a3"/>
    <path id="Path_7182" data-name="Path 7182" d="M-526.648,496.933l.123-.117c-.007.026-.006.061-.023.074a.372.372,0,0,1-.1.043Z" transform="translate(699.519 1775.472)" fill="#d1e5e9"/>
    <path id="Path_7183" data-name="Path 7183" d="M-545.837,444.452l.206.091-.2.2Z" transform="translate(698.745 1773.361)" fill="#d1e5e9"/>
    <path id="Path_7184" data-name="Path 7184" d="M-573.188,505.408c.085-.115.172-.231.257-.347C-573.016,505.177-573.1,505.292-573.188,505.408Z" transform="translate(697.643 1775.804)" fill="#d1e5e9"/>
    <path id="Path_7185" data-name="Path 7185" d="M-511.35,520.823c-1.319-1.041-1.31-1.909.153-2.893Z" transform="translate(700.096 1776.323)" fill="#d1e5e9"/>
    <path id="Path_7186" data-name="Path 7186" d="M-572.322,474.967c-.062-.446.151-1.17-.763-.751-.044-.033-.085-.068-.126-.1a2.161,2.161,0,0,1-.195-.372c-.126-.419-.234-.844-.349-1.266l1.035.471,1.527-.388-1.082,2.466Z" transform="translate(697.62 1774.491)" fill="#d1e5e9"/>
    <path id="Path_7187" data-name="Path 7187" d="M-560.018,472.762l-3.172-.168C-561.21,471.323-560.918,471.358-560.018,472.762Z" transform="translate(698.046 1774.458)" fill="#d1e5e9"/>
    <path id="Path_7188" data-name="Path 7188" d="M-586.089,480.041l1.4-1.127.847,1.5-.364.2Z" transform="translate(697.122 1774.75)" fill="#d1e5e9"/>
    <path id="Path_7189" data-name="Path 7189" d="M-553.974,473.847l-.791-.894.087-.3,1.977.494-.089.56-1.207.123Z" transform="translate(698.385 1774.498)" fill="#d1e5e9"/>
    <path id="Path_7190" data-name="Path 7190" d="M-588.021,483.846l.533-.632.265.216-.543.666Z" transform="translate(697.045 1774.924)" fill="#fdfdfc"/>
    <path id="Path_7191" data-name="Path 7191" d="M-573.091,474.152l-.3.515-.222-.127q.2-.245.394-.491C-573.176,474.084-573.135,474.119-573.091,474.152Z" transform="translate(697.626 1774.554)" fill="#d1e5e9"/>
    <path id="Path_7192" data-name="Path 7192" d="M-557.4,472.955l.141-.177.034.173-.194-.023Z" transform="translate(698.278 1774.503)" fill="#fdfdfc"/>
    <path id="Path_7193" data-name="Path 7193" d="M-550.1,473.33l-.105.189c-.032-.032-.1-.073-.092-.1a.923.923,0,0,1,.092-.2Z" transform="translate(698.565 1774.521)" fill="#fdfdfc"/>
    <path id="Path_7194" data-name="Path 7194" d="M-550.651,473.616c0,.032.006.073-.01.095s-.061.029-.093.043l.017-.194Z" transform="translate(698.547 1774.535)" fill="#fdfdfc"/>
    <path id="Path_7195" data-name="Path 7195" d="M-562.711,442.828c.063-.619-.1-1.556.236-1.793.745-.527,1.8-.951,2.174.555l.806-.452c.088.1.206.19.193.215-.163.3-.288.78-.534.856a19.468,19.468,0,0,1-2.353.46Z" transform="translate(698.065 1773.204)" fill="#fdfdfc"/>
    <path id="Path_7196" data-name="Path 7196" d="M-579.1,445.585l-.053.924-.38-.129.381-.847Z" transform="translate(697.387 1773.405)" fill="#fdfdfc"/>
    <path id="Path_7197" data-name="Path 7197" d="M-572.923,441.895h.311c-.094.353-.186.705-.28,1.058l-.281-.075Z" transform="translate(697.643 1773.258)" fill="#fdfdfc"/>
    <path id="Path_7198" data-name="Path 7198" d="M-565.111,443.379l.329-.531a1.259,1.259,0,0,1,.061.327C-564.724,443.214-564.848,443.245-565.111,443.379Z" transform="translate(697.968 1773.296)" fill="#fdfdfc"/>
    <path id="Path_7199" data-name="Path 7199" d="M-554.278,441.335l-.224-.057.1-.157.107.238Z" transform="translate(698.396 1773.227)" fill="#d1e5e9"/>
    <path id="Path_7200" data-name="Path 7200" d="M-546.655,489.841l-3.512-1.034.989-2.319-.019-.015c-.14,1.436,1.312,1.345,1.943,2.039a11.855,11.855,0,0,1,.805,1.115Z" transform="translate(698.571 1775.055)" fill="#d1e5e9"/>
    <path id="Path_7201" data-name="Path 7201" d="M-586.021,496c.059,1.23-.321,1.473-1.636,1.1l.643-1.871Z" transform="translate(697.059 1775.408)" fill="#d1e5e9"/>
    <path id="Path_7202" data-name="Path 7202" d="M-546.1,487.9l-.142.153c-.028-.076-.083-.155-.074-.226.007-.05.1-.089.155-.133Z" transform="translate(698.726 1775.104)" fill="#fdfdfc"/>
    <path id="Path_7203" data-name="Path 7203" d="M-551.881,488.614l.171.537-.431-.312Z" transform="translate(698.491 1775.141)" fill="#fdfdfc"/>
    <path id="Path_7204" data-name="Path 7204" d="M-574.431,487.561c-.033-.034-.095-.068-.095-.1s.057-.072.09-.107c.034.034.095.068.095.1S-574.4,487.526-574.431,487.561Z" transform="translate(697.589 1775.091)" fill="#fdfdfc"/>
    <path id="Path_7205" data-name="Path 7205" d="M-546.584,489.505l.107.214-.314,0Z" transform="translate(698.707 1775.177)" fill="#d1e5e9"/>
    <path id="Path_7206" data-name="Path 7206" d="M-496.352,476.142l1.348-2.356,2.581-.4C-493.7,474.777-494.29,476.431-496.352,476.142Z" transform="translate(700.74 1774.528)" fill="#d1e5e9"/>
    <path id="Path_7207" data-name="Path 7207" d="M-498.13,474.382l.766,1.988c-1.033,1.389-.983-1.063-1.849-.719Z" transform="translate(700.625 1774.568)" fill="#d1e5e9"/>
    <path id="Path_7208" data-name="Path 7208" d="M-509.43,476.912l-.05-.44.257-.007-.211.446Z" transform="translate(700.211 1774.652)" fill="#fdfdfc"/>
    <path id="Path_7209" data-name="Path 7209" d="M-486.988,474.777l.334.023-.107.218Z" transform="translate(701.118 1774.584)" fill="#fdfdfc"/>
    <path id="Path_7210" data-name="Path 7210" d="M-554,502.428a11.777,11.777,0,0,0-1.17-.606,12.521,12.521,0,0,0-1.389-.353l.849-1,1.95.957-.062.845C-553.877,502.328-553.935,502.379-554,502.428Z" transform="translate(698.313 1775.62)" fill="#fdfdfc"/>
    <path id="Path_7211" data-name="Path 7211" d="M-550.435,503.968l1.2-1.294C-548.758,503.972-548.942,504.179-550.435,503.968Z" transform="translate(698.56 1775.708)" fill="#fdfdfc"/>
    <path id="Path_7212" data-name="Path 7212" d="M-533.012,511.624l.861-1.121.451.306-.751,1.173Z" transform="translate(699.262 1776.024)" fill="#fdfdfc"/>
    <path id="Path_7213" data-name="Path 7213" d="M-563.111,502.528l-.592-1.231.433-.244.719,1.138Z" transform="translate(698.025 1775.643)" fill="#fdfdfc"/>
    <path id="Path_7214" data-name="Path 7214" d="M-532.291,512.916a4.48,4.48,0,0,1,.835-.316c.076-.015.315.366.3.385a5.742,5.742,0,0,1-.63.507Z" transform="translate(699.291 1776.109)" fill="#fdfdfc"/>
    <path id="Path_7215" data-name="Path 7215" d="M-557.073,499.386l.108.773-.326.057-.1-.783Z" transform="translate(698.279 1775.576)" fill="#fdfdfc"/>
    <path id="Path_7216" data-name="Path 7216" d="M-555.095,500.009l-.133.248a.978.978,0,0,1-.2-.252c-.013-.036.107-.125.168-.189Z" transform="translate(698.358 1775.593)" fill="#fdfdfc"/>
    <path id="Path_7217" data-name="Path 7217" d="M-553.918,502.206l.232.6-.223.076q-.092-.264-.186-.527C-554.035,502.309-553.976,502.258-553.918,502.206Z" transform="translate(698.412 1775.689)" fill="#fdfdfc"/>
    <path id="Path_7218" data-name="Path 7218" d="M-540.924,507.65c-.028-.036-.082-.077-.078-.109s.067-.058.1-.087c.028.036.082.077.078.109S-540.888,507.621-540.924,507.65Z" transform="translate(698.94 1775.901)" fill="#fdfdfc"/>
    <path id="Path_7219" data-name="Path 7219" d="M-488.163,488.634l1.2-1.115a3.668,3.668,0,0,0,.757.369,7.591,7.591,0,0,0,1.292.105l-1.058,1.27Z" transform="translate(701.07 1775.097)" fill="#d1e5e9"/>
    <path id="Path_7220" data-name="Path 7220" d="M-517.852,457.1l.941.241-.167.49q-.5-.272-1.01-.541C-518.01,457.225-517.931,457.16-517.852,457.1Z" transform="translate(699.864 1773.871)" fill="#fdfdfc"/>
    <path id="Path_7221" data-name="Path 7221" d="M-520.235,458.142l-.643.562-.253-.238.585-.65Z" transform="translate(699.741 1773.9)" fill="#fdfdfc"/>
    <path id="Path_7222" data-name="Path 7222" d="M-518.677,458.987a6.076,6.076,0,0,1,.554-.385,2.049,2.049,0,0,1,.226.284l-.506.309Z" transform="translate(699.84 1773.932)" fill="#fdfdfc"/>
    <path id="Path_7223" data-name="Path 7223" d="M-528.623,454.926l-.361-.651.213-.124c.108.217.215.434.325.649C-528.5,454.841-528.564,454.882-528.623,454.926Z" transform="translate(699.425 1773.752)" fill="#fdfdfc"/>
    <path id="Path_7224" data-name="Path 7224" d="M-521.234,455.784l-.23.168c.012-.115.025-.231.035-.347A1.859,1.859,0,0,1-521.234,455.784Z" transform="translate(699.728 1773.811)" fill="#fdfdfc"/>
    <path id="Path_7225" data-name="Path 7225" d="M-520.569,457.816l.391-.016-.081.341Z" transform="translate(699.764 1773.899)" fill="#fdfdfc"/>
    <path id="Path_7226" data-name="Path 7226" d="M-518.4,459.18l-.344.119c.025-.109.05-.217.073-.327C-518.583,459.042-518.491,459.11-518.4,459.18Z" transform="translate(699.837 1773.947)" fill="#fdfdfc"/>
    <path id="Path_7227" data-name="Path 7227" d="M-516.009,459.885l.439-.027-.222.255Z" transform="translate(699.948 1773.982)" fill="#fdfdfc"/>
    <path id="Path_7228" data-name="Path 7228" d="M-515.062,460v-.241l.143.011-.16.2Z" transform="translate(699.985 1773.978)" fill="#fdfdfc"/>
    <path id="Path_7229" data-name="Path 7229" d="M-515.791,460.112v.014l-.242.24.025-.482Z" transform="translate(699.947 1773.983)" fill="#fdfdfc"/>
    <path id="Path_7230" data-name="Path 7230" d="M-515.07,459.96l-.219.145.234-.119Z" transform="translate(699.977 1773.986)" fill="#fdfdfc"/>
    <path id="Path_7231" data-name="Path 7231" d="M-506.465,462.494l-.093-.054.107-.134.089.1Z" transform="translate(700.329 1774.081)" fill="#fdfdfc"/>
    <path id="Path_7232" data-name="Path 7232" d="M-586.475,512.543c-.383-.685-.767-1.369-1.3-2.314C-586.083,510.56-586.065,511.439-586.475,512.543Z" transform="translate(697.055 1776.013)" fill="#d1e5e9"/>
    <path id="Path_7233" data-name="Path 7233" d="M-574.115,505.236l-.082.075c-.02-.031-.058-.066-.054-.094s.049-.05.077-.074Z" transform="translate(697.6 1775.808)" fill="#d1e5e9"/>
    <path id="Path_7234" data-name="Path 7234" d="M-533.487,464.582c.082.249.1.654.255.722,1.638.693.421,1.51.108,2.265-.05.121-.369.261-.445.211a.758.758,0,0,1-.35-.509c.005-.8.072-1.605.117-2.407Z" transform="translate(699.226 1774.173)" fill="#fdfdfc"/>
    <path id="Path_7235" data-name="Path 7235" d="M-533.8,464.889l-.155-.873.195-.051c.092.214.183.43.276.643Z" transform="translate(699.224 1774.148)" fill="#fdfdfc"/>
    <path id="Path_7236" data-name="Path 7236" d="M-542.729,462.8l.537.049-.071.19-.451-.256Z" transform="translate(698.87 1774.1)" fill="#fdfdfc"/>
    <path id="Path_7237" data-name="Path 7237" d="M-480.317,457.836h-1.118c.535-1.288,1.009-2.428,1.483-3.569l.229.058q-.307,1.765-.614,3.53Z" transform="translate(701.341 1773.757)" fill="#d1e5e9"/>
    <path id="Path_7238" data-name="Path 7238" d="M-517.1,504.832l.216-1.261.532.2q-.312.587-.623,1.175C-517.02,504.91-517.061,504.87-517.1,504.832Z" transform="translate(699.904 1775.744)" fill="#fdfdfc"/>
    <path id="Path_7239" data-name="Path 7239" d="M-514.3,502.477l-.377,1.01-.406-.166.57-1.044A.946.946,0,0,1-514.3,502.477Z" transform="translate(699.985 1775.692)" fill="#fdfdfc"/>
    <path id="Path_7240" data-name="Path 7240" d="M-595.013,506.656l-.353-.483.343-.223c.081.161.163.322.247.483Z" transform="translate(696.749 1775.84)" fill="#fdfdfc"/>
    <path id="Path_7241" data-name="Path 7241" d="M-540.393,476.292l.1.156a1.227,1.227,0,0,1-.213.09c-.019.005-.055-.06-.083-.093Z" transform="translate(698.957 1774.645)" fill="#fdfdfc"/>
    <path id="Path_7242" data-name="Path 7242" d="M-530.844,481.117l-.333.007Z" transform="translate(699.336 1774.839)" fill="#fdfdfc"/>
    <path id="Path_7243" data-name="Path 7243" d="M-538.314,494.209l-.137-.926.705.6Z" transform="translate(699.043 1775.33)" fill="#fdfdfc"/>
    <path id="Path_7244" data-name="Path 7244" d="M-537.126,494.312l-.133-.2.277-.141c.026.076.089.168.065.225S-537.05,494.275-537.126,494.312Z" transform="translate(699.091 1775.358)" fill="#fdfdfc"/>
    <path id="Path_7245" data-name="Path 7245" d="M-541.928,492.23l-.18.069a1.919,1.919,0,0,1,.005-.256c0-.027.06-.047.093-.069C-541.983,492.058-541.955,492.143-541.928,492.23Z" transform="translate(698.896 1775.277)" fill="#5779a3"/>
    <path id="Path_7246" data-name="Path 7246" d="M-538.233,494.83l0-.6Z" transform="translate(699.052 1775.368)" fill="#fdfdfc"/>
    <path id="Path_7247" data-name="Path 7247" d="M-520.836,486.474c-.03-.036-.082-.073-.08-.106s.057-.064.089-.1c.028.035.08.071.079.105S-520.8,486.443-520.836,486.474Z" transform="translate(699.75 1775.047)" fill="#fdfdfc"/>
    <path id="Path_7248" data-name="Path 7248" d="M-520.421,486.921a.73.73,0,0,1-.18.076c-.021,0-.054-.056-.081-.088a.836.836,0,0,1,.178-.077C-520.483,486.828-520.45,486.889-520.421,486.921Z" transform="translate(699.759 1775.07)" fill="#fdfdfc"/>
    <path id="Path_7249" data-name="Path 7249" d="M-525.846,483.97l.686-.822c.122.149.228.233.213.266-.129.308-.279.605-.423.906Z" transform="translate(699.551 1774.921)" fill="#fdfdfc"/>
    <path id="Path_7250" data-name="Path 7250" d="M-530.833,482.858l-.3.722c-.089-.3-.176-.6-.264-.9Z" transform="translate(699.327 1774.902)" fill="#fdfdfc"/>
    <path id="Path_7251" data-name="Path 7251" d="M-549.326,444.983c-.2-.223-.4-.346-.387-.455a.458.458,0,0,1,.317-.321.474.474,0,0,1,.378.266C-548.989,444.573-549.166,444.734-549.326,444.983Z" transform="translate(698.589 1773.351)" fill="#fdfdfc"/>
    <path id="Path_7252" data-name="Path 7252" d="M-513.541,490.357c-.025-.031-.07-.062-.069-.093s.051-.056.079-.084c.024.031.07.063.068.093S-513.513,490.329-513.541,490.357Z" transform="translate(700.044 1775.205)" fill="#5779a3"/>
    <path id="Path_7253" data-name="Path 7253" d="M-507.818,504.6l.252-.235-.214.273Z" transform="translate(700.278 1775.776)" fill="#fdfdfc"/>
  </g>
</svg>
