<svg xmlns="http://www.w3.org/2000/svg" width="209.979" height="177.295" viewBox="0 0 209.979 177.295">
  <g id="Group_91" data-name="Group 91" transform="translate(-87.159 -303.77)">
    <path id="Path_7841" data-name="Path 7841" d="M173.495,431.165a.167.167,0,0,1-.024.1c-2.858,6.285-8.68,10.1-14.571,13.3-6.69,3.622-13.855,7.534-21.7,6.863a.588.588,0,0,1-.59-.567c.359-4.8.486-9.688,1.1-14.468.359-2.731,1.227-5.833,3.982-7.025,1.921-.822,4.224-.44,6.238-.359l8.878.347,16.666.66C174.2,430.042,174.212,431.165,173.495,431.165Z" fill="#afc2d2"/>
    <path id="Path_7842" data-name="Path 7842" d="M204.93,358.63c.694,14.641.856,32.431-12.477,41.921-5.451,3.889-11.47,3.924-17.917,4.121a25.213,25.213,0,0,0-12.222,3.345c-1.817.983-4,2.129-6.1,1.261-2.6-1.076-3.333-4.7-4.132-7.06-1.145-3.368-2.187-6.863-4.247-9.815-2.037-2.916-5.243-4.757-7.165-7.754a12.693,12.693,0,0,1-1.875-7.512c.313-6.736,4.086-13.021,7.026-18.9a183.878,183.878,0,0,1,11.794-20.787c7.674-11.319,17.685-21.238,30.59-26.3.591-.232.891.579.556.972a251.3,251.3,0,0,0-20.29,26.956c-5.219,8.033-12.338,17.732-9.016,27.79,2.651,8.021,8.935,16.041,16.609,19.734,8.1,3.912,18.935,2.766,24.155-5.2,4.549-6.933,3.669-16.134,2.824-23.959-.081-.752,1.077-.74,1.158-.011.023.208.046.428.069.648A.582.582,0,0,1,204.93,358.63Z" fill="#afc2d2"/>
    <g id="Group_90" data-name="Group 90">
      <path id="Path_7843" data-name="Path 7843" d="M175.772,386.4a3.886,3.886,0,0,1,.351-.889c.141-.2.5-.463.63-.4a1.024,1.024,0,0,1,.551.674c.066.86.025,1.728.025,2.657.694-.511,1.3-1.311,1.892-1.3.605.016,1.19.827,1.907,1.387,1.167-1.536,2.312-.975,3.737.121.683.527,1.985.334,3,.316a11.454,11.454,0,0,0,3.068-.381,9.319,9.319,0,0,0,3.471-1.531c3.658-3.221,6.76-6.954,7.6-11.9.388-2.273,0-4.693-.152-7.04a59.234,59.234,0,0,0-.85-9.382c-.727-3.2.5-5.857,1.4-8.635.464-1.43.1-1.973-1.171-2.607-2.767-1.382-5.406-3.019-8.135-4.48a5.182,5.182,0,0,1-2.859-4.858c-.065-2.914-.181-5.827-.283-8.74a1.613,1.613,0,0,0-.3-.917c-.262.853-.477,1.725-.8,2.555a2.59,2.59,0,0,1-2.669,1.8,10.443,10.443,0,0,1-5.742-1.23,6.308,6.308,0,0,1-3.327-5.149c-2.578,2.955-5.253,5.831-7.709,8.883a24.885,24.885,0,0,0-5.731,13.263c-.48,4.526-1.884,8.949-2.749,13.442a50.054,50.054,0,0,0-.651,6.182c-.064.967.335,1.6,1.565,1.575a3.191,3.191,0,0,1,3.106,2.373c.737,2.087,1.288,4.24,1.912,6.366.169.577.273,1.175.477,1.737.478,1.317.965,1.542,2.17.851,1.1-.632,1.579-.161,1.726.854a47.351,47.351,0,0,1,.49,5.459c-1.471-1.7-.674-4.013-1.4-5.9-.128-.016-.236-.066-.3-.033-2.12,1.092-2.991.825-3.9-1.446-.839-2.1-1.513-4.272-2.268-6.409-.5-1.412-1.236-2.445-3-2.3a1.823,1.823,0,0,1-1.977-1.754c-.207-1.224-.3-2.467-.45-3.717l-.459,1.835-.308-.044.692-5.452.349-.03.323.621c.607-2.4,1.2-4.631,1.73-6.874.827-3.51,1.592-7.034,2.424-10.543a7.955,7.955,0,0,1,.871-2.466c2.178-3.38,4.38-6.747,6.7-10.028,1.435-2.028,3.119-3.88,4.646-5.846a3.39,3.39,0,0,0,.657-1.495,12.289,12.289,0,0,1,6.238-8.9c1.265-.769,2.6-1.428,3.832-2.244a11.981,11.981,0,0,0,1.777-1.681,18.73,18.73,0,0,0,2.14-2.493c-3.694.813-7.217.1-10.8-.3a15.458,15.458,0,0,0-13.149,4.658c-2.311,2.316-4.415,4.84-6.7,7.369a12.342,12.342,0,0,1,.508-1.143,27.821,27.821,0,0,1,8.927-9.91c3.755-2.389,7.9-2.8,12.281-2.193a60.072,60.072,0,0,0,7.843.176,2.756,2.756,0,0,0,1.193-.346c1.386-.7,1.377-.641,1.85.809,2.143,6.564,1.658,13.36,1.867,20.1.021.694-.019,1.393.048,2.081.241,2.468.943,3.025,3.287,2.882.365-3.783.721-7.526,1.1-11.267a6.449,6.449,0,0,1,.323-1.628,4.342,4.342,0,0,1,.75-1c.172.378.494.757.492,1.133-.014,1.988-.116,3.976-.173,5.964-.013.441.034.883.069,1.67.59-1.41,1.007-2.521,1.526-3.583.176-.359.61-.592.926-.882a3.986,3.986,0,0,1,.522,1.153,35.932,35.932,0,0,0,.611,4.828q.5-1.62.992-3.24l.484.027.858,4.626.369.1,1.871-2.93.507.06,1.149,4.212.434.033c.4-4.07.97-8.075,4.041-11.238v8.167l.269.015c.208-.984.376-1.979.648-2.944a1.217,1.217,0,0,1,.7-.717c.176-.057.632.253.714.486.516,1.463.962,2.95,1.431,4.429l-.484.237c-.53-.928-1.06-1.856-1.689-2.959l-.713,4.247h9.067c-.078-1.361-.159-2.762-.263-4.568l-1.98,3.419-.412-.122a3.974,3.974,0,0,1,.108-1.355,31.063,31.063,0,0,1,1.882-3.541c.211-.336.815-.424,1.239-.626a4.57,4.57,0,0,1,.512,1.19,9.741,9.741,0,0,0,.126,1.7c.284-1.141.554-2.286.856-3.422.38-1.429.742-2.867,1.211-4.268.139-.413.615-.713.937-1.066.248.393.667.765.716,1.18.286,2.432.479,4.875.722,7.313a2.131,2.131,0,0,0,.5,1.19c.3-1.632.587-3.268.914-4.894a9.847,9.847,0,0,1,.571-1.995c.159-.365.563-.623.856-.93.242.362.645.7.692,1.088a27.119,27.119,0,0,1,.12,3.047c.016,1.423,0,2.846,0,4.269l.414.018c.552-1.732,1.1-3.466,1.661-5.194a3.752,3.752,0,0,1,.5-1.138,5.165,5.165,0,0,1,.978-.785c.194.38.548.757.554,1.14.023,1.293-.133,2.588-.116,3.881.022,1.8.119,3.592.223,5.386a1.227,1.227,0,0,0,1.479,1.262c.407-.069.867-.67,1.041-1.13,1.128-2.984,2.165-6,3.287-8.991.153-.407.613-.7.931-1.044a4.267,4.267,0,0,1,.39,1.309c-.08,1.97-.242,3.938-.374,5.906l.389.109c.325-.723.644-1.449.976-2.168.776-1.678,1.5-3.383,2.37-5.012.262-.49.925-.766,1.4-1.141a5.826,5.826,0,0,1,.456,1.835c-.166,1.824-.485,3.634-.553,5.5.8-1.6,1.553-3.223,2.427-4.78.443-.789.8-2.044,2.009-1.6.282.1.24,1.676.01,2.475-.8,2.781-1.748,5.519-2.639,8.274l.684.262,2.76-7.079.5.159v6.917c1.753.059,1.319,1.821,2.058,2.862.12-.171.222-.3.308-.442.306-.5.607-1,.91-1.5a5.446,5.446,0,0,1,.751,1.5,2.547,2.547,0,0,0,1.844,2.338c1.784.653,1.753.844,1.712,1.638l13.918,5.572.1-.1c-1.828-1.432-3.592-2.959-5.5-4.272a22.14,22.14,0,0,1-5.818-6.078,8.319,8.319,0,0,1-1.521-5.235,4.031,4.031,0,0,1,3.415-4.133,16.754,16.754,0,0,1,10.3,1.319c3.721,1.65,7.392,3.445,10.139,6.653l.345-.3a35.918,35.918,0,0,0-2.085-3.029,40.043,40.043,0,0,0-10.839-8.972,165.931,165.931,0,0,0-33.284-14.446,76.591,76.591,0,0,0-14.962-2.8,163.722,163.722,0,0,0-17.319-.654,60.1,60.1,0,0,0-10.175,1.11,33.17,33.17,0,0,0-5.448,1.994c-.5.187-1.031.307-1.547.457l-.238-.451a9.262,9.262,0,0,1,1.249-1.1,23.7,23.7,0,0,1,10.29-3.064,110.473,110.473,0,0,1,35.175,2.219c4.84,1.108,9.5,3.061,14.18,4.8a146.886,146.886,0,0,1,24.815,12.019A35.019,35.019,0,0,1,290.6,337.09a59.856,59.856,0,0,1,6.375,17.22,9.239,9.239,0,0,1-.55,5.26c-.59,1.491-.3,3.3-.651,4.923a55.89,55.89,0,0,1-1.715,5.832c-.1.313-.727.725-.986.652-.434-.122-1.061-.568-1.1-.93-.308-2.928-2.328-4.769-3.934-6.978-2.4-3.306-5.712-5.221-9.105-7.08a36.026,36.026,0,0,0-16.46-4.505c-14.387-.389-28.778-.6-43.168-.867-1.758-.032-3.52-.036-5.276.04a18.706,18.706,0,0,1-9.3-1.551,3.769,3.769,0,0,0-.737-.179c-.262,1.562-.511,3.052-.761,4.542l.042-.045a12.541,12.541,0,0,0-.7,6.512c.379,4.377.765,8.756.965,13.143a11.657,11.657,0,0,1-2.6,8.145c-1.311,1.605-2.51,3.3-3.754,4.961-1.279,1.706-3.233,2.4-5.01,3.364-.081.044-.183.114-.256.1-1.742-.444-3.3.418-4.94.683a3.97,3.97,0,0,1-4-1.569c-2.336,1.361-2.336,1.361-4.085-.792-.377.561-.69,1.109-1.086,1.588a8.694,8.694,0,0,1-1.05.934,7,7,0,0,1-.406-1.37c-.062-.688.056-1.393-.016-2.078-.026-.241-.387-.446-.6-.668Zm113.994-45.884c.612,1.949,1.224,3.9,1.865,5.937l1.23-.772-3.122-5.137c-1.324-2.573-3.671-4.157-5.849-6.259.441,1.658.446,1.647,1.6,2.151a1.565,1.565,0,0,1,.627.505c.795,1.137,1.561,2.294,2.385,3.514C288.82,340.468,289.3,340.489,289.766,340.515ZM265.8,347.71l.379-.085a3.466,3.466,0,0,0,2.759,3.051,68.778,68.778,0,0,1,8.65,2.914c4.4,2.027,8.8,4.153,11.625,8.442a28.612,28.612,0,0,0,2.958,3.291,17.986,17.986,0,0,0-7.249-11.141,68.34,68.34,0,0,0-21.191-10.418c-6.256-1.965-12.66-3.451-18.947-5.323a91,91,0,0,0-30.574-3.654c-.851.041-1.7.131-3.018.236l8.431,13.544c-4.553-3.073-6.484-7.981-8.783-12.435-.531-.274-.958-.5-1.393-.717-.236-.116-.489-.313-.724-.3-3.441.215-6.88.459-9.962.671,1.464,1.584,3.034,3.385,4.712,5.079,2.715,2.738,5.491,5.416,8.27,8.09a2,2,0,0,0,1.217.581c2.683.009,5.367-.1,8.05-.1q15.825-.008,31.648.024.921,0,1.84,0l-1.865-4.392.518-.279,2.118,3.565.383-.091c.151-.846.257-1.7.475-2.533a1.572,1.572,0,0,1,.666-.913c.143-.078.68.272.826.542.649,1.2,1.222,2.45,1.864,3.767-1.7.477-1.448-1.442-2.429-1.79-.235.723-.445,1.372-.7,2.156l9.446.58Zm-11.73-16.032c-.877,2.08-1.605,3.878-2.4,5.643-.139.307-.582.476-.885.709-.172-.341-.52-.7-.488-1.02a44.374,44.374,0,0,1,.7-5.057c.329-1.491.912-2.927,1.382-4.387a3.451,3.451,0,0,0-1.011,1.5c-.835,2.438-1.616,4.895-2.461,7.33-.11.318-.479.546-.728.816a6.144,6.144,0,0,1-.445-.893,1.836,1.836,0,0,1,0-.689c.281-3.3.566-6.59.859-9.995a12.55,12.55,0,0,0-.584,1.128c-1.082,2.75-2.138,5.51-3.237,8.254a3.838,3.838,0,0,1-.72.881c-.221-.355-.575-.688-.635-1.068a16.436,16.436,0,0,1-.112-2.352c-.015-1.016,0-2.032,0-3.048l-.274-.013c-.789,2.19-1.577,4.38-2.415,6.707l15.779,3.723-.6-1.966-1.246.8a4,4,0,0,1-.454-1.208C254.046,335.629,254.074,333.787,254.074,331.678ZM236.3,326.92l-.332-.089c-.421,1.648-.8,3.31-1.286,4.939a9.588,9.588,0,0,1-.963,1.779c-.388-.575-.814-1.13-1.148-1.735a2.373,2.373,0,0,1-.141-.952c-.1-1.6-.192-3.206-.311-5.233-.2.687-.319.974-.367,1.272-.293,1.823-.538,3.654-.878,5.468-.068.368-.47.674-.718,1.008a4.239,4.239,0,0,1-.89-.907,4.749,4.749,0,0,1-.394-1.464c-.354-2.378-.681-4.76-1.018-7.14l-.2-.04c-.723,3.221-1.446,6.442-2.16,9.625l10.808,1.431Zm-48.871-2.782a1.953,1.953,0,0,0-1.86-2.064,8.43,8.43,0,0,0-3.15.147c-2.1.588-3.013,2.3-3.48,4.287a3.1,3.1,0,0,0,1.276,3.168,8,8,0,0,0,6.228,1.718,1.583,1.583,0,0,0,1.062-.733,5.146,5.146,0,0,0,.432-4.135c-1.276,1.775-3.978,2.585-5.416,1.7-1.11-.68-1.458-2.929-.664-4.294C182.758,322.39,184.309,322.434,187.432,324.138Zm1.291-1.329c-.226-2.661-.445-5.233-.671-7.88-4.049,2.579-8.993,4.17-10.351,9.933C181.514,319.951,185.972,319.145,188.723,322.809Zm10.112,7.916-.261-.014c0,.737.052,1.478-.012,2.21-.1,1.164.262,1.717,1.539,1.587,2.017-.207,4.046-.307,6.069-.463.849-.065,1.7-.156,2.653-.246-.242-1.248-.449-2.318-.656-3.387a8.293,8.293,0,0,0-1.2,1.7c-.267.378-.8.944-1.056.871a2.2,2.2,0,0,1-1.07-1.079,9.262,9.262,0,0,1-.5-1.875,17.471,17.471,0,0,1-.577,1.923c-.112.256-.416.582-.644.59s-.542-.3-.675-.549a3.025,3.025,0,0,1-.267-1.062c-.139-1.187-.249-2.377-.411-3.956a12.242,12.242,0,0,0-.576,1.382c-.336,1.341-.6,2.7-.978,4.031-.1.364-.5.647-.755.968a4.523,4.523,0,0,1-.6-1.119A7.3,7.3,0,0,1,198.835,330.725Zm68.33-1.062-.762-.107c-.291.679-.888,1.4-.81,2.03a11.409,11.409,0,0,0,1.1,4.053c1.795,3.263,4.649,5.514,7.884,7.5-1-1.329-1.924-2.561-2.923-3.892-1.213.577-1.55-.268-1.678-1.381-.106-.923-.253-1.605-1.419-1.99-.61-.2-1.026-1.525-1.191-2.405A26.743,26.743,0,0,1,267.165,329.663Zm17.992,18.525-1.085.925a6.569,6.569,0,0,1-.873-1.409c-.207-.65-.12-1.394-.334-2.04a6.2,6.2,0,0,0-.916-1.386l-.354.195a9.252,9.252,0,0,1,.121,1.764c-.036.332-.389.629-.6.942-.293-.241-.7-.425-.851-.735a8.456,8.456,0,0,1-.427-1.628c-1.6.516-1.43-.9-1.725-1.4l-1.194,1.274,10.219,8.494v-1.677C285.551,351.456,285.551,351.456,285.157,348.188ZM213.375,333.55l-.417-8.839a19.911,19.911,0,0,0-2.062,8.839ZM291.495,350l-.654-.224a3.671,3.671,0,0,0-.417,1.176c.032,1.8.287,3.606.17,5.391a1.626,1.626,0,0,0,.9,1.851Zm-10.077-13.025-.423.07c-.545,2.825.173,6.138,1.664,6.615ZM192.46,334.4v3.66l1.927-.492c.065-.344.4-1.028.2-1.284A15.225,15.225,0,0,0,192.46,334.4Zm83.331,8.715a4.073,4.073,0,0,0-.952-4.108A3.063,3.063,0,0,0,275.791,343.111Zm-2.324-6.087a4.68,4.68,0,0,0,.8-.939,1.012,1.012,0,0,0-.025-.91,19.8,19.8,0,0,0-1.85-1.391l-.549,1.275Zm.708-4.94,5.377,2.437.172-.355-5.549-3.12Zm-67.4,15.162-1.674,1.285,3.647.683.1-.365Zm-21.017-21.321c-.406-.922-.91-1.469-1.832-1.034-.25.118-.529.787-.418.957C184.1,326.758,184.863,326.531,185.756,325.925Zm11.745,17.91-.307.487,3.92,2.258.316-.565Zm86.39-4.6-.537.1,1.005,5.431.41-.081Q284.33,341.957,283.891,339.232Zm5.319,15.682c-.134-2.121-.248-3.936-.363-5.752-.758,1.613.726,3.409-.767,4.983Zm-17.139-24.3,1.831-.851-.084-.325-1.747-.273Z" fill="#6a6d4f"/>
      <path id="Path_7844" data-name="Path 7844" d="M141.909,480.2a12.58,12.58,0,0,1-.369-3.041c.254-2.144.744-4.26,1.138-6.387l-.4-.2q-2.472,4.4-4.941,8.806a7.968,7.968,0,0,1-.574,1.1,3.558,3.558,0,0,1-.838.591c-.139-.311-.424-.637-.393-.93a27.412,27.412,0,0,1,.525-3.274c1.312-5.666,2.655-11.325,3.994-16.984.049-.206.179-.392.561-.507q-1.446,7.3-2.891,14.605l.027-.066-1.125,4.077.453.164,2.349-5.211.256-.231c1.34-2.557,2.82-5.052,3.977-7.69,1.082-2.466,1.82-5.083,2.71-7.634l1.02-2.5c1.71-4.245,3.372-8.51,5.144-12.729,1.227-2.921,2.606-5.779,3.868-8.559-.634-.1-1.747.037-2.387-.451-.583-.445-.652-1.563-1.007-2.546-.209,1.878-.269,3.538-.617,5.135-.222,1.017-.538,2.46-1.952,2.311-1.39-.147-1.132-1.6-1.282-2.59-.248-1.638-.4-3.291-.608-5.039-3.3.145-6.52.307-9.739.411-.768.024-.984.364-1.159,1.05a7.392,7.392,0,0,1-.923,1.679l-.477-.231.629-2.367c-16.79.4-33.089,4.11-49.716,5.077l8.586-1.983c-1.005-5.688.287-11.106,2.434-16.464l-7.07-.444-.021-.565a13.127,13.127,0,0,1,1.6-.226q18.042-.375,36.084-.707c2.261-.038,4.526.139,6.788.242a1.108,1.108,0,0,1,.858.6c-2.132.156-4.261.388-6.4.455q-11.1.351-22.206.6a3.5,3.5,0,0,0-2.943,2.194,33.352,33.352,0,0,0-2.7,6.525q2.754-3.989,5.507-7.979l.563.263c-.082,3.115-1.429,6.056-1.693,9.146l.393.177,3.566-5.511c1.446,1.976-.79,4.508,1.292,6.088-1.72.623-1.917.3-1.989-3.526a37.22,37.22,0,0,1-2.014,3.194,5.116,5.116,0,0,1-1.525.935c-.233-.6-.731-1.229-.651-1.779.247-1.687.717-3.342,1.1-5.01a2.869,2.869,0,0,0,.071-1.108,27.5,27.5,0,0,0-4.331,7.455,16.3,16.3,0,0,1-.805,2.063c-.143.282-.528.441-.8.656-.2-.324-.6-.679-.555-.966.256-1.682.554-3.364.961-5.015.283-1.146.765-2.244,1.038-3.409-2.871,3.449-5.608,6.95-5.044,12.07,16.955-2.625,33.817-5.2,51.052-4.69a13.359,13.359,0,0,0-.856-6.114c-.051-.141-.228-.235-.345-.352-.561-.563-1.324-1.029-1.647-1.706-1.393-2.921-2.669-5.9-3.952-8.871a4.459,4.459,0,0,1-.154-1.25l.432-.124,4.762,9.99.355-.082c0-.846-.056-1.7.023-2.537A4.886,4.886,0,0,1,147.42,417a4.688,4.688,0,0,1,1.048.925c.814,1.345,1.51,2.762,2.325,4.106.715,1.181,1.112,1.124,1.846-.037a11.758,11.758,0,0,1,1.2-1.386,10.908,10.908,0,0,1,1.34,1.454c.506.787.877,1.661,1.3,2.5l-.44.265-2.231-3.057a4.209,4.209,0,0,1-.2.507c-1.326,2.388-2.511,2.411-3.978.073-.385-.613-.742-1.243-1.216-2.042l-.665,2.7a17.942,17.942,0,0,1,3.825,1.735,40.831,40.831,0,0,1,5.224,4.849c.483.527.314,1.65.509,2.921l41.48-2.408.126.381a6.107,6.107,0,0,1-1.469.6c-3.346.422-6.695.843-10.052,1.157q-6.631.619-13.277,1.059c-.915.062-1.154.483-1.294,1.247a64.873,64.873,0,0,1-6.505,18.372A209.2,209.2,0,0,1,150.5,479.163a1.383,1.383,0,0,1-.674.543c9.536-14.29,15.388-30.3,22.112-46.331l-4.088.2a113.387,113.387,0,0,1-11.9,32.413c.641-1.474,1.295-2.943,1.921-4.424a29.253,29.253,0,0,0,1.631-4.642c-.132.239-.27.474-.393.716-3.083,6.061-6.113,12.149-9.281,18.165a22.5,22.5,0,0,1-3.071,4.07,6.753,6.753,0,0,1-1.918,1.043c0-.467-.037-.6.005-.636,3.852-2.977,5.169-7.6,7.381-11.6a179.812,179.812,0,0,0,14.133-34.336c.053-.174.065-.36.163-.936-2.932,0-5.771-.023-8.609.035-.293.006-.678.439-.844.764a44.3,44.3,0,0,0-1.962,4.133q-5.119,13.2-10.164,26.423a.859.859,0,0,0,.072.861l13.4-31.5.7.245c-.906,3.92-2.3,7.709-3.564,11.53-1.276,3.852-2.608,7.686-3.742,11.591a188.763,188.763,0,0,0,7.98-22.132l.548.144a40.965,40.965,0,0,1-1.181,5.409c-2.392,6.656-4.928,13.261-7.4,19.888a61.5,61.5,0,0,0-2.138,6.565,261.165,261.165,0,0,0,12.486-32.125l.594.154a9.062,9.062,0,0,1-.165,1.5,205.137,205.137,0,0,1-15,37.72,38.259,38.259,0,0,1-3.568,4.939c.45-.961.921-1.912,1.347-2.883,1.347-3.07,2.677-6.147,4.013-9.221l-.411-.182c-.782,1.642-1.531,3.3-2.356,4.922s-1.737,3.23-2.611,4.843l-.183-.12q5.684-15.543,11.368-31.084l-.389-.146c-.194.416-.4.828-.579,1.248-2.685,6.147-5.182,12.385-8.118,18.409a55.742,55.742,0,0,0-4.028,11.626A15.592,15.592,0,0,0,141.909,480.2Zm-37.1-62.326-.2-.384c-1.381,0-2.766.067-4.142-.021a1.6,1.6,0,0,0-1.869,1.4c-.553,2.241-1.126,4.477-1.654,6.723a17.29,17.29,0,0,0-.239,1.9C98.95,423.837,101.376,420.451,104.809,417.872Zm58.03,38.682c2.765-3.219,8.454-16.744,8.349-19.262C168.442,443.628,165.641,450.091,162.839,456.554Zm-13.36-31.438,1.092,10.411.374.048a10.007,10.007,0,0,0,.347-1.658c.079-1.839.049-3.683.157-5.52a13.065,13.065,0,0,1,.57-2.284Zm4.145,2.471-.4.22c.414,1.3.785,2.619,1.274,3.891.127.328.628.512.958.762.219-.37.621-.744.614-1.11a3.046,3.046,0,0,0-.5-1.652A22.562,22.562,0,0,0,153.624,427.587Z" fill="#6a6d4f"/>
      <path id="Path_7845" data-name="Path 7845" d="M203.234,353.469,204.515,352c.04.632.161.953.058,1.166a4.77,4.77,0,0,0,.067,4.043c1.477,3.587,3.027,7.143,4.552,10.71,1.091,2.55,2.234,5.079,3.244,7.66a4.81,4.81,0,0,1-.114,1.909,8.756,8.756,0,0,1-2.032-.293,7.893,7.893,0,0,1-1.633-1.214c.689,2.96,1.338,5.735,1.977,8.513a8.272,8.272,0,0,1,.193,1.231c.094,1.281-.111,1.417-1.366.922-.862,6.909-1.723,13.813-2.6,20.8,1.479.749,2.936,1.552,3.532,3.287.062.18.525.313.8.315,6.2.051,12.4-.1,18.585.156a111.849,111.849,0,0,0,25.24-2.155,79.456,79.456,0,0,1,24.175-.491c2.89.344,5.8.487,8.753.726-.307,1.5-1.257,1.617-2.545,1.508-5.712-.483-11.432-.881-17.15-1.3-.494-.036-.992-.005-1.625-.005.474,4.14-.588,7.829-1.969,11.517l4.294-6.189a23.353,23.353,0,0,1,1.44-2.039,5.9,5.9,0,0,1,1.258-.865,5,5,0,0,1,.3,1.63,10.231,10.231,0,0,1-.783,2.5c-.561,1.257-1.227,2.467-1.848,3.7l-.339-.126,2.1-5.891-.3-.139-7.5,11.491h17.061c.089,1.432-.813,1.41-1.78,1.421-13.881.154-27.765.2-41.641.537-8.69.214-17.369.874-26.05,1.388a1.628,1.628,0,0,0-1.062.927c-.587,1.453-.956,3-1.6,4.425a5.123,5.123,0,0,1-1.652,1.976c-1.934,1.365-2.62,1.011-2.794-1.389-1.636-.149-1.933-1.356-2.249-2.758a50.1,50.1,0,0,1-1.253-15.838,6.648,6.648,0,0,1,.866-1.935,7.192,7.192,0,0,1,.439,1.826,56.3,56.3,0,0,0,1.486,15.279,7.675,7.675,0,0,0,.359.812c1-4.537-.081-9.008,1.878-13.512a15.558,15.558,0,0,1,.78,1.892c.709,2.926.018,5.791-.44,8.662-.334,2.09-.692,4.177-1.049,6.327,1.964-.307,3.6-3.376,3.6-6.475l-1.269-.113c1.863-.165,1.648-1.512,1.691-2.786.141-4.161.362-8.319.493-12.479.049-1.577-.277-3.049-1.823-3.936-.691-.4-1.221-.514-1.73.31a3.168,3.168,0,0,1-1.612,1.248l.986-2.081-1.946.888-.294-.328c.659-.58,1.342-1.136,1.97-1.748.451-.44,1.076-.9,1.2-1.445a21.178,21.178,0,0,0,.1-10.565,1.146,1.146,0,0,1,.124-.935c.373.556.746,1.113,1.27,1.893.537-5.251,1.172-10.2.913-15.258a29.335,29.335,0,0,0-1.224-6.1,4.316,4.316,0,0,1,.182-1.531,5.478,5.478,0,0,1,1.463.489,26.76,26.76,0,0,1,2.1,1.746l.36-.218c-.938-2.171-1.855-4.352-2.821-6.51-1.3-2.911-2.725-5.772-3.942-8.717a12.888,12.888,0,0,1-1.107-7.034Zm37.786,59.546-.144,2.632a1.612,1.612,0,0,1,.5-.362c.814-.288,1.646-.525,2.472-.782a8.031,8.031,0,0,1,.277,2.426c-.384,1.956-.976,3.872-1.485,5.8a6.069,6.069,0,0,0,1.3-1.275c1.284-1.452,2.55-2.925,3.9-4.311.322-.329.96-.349,1.453-.512a6.15,6.15,0,0,1,.134,1.41c-.134,1.023-.37,2.033-.562,3.031,1.168-.345,2.364-1.112,3.168-.816.752.276,1.088,1.681,1.606,2.589l-.543.34-1.549-2.259a15.7,15.7,0,0,1-1.852,1.079c-.46.2-1.189.406-1.478.187a1.866,1.866,0,0,1-.327-1.474,27.906,27.906,0,0,1,.632-2.829l-.56-.4c-.364.534-.707,1.084-1.1,1.6-1.009,1.325-1.979,2.687-3.085,3.929a14.27,14.27,0,0,1-2.174,1.68,13.171,13.171,0,0,1,.109-2.7c.481-1.973,1.137-3.9,1.691-5.86a4,4,0,0,0,.013-1.031c-2.327.558-6.7,6.735-7.278,10.154H261.4c1.062-2.516,2.122-4.927,3.1-7.371,1.259-3.15,1.626-6.143,1.005-7.788-.482,1.013-.938,1.975-1.395,2.936l-.174-.078.907-3.419c-1.464.116-2.661.151-3.84.314q-9.617,1.326-19.223,2.719c-.267.038-.5.293-.763.439-1.37-.042-2.741-.131-4.11-.115-2.424.029-2.369.074-3.135,2.368-.736,2.2-1.6,4.366-2.5,6.795,1.165-.963,2.125-1.81,3.14-2.584a21.042,21.042,0,0,0,5.771-5.893C240.337,413.323,240.735,413.2,241.02,413.015Zm-15.886,8.436.3.209,6.984-8.449-.249-.485-21.487-.578c-.2,5.292-.4,10.3-.593,15.381,2.267-.292,4.314-.67,6.377-.784,1.428-.079,1.984-.6,2.141-2.019.358-3.227.876-6.437,1.362-9.885,1.238,3.018.035,5.876-.068,9.068,2.464-3.826,4.187-7.672,7.24-10.716C227.127,416.118,225.789,418.707,225.134,421.451Zm1.165-5.611-.626-.355c-1.99,3.583-3.98,7.165-6.066,10.922l13.686-.818a1.9,1.9,0,0,0,.549-.052c.326-.126.8-.22.921-.468.988-2.1,1.908-4.234,2.849-6.358-1.575.984-2.938,2.15-4.362,3.236a31.756,31.756,0,0,1-3.547,2.4c-.421.238-1.1.029-1.654.024a4.875,4.875,0,0,1,.669-1.443c2.386-2.447,3.288-5.567,4.2-8.693-1.732,1.956-3.3,4.008-4.979,5.971-1.468,1.721-3.033,3.363-4.613,4.983-.236.242-.79.175-1.2.251a4.721,4.721,0,0,1,.214-.976C223.649,421.584,224.977,418.713,226.3,415.84Z" fill="#6a6d4f"/>
      <path id="Path_7846" data-name="Path 7846" d="M173.664,415.487a26.572,26.572,0,0,0,3.479-3.8c2.45-3.963,4.737-8.031,6.972-12.122,1.284-2.35,2.32-4.835,3.516-7.236a10.761,10.761,0,0,1,1.145-1.551l.509.178a6.635,6.635,0,0,1-.034,2.059,29.811,29.811,0,0,1-2.06,4.967q-2.976,5.248-6.255,10.325c-1.3,2.012-2.836,3.868-4.268,5.794-.478.643-.961,1.281-1.443,1.922l.36.338a19,19,0,0,0,2.619-2.48c2.5-3.439,4.946-6.915,7.269-10.472,1.793-2.748,3.334-5.659,5.072-8.445.33-.528,1.057-.809,1.6-1.2a8.065,8.065,0,0,1-.357,1.9c-1.687,3.755-3.435,7.482-5.158,11.221a6.285,6.285,0,0,0-.549,1.675c4.878-5.472,7.654-12.211,11.217-18.647.725,4.307-9.749,20.873-13.9,22.11,1.281-2.826,2.537-5.6,3.794-8.367l-.243-.133c-.683,1.1-1.291,2.251-2.064,3.281-2.077,2.769-4.15,5.548-6.383,8.189a11,11,0,0,1-3.127,2.234c-.918.51-1.048.357-1.308-.855l-5.972,3.506-.4-.4,7.447-11.494-.242-.2q-2.679,3.158-5.356,6.316l-.278-.223c3.283-5.6,8.076-10.076,11.483-15.584l.625.329a8.733,8.733,0,0,1-.575,1.4c-3.625,5.8-7.27,11.6-10.812,17.462a151.142,151.142,0,0,0,14.174-21.87l.585.276a6.834,6.834,0,0,1-.479,1.515q-4.808,8.032-9.671,16.031c-.374.617-.8,1.2-1.207,1.8Zm15.667-23.236-.631-.288-2.769,6.285.49.222Z" fill="#6a6d4f"/>
      <path id="Path_7847" data-name="Path 7847" d="M159.965,322.836a8.327,8.327,0,0,1-.4,1.317,27.678,27.678,0,0,1-7.417,9.069c-5.407,4.483-11.084,8.64-16.615,12.977-2.145,1.682-4.247,3.429-6.284,5.241a21.226,21.226,0,0,0-6.553,10.74c-.558,2.14-1.182,4.263-1.66,6.477a77.628,77.628,0,0,1,9.555-12.017l.451.275a14.245,14.245,0,0,1-.592,1.335,129.739,129.739,0,0,0-9.584,20.757,47.1,47.1,0,0,0-1.245,5.532,6.465,6.465,0,0,1-.007-4.614c1.384-3.962,2.93-7.87,4.51-11.76.778-1.916,1.772-3.743,2.562-5.68a55.968,55.968,0,0,0-7.61,11.762l-.348-.119c-.047-.149-.165-.318-.131-.446,1.286-4.87,2.5-9.761,3.914-14.593a18.922,18.922,0,0,1,6.281-8.994c3.556-3.02,7.329-5.785,10.993-8.679,3.882-3.067,7.918-5.969,11.562-9.3,2.635-2.408,4.743-5.4,7.079-8.13.373-.437.709-.906,1.062-1.36Z" fill="#6a6d4f"/>
      <path id="Path_7848" data-name="Path 7848" d="M149.06,343.431l-11.312,11.163-.483-.375a8.577,8.577,0,0,1,1.071-1.671c4.147-4.026,8.329-8.016,12.5-12.015a1.884,1.884,0,0,0,.45-.516c-2.252.761-3.971,2.329-5.842,3.7-3.421,2.514-6.95,4.882-10.48,7.242a5.247,5.247,0,0,1-1.868.385,6.833,6.833,0,0,1,1.161-1.445c5.754-4.108,11.958-7.6,17.142-12.493a15.375,15.375,0,0,1,2.159-1.5.757.757,0,0,1,.748-.017l-2.746,2.468.214.256,2.188-.645.334.424c-2.62,1.916-3.384,5.047-5.284,7.458-1.926,2.445-3.6,5.087-5.388,7.642l.273.221,9.193-9.5.526.383a8.26,8.26,0,0,1-.558,1.375c-1.871,2.974-3.8,5.911-5.651,8.9-1.012,1.632-1.908,3.337-3.113,5.118a3.819,3.819,0,0,1,.028-1.472c.831-1.8,1.756-3.556,2.665-5.319a5.687,5.687,0,0,1,1.16-1.625c-1.133.937-2.275,1.864-3.4,2.816a15.353,15.353,0,0,1-1.649,1.47c-.356.223-.917.118-1.386.16,0-.437-.163-.971.028-1.294,1.037-1.748,2.107-3.482,3.271-5.146,1.4-2,2.9-3.916,4.359-5.869Z" fill="#6a6d4f"/>
      <path id="Path_7849" data-name="Path 7849" d="M135.869,405.461c-1.11-1.933-.794-3.684-.6-5.358a43.457,43.457,0,0,1,1.044-5.3c.417-1.689.978-3.343,1.475-5.012l-.4-.152c-1.274,3.039-2.561,6.072-3.811,9.12-.3.724-.4,1.534-.73,2.237a4.8,4.8,0,0,1-1.032,1.092c-.173-.431-.521-.877-.487-1.292.162-1.978.428-3.947.656-5.919.037-.317.222-.744.083-.933-1.41-1.925-.588-3.9.039-5.714a36.889,36.889,0,0,1,9.118-14.568,1.643,1.643,0,0,1,1.055-.411c-5.108,7.135-7.883,15.139-9.3,23.687.881-1.864,1.713-3.753,2.652-5.587q2.781-5.432,5.678-10.8c.221-.409.771-.641,1.169-.956a6.129,6.129,0,0,1-.141,1.46c-1.427,4.1-2.967,8.16-4.32,12.282a34.809,34.809,0,0,0-1.991,11.15A7.765,7.765,0,0,1,135.869,405.461Zm-.419-21.967a15.238,15.238,0,0,0-2.981,8.7Q133.96,387.841,135.45,383.494Z" fill="#6a6d4f"/>
      <path id="Path_7850" data-name="Path 7850" d="M174.55,312.9c-5.6,3.683-9.038,9.133-12.213,14.792A13.587,13.587,0,0,0,161,331.131c4.022-7.815,10.529-13.345,16.992-18.909.112-.1.409.02.777.211a58.1,58.1,0,0,0-10.645,14.307l9.526-10.536.368.277L170.3,328.725l-.247,0,1.312-4.454c-1.651,1.908-3.032,3.6-4.529,5.183A8.041,8.041,0,0,1,164.9,330.6a7.1,7.1,0,0,1,.441-2.123c1.228-2.169,2.582-4.268,4.1-6.732a6.056,6.056,0,0,0-1.025.8q-2.762,3.8-5.483,7.634a11.741,11.741,0,0,1-1.263,1.792,1.488,1.488,0,0,1-1.34.293,1.421,1.421,0,0,1-.438-1.268,14.392,14.392,0,0,1,1.161-3.391c2.641-4.9,5.547-9.637,9.985-13.174a27.91,27.91,0,0,1,3.237-1.952Z" fill="#6a6d4f"/>
      <path id="Path_7851" data-name="Path 7851" d="M143.929,402.621c.779-3.031,1.488-5.786,2.2-8.54l.684.043a17.488,17.488,0,0,1,.313,1.872c.214,3.551.334,7.11.622,10.655a38.446,38.446,0,0,0,.884,4.488c-1.132-.789-2.056-3.429-2.266-6.512a71.2,71.2,0,0,0-.684-7.117q-.495,2.779-.993,5.559a23.394,23.394,0,0,1-.454,2.307c-.086.3-.436.518-.666.774-.244-.286-.689-.564-.7-.858-.066-1.846-.1-3.7-.019-5.542.065-1.5.3-2.995.463-4.492l-.5-.1q-1,4.7-2,9.406a13.554,13.554,0,0,1-.261,1.5,3.757,3.757,0,0,1-.63.9c-.169-.333-.5-.675-.483-1,.214-3.732.244-7.5.81-11.178a53.069,53.069,0,0,1,2.423-8.48c.339-1.025.541-.97,1.579-.668-2.135,3.723-2.657,7.847-2.958,12.035.819-2.392,1.609-4.8,2.481-7.168a4.969,4.969,0,0,1,1.006-1.239,5.635,5.635,0,0,1,.321,1.654c-.345,3.029-.787,6.047-1.15,9.074A24.383,24.383,0,0,0,143.929,402.621Z" fill="#6a6d4f"/>
      <path id="Path_7852" data-name="Path 7852" d="M176.672,420.56l-1.368.74-.146-.141,4.442-4.768.469.3-3.327,5.2.339.261a43.737,43.737,0,0,0,10.5-12.1c.409.919.4.914-.881,3.538-.568,1.164-1.058,2.367-1.653,3.516-.563,1.086-1.217,2.125-1.832,3.185l.321.378,6.723-4.382c-.138.454-.138.8-.311.967a8.623,8.623,0,0,1-2.4,2.048c-1.625.634-1.991,1.755-2.028,3.27-.033,1.375-.186,2.748-.287,4.121l.344.163q1.231-2.01,2.464-4.022a15.274,15.274,0,0,1,.937-1.536.648.648,0,0,1,1.214.433,20.315,20.315,0,0,0-.14,2.347,22.726,22.726,0,0,0,.727,2.9c-.963.646-1.286.183-1.856-3.488-.656,1.081-1.213,2.005-1.777,2.925a4.569,4.569,0,0,1-.759,1.152,11.847,11.847,0,0,1-1.627,1.009,6.442,6.442,0,0,1-.527-1.72,18.9,18.9,0,0,0-.088-3.442c-.657,1.118-1.32,2.233-1.967,3.358a7.9,7.9,0,0,1-.652,1.218,3.581,3.581,0,0,1-.968.592,2.7,2.7,0,0,1-.343-.953c.052-1.04.2-2.075.336-3.42L177.106,428l-.617-.3.491-2.848.347.042v1.748c1.385-1.662,2.587-3.107,3.79-4.551l.383.189v2.881l.2.148,2.453-4.1-1.835-.086,2.08-4.135-.167-.153c-.952.923-1.886,1.868-2.863,2.765-1.158,1.063-2.316,2.133-3.553,3.1a4.8,4.8,0,0,1-1.6.493c.034-.557.049-1.117.109-1.671A5.667,5.667,0,0,1,176.672,420.56Z" fill="#6a6d4f"/>
      <path id="Path_7853" data-name="Path 7853" d="M133.643,425.494c.761-.852,1.483-1.745,2.3-2.538a5.5,5.5,0,0,1,1.384-.727,6.023,6.023,0,0,1,.64,1.537,14.267,14.267,0,0,0,.342,2.825c.282-.684.558-1.372.849-2.053.617-1.439,1.208-2.891,1.891-4.3.144-.3.638-.428.97-.635.2.384.635.809.574,1.144a57.525,57.525,0,0,1-1.538,6.4c-.932-2.206.491-4.215.546-6.327l-.349-.144c-.512,1.049-1.08,2.076-1.52,3.154-.47,1.154-.779,2.374-1.248,3.528a1.189,1.189,0,0,1-.878.667,1.144,1.144,0,0,1-.711-.839c-.09-1.047-.034-2.108-.034-3.575-1.1,1.282-1.953,2.346-2.9,3.317a4.656,4.656,0,0,1-1.355.681,5.439,5.439,0,0,1-.507-1.466,21.722,21.722,0,0,1,.217-2.709c-.847,1.373-1.437,2.495-2.191,3.494-.5.668-.706,1.984-1.9,1.548-.245-.09-.03-1.525.031-2.336a3.4,3.4,0,0,0,.027-1.421c-.56,1.1-1.071,2.219-1.7,3.269a4.581,4.581,0,0,1-1.162.96c-.156-.478-.515-.993-.435-1.427.41-2.225.925-4.432,1.431-6.639.049-.209.292-.374.789-.479L127,424.187c.7-1.049,1.236-1.869,1.783-2.685a6.231,6.231,0,0,1,.888-1.233,5.174,5.174,0,0,1,1.245-.621,3.728,3.728,0,0,1,.219,1.36c-.229.973-.615,1.91-.938,2.861l.336.165c.557-1.1,1.069-2.229,1.691-3.292a6.879,6.879,0,0,1,1.164-1.2,4.953,4.953,0,0,1,.453,1.559c-.076,1.423-.3,2.837-.461,4.255Z" fill="#6a6d4f"/>
      <path id="Path_7854" data-name="Path 7854" d="M161.6,339.721a27.328,27.328,0,0,1-1.748,2.255c-.252.27-.776.286-1.177.418-.045-.418-.245-.9-.107-1.241a35.67,35.67,0,0,1,1.643-3.511,4.8,4.8,0,0,1,.973-.987l.442.249-.723,2.161.149.146c.31-.395.593-.816.937-1.179s.768-.688,1.156-1.029l.374,1.383,1.591-2.048.294.187c-1.421,3.585-2.778,7.2-4.288,10.745a29.147,29.147,0,0,0-1.51,6.452c-.663,3.68-1.634,7.3-2.482,10.949-.119.514-.273,1.019-.481,1.787a4.8,4.8,0,0,1-1.191-3.674,60.149,60.149,0,0,1,3.79-13.734c.288-.769.753-1.455.21-2.407-.24-.419.117-1.254.339-1.85.624-1.671,1.319-3.316,1.986-4.972Z" fill="#6a6d4f"/>
      <path id="Path_7855" data-name="Path 7855" d="M127.211,403.279l.755-.43.29.235-.991,1.381c-.373-.416-.943-.775-1.086-1.26a29.588,29.588,0,0,1-1.065-11.251c.046-.486.083-.972.124-1.458l-.43-.111c-.756,2.395-1.492,4.8-2.286,7.179a5.62,5.62,0,0,1-.81,1.228,4.2,4.2,0,0,1-.589-1.288c-.638-8.463,1.261-16.433,4.778-24.073a2.736,2.736,0,0,1,1.254-1.266c-1.158,3.517-2.444,7-3.436,10.56a29.252,29.252,0,0,0-1.279,10.964c.788-1.989,1.591-3.972,2.358-5.968.448-1.165.794-2.371,1.282-3.517a4.623,4.623,0,0,1,.967-1.09,4.5,4.5,0,0,1,.168,1.339c-1.095,5.9-1.676,11.811-.311,17.755C126.976,402.52,127.08,402.825,127.211,403.279Z" fill="#6a6d4f"/>
      <path id="Path_7856" data-name="Path 7856" d="M140.329,433.172c-2.37,11.277-4.716,22.385-7.025,33.5-.288,1.387-.384,2.814-.569,4.222l.422.315,1.478-2.269a4.967,4.967,0,0,1,.415.445c-.726,1.051-1.092,3-2.644,2.532-1.505-.456-.736-2.258-.636-3.455.731-8.75,3.323-17.122,5.286-25.623.7-3.015,1.364-6.043,1.861-9.1.211-1.3,1.426-1.2,1.985-1.941.221.185.642.4.621.55a1.724,1.724,0,0,1-.518.9C140.909,433.346,140.581,433.208,140.329,433.172Z" fill="#6a6d4f"/>
      <path id="Path_7857" data-name="Path 7857" d="M192.409,408.273a92.319,92.319,0,0,0,8.176-20.226q-.57,5.814-1.141,11.626l.425.089c1.488-6.4,4.364-12.448,4.774-19.308a5.451,5.451,0,0,1,.569,1.654,13.722,13.722,0,0,1-.312,3.715c-1.5,5.337-3.108,10.647-4.742,15.946-.178.578-.778,1.026-1.182,1.534a7.1,7.1,0,0,1-.419-1.867c.085-1.735.3-3.464.365-5.246C197.13,400.423,195.728,404.861,192.409,408.273Z" fill="#6a6d4f"/>
      <path id="Path_7858" data-name="Path 7858" d="M147.385,454.883l-1.02,2.5c-1.785,4-3.579,8-5.35,12.009-.481,1.089-.893,2.209-1.337,3.315l-.256.231a3.692,3.692,0,0,1-.732.96c-.217.148-.623.017-.945.01l-.027.066c.36-.8.74-1.59,1.076-2.4q5.631-13.585,11.254-27.173a1.533,1.533,0,0,1,.792-.866c-.329,1.1-.654,2.205-.99,3.305Q148.623,450.864,147.385,454.883Z" fill="#6a6d4f"/>
      <path id="Path_7859" data-name="Path 7859" d="M128.53,394.988c.692,6.916,2.814,14.477,4.757,16.576-.176-1.255-.368-2.331-.456-3.415a3.14,3.14,0,0,1,.329-1.084,4.477,4.477,0,0,1,.783.765c1.294,2.109,2.472,4.3,3.876,6.327a8.614,8.614,0,0,0,2.374,1.657,3.424,3.424,0,0,1-3.431-1.251c-.837-.97-1.578-2.024-2.524-3.253l-.168,2.517c-.565-.489-1.032-.719-1.229-1.092a34.677,34.677,0,0,1-2.789-5.686,87.362,87.362,0,0,1-2.147-9.279,11.194,11.194,0,0,1,.179-2.86Z" fill="#6a6d4f"/>
      <path id="Path_7860" data-name="Path 7860" d="M157.108,344.131c.1,2.216-4.235,11.767-5.865,13.323l-.493-.588L148,362.19l-.321-.086a10.209,10.209,0,0,1,.576-2.078q3.389-6.513,6.879-12.973C155.639,346.115,156.327,345.274,157.108,344.131Z" fill="#6a6d4f"/>
      <path id="Path_7861" data-name="Path 7861" d="M203.425,398.051c2.637,3.884-3.966,19.773-8.086,20.948a52.781,52.781,0,0,0,4-6.182,42.848,42.848,0,0,0,2.369-7.229C202.359,403.209,202.814,400.776,203.425,398.051Z" fill="#6a6d4f"/>
      <path id="Path_7862" data-name="Path 7862" d="M196.153,375.644c2.087-5.836,1.893-11.985,2.448-18.03C199.215,363.817,199.828,370.02,196.153,375.644Z" fill="#6a6d4f"/>
      <path id="Path_7863" data-name="Path 7863" d="M161.85,425.392l.757-1.141a8.181,8.181,0,0,1,1.039.817c.462.495.861,1.051,1.544,1.9.288-1.191.459-2.056.71-2.9.458-1.539,1.53-1.827,2.468-.556.811,1.1,1.59,1.889,3.206,1.094-1.113,2.012-1.933,1.922-4.465-.3a13.515,13.515,0,0,1-.5,2.033c-.248.6-.636,1.538-1.036,1.577-.577.056-1.28-.49-1.818-.918a12.415,12.415,0,0,1-1.423-1.563Z" fill="#6a6d4f"/>
      <path id="Path_7864" data-name="Path 7864" d="M189.051,419.915c2.4-2.841,4.79-5.625,7.127-8.451.493-.6.758-1.374,1.22-2a4.83,4.83,0,0,1,1.056-.819c0,.46.024.922-.008,1.38a1.33,1.33,0,0,1-.237.5,27.6,27.6,0,0,1-7.156,8.372A12.021,12.021,0,0,1,189.051,419.915Z" fill="#6a6d4f"/>
      <path id="Path_7865" data-name="Path 7865" d="M194.328,371.629l2.128-10.519c.346.55.68.837.686,1.129a21.753,21.753,0,0,1-2.4,9.487Z" fill="#6a6d4f"/>
      <path id="Path_7866" data-name="Path 7866" d="M175.792,333.776h-1.531a6.158,6.158,0,0,1,.473-1.461c.47-.754,1.063-1.431,1.605-2.14l.331.215v3.4c2.589-2,2.217.964,3.349,1.331-1.146.768-1.263.7-2.034-1.237C177.208,334.246,176.281,335.525,175.792,333.776Z" fill="#6a6d4f"/>
      <path id="Path_7867" data-name="Path 7867" d="M183.975,336.218a2.763,2.763,0,0,0-.319.246c-.424.49-.843.984-1.264,1.477-.247-.692-.529-1.375-.724-2.081a1.511,1.511,0,0,1,.28-1.2l.787,1.157c.573-.241,1.289-.815,1.7-.645.525.218.834,1.013,1.179,1.593.4.671.738,1.379,1.1,2.072C185.811,339.341,185.811,339.341,183.975,336.218Z" fill="#6a6d4f"/>
      <path id="Path_7868" data-name="Path 7868" d="M156.552,341.941c-.479-1.419,2.165-6.794,3.8-7.849A36.346,36.346,0,0,1,156.552,341.941Z" fill="#6a6d4f"/>
      <path id="Path_7869" data-name="Path 7869" d="M175.743,386.372c-.417,1.053-.8,2.12-1.276,3.148-.1.213-.5.285-.769.422-.138-.272-.409-.552-.393-.814.1-1.56.264-3.117.391-4.676a5.88,5.88,0,0,0-.023-1.061c-.029-.287-.212-.592-.148-.842.036-.137.587-.312.656-.238a1.482,1.482,0,0,1,.476.9c-.077,1.423-.242,2.842-.375,4.262a2.209,2.209,0,0,0,.132,1.225q.68-1.15,1.359-2.3Z" fill="#6a6d4f"/>
      <path id="Path_7870" data-name="Path 7870" d="M152.485,402.084c.495,2.272.923,4.24,1.352,6.208C152.86,406.433,151.854,404.581,152.485,402.084Z" fill="#6a6d4f"/>
      <path id="Path_7871" data-name="Path 7871" d="M177.074,434.637v3.329C175.766,437.481,175.666,436.148,177.074,434.637Z" fill="#6a6d4f"/>
      <path id="Path_7872" data-name="Path 7872" d="M161.353,427.461a2.676,2.676,0,0,1-3.061-2.616Z" fill="#6a6d4f"/>
      <path id="Path_7873" data-name="Path 7873" d="M224.547,346.376a10.629,10.629,0,0,0-.622-1.715c-.954-1.687-1.991-3.327-2.947-5.012a6.316,6.316,0,0,1-.414-1.393l.555-.246,5.012,8.07h-1.19c-.024.034-.112.1-.121.173-.154,1.255-.616,1.541-1.512.709a16.656,16.656,0,0,1-2.957-3.429c-1.244-2.042-2.252-4.231-3.31-6.383a3.02,3.02,0,0,1-.2-1.774c2.506,3.687,3.931,8.056,7.238,11.167Z" fill="#6a6d4f"/>
      <path id="Path_7874" data-name="Path 7874" d="M217.579,349.339a10.811,10.811,0,0,1-2.274-.974,16.869,16.869,0,0,1-6.549-10.263c-.063-.32.191-.7.3-1.056.285.246.775.455.824.741.742,4.262,3.3,7.31,6.511,9.943.32.263.634.535.93.824C217.4,348.632,217.4,348.788,217.579,349.339Z" fill="#6a6d4f"/>
      <path id="Path_7875" data-name="Path 7875" d="M214.056,335.535c2.445,3.865,4.909,7.762,7.331,11.592C219.364,347.142,213.387,337.821,214.056,335.535Z" fill="#6a6d4f"/>
      <path id="Path_7876" data-name="Path 7876" d="M224.015,339.631c.2.122.387.177.476.3,1.755,2.474,3.5,4.956,5.257,7.454C227.816,347.1,224.528,342.666,224.015,339.631Z" fill="#6a6d4f"/>
      <path id="Path_7877" data-name="Path 7877" d="M262.21,348.882a3.129,3.129,0,0,1-1.742-4.257Z" fill="#6a6d4f"/>
      <path id="Path_7878" data-name="Path 7878" d="M265.326,349.024c-1.433-.326-1.817-1.324-1.658-3.513l.375-.142Z" fill="#6a6d4f"/>
      <path id="Path_7879" data-name="Path 7879" d="M261.544,417.859c-.753,2.141-.858,4.628-3.207,5.86Z" fill="#6a6d4f"/>
    </g>
  </g>
</svg>
