<?xml version="1.0" encoding="utf-8"?>
<!-- Generator: Adobe Illustrator 24.0.3, SVG Export Plug-In . SVG Version: 6.00 Build 0)  -->
<svg version="1.1" id="Layer_1" xmlns="http://www.w3.org/2000/svg" xmlns:xlink="http://www.w3.org/1999/xlink" x="0px" y="0px"
	 viewBox="0 0 429.9 334.5" style="enable-background:new 0 0 429.9 334.5;" xml:space="preserve">
<style type="text/css">
	.st0{fill:#AFC2D2;}
	.st1{fill:#1A1A1A;}
	.st2{fill:#6A6D4F;}
</style>
<path class="st0" d="M272.2,324.2l-27.9-0.5l7.6-14.1c5.3-9.8,8.2-20.7,8.6-31.8l1.3-39.6l0,16.7L272.2,324.2z"/>
<path class="st1" d="M133.1-14.2c0.1,0,0.1-0.1,0-0.2c-0.4,0-0.7-0.2-1-0.5c-0.1-0.1-0.2,0-0.1,0.1
	C132.2-14.4,132.6-14.2,133.1-14.2z"/>
<path class="st2" d="M336.6,205.4c-9.2-8-18.5-16-27.7-24.1c-10.5-9.1-21-18.2-31.5-27.4c-13.7-11.9-27.7-23.5-40.5-36.4
	c-0.8-0.9-1.8-2-1.4-3.1c0.2-0.6,0.7-1.1,1.2-1.6c5.5-4.7,11.2-9,17.2-12.9c6.3-4.1,11.5-9.5,17.1-14.5
	c10.7-9.6,21.3-19.3,32.1-28.8c2.8-2.4,5.5-4.8,8.3-7.2c3.3-2.8,3.1-5.2-0.5-7.4c-10.3-6.4-20.5-13-29.2-21.5c-1-1-1.8-3.9-3.6-2.2
	c-1.1,1,1.5,2.5,2.5,3.8c0.1,0.1,0.2,0.2,0.3,0.3c3.5,3.5,7.2,6.7,11.2,9.6c1.4,1,1.6,2.1,0.5,3.4c-2.1,2.4-4.1,4.8-6.1,7.3
	c-4.9-4.2-9.4-8.2-14-12.1c1-1.7,1.9-3.3,2.9-4.9c1.9-3.1,1.9-3.1,1.9-4.9c-1.6,0.3-2.3,1.7-2.9,2.9c-4.5,7.8-8.9,15.6-13.3,23.5
	c-2.3,4.1-4.1,8.4-6.5,12.3c-0.2,0.3-0.4,0.5-0.6,0.7c-0.7,1.5-1.5,3-2.4,4.4c0,0.2,0,0.3-0.1,0.5c-2.9,5.8-5.7,11.6-8.8,17.3
	c-1.4,2.5-2.5,5.2-4.5,7.4c-3.8-5-8.2-9.2-9.5-15.4c-0.2-0.8-0.7-1.3-1.5-1.2c-0.8,0.1-1.1,0.7-1.3,1.5c-2.1,6.9-7.2,12-10.9,18.4
	c-5.1-6.4-8.5-13.6-13.5-19.6c-1.2-2.8-2.7-5.3-5.1-7.3c0.1-0.7-0.3-1.3-0.6-1.9c-12-18-24-36.1-35.9-54.1c-0.4-0.6-1.1-1.3-1-1.8
	c1-2.8-0.9-2.1-2.2-1.8c-1.2,0.3-2.2,1.1-3.2,1.9c-5.5,4.6-11.1,9.1-16.7,13.6c-5.4,4.3-10.5,9-16.2,12.9c-2.6,1.8-2.3,4.1,0.7,5.7
	c1,0.5,2,1.1,2.8,1.8c4.1,3.5,8.2,7,12.4,10.4c4,3.3,8.7,6.3,12.1,10.3c0.2,0.2,0.3,0.4,0.5,0.5c0.9,0.6,1.8,0.9,2.7,1.6
	c8.3,6.9,16.5,14,24.7,21.1c4.6,4,9.3,8,14.3,11.6c2.1,1.6,4.2,3.4,6,5.3c1.7,1.8,3.9,2.8,5.3,5.2c1.1,1.9,4.3,2.5,5.9,4.4
	c1.2,1.5,2.8,2.5,4.6,3.5c-1.2,1.2-2.1,2.1-3,2.9c-15.9,14.6-31.8,29.2-47.6,43.8c-2.5,2.3-4.9,4.7-7.4,6.9c-1.5,1.4-2.7,1-3.6-0.8
	c-0.6-1.2-0.2-2.1,0.6-3.1c1.9-2.5,4-4.7,6.4-6.7c2.6-2.1,5.3-4.2,7.8-6.5c10.5-10.1,20.9-20.1,30-31.5c2-2.5,4-5.1,6-7.7
	c0.4-0.6,0.9-1.6-0.2-2.2c-0.8-0.4-1.2,0.4-1.6,1c-4.1,5.7-8.6,11.1-13.2,16.5c-7.6,8.9-16,17-24.7,24.8c-4.3,3.8-9.1,7.1-12.3,12.1
	c-1.3,2.1-1.3,3.2,0.2,4.6c1.8,1.6,1.2,2.5-0.4,4c-6.2,5.5-12.4,11.1-18.5,16.8c-10.1,9.4-20.3,18.8-30.7,27.8
	c-1.8,1.6-3.6,3.2-5.4,4.8c-0.8,0.7-2.2,1.6-2.7,2.4c-0.4,0.6-0.3,0.4,0.3,1c0.4,0.4,0.8,0.7,1.1,1.2c0.1,0.1,0.2,0.3,0.3,0.4
	c0.1,0.1,0.3,0.2,0.5,0.3c2,1,3.6,2.6,5.3,3.9c2,1.6,4,3.3,6.1,4.9c4,3.2,7.9,6.5,11.7,10c3.1,2.8,6.6,5,9.3,8.4
	c0.1,0.1,0.2,0.2,0.3,0.2c0.1,0,0.2,0,0.3,0c0.9-0.3,1.8-0.8,2.5-1.5c0.2-0.2,0.4-0.3,0.5-0.6c0.1-0.2,0.2-0.5,0.3-0.8
	c0.8-2.4,2.7-4.7,4.2-6.7c1.7-2.3,3.7-4.4,5.8-6.4c2.7-2.5,4.4-5.6,6.4-8.6c2.3-3.4,4.8-6.8,7.2-10.2c9.5-13,18.7-26.1,28-39.2
	c7.3-10.2,14.5-20.5,21.7-30.7c0.8-1.1,3.6-5.3,7.7-10.6c1.7-2.2,1.3-1.7,2.3-3c2.8-3.8,6.1-7.2,9.1-10.9c0.2-0.2,0.6-0.8,1.2-0.8
	c0.5,0,1,0.4,1.5,1.1c0.3,0.5,0.7,0.9,1,1.4c9.7,12.6,19.5,25.2,29.1,37.9c1.6,2.1,3.8,4,4.7,7.1c-3-0.4-5.7,0.6-8.3,0.3
	c-5.5-0.6-11-0.1-16.5-0.2c-14.3-0.4-28.7,0.3-43.1-0.4c-0.5,0-1.1,0.1-1.6,0.2c-0.4,0.1-0.7,0.5-0.6,1c0.1,0.5,0.2,0.9,0.7,0.9
	c0.5,0.1,1.1,0.1,1.6,0.1c11.3-0.6,22.5,0.2,33.8,0c11.5-0.2,23.1,0.3,34.6,0.1c1.5,0,2.1,0.4,2.4,1.4c1,2.6,1.2,5.4,0.9,8.2
	c-1.1,10.5-2.1,21.1-2.3,31.6c-0.2,12.4-1.2,24.7,0,37.2c0.9,8.8,2.1,17.6,3.2,26.4c1.1,9.5,2.8,18.9,4.2,28.4
	c0.6,4.4,1.1,8.9,1.7,13.4c-17.7,0.2-35-0.9-52.3-0.2c-17.4,0.6-34.7,2.1-52.1,3.2c1.4-7.1,2.6-13.8,3.9-20.4
	c1.5-7.2,2.8-14.4,4.7-21.5c1.9-7.3,2.5-14.7,4-22c1.9-9.7,2.9-19.5,3.2-29.4c0.3-11.5-0.4-23.1,1.2-34.6c0.5-3.3,0.4-6.7-0.6-10
	c-0.3-0.8-0.3-1.9-1.4-1.8c-1.4,0.2-0.8,1.3-0.5,2c0.9,2.6,0.6,5.3,0.5,8c-0.3,7.4-1.2,14.9-0.9,22.4c0.3,6,0,12.1-0.2,18.2
	c-0.5,14-3.3,27.7-5.9,41.4c-2.1,11.1-4.6,22.1-6.8,33.1c-1.2,5.6-2.3,11.2-3.4,16.9c1-0.2,1.9-0.4,2.9-0.5
	c14.7-2,29.5-2.3,44.2-3.1c18.9-1.1,37.7-0.3,56.6,0.5c1.4,0.1,2.8,0.2,4.2,0.2c0.8,0,1.7-0.5,1.4-1.6c-1.9-7.5-2.5-15.2-3.8-22.8
	c-2.5-14.3-4.3-28.7-5.9-43.1c-0.9-7.9-1.2-15.8-0.8-23.7c0.5-12.7,1.2-25.3,1.9-38c0.3-4.7,0.8-9.4,1.3-14.8c1.6,2.1,2.9,3.6,4,5.1
	c11.9,16,24.4,31.6,35.9,47.9c1.2,1.7,1.8,1.7,3-0.1c1.4-2,3.2-3.7,5-5.3c1.9-1.7,3.6-3.5,5.2-5.5c0.2-0.3,0.4-0.5,0.7-0.8
	c0.7-0.8,1.5-1.5,2.4-2.2c3-2.6,6.1-5,9.1-7.5c1.6-1.4,3-3,4.8-4.1C338.9,207.4,338.9,207.4,336.6,205.4z M314.6,188.5
	c3.3,3,6.7,5.9,10,8.9c1.1,1,0.7,2-0.2,2.9c-2.2,2.2-4.4,4.4-6.6,6.5c-1.7,1.6-3.6,3.1-5.8,4.9c-4.1-4.6-8.1-8.9-12.1-13.4
	c2-2.9,5.2-4.4,7.5-6.8c1-1.1,2.4-1.8,3.4-3C312.2,186.9,313.3,187.2,314.6,188.5z M292.9,169.3c5.7,5,11.4,10,17.1,15
	c0.9,0.8,1,1.5,0,2.4c-3.7,3.2-7.3,6.5-11.2,9.9c-6.2-6.2-11.6-12.7-17.5-19.3c3.2-2.9,6.3-5.7,9.5-8.4
	C291.4,168.3,292.2,168.7,292.9,169.3z M290.1,166.9c-3,2.7-5.8,5.2-8.4,7.6c-1.1,1-2,1.2-3.1-0.1c-3.7-4.2-7.5-8.4-11.3-12.5
	c-1.2-1.3-0.9-2.2,0.2-3.1c2.1-1.8,4.3-3.6,6.5-5.5C279.5,157.2,284.2,162.3,290.1,166.9z M257.3,138.3c5.1,4.5,9.9,8.8,14.7,13
	c-1.8,3.1-4.8,4.8-7,7.2c-1.4-0.2-1.9-1.2-2.7-2c-3.1-3.5-6.2-6.9-9.2-10.4c-1.9-2.2-1.8-2.3,0.5-4.3
	C254.8,140.8,256.5,140.3,257.3,138.3z M247.6,129.9c2.7,2.4,5.5,4.8,8.4,7.3c-2,1.8-3.8,3.5-5.9,5.4c-3.8-4.1-7.5-8.1-11.2-12.1
	C243.2,126,243.2,126,247.6,129.9z M235.2,119.5c1.1,0.9,2.1,1.7,3.2,2.5c1,0.8,1.9,1.7,3.2,2.9c-1.7,1.3-2.6,3.9-4.3,3.3
	c-1.8-0.6-3-2.8-4.4-4.4c-0.5-0.6-0.3-1.3,0.3-1.9C233.8,121.1,234.4,120.4,235.2,119.5z M241.3,106.9c-2.3,1.8-4.6,3.6-6.9,5.4
	c-2.9-2.5-3.1-2.6-0.5-5.1c2.8-2.8,5.3-5.8,7.8-8.8c1-1.2,1.9-1.5,3.1-0.4c1.1,1,2.3,2,3.8,3.3C246.1,103.7,243.6,105.1,241.3,106.9
	z M258.7,94.1c-0.4,0.3-1.5,1.1-3,2.3c-5,4-5,4-10,0.3c-1.3-1-1.2-1.7-0.3-2.7c2.8-3.3,5.7-6.6,8.7-10.2c2,1.8,3.7,3.3,5.4,4.7
	c0.1,0,0.4,0.6,0.9,1.3c0.5,0.7,0.9,1.3,1.2,1.7C260.9,92.2,259.9,93.1,258.7,94.1z M264.6,88.7c-0.9,0.9-1.7,0.7-2.5-0.1
	c-2-2.2-4.5-3.8-6.8-5.8c2-3.4,4.9-5.9,7.3-8.8c0.7-0.9,1.4-0.4,2.1,0.2c2.7,2.2,5.8,3.9,7.8,7.4C270.1,84.3,267.1,86.2,264.6,88.7z
	 M286.4,69c-3.4,3.1-6.9,6.2-10.3,9.4c-1.3,1.2-2.2,1.2-3.5,0c-2.1-1.9-4.3-3.6-6.6-5.3c-1.1-0.8-1.5-1.5-0.4-2.7
	c3.3-3.7,6.4-7.5,9.6-11.2c0.5-0.6,1-0.9,2.1-0.5c0.7,0.6,1.6,1.3,2.4,2c2.1,1.6,4.2,3.3,6.4,4.9C287.5,66.6,287.8,67.7,286.4,69z
	 M294.7,36.3c1-1,1.7-1.2,2.8-0.4c4.2,2.8,8.5,5.6,12.7,8.3c1.6,1,1.5,2.2,0.3,3.4c-2.5,2.3-5,4.6-7.5,6.8c-0.6,0.6-1.4,1.2-2.2,0.3
	c-3.7-4.1-8.5-6.9-12.5-10.9C290.6,41.3,292.4,38.6,294.7,36.3z M287.2,45.2c3.9,4.5,9.1,7,13,11.6c-3.3,3-6.5,5.8-9.7,8.6
	c-0.5,0.5-1.1,0.6-1.8,0c-3.4-3.1-7.4-5.5-10.8-9C280.5,52.6,283.7,49.2,287.2,45.2z M265.3,42.8c1.7-3.3,4.5-6.1,5.6-9.7
	c4.7,2.5,8.4,6.1,12.3,9.3c2.3,1.8,2.2,2,0.3,4.2c-1.9,2.2-3.9,4.4-5.6,6.8c-1,1.3-1.7,1.7-3,0.6c-3-2.5-6-5-9.1-7.6
	C264.7,45.4,264.5,44.5,265.3,42.8z M263.3,46.9c4.2,2.5,7.3,6,10.9,8.9c0.9,0.8,0.3,1.4-0.3,2.1c-3.4,4.1-6.9,8.1-10.5,12.4
	c-3.1-2.6-6-4.9-9.1-7.4C257.8,57.8,260.6,52.6,263.3,46.9z M250,72.6c1.2-2.3,2.2-4.8,3.5-7.7c2.6,2,4.8,3.7,6.9,5.4
	c1.3,1,1.8,1.9,0.4,3.4c-1.9,1.9-3.6,3.9-5.1,6.1c-1.3,1.8-2.4,1.5-3.6,0.1c-0.5-0.5-1-0.9-1.5-1.5C248.2,75.8,248.3,75.9,250,72.6z
	 M240.3,89.6c2.2-3.6,4.3-7.2,6.6-11c6.6,3.8,6.6,3.8,1.9,9.3c-1.4,1.6-2.8,3.2-4,4.9c-0.9,1.2-1.6,1.7-3,0.5
	C240.4,92.2,239.1,91.5,240.3,89.6z M238.4,93.1c1.6,0.6,2.5,1.6,3.2,2.9c-3.2,4.3-6.9,8-11.1,11.3
	C233.2,102.6,235.8,97.9,238.4,93.1z M217.1,93c2.2-3.4,4.4-6.9,6.6-10.3c1.1-1.7,2.2-3.5,3.6-5.7c1.6,5.8,6.2,9.1,8.5,13.9
	c0.7,1.4,0.7,2.1,0.1,3.3c-2.1,3.7-4.2,7.4-6.3,11c-0.5,0.9-0.6,2.6-2.1,2.3c-1.6-0.3-3.5,0-4.6-1.5c-2.2-3.1-4.2-6.3-6.3-9.5
	C215.7,95.1,216.4,94.1,217.1,93z M206.1,83.1c3.1,3.6,5.2,7.7,7.8,11.5c0.7,1,0.3,1.9-0.5,2.6c-1.5,1.3-2.9,2.6-4.5,4
	c-3.3-3.6-6.4-7.1-9.6-10.5c-1.1-1.1-0.6-1.7,0.2-2.8C201.2,85.6,204.1,85.2,206.1,83.1z M197.2,69.5c2,0.8,2,3.5,4.1,4
	c-0.3,2.1,1.3,3.1,2.3,4.5c1.6,2.3,1.6,2.7-0.5,4.5c-1.9,1.6-3.8,4.2-6,4.4c-2.4,0.3-3.5-3.2-5.2-5c-4.3-4.4-4.2-4.5,0.5-8.5
	C194,72,195.6,70.7,197.2,69.5z M194.2,64.2c0.5,0.8,0.9,1.7,1.9,1.9c-0.1,1.6-1.1,2.7-2.2,3.8c-2.2,2.1-4.6,4.1-7,6.3
	c-3.9-4.4-7.7-8.7-11.6-13.1c3.7-3.5,7.3-6.8,11.4-9.7C189.2,57.1,191.7,60.6,194.2,64.2z M178.3,40.5c1.9,2.9,3.8,5.9,5.9,8.7
	c1,1.4,0.9,2.6-0.3,3.7c-2.9,2.6-5.9,5.2-8.9,7.8c-1.1,0.9-1.8,0.2-2.5-0.6c-2.7-3-5.3-6.1-8.1-9.4c3.8-3.6,7.5-7,11.2-10.5
	C176.6,39.4,177.5,39.2,178.3,40.5z M174.7,35.2c1,1.4,0.6,2.6-0.4,3.8c-3,3.5-6.8,6.3-10.1,9.5c-0.5,0.5-1.2,0.6-1.8,0
	c-2.4-2.7-5.1-5.2-7-8.5c5.3-3.3,9-8.4,14.7-11.5C172.1,30.5,173.1,33,174.7,35.2z M163.7,18.6c0.1,0.2,0.3,0.5,0.5,0.7
	c5,6.8,5,6.8-1.3,12.4c-2.3,2.1-4.9,3.8-7.2,5.8c-1.1,0.9-2,1.1-2.9,0c-1.8-2.5-4.6-4.2-6.3-7.4c5-4,10-7.6,14.5-11.9
	C161.9,17.4,162.9,17.2,163.7,18.6z M154.4,9.8c1.2-1.1,2.4-1,3.6,0.5c2.8,3.9,2.6,6.4-1.2,9.5c-3.7,3.1-7.4,6.1-11.5,9.4
	c-2.1-2.5-4-4.7-5.9-7C144.1,17.5,149.5,14,154.4,9.8z M120.3,37.6c5.3-4.4,10.3-8.4,15.2-12.6c1.2-1,1.6-0.5,2.7,0.1
	c2.1,1.2,3.3,3.4,5.6,4.9c-5.1,5-10.9,8.8-16,13.6C125.5,41.8,123.2,39.9,120.3,37.6z M135.7,50.4c-2-2-4.3-3.6-6.5-5.5
	c5.1-4.5,10.1-9,15.7-13.3c2.2,2.4,4.4,4.7,6.6,7c1,1.1,0.8,1.9-0.3,2.8c-3.7,3-7.5,6-11.1,9.1C138.4,51.8,137.2,52,135.7,50.4z
	 M147.4,59.9c-2.5-2-5-4-7.9-6.3c4.7-4.4,9.3-8.5,14.3-12.1c2.9,2.6,5.2,5.6,7.7,8.8c-3.9,3.2-7.7,6.3-11.4,9.5
	C149.1,60.6,148.3,60.7,147.4,59.9z M159.1,69.8c-2.8-2.3-5.6-4.7-8.4-7c-0.1-0.1-0.1-0.2-0.3-0.6c3.4-3,6.6-5.9,10-8.7
	c2.2-1.8,2.6-1.7,4.5,0.4c2.6,2.8,4.6,6,7.7,8.5c-2.8,2.6-5.4,5.1-8.1,7.5C162,71.9,161.5,71.8,159.1,69.8z M175,83.2
	c-3.3-2.8-6.6-5.6-10-8.4c-1.3-1-1.4-1.9-0.2-3c2.8-2.7,5.7-5.3,9.1-7.8c4.1,4.7,7.9,9,12,13.5c-2.7,2.2-5.1,4.2-7.9,5.8
	C176.8,84,176,84.1,175,83.2z M184.5,91.1c-1.9-1.6-3.9-3.2-6.1-5c2.2-2.5,4.8-4,7.1-5.9c1.1-0.9,1.8-0.9,2.8,0.3
	c1.8,2.2,3.8,4.2,5.5,6.3c1.7,2.1,1.6,2.2-0.6,4c-0.2,0.2-0.5,0.3-0.7,0.5C188.4,94.3,188.4,94.3,184.5,91.1z M198.6,103.1
	c-2.2-1.8-4.2-3.7-6.4-5.5c-1-0.9-1.4-1.7-0.3-2.8c0.4-0.4,0.7-0.8,1.1-1.3c3.2-3.5,3.5-3.4,6.7,0.1c2.5,2.8,5.1,5.6,7.4,8.8
	c-0.2,0.4-0.2,0.5-0.3,0.6C202.6,106.4,202.5,106.4,198.6,103.1z M208.6,111.8c-0.1-0.2-0.4-0.4-0.6-0.6c-4-3.8-4-3.8,1-7
	c1.8,2.2,3.5,4.3,5.1,6.4c1,1.3,0.7,2.5-0.8,2.6C211.7,113.3,209.7,114.1,208.6,111.8z M203,127.4c2.3-2,4.4-3.9,6.5-5.7
	c3.1-2.8,3.1-2.8,6.3,0.3c-2.5,3-5,5.9-7.6,8.8c-0.6,0.6-1.3,1.3-2.2,0.9c-0.4-0.2-0.7-0.5-0.9-0.8c-0.1-0.2-0.2-0.3-0.4-0.4
	c-0.1-0.1-0.3-0.2-0.5-0.2C203.2,129.9,201.2,128.2,203,127.4z M193.1,136.8c5.7-6.6,3.3-3.1,6.4-6c1.1-1,2-1.5,3,0
	c0.7,1,2.2,1.3,2.7,3c-3.2,3.6-6.5,7.4-9.8,11.2c-0.8,0.9-1.6,1.1-2.4,0.1c-1.1-1.2-2.1-2-2.5-2.5c-0.2-0.3-0.8-0.9-1.1-1.2
	C190.8,139.5,192.1,137.9,193.1,136.8z M175.9,152.2c1.9-1.7,3.8-3.3,5.7-5c1.9-1.7,3.8-3.3,5.8-5.2c1.9,1.7,3.8,3.3,5.9,5.1
	c-4.5,5.1-9,9.9-13.4,14.9c-0.9,1-1.8,1.2-2.9,0.3c-0.2-0.2-0.4-0.4-0.6-0.5C170.5,157.3,170.5,157.3,175.9,152.2z M166.3,161
	c0.6-0.6,1.3-1.1,1.9-1.7c1.1-1,2-1.1,3.3-0.1c6.6,4.7,6.6,4.8,1.1,10.8c-3.6,3.9-7.1,8-10.9,12.2c-2-1.7-4-3.2-5.7-5.1
	c-1.2-1.3-2.5-2-4.1-2.5C156.8,170.1,161.7,165.8,166.3,161z M151.8,174.7c0.2,1.6,1.2,2.6,2.4,3.6c2.1,1.6,4.1,3.3,6.3,5.2
	c-6.3,7-12.4,13.8-18.5,20.6c-0.9,1-1.4,0.9-2.4,0.1c-3.4-2.9-7-5.6-10.2-9C136.8,188,144.2,181.3,151.8,174.7z M112.6,210.8
	c4.5-4.2,9.1-8.4,13.5-12.7c1.6-1.5,2.5-1.6,4.1,0c2.9,2.9,6.1,5.4,9.5,8.2c-5.3,5.9-10.4,11.5-15.5,17.2c-1,1.1-1.8,0.9-2.8,0
	c-2.9-2.8-6-5.5-8.9-8.4C110.4,213,110.5,212.7,112.6,210.8z M108.4,239c-4.4-4.1-9.4-7.4-13.8-11.8c4.8-4.4,9.4-8.7,14.2-13.2
	c4.3,3.9,8.6,7.8,13.2,11.9c-3.9,4.4-7.7,8.6-11.5,12.8C109.9,239.3,109.3,239.8,108.4,239z M128,254.9c-5.4-3.5-10.1-7.9-14.8-12.3
	c-1.1-1.1-1.4-2.9,0-4.5c3-3.3,6-6.7,8.9-10c0.6-0.7,1.2-1,2.1-0.2c4.5,4.2,9.1,8.3,13.7,12.4C134.8,245.5,130.5,249.5,128,254.9z
	 M152.8,221.2c-3.1,3.7-5.8,7.6-8.3,11.6c-0.4,0.6-0.8,1.2-1.2,1.7c-3.3,4.1-4.1,4.3-8,0.9c-3.6-3.1-7.2-6.2-11-9.6
	c5.3-5.8,10.4-11.3,15.6-16.9c0.7-0.7,1.3-1.5,2.4-0.5c3.5,3.1,6.9,6.1,10.4,9.2C153.9,218.8,153.9,219.8,152.8,221.2z M170.8,195.7
	c-3.2,4.4-6.4,8.9-9.6,13.4c-1.5,2.1-2.9,4.2-4.3,6.2c-1,1.4-2.1,1.9-3.5,0.7c-3.7-3.2-7.6-6.2-11.1-9.7c6.1-6.8,12-13.4,17.8-20
	c1.2-1.4,2.1-1.4,3.4-0.1c2.1,2,4.4,4,6.8,5.7C171.9,193,172,194.1,170.8,195.7z M185.8,174.8c-3.6,5-7.2,10-10.8,15
	c-1.4,1.9-2.5,2-4.2,0.5c-2.6-2.3-5.2-4.7-7.9-7.2c5.3-5.8,10.5-11.6,15.8-17.5c2.4,2,4.4,4,6.7,5.7
	C187,172.5,186.8,173.5,185.8,174.8z M196.5,159.7c-2.3,3.2-4.5,6.4-6.8,9.6c-1.6,2.2-1.7,2.2-3.9,0.4c-1.5-1.2-2.9-2.6-4.5-3.8
	c-1.1-0.9-1.1-1.8-0.2-2.8c4.5-4.8,8.9-9.7,13.3-14.5C201,153.3,201,153.3,196.5,159.7z M208,143.4c-1.5,2-2.9,4.1-4.5,6.1
	c-1.7,2.1-2.4,2.2-4.5,0.7c-0.8-0.6-1.5-1.3-2.2-1.9c-1-0.8-1-1.5-0.2-2.4c3.3-3.6,6.5-7.3,9.9-11.2
	C211.6,138.7,211.6,138.7,208,143.4z M212.5,137.2c-1.7-1.3-3.3-2.3-4.4-3.9c2.3-2.5,4.5-5.1,6.8-7.5c2.3-2.4,2.3-2.4,5.2-0.6
	c0.4,0.2,0.7,0.5,1.3,0.9C218.5,129.7,215.7,133.3,212.5,137.2z M218.2,121.4c-4-3.4-4.2-6.7-0.4-10.5c0.6-0.6,1.3-1,2.1-1.4
	c0.3-0.2,0.8-0.3,0.6-0.8c-0.3-0.5-0.7-1-1.3-0.6c-0.8,0.5-1.6,1.2-2.6,1.9c-1.9-2-3.6-3.9-5.4-5.7c-0.9-0.9-0.9-1.7,0-2.5
	c1.4-1.4,2.4-3.2,4.6-3.7c1.6,2,3,4.1,4,6.4c1,2.2,2.3,3.4,4.9,3.8c3.8,0.6,6.9,2.7,8.8,6.3c0.6,1.2,0.6,2.2-0.1,3.5
	C229.6,124.6,224.4,126.7,218.2,121.4z M226.9,127.5c0.2-0.4,0.2-0.8,0.4-0.9c3.4-2.2,3.2-3.3,6.5,0.9c0.7,0.9,1.7,1.5,2,2.8
	c-1.2,1.1-2.4,2.2-3.9,3.5C230.2,131.7,228.6,129.6,226.9,127.5z M243.5,148.5c-3.8-3.6-6.6-7.8-9.6-11.9c-1.2-1.6,0.2-2.3,1-3.1
	c2.2-2.2,2.5-2.3,4.7,0.1c3,3.3,6,6.7,9,10.1C247.1,145.7,245.2,146.9,243.5,148.5z M256.3,165.5c-3.6-4.6-7.3-9.4-11-14.2
	c-0.6-0.8-0.6-1.3,0.1-2.2c3.8-4.5,4.2-4.6,8.1-0.2c3.2,3.6,6.3,7.1,9.8,11c-1.8,1.7-3.4,3.1-4.9,4.5
	C257.8,165,257.3,165.5,256.3,165.5z M258.9,169c-0.7-1-0.8-1.8,0.1-2.6c1.8-1.6,3.1-4.3,5.3-4.5c1.8-0.2,3.1,2.4,4.5,4
	c2.9,3.1,5.6,6.3,8.4,9.4c1.2,1.3,1.3,2.2-0.1,3.4c-2.2,1.7-4.2,3.7-6.3,5.6C266.1,179.3,262.6,174,258.9,169z M285.9,204.9
	c-4.3-5.7-8.6-11.4-13-17.1c-0.9-1.2-1.1-2.2,0.1-3.3c2.2-1.9,4.3-3.9,6.7-6.1c5.9,6.6,11.7,12.9,17.5,19.4c-2.8,2.6-5.4,4.9-8,7.3
	C288,206.3,287.1,206.5,285.9,204.9z M289.8,209.8c-0.9-1.1-0.7-2.1,0.2-3c2.3-2.2,4.7-4.4,7.1-6.7c1.2-1.1,2-0.4,2.8,0.5
	c3.6,4,7.2,7.9,10.8,11.9c-3.3,4-7.4,6.6-11.5,9.6C296.1,218.1,292.9,213.9,289.8,209.8z M317.6,223.1c-3.4,3.1-6.4,6.7-10.3,9.5
	c-2.6-2.5-4.5-5.5-6.2-8.5c3-3.9,7.1-6.5,10.8-10.1c2.1,2.3,3.8,4.3,5.6,6.3C318.4,221.2,318.8,222.1,317.6,223.1z M323,218
	c-1,0.9-2.3,0.1-3.4,1.2c-0.6,0.6-1.3-1.1-2.1-1.7c-0.7-0.6-1.4-1.4-2-2.1c-2.4-2.6-2.4-2.6,0.1-4.8c3.6-3.1,7.1-6.2,10.6-9.4
	c0.9-0.8,1.5-0.9,2.5-0.1c2.1,1.8,4.3,3.6,6.6,5.5C331.5,211.3,326.9,214.3,323,218z"/>
<path class="st2" d="M215.1,240c2.4-1.7,1.9-3.8,1.6-5.9c-0.8-5.8,0.1-11.8-1.8-17.5c-0.4-1.1,0.3-1.8,1.1-2.5
	c2.4-2.3,3.8-5.2,5.5-8c1-1.7,1.1-3-0.4-4.5c-2.3-2.3-4.4-4.8-6.5-7.2c-0.6-0.7-1-1.7,0-2.1c3.9-1.4,5-5,6.6-8.2
	c0.3-0.5,0.3-1.1,0.7-1.5c0.6-0.7,1.6-1,2.1,0c1.7,3.9,3.9,7.5,6.7,10.7c0.8,0.9,0.1,1.8-0.5,2.6c-1.5,1.9-2.8,3.9-3.9,6
	c-1.5,3.2-1,4.4,2.3,6.2c0.2,0.1,0.5,0.2,0.7,0.4c-1.6,3,2.2,3.9,2.3,6.3c0.4,5.2,1.1,10.3,0.7,15.5c-0.2,2-1,4.1,0.8,6
	c0.7,0.7-0.2,1.7-1,2c-0.9,0.3-1.9,0.4-2.9,0.4C224.5,238.9,219.9,238.2,215.1,240z M223.6,201.2c1.9-1.8,2.5-4.2,3.9-6.1
	c0.6-0.8,0.4-1.5-0.2-2.3c-1.5-2.1-2.9-4.3-4.3-7.4c-1.6,3.1-3,5.2-4.7,7.3c-0.8,1-1,1.8,0.1,2.9
	C220.1,197.3,221.6,199.1,223.6,201.2z M223.5,229.7c0.5-0.7,1-1.3,1.5-2c0.2-0.2,0.3-0.5,0.4-0.7c0.4-1.3-0.5-2.1-1.4-2.7
	c-1-0.7-1.4,0.4-1.9,1C220.7,227.2,220.7,227.2,223.5,229.7z M226.8,233.9c2.3-3,2.3-3,0.3-5.6C223.9,231.4,223.9,231.4,226.8,233.9
	z M221.4,216.3c0.5-1.3,2.6-2.3,0.7-3.9c-0.9-0.7-1.7-0.7-2.5,0.3C218.1,214.7,220.1,215.2,221.4,216.3z M219.5,225.3
	c0.6,0,1-0.4,1.2-1c0.4-1.1,2-1.8,1-3.3c-0.1-0.2-0.5-0.4-0.7-0.3c-1.6,0.5-1.9,1.8-2.2,3.2C218.7,224.4,218.9,225,219.5,225.3z
	 M220.8,236.5c1.5,0.1,2.8,0.7,4.3-0.4c-0.4-1-0.7-2.4-1.9-2.4C221.7,233.6,221.4,235,220.8,236.5z M228.2,222.8
	c0-0.8-0.4-1.8-1.4-2.5c-0.8-0.5-1.4,0.1-1.6,0.8c-0.3,1.2,0.4,2.2,1.5,2.7C227.3,224.2,227.8,223.8,228.2,222.8z M225.8,210.7
	c0.1-1-0.7-1.7-1.2-2.5c-0.5-0.8-1.1-1.4-1.9-0.4c-0.6,0.7-1,1.5,0.1,2.1c0.9,0.5,1.3,2,2.8,1.2
	C225.6,211.1,225.7,210.9,225.8,210.7z M219.7,229.3c-0.7,2.9-0.7,2.9,0.2,4.8C221.7,231.4,221.7,231.4,219.7,229.3z M224.1,216.3
	c-1.1,0.7-2,1.4-1.1,2.9c0.2,0.2,0.9,0.4,1.1,0.3C225.4,218.5,225.1,217.4,224.1,216.3z M218.5,219.7c0.7-0.1,1-0.5,1.1-1
	c0.1-0.8-0.3-1.3-1-1.6c-0.4-0.2-0.8,0.1-0.8,0.6C217.9,218.4,217.4,219.3,218.5,219.7z M227.8,214.6c0.1-0.7,0.1-1.4-0.6-1.8
	c-0.7-0.4-1,0.3-1.2,0.7c-0.3,0.7-0.1,1.4,0.6,1.8C227.4,215.7,227.4,214.9,227.8,214.6z M230.1,226.6c0-0.5,0.3-1.2-0.3-1.5
	c-0.5-0.2-1.1,0.2-1.2,0.8c-0.1,0.6,0.1,1.1,0.6,1.4C229.7,227.5,229.9,227,230.1,226.6z M229,216.3c-0.3,0.3-0.6,0.5-0.8,0.8
	c-0.3,0.7,0,1.3,0.7,1.7c0.2,0.1,0.6-0.1,0.7-0.2C229.8,217.9,229.7,217.2,229,216.3z M229.5,235.4c0-0.3,0.1-0.8-0.4-0.9
	c-0.7-0.1-0.9,0.5-1,1c0,0.4,0.2,0.8,0.7,0.8C229.3,236.3,229.5,235.9,229.5,235.4z"/>
<path class="st2" d="M194.1,242.3c-1-0.7-0.8-1.5-0.8-2.2c0.2-5-0.8-9.8-1.6-14.6c-0.5-2.6-0.6-5.3-2.4-7.5c-0.8-1-0.5-1.8,0.5-2.4
	c3-2.1,4.1-5.6,6-8.5c0.8-1.3,0.6-2.4-0.6-3.3c-0.8-0.6-1.5-1.3-2.3-1.9c-3.2-2.3-3.4-2.4-1.4-5.4c2.5-3.8,3.4-8.3,5.2-12.5
	c0.3-0.8,0.4-1.8,1.5-1.7c1.1,0.1,1.1,1.1,1.2,1.9c0.6,3.2,2.7,5.7,4.9,7.7c1.7,1.6,1.3,2.5,0.1,3.7c-1.9,2.1-3,4.7-4.1,7.3
	c-0.6,1.5-0.6,2.9,0.4,4.4c2.1,3.2,4,6.4,5.9,9.7c1.1,1.9,0.5,4.1,0.5,6c-0.1,4.8-0.1,9.6-0.3,14.3c-0.1,4.4-0.6,4.3-4.4,4.1
	C199.5,241.2,196.5,240.5,194.1,242.3z M197.9,187.5c-1.3,2.9-2.2,5.4-3.4,7.8c-1.9,3.9-1.9,3.8,1.7,6.3c0.5,0.3,0.8,0.8,1.7,0.4
	c0.8-1.7,1.6-3.6,2.7-5.4c2.4-3.7,1.9-3.4-0.8-6.8C199.4,189.1,198.8,188.6,197.9,187.5z M195.3,231c2.8-4.5,2.8-5.2-0.1-7.5
	C193.5,226.1,194.2,228.5,195.3,231z M200,234.5c-0.1,0.3-0.1,0.5-0.2,0.8c-0.2,0.8-0.5,1.8,0.5,2.2c1.4,0.5,1.4-0.9,1.8-1.6
	c0.1-0.1,0.1-0.3,0.1-0.4c0.5-1.2,0.9-2.8-0.5-3.3C200.3,231.7,200.5,233.6,200,234.5z M194.9,218.3c0.8-1.3,1.3-2.5,1.1-3.7
	c-0.1-0.4-0.5-0.9-1-1.2c-0.6-0.4-1,0.2-1.3,0.6C192.3,215.6,192.3,215.9,194.9,218.3z M200.1,209.9c-0.7,1.7-1.4,2.9-1.5,4.3
	c0,0.7,0.4,1.4,1.1,1.6c0.6,0.2,0.8-0.6,1.1-1C202,213.1,201.5,211.7,200.1,209.9z M203,215.5c-1.1,1.6-1.9,2.6-0.9,3.9
	c0.4,0.5,0.7,1.2,1.6,0.8c0.8-0.4,0.9-1,0.6-1.7C204.1,217.7,203.6,216.8,203,215.5z M198,222.6c1.5-3.2,1.5-3.2-0.6-4.9
	C196.4,219.5,195.3,221.3,198,222.6z M200.8,221.7c-0.7,1.4-1.2,2.6-1,3.8c0.1,0.3,0.5,0.6,0.8,0.8c0.1,0.1,0.6-0.1,0.7-0.2
	C201.8,224.7,203.4,223.2,200.8,221.7z M197.7,233.7c2.3-3,2.3-3.2,1.3-5.7C198.2,229.9,197.5,231.6,197.7,233.7z M204.5,225.4
	c-2.2,3.4-2.2,3.4,0,5.6C204.5,229.3,204.5,227.8,204.5,225.4z M198.4,207.7c-1.3,1-2.2,1.7-1.5,3.4
	C198,210.3,198.3,209.3,198.4,207.7z M204.2,237c-0.7-0.1-1,0.4-1.3,0.9c-0.2,0.4-0.3,0.8,0.1,1.1c0.6,0.4,1.1,0.1,1.3-0.5
	C204.5,238,204.6,237.5,204.2,237z M197.4,237.2c0.1-0.2-0.3-0.5-0.6-0.6c-0.4-0.2-0.8,0-0.9,0.5c-0.1,0.6,0,1.1,0.7,1.2
	C197.1,238.3,197.3,237.9,197.4,237.2z"/>
<path class="st2" d="M248.6,180.1c0.7,0.3,0.9,1,1.2,1.7c1.6,2.9,2.6,6.2,4.7,9c0.9,1.2,0.1,2-0.6,3c-2,2.4-3.4,5.1-4.5,8.1
	c-0.5,1.3-0.7,2.6,0.1,3.6c2,2.7,2.5,6.3,5.1,8.6c0.6,0.5,0.7,1.1,0.7,1.8c-0.6,6.6-0.9,13.2-0.7,19.8c0.1,2.2-1.3,2.6-3.1,2.5
	c-3.7-0.3-7.3,0.1-10.9,0.9c-1.5,0.3-3.2-1.9-3.3-4.3c-0.2-3.8-0.2-7.6-0.3-11.4c0-0.6,0.2-1.2,0-1.7c-1.8-5.1,1.1-8,4.5-11.3
	c7.1-7,6.2-7.8,0.3-15.4c-0.4-0.6-0.9-1.1-1.4-1.6c-1.3-1.3-1.2-2.7,0.1-3.7c3-2.2,4.7-5.1,6.3-8.3
	C247.1,180.6,247.5,179.8,248.6,180.1z M247.7,199.1c1.9-2.1,2.9-4.3,4.2-6.3c0.3-0.5,0.6-1,0.3-1.6c-1.5-2.4-2.2-5.3-4.3-7.6
	c-1.4,2.7-2.9,4.9-4.8,6.8c-0.8,0.8-1.2,1.7-0.2,2.5C244.8,194.5,245.7,197,247.7,199.1z M247.3,228.7c5.1-3.9,5.1-3.9,3-7.4
	C244.7,225.2,245.6,224,247.3,228.7z M245.5,209.8c-4.5,2.8-4.7,3.3-2.5,7.2C247,214,247,214,245.5,209.8z M247.5,215.5
	c-4,4-4,4-2.2,6.9C249.4,219.9,250.6,218.8,247.5,215.5z M251.8,227.7c-0.7,0.6-1.2,1-1.6,1.3c-2.1,2.1-2.2,3.8-0.3,6.1
	c0.4,0.5,0.9,0.8,1.5,0.5c0.3-0.2,0.7-0.7,0.7-1C251.6,232.4,252.9,230.2,251.8,227.7z M242.9,233c2.6-2.1,2.6-2.1,1.9-4
	c-0.3-0.8-0.4-2.2-1.7-1.8c-1.2,0.4-2.2,1.4-1.6,2.9C241.8,231,242.3,231.8,242.9,233z M241.7,221.7c-2.9,2.7-2.9,2.7-1.7,5.5
	C243.1,224.5,243.1,224.5,241.7,221.7z M248.9,211.6c1.5-1.8-0.3-3-0.7-4.4c-0.1-0.2-0.7-0.5-1-0.4c-0.6,0.2-0.8,1-0.4,1.3
	C247.9,209,247.5,210.8,248.9,211.6z M239.2,215.1c-0.5,2.4-0.3,4,0.3,5.9C241.7,218.9,240.8,217.3,239.2,215.1z M252.4,216.2
	c0.2-0.8-0.2-1.4-0.6-1.9c-0.4-0.5-0.6-1.5-1.5-0.8c-0.5,0.4-0.5,1-0.3,1.5c0.3,0.6,0.6,1.3,1.1,1.7
	C251.6,217.1,252.2,216.9,252.4,216.2z M240.2,236.1c1.4-1.9,0.5-3.1-0.2-5.4C239.3,233,239.2,234.2,240.2,236.1z M244.9,235.9
	c0.8,0.2,1.6-0.1,1.9-0.7c0.3-0.6,0-1.6-0.6-1.9c-1-0.5-1.4,0.4-1.8,1.2C244.2,235.1,244.2,235.7,244.9,235.9z"/>
<path class="st2" d="M296.9,172.9c0.7,0,1.5,0,2.2,0c3.1,0,6.1,0,9.2,0c0.5,0,1-0.5,0.8-1c-2-6.5-7.1-11.3-11.4-16.3
	c-5.4-6.2-10.8-12.4-16.3-18.6c-10.2-11.7-20.2-23.7-30.9-34.9c-0.6-0.7-1.3-1.3-1.9-2c-0.3-0.3-0.7,0.1-0.4,0.4
	c0.5,0.7,1.1,1.4,1.7,2.1c9.3,11.6,19.4,22.7,29.2,33.9c5.1,5.9,10.2,11.7,15.3,17.5c4.5,5.2,10.5,10.5,12.9,17.2c-3.3,0-6.7,0-10,0
	c-0.7,0-1.5,0-2.2,0L296.9,172.9z"/>
<g>
	<path class="st0" d="M207.1,102.5C207.1,102.5,207.1,102.5,207.1,102.5c0-0.1,0-0.1,0-0.1V102.5z"/>
	<path class="st0" d="M207.1,113.1h0.5c-0.2-0.2-0.3-0.3-0.5-0.5V113.1z"/>
	<path class="st0" d="M241.6,98.4c-2.5,3-4.9,6.1-7.8,8.8c-2.5,2.5-2.4,2.6,0.5,5.1c2.3-1.8,4.6-3.7,6.9-5.4
		c2.3-1.7,4.9-3.2,7.2-5.6c-1.5-1.3-2.6-2.2-3.8-3.3C243.5,96.8,242.6,97.2,241.6,98.4z"/>
	<path class="st0" d="M211.1,101.8c-0.9,0.8-0.9,1.6,0,2.5c1.8,1.8,3.5,3.7,5.4,5.7c1-0.7,1.7-1.4,2.6-1.9c0.6-0.4,1.1,0.1,1.3,0.6
		c0.3,0.5-0.2,0.6-0.6,0.8c-0.7,0.4-1.5,0.8-2.1,1.4c-0.7,0.7-1.3,1.5-1.8,2.2l0.2,0.3c3.9,5.8,12.5,5.6,16.1-0.3l0,0
		c-1.9-2.6-4.6-4.3-7.8-4.7c-2.6-0.4-3.9-1.6-4.9-3.8c-1-2.3-2.4-4.4-4-6.4C213.5,98.6,212.5,100.4,211.1,101.8z"/>
	<path class="st0" d="M230.5,107.3c4.2-3.3,7.9-7.1,11.1-11.3c-0.7-1.3-1.6-2.3-3.2-2.9C235.8,97.9,233.2,102.6,230.5,107.3z"/>
	<path class="st0" d="M227.3,76.9c-1.4,2.3-2.5,4-3.6,5.7c-2.2,3.4-4.4,6.9-6.6,10.3c-0.7,1.1-1.4,2.1-0.5,3.5
		c2.1,3.1,4.1,6.4,6.3,9.5c1.1,1.5,3,1.1,4.6,1.5c1.5,0.3,1.5-1.4,2.1-2.3c2.1-3.6,4.2-7.3,6.3-11c0.7-1.2,0.6-1.9-0.1-3.3
		C233.5,86,228.8,82.7,227.3,76.9z"/>
</g>
<path class="st0" d="M227,192.4c-0.7,1.1-1.2,2.4-1.9,3.5c-0.6,1-2.1,1.1-2.9,0.2c-1.3-1.4-2.4-2.7-3.6-3.8
	c-0.1,0.1-0.2,0.3-0.3,0.4c-0.8,1-1,1.8,0.1,2.9c1.7,1.6,3.2,3.5,5.2,5.6c1.9-1.8,2.5-4.2,3.9-6.1c0.6-0.8,0.4-1.5-0.2-2.3
	C227.2,192.7,227.1,192.6,227,192.4z"/>
<path class="st0" d="M201.5,191.7c-0.3,0.5-0.6,1.1-1.2,2c-0.9,1.4-1.6,3-2.2,4.4c-0.4,0.8-1.4,1.1-2.2,0.6c0,0,0,0,0,0
	c-0.3-0.2-0.7-0.4-0.9-0.6c-0.9-0.6-2,0.4-1.5,1.3c0.4,0.6,1.2,1.2,2.8,2.2c0.5,0.3,0.8,0.8,1.7,0.4c0.8-1.7,1.6-3.6,2.7-5.4
	C202.5,193.8,202.7,193.3,201.5,191.7z"/>
<path class="st0" d="M251.9,190.8c-0.9,1.5-1.7,3-2.8,4.6c-0.6,0.8-1.7,0.8-2.3,0c-1.3-1.7-2.2-3.5-3.7-4.8c0,0,0,0-0.1-0.1
	c-0.7,0.8-1.1,1.6-0.1,2.4c2,1.6,2.9,4.1,4.9,6.2c1.9-2.1,2.9-4.3,4.2-6.3c0.3-0.5,0.6-1,0.3-1.6C252,191.1,252,191,251.9,190.8z"/>
</svg>
